<?xml version="1.0" encoding="UTF-8" standalone="no"?>
<!DOCTYPE svg PUBLIC "-//W3C//DTD SVG 1.1//EN"
 "http://www.w3.org/Graphics/SVG/1.1/DTD/svg11.dtd">
<!-- Generated by graphviz version 2.36.0 (20140111.2315)
 -->
<!-- Title: mygraph Pages: 1 -->
<svg width="431pt" height="323pt"
 viewBox="62.00 62.00 368.56 260.92" xmlns="http://www.w3.org/2000/svg" xmlns:xlink="http://www.w3.org/1999/xlink">
<g id="graph0" class="graph" transform="scale(0.861111 0.861111) rotate(0) translate(76 299)">
<title>mygraph</title>
<polygon fill="white" stroke="none" points="-4,4 -4,-227 352,-227 352,4 -4,4"/>
<g id="clust1" class="cluster"><title>cluster_UC20_</title>
<polygon fill="#ffffcc" stroke="black" points="8,-131 8,-215 313,-215 313,-131 8,-131"/>
</g>
<g id="clust2" class="cluster"><title>cluster_UC20_1a</title>
<polygon fill="#f2f2f2" stroke="black" points="118,-8 118,-130 348,-130 348,-8 118,-8"/>
<text text-anchor="start" x="126" y="-114.8" font-family="Arial" font-size="14.00" fill="gray">Variation: 1a.</text>
<text text-anchor="middle" x="233" y="-99.8" font-family="Arial" font-size="14.00" fill="gray"> Account has paid plan associat... </text>
</g>
<!-- UC201 -->
<g id="node1" class="node"><title>UC201</title>
<g id="a_node1"><a xlink:title="Application has not received any request for one 
		 &#160;hour and it has free plan associated.">
<path fill="#b3cde3" stroke="black" d="M45.6667,-161.5C45.6667,-161.5 102.333,-161.5 102.333,-161.5 106.167,-161.5 110,-165.333 110,-169.167 110,-169.167 110,-176.833 110,-176.833 110,-180.667 106.167,-184.5 102.333,-184.5 102.333,-184.5 45.6667,-184.5 45.6667,-184.5 41.8333,-184.5 38,-180.667 38,-176.833 38,-176.833 38,-169.167 38,-169.167 38,-165.333 41.8333,-161.5 45.6667,-161.5"/>
<text text-anchor="middle" x="55.5" y="-169.3" font-family="Arial" font-size="14.00"> </text>
<polyline fill="none" stroke="black" points="73,-161.5 73,-184.5 "/>
<text text-anchor="middle" x="91.5" y="-169.3" font-family="Arial" font-size="14.00">•</text>
</a>
</g>
<text text-anchor="middle" x="33.5" y="-149.8" font-family="Arial" font-size="14.00">1</text>
</g>
<!-- UC202 -->
<g id="node2" class="node"><title>UC202</title>
<g id="a_node2"><a xlink:title="System changes application state to suspended.
		 &#160;#(mark:app_suspended)">
<path fill="#b3cde3" stroke="black" d="M189.667,-161.5C189.667,-161.5 210.333,-161.5 210.333,-161.5 214.167,-161.5 218,-165.333 218,-169.167 218,-169.167 218,-176.833 218,-176.833 218,-180.667 214.167,-184.5 210.333,-184.5 210.333,-184.5 189.667,-184.5 189.667,-184.5 185.833,-184.5 182,-180.667 182,-176.833 182,-176.833 182,-169.167 182,-169.167 182,-165.333 185.833,-161.5 189.667,-161.5"/>
<text text-anchor="middle" x="200" y="-169.3" font-family="Arial" font-size="14.00">•</text>
</a>
</g>
<text text-anchor="middle" x="177.5" y="-149.8" font-family="Arial" font-size="14.00">2</text>
</g>
<!-- UC201&#45;&gt;UC202 -->
<g id="edge1" class="edge"><title>UC201:JMP&#45;&gt;UC202:JMP</title>
<g id="a_edge1"><a xlink:href="#UC20_1">
<path fill="none" stroke="black" d="M110,-173C130.574,-173 153.793,-173 171.494,-173"/>
<polygon fill="black" stroke="black" points="171.729,-176.5 181.728,-173 171.728,-169.5 171.729,-176.5"/>
</a>
</g>
</g>
<!-- UC201a1 -->
<g id="node4" class="node"><title>UC201a1</title>
<g id="a_node4"><a xlink:title="System will not suspend application #(guard:!free_plan)">
<path fill="#b3cde3" stroke="black" d="M189.667,-38.5C189.667,-38.5 210.333,-38.5 210.333,-38.5 214.167,-38.5 218,-42.3333 218,-46.1667 218,-46.1667 218,-53.8333 218,-53.8333 218,-57.6667 214.167,-61.5 210.333,-61.5 210.333,-61.5 189.667,-61.5 189.667,-61.5 185.833,-61.5 182,-57.6667 182,-53.8333 182,-53.8333 182,-46.1667 182,-46.1667 182,-42.3333 185.833,-38.5 189.667,-38.5"/>
<text text-anchor="middle" x="200" y="-46.3" font-family="Arial" font-size="14.00">•</text>
</a>
</g>
<text text-anchor="middle" x="169.5" y="-26.8" font-family="Arial" font-size="14.00">1a1</text>
</g>
<!-- UC201&#45;&gt;UC201a1 -->
<g id="edge3" class="edge"><title>UC201:VAR&#45;&gt;UC201a1:JMP</title>
<g id="a_edge3"><a xlink:href="#UC20_1">
<path fill="none" stroke="black" d="M55,-160C55,-101.764 130.155,-70.3667 172.251,-57.3478"/>
<polygon fill="black" stroke="black" points="173.325,-60.6801 181.929,-54.4975 171.347,-53.9653 173.325,-60.6801"/>
</a>
</g>
</g>
<!-- UC203 -->
<g id="node3" class="node"><title>UC203</title>
<g id="a_node3"><a xlink:title="Use case finishes.">
<path fill="#ccebc5" stroke="black" d="M254.667,-161.5C254.667,-161.5 275.333,-161.5 275.333,-161.5 279.167,-161.5 283,-165.333 283,-169.167 283,-169.167 283,-176.833 283,-176.833 283,-180.667 279.167,-184.5 275.333,-184.5 275.333,-184.5 254.667,-184.5 254.667,-184.5 250.833,-184.5 247,-180.667 247,-176.833 247,-176.833 247,-169.167 247,-169.167 247,-165.333 250.833,-161.5 254.667,-161.5"/>
<text text-anchor="middle" x="265" y="-169.3" font-family="Arial" font-size="14.00">•</text>
</a>
</g>
<text text-anchor="middle" x="242.5" y="-149.8" font-family="Arial" font-size="14.00">3</text>
</g>
<!-- UC202&#45;&gt;UC203 -->
<g id="edge2" class="edge"><title>UC202:JMP&#45;&gt;UC203:JMP</title>
<g id="a_edge2"><a xlink:href="#UC20_2">
<path fill="none" stroke="black" d="M218.106,-173C223.882,-173 230.417,-173 236.735,-173"/>
<polygon fill="black" stroke="black" points="236.991,-176.5 246.991,-173 236.991,-169.5 236.991,-176.5"/>
</a>
</g>
</g>
<!-- UC201a2 -->
<g id="node5" class="node"><title>UC201a2</title>
<g id="a_node5"><a xlink:title="Use case finishes. #(goto:3)">
<path fill="#b3cde3" stroke="black" d="M254.667,-38.5C254.667,-38.5 275.333,-38.5 275.333,-38.5 279.167,-38.5 283,-42.3333 283,-46.1667 283,-46.1667 283,-53.8333 283,-53.8333 283,-57.6667 279.167,-61.5 275.333,-61.5 275.333,-61.5 254.667,-61.5 254.667,-61.5 250.833,-61.5 247,-57.6667 247,-53.8333 247,-53.8333 247,-46.1667 247,-46.1667 247,-42.3333 250.833,-38.5 254.667,-38.5"/>
<text text-anchor="middle" x="265" y="-46.3" font-family="Arial" font-size="14.00">•</text>
</a>
</g>
<text text-anchor="middle" x="234.5" y="-26.8" font-family="Arial" font-size="14.00">1a2</text>
</g>
<!-- UC201a1&#45;&gt;UC201a2 -->
<g id="edge4" class="edge"><title>UC201a1:JMP&#45;&gt;UC201a2:JMP</title>
<g id="a_edge4"><a xlink:href="#UC20_1a1">
<path fill="none" stroke="black" d="M218.106,-50C223.882,-50 230.417,-50 236.735,-50"/>
<polygon fill="black" stroke="black" points="236.991,-53.5001 246.991,-50 236.991,-46.5001 236.991,-53.5001"/>
</a>
</g>
</g>
<!-- UC201a2&#45;&gt;UC203 -->
<g id="edge5" class="edge"><title>UC201a2:JMP&#45;&gt;UC203:JMP</title>
<g id="a_edge5"><a xlink:href="#UC20_1a2">
<path fill="none" stroke="black" d="M269.094,-150.955C270.91,-124.872 270.586,-81.4392 268.123,-61.5411"/>
<polygon fill="black" stroke="black" points="265.577,-150.984 268.148,-161.262 272.548,-151.624 265.577,-150.984"/>
</a>
</g>
</g>
</g>
</svg>
