<?xml version="1.0" encoding="UTF-8" standalone="no"?>
<!DOCTYPE svg PUBLIC "-//W3C//DTD SVG 1.1//EN"
 "http://www.w3.org/Graphics/SVG/1.1/DTD/svg11.dtd">
<!-- Generated by graphviz version 2.36.0 (20140111.2315)
 -->
<!-- Title: mygraph Pages: 1 -->
<svg width="1101pt" height="528pt"
 viewBox="62.00 62.00 1038.50 465.52" xmlns="http://www.w3.org/2000/svg" xmlns:xlink="http://www.w3.org/1999/xlink">
<g id="graph0" class="graph" transform="scale(0.861111 0.861111) rotate(0) translate(76 536.603)">
<title>mygraph</title>
<polygon fill="white" stroke="none" points="-4,4 -4,-464.603 1130,-464.603 1130,4 -4,4"/>
<g id="clust1" class="cluster"><title>cluster_UC16_</title>
<polygon fill="#ffffcc" stroke="black" points="8,-245.603 8,-329.603 469,-329.603 469,-245.603 8,-245.603"/>
</g>
<g id="clust2" class="cluster"><title>cluster_UC16_3a</title>
<polygon fill="#f2f2f2" stroke="black" points="373,-122.603 373,-244.603 1118,-244.603 1118,-122.603 373,-122.603"/>
<text text-anchor="start" x="381" y="-229.403" font-family="Arial" font-size="14.00" fill="gray">Extension: 3a.</text>
<text text-anchor="middle" x="434" y="-214.403" font-family="Arial" font-size="14.00" fill="gray"> Payment failed. </text>
</g>
<g id="clust3" class="cluster"><title>cluster_UC16_2a</title>
<polygon fill="#f2f2f2" stroke="black" points="204,-330.603 204,-452.603 365,-452.603 365,-330.603 204,-330.603"/>
<text text-anchor="start" x="212" y="-437.403" font-family="Arial" font-size="14.00" fill="gray">Variation: 2a.</text>
<text text-anchor="middle" x="284.5" y="-422.403" font-family="Arial" font-size="14.00" fill="gray"> Free plan associated. </text>
</g>
<!-- UC161 -->
<g id="node1" class="node"><title>UC161</title>
<g id="a_node1"><a xlink:title="System checks plan associated with account.">
<path fill="#b3cde3" stroke="black" d="M45.6667,-276.103C45.6667,-276.103 66.3333,-276.103 66.3333,-276.103 70.1667,-276.103 74,-279.937 74,-283.77 74,-283.77 74,-291.437 74,-291.437 74,-295.27 70.1667,-299.103 66.3333,-299.103 66.3333,-299.103 45.6667,-299.103 45.6667,-299.103 41.8333,-299.103 38,-295.27 38,-291.437 38,-291.437 38,-283.77 38,-283.77 38,-279.937 41.8333,-276.103 45.6667,-276.103"/>
<text text-anchor="middle" x="56" y="-283.903" font-family="Arial" font-size="14.00">•</text>
</a>
</g>
<text text-anchor="middle" x="33.5" y="-264.403" font-family="Arial" font-size="14.00">1</text>
</g>
<!-- UC162 -->
<g id="node2" class="node"><title>UC162</title>
<g id="a_node2"><a xlink:title="Paid plan associated.">
<path fill="#b3cde3" stroke="black" d="M110.667,-276.103C110.667,-276.103 167.333,-276.103 167.333,-276.103 171.167,-276.103 175,-279.937 175,-283.77 175,-283.77 175,-291.437 175,-291.437 175,-295.27 171.167,-299.103 167.333,-299.103 167.333,-299.103 110.667,-299.103 110.667,-299.103 106.833,-299.103 103,-295.27 103,-291.437 103,-291.437 103,-283.77 103,-283.77 103,-279.937 106.833,-276.103 110.667,-276.103"/>
<text text-anchor="middle" x="120.5" y="-283.903" font-family="Arial" font-size="14.00"> </text>
<polyline fill="none" stroke="black" points="138,-276.103 138,-299.103 "/>
<text text-anchor="middle" x="156.5" y="-283.903" font-family="Arial" font-size="14.00">•</text>
</a>
</g>
<text text-anchor="middle" x="98.5" y="-264.403" font-family="Arial" font-size="14.00">2</text>
</g>
<!-- UC161&#45;&gt;UC162 -->
<g id="edge5" class="edge"><title>UC161:JMP&#45;&gt;UC162:VAR</title>
<g id="a_edge5"><a xlink:href="#UC16_1">
<path fill="none" stroke="black" d="M74.3026,-287.603C80.0084,-287.603 86.5079,-287.603 92.9772,-287.603"/>
<polygon fill="black" stroke="black" points="93,-291.103 103,-287.603 93,-284.103 93,-291.103"/>
</a>
</g>
</g>
<!-- UC163 -->
<g id="node3" class="node"><title>UC163</title>
<g id="a_node3"><a xlink:title="System deduces monthly fee from the credit card.">
<path fill="#b3cde3" stroke="black" d="M237.667,-276.103C237.667,-276.103 330.333,-276.103 330.333,-276.103 334.167,-276.103 338,-279.937 338,-283.77 338,-283.77 338,-291.437 338,-291.437 338,-295.27 334.167,-299.103 330.333,-299.103 330.333,-299.103 237.667,-299.103 237.667,-299.103 233.833,-299.103 230,-295.27 230,-291.437 230,-291.437 230,-283.77 230,-283.77 230,-279.937 233.833,-276.103 237.667,-276.103"/>
<text text-anchor="middle" x="248.5" y="-283.903" font-family="Arial" font-size="14.00">•</text>
<polyline fill="none" stroke="black" points="267,-276.103 267,-299.103 "/>
<text text-anchor="middle" x="284.5" y="-283.903" font-family="Arial" font-size="14.00"> </text>
<polyline fill="none" stroke="black" points="302,-276.103 302,-299.103 "/>
<text text-anchor="middle" x="320" y="-283.903" font-family="Arial" font-size="14.00"> </text>
</a>
</g>
<text text-anchor="middle" x="225.5" y="-264.403" font-family="Arial" font-size="14.00">3</text>
</g>
<!-- UC162&#45;&gt;UC163 -->
<g id="edge6" class="edge"><title>UC162:JMP&#45;&gt;UC163:JMP</title>
<g id="a_edge6"><a xlink:href="#UC16_2">
<path fill="none" stroke="black" d="M175,-287.603C195.25,-287.603 202.686,-287.603 218.931,-287.603"/>
<polygon fill="black" stroke="black" points="219,-291.103 229,-287.603 219,-284.103 219,-291.103"/>
</a>
</g>
</g>
<!-- UC162a1 -->
<g id="node10" class="node"><title>UC162a1</title>
<g id="a_node10"><a xlink:title="Use case finishes. #(guard:free_plan) #(goto:4)">
<path fill="#b3cde3" stroke="black" d="M273.667,-361.103C273.667,-361.103 294.333,-361.103 294.333,-361.103 298.167,-361.103 302,-364.937 302,-368.77 302,-368.77 302,-376.437 302,-376.437 302,-380.27 298.167,-384.103 294.333,-384.103 294.333,-384.103 273.667,-384.103 273.667,-384.103 269.833,-384.103 266,-380.27 266,-376.437 266,-376.437 266,-368.77 266,-368.77 266,-364.937 269.833,-361.103 273.667,-361.103"/>
<text text-anchor="middle" x="284" y="-368.903" font-family="Arial" font-size="14.00">•</text>
</a>
</g>
<text text-anchor="middle" x="253.5" y="-349.403" font-family="Arial" font-size="14.00">2a1</text>
</g>
<!-- UC162&#45;&gt;UC162a1 -->
<g id="edge14" class="edge"><title>UC162:VAR&#45;&gt;UC162a1:JMP</title>
<g id="a_edge14"><a xlink:href="#UC16_2">
<path fill="none" stroke="black" d="M120,-300.603C120,-359.165 208.757,-370.53 255.68,-372.446"/>
<polygon fill="black" stroke="black" points="255.725,-375.949 265.823,-372.74 255.928,-368.952 255.725,-375.949"/>
</a>
</g>
</g>
<!-- UC164 -->
<g id="node4" class="node"><title>UC164</title>
<g id="a_node4"><a xlink:title="Use case finishes.">
<path fill="#ccebc5" stroke="black" d="M410.667,-276.103C410.667,-276.103 431.333,-276.103 431.333,-276.103 435.167,-276.103 439,-279.937 439,-283.77 439,-283.77 439,-291.437 439,-291.437 439,-295.27 435.167,-299.103 431.333,-299.103 431.333,-299.103 410.667,-299.103 410.667,-299.103 406.833,-299.103 403,-295.27 403,-291.437 403,-291.437 403,-283.77 403,-283.77 403,-279.937 406.833,-276.103 410.667,-276.103"/>
<text text-anchor="middle" x="421" y="-283.903" font-family="Arial" font-size="14.00">•</text>
</a>
</g>
<text text-anchor="middle" x="398.5" y="-264.403" font-family="Arial" font-size="14.00">4</text>
</g>
<!-- UC163&#45;&gt;UC164 -->
<g id="edge7" class="edge"><title>UC163:OUT&#45;&gt;UC164:JMP</title>
<g id="a_edge7"><a xlink:href="#UC16_3">
<path fill="none" stroke="black" d="M339,-287.603C356.813,-287.603 376.802,-287.603 392.585,-287.603"/>
<polygon fill="black" stroke="black" points="392.762,-291.103 402.762,-287.603 392.762,-284.103 392.762,-291.103"/>
</a>
</g>
</g>
<!-- UC163a1 -->
<g id="node5" class="node"><title>UC163a1</title>
<g id="a_node5"><a xlink:title="System initiates forced plan downgrade.">
<path fill="#b3cde3" stroke="black" d="M410.667,-153.103C410.667,-153.103 431.333,-153.103 431.333,-153.103 435.167,-153.103 439,-156.937 439,-160.77 439,-160.77 439,-168.437 439,-168.437 439,-172.27 435.167,-176.103 431.333,-176.103 431.333,-176.103 410.667,-176.103 410.667,-176.103 406.833,-176.103 403,-172.27 403,-168.437 403,-168.437 403,-160.77 403,-160.77 403,-156.937 406.833,-153.103 410.667,-153.103"/>
<text text-anchor="middle" x="421" y="-160.903" font-family="Arial" font-size="14.00">•</text>
</a>
</g>
<text text-anchor="middle" x="390.5" y="-141.403" font-family="Arial" font-size="14.00">3a1</text>
</g>
<!-- UC163&#45;&gt;UC163a1 -->
<g id="edge8" class="edge"><title>UC163:EXT&#45;&gt;UC163a1:JMP</title>
<g id="a_edge8"><a xlink:href="#UC16_3">
<path fill="none" stroke="black" d="M285,-274.603C285,-219.43 353.501,-187.165 393.271,-173.082"/>
<polygon fill="black" stroke="black" points="394.587,-176.332 402.94,-169.815 392.346,-169.701 394.587,-176.332"/>
</a>
</g>
</g>
<!-- UC163a2 -->
<g id="node6" class="node"><title>UC163a2</title>
<g id="a_node6"><a xlink:title="System stops random applications that are
		 &#160;&#160;&#160;above the limit of the free plan. #(include:UC4)">
<path fill="#b3cde3" stroke="black" d="M484.667,-153.103C484.667,-153.103 541.333,-153.103 541.333,-153.103 545.167,-153.103 549,-156.937 549,-160.77 549,-160.77 549,-168.437 549,-168.437 549,-172.27 545.167,-176.103 541.333,-176.103 541.333,-176.103 484.667,-176.103 484.667,-176.103 480.833,-176.103 477,-172.27 477,-168.437 477,-168.437 477,-160.77 477,-160.77 477,-156.937 480.833,-153.103 484.667,-153.103"/>
<text text-anchor="middle" x="495.5" y="-160.903" font-family="Arial" font-size="14.00">•</text>
<polyline fill="none" stroke="black" points="514,-153.103 514,-176.103 "/>
<text text-anchor="middle" x="531.5" y="-160.903" font-family="Arial" font-size="14.00"> </text>
</a>
</g>
<text text-anchor="middle" x="464.5" y="-141.403" font-family="Arial" font-size="14.00">3a2</text>
</g>
<!-- UC163a1&#45;&gt;UC163a2 -->
<g id="edge9" class="edge"><title>UC163a1:JMP&#45;&gt;UC163a2:JMP</title>
<g id="a_edge9"><a xlink:href="#UC16_3a1">
<path fill="none" stroke="black" d="M439.159,-164.603C447.292,-164.603 457.235,-164.603 466.988,-164.603"/>
<polygon fill="black" stroke="black" points="467,-168.103 477,-164.603 467,-161.103 467,-168.103"/>
</a>
</g>
</g>
<!-- UC163a3 -->
<g id="node7" class="node"><title>UC163a3</title>
<g id="a_node7"><a xlink:title="System hibernates applications that were stopped in previous
		 &#160;&#160;&#160;step. #(include:UC21) &#160;&#160;&#160;">
<path fill="#b3cde3" stroke="black" d="M624.667,-153.103C624.667,-153.103 681.333,-153.103 681.333,-153.103 685.167,-153.103 689,-156.937 689,-160.77 689,-160.77 689,-168.437 689,-168.437 689,-172.27 685.167,-176.103 681.333,-176.103 681.333,-176.103 624.667,-176.103 624.667,-176.103 620.833,-176.103 617,-172.27 617,-168.437 617,-168.437 617,-160.77 617,-160.77 617,-156.937 620.833,-153.103 624.667,-153.103"/>
<text text-anchor="middle" x="635.5" y="-160.903" font-family="Arial" font-size="14.00">•</text>
<polyline fill="none" stroke="black" points="654,-153.103 654,-176.103 "/>
<text text-anchor="middle" x="671.5" y="-160.903" font-family="Arial" font-size="14.00"> </text>
</a>
</g>
<text text-anchor="middle" x="604.5" y="-141.403" font-family="Arial" font-size="14.00">3a3</text>
</g>
<!-- UC163a2&#45;&gt;UC163a3 -->
<g id="edge10" class="edge"><title>UC163a2:EXT&#45;&gt;UC163a3:JMP</title>
<g id="a_edge10"><a xlink:href="#UC16_3a2">
<path fill="none" stroke="black" d="M549,-164.603C575.056,-164.603 584.012,-164.603 605.793,-164.603"/>
<polygon fill="black" stroke="black" points="606,-168.103 616,-164.603 606,-161.103 606,-168.103"/>
</a>
</g>
</g>
<!-- UC4 -->
<g id="node11" class="node"><title>UC4</title>
<g id="a_node11"><a xlink:href="../UC4/UC4.html" xlink:title="UC4 Stop application" target="_top">
<polygon fill="#fed9a6" stroke="black" points="728,-92.6032 578,-92.6032 578,-56.6032 728,-56.6032 728,-92.6032"/>
<text text-anchor="middle" x="653" y="-70.9032" font-family="Arial" font-size="14.00">UC4 Stop application</text>
</a>
</g>
</g>
<!-- UC163a2&#45;&gt;UC4 -->
<g id="edge1" class="edge"><title>UC163a2:JMP&#45;&gt;UC4</title>
<g id="a_edge1"><a xlink:href="#UC16_3a2">
<path fill="none" stroke="black" d="M495,-151.603C495,-114.678 530.441,-95.4584 567.646,-85.4557"/>
<polygon fill="black" stroke="black" points="568.768,-88.7837 577.638,-82.9888 567.091,-81.9877 568.768,-88.7837"/>
</a>
</g>
</g>
<!-- UC163a4 -->
<g id="node8" class="node"><title>UC163a4</title>
<g id="a_node8"><a xlink:title="System sends email saying that payment failed and list of 
		 &#160;&#160;&#160;applications that were hibernated. #(close:app_hibernated)
		 &#160;&#160;&#160;#(consume:email)">
<path fill="#b3cde3" stroke="black" d="M879.667,-153.103C879.667,-153.103 900.333,-153.103 900.333,-153.103 904.167,-153.103 908,-156.937 908,-160.77 908,-160.77 908,-168.437 908,-168.437 908,-172.27 904.167,-176.103 900.333,-176.103 900.333,-176.103 879.667,-176.103 879.667,-176.103 875.833,-176.103 872,-172.27 872,-168.437 872,-168.437 872,-160.77 872,-160.77 872,-156.937 875.833,-153.103 879.667,-153.103"/>
<text text-anchor="middle" x="890" y="-160.903" font-family="Arial" font-size="14.00">•</text>
</a>
</g>
<text text-anchor="middle" x="859.5" y="-141.403" font-family="Arial" font-size="14.00">3a4</text>
</g>
<!-- UC163a3&#45;&gt;UC163a4 -->
<g id="edge11" class="edge"><title>UC163a3:EXT&#45;&gt;UC163a4:JMP</title>
<g id="a_edge11"><a xlink:href="#UC16_3a3">
<path fill="none" stroke="black" d="M690,-164.603C751.255,-164.603 823.063,-164.603 861.79,-164.603"/>
<polygon fill="black" stroke="black" points="861.8,-168.103 871.8,-164.603 861.8,-161.103 861.8,-168.103"/>
</a>
</g>
</g>
<!-- UC21 -->
<g id="node12" class="node"><title>UC21</title>
<g id="a_node12"><a xlink:href="../UC21/UC21.html" xlink:title="UC21 Hibernate application subfunction" target="_top">
<polygon fill="#fed9a6" stroke="black" points="1023,-92.6032 757,-92.6032 757,-56.6032 1023,-56.6032 1023,-92.6032"/>
<text text-anchor="middle" x="890" y="-70.9032" font-family="Arial" font-size="14.00">UC21 Hibernate application subfunction</text>
</a>
</g>
</g>
<!-- UC163a3&#45;&gt;UC21 -->
<g id="edge3" class="edge"><title>UC163a3:JMP&#45;&gt;UC21</title>
<g id="a_edge3"><a xlink:href="#UC16_3a3">
<path fill="none" stroke="black" d="M635,-151.603C635,-134.495 720.485,-111.322 792.27,-94.8788"/>
<polygon fill="black" stroke="black" points="793.32,-98.2297 802.298,-92.6047 791.772,-91.4031 793.32,-98.2297"/>
</a>
</g>
</g>
<!-- UC163a5 -->
<g id="node9" class="node"><title>UC163a5</title>
<g id="a_node9"><a xlink:title="System changes plan to free.">
<path fill="#b3cde3" stroke="black" d="M1059.67,-153.103C1059.67,-153.103 1080.33,-153.103 1080.33,-153.103 1084.17,-153.103 1088,-156.937 1088,-160.77 1088,-160.77 1088,-168.437 1088,-168.437 1088,-172.27 1084.17,-176.103 1080.33,-176.103 1080.33,-176.103 1059.67,-176.103 1059.67,-176.103 1055.83,-176.103 1052,-172.27 1052,-168.437 1052,-168.437 1052,-160.77 1052,-160.77 1052,-156.937 1055.83,-153.103 1059.67,-153.103"/>
<text text-anchor="middle" x="1070" y="-160.903" font-family="Arial" font-size="14.00">•</text>
</a>
</g>
<text text-anchor="middle" x="1039.5" y="-141.403" font-family="Arial" font-size="14.00">3a5</text>
</g>
<!-- UC163a4&#45;&gt;UC163a5 -->
<g id="edge12" class="edge"><title>UC163a4:JMP&#45;&gt;UC163a5:JMP</title>
<g id="a_edge12"><a xlink:href="#UC16_3a4">
<path fill="none" stroke="black" d="M908.25,-164.603C939.731,-164.603 1004.45,-164.603 1041.78,-164.603"/>
<polygon fill="black" stroke="black" points="1041.97,-168.103 1051.97,-164.603 1041.97,-161.103 1041.97,-168.103"/>
</a>
</g>
</g>
<!-- UC163a5&#45;&gt;UC163 -->
<g id="edge13" class="edge"><title>UC163a5:JMP&#45;&gt;UC163:OUT</title>
<g id="a_edge13"><a xlink:href="#UC16_3a5">
<path fill="none" stroke="black" d="M1051.67,-152.654C1023.85,-114.444 1060.32,-79.1199 1023,-49.6032 894.257,52.2091 818.135,-34.6032 654,-34.6032 512,-34.6032 512,-34.6032 512,-34.6032 378.868,-34.6032 322.866,-132.819 320.108,-264.263"/>
<polygon fill="black" stroke="black" points="316.604,-264.567 320,-274.603 323.604,-264.64 316.604,-264.567"/>
</a>
</g>
</g>
<!-- UC162a1&#45;&gt;UC164 -->
<g id="edge15" class="edge"><title>UC162a1:JMP&#45;&gt;UC164:JMP</title>
<g id="a_edge15"><a xlink:href="#UC16_2a1">
<path fill="none" stroke="black" d="M302.12,-365.298C319.045,-358.101 344.678,-346.228 365,-332.603 380.365,-322.301 383.994,-315.457 394.775,-305.829"/>
<polygon fill="black" stroke="black" points="397.074,-308.471 402.582,-299.42 392.632,-303.061 397.074,-308.471"/>
</a>
</g>
</g>
<!-- UC4&#45;&gt;UC163a2 -->
<g id="edge2" class="edge"><title>UC4&#45;&gt;UC163a2:EXT</title>
<path fill="none" stroke="black" d="M615.051,-92.6794C602.417,-99.949 588.77,-109.111 578,-119.603 564.02,-133.223 569.472,-154.779 558.749,-162.086"/>
<polygon fill="black" stroke="black" points="557.807,-158.714 549,-164.603 559.558,-165.492 557.807,-158.714"/>
</g>
<!-- UC21&#45;&gt;UC163a3 -->
<g id="edge4" class="edge"><title>UC21&#45;&gt;UC163a3:EXT</title>
<path fill="none" stroke="black" d="M825.189,-92.612C803.085,-99.8213 778.478,-108.962 757,-119.603 728.248,-133.848 726.026,-158.616 700.201,-163.682"/>
<polygon fill="black" stroke="black" points="699.645,-160.218 690,-164.603 700.274,-167.19 699.645,-160.218"/>
</g>
</g>
</svg>
