<?xml version="1.0" encoding="UTF-8" standalone="no"?>
<!DOCTYPE svg PUBLIC "-//W3C//DTD SVG 1.1//EN"
 "http://www.w3.org/Graphics/SVG/1.1/DTD/svg11.dtd">
<!-- Generated by graphviz version 2.35.20131004.0446 (20131004.0446)
 -->
<!-- Title: mygraph Pages: 1 -->
<svg width="612pt" height="323pt"
 viewBox="62.00 62.00 550.25 260.92" xmlns="http://www.w3.org/2000/svg" xmlns:xlink="http://www.w3.org/1999/xlink">
<g id="graph0" class="graph" transform="scale(0.861111 0.861111) rotate(0) translate(76 299)">
<title>mygraph</title>
<polygon fill="white" stroke="white" points="-4,4 -4,-227 563,-227 563,4 -4,4"/>
<g id="clust1" class="cluster"><title>cluster_UC208</title>
<polygon fill="#ffffcc" stroke="black" points="8,-131 8,-215 551,-215 551,-131 8,-131"/>
</g>
<g id="clust2" class="cluster"><title>cluster_UC2083a</title>
<polygon fill="#f2f2f2" stroke="black" points="248,-8 248,-130 477,-130 477,-8 248,-8"/>
<text text-anchor="start" x="256" y="-114.8" font-family="Arial" font-size="14.00" fill="gray">Extension: 3a.</text>
<text text-anchor="middle" x="362.5" y="-99.8" font-family="Arial" font-size="14.00" fill="gray"> Not all obligatory data was given. </text>
</g>
<!-- UC2081 -->
<g id="node1" class="node"><title>UC2081</title>
<g id="a_node1"><a xlink:title="Administrator chooses an option to add user.">
<path fill="#b3cde3" stroke="black" d="M45.6667,-161.5C45.6667,-161.5 66.3333,-161.5 66.3333,-161.5 70.1667,-161.5 74,-165.333 74,-169.167 74,-169.167 74,-176.833 74,-176.833 74,-180.667 70.1667,-184.5 66.3333,-184.5 66.3333,-184.5 45.6667,-184.5 45.6667,-184.5 41.8333,-184.5 38,-180.667 38,-176.833 38,-176.833 38,-169.167 38,-169.167 38,-165.333 41.8333,-161.5 45.6667,-161.5"/>
<text text-anchor="middle" x="56" y="-169.3" font-family="Arial" font-size="14.00">•</text>
</a>
</g>
<text text-anchor="middle" x="33.5" y="-149.8" font-family="Arial" font-size="14.00">1</text>
</g>
<!-- UC2082 -->
<g id="node2" class="node"><title>UC2082</title>
<g id="a_node2"><a xlink:title="System presents the new&#45;user form.">
<path fill="#b3cde3" stroke="black" d="M110.667,-161.5C110.667,-161.5 131.333,-161.5 131.333,-161.5 135.167,-161.5 139,-165.333 139,-169.167 139,-169.167 139,-176.833 139,-176.833 139,-180.667 135.167,-184.5 131.333,-184.5 131.333,-184.5 110.667,-184.5 110.667,-184.5 106.833,-184.5 103,-180.667 103,-176.833 103,-176.833 103,-169.167 103,-169.167 103,-165.333 106.833,-161.5 110.667,-161.5"/>
<text text-anchor="middle" x="121" y="-169.3" font-family="Arial" font-size="14.00">•</text>
</a>
</g>
<text text-anchor="middle" x="98.5" y="-149.8" font-family="Arial" font-size="14.00">2</text>
</g>
<!-- UC2081&#45;&gt;UC2082 -->
<g id="edge1" class="edge"><title>UC2081:JMP&#45;&gt;UC2082:JMP</title>
<g id="a_edge1"><a xlink:href="#UC208_1">
<path fill="none" stroke="black" d="M74.1061,-173C79.8817,-173 86.4172,-173 92.7354,-173"/>
<polygon fill="black" stroke="black" points="92.991,-176.5 102.991,-173 92.9909,-169.5 92.991,-176.5"/>
</a>
</g>
</g>
<!-- UC2083 -->
<g id="node3" class="node"><title>UC2083</title>
<g id="a_node3"><a xlink:title="Administrator fills the form.">
<path fill="#b3cde3" stroke="black" d="M175.667,-161.5C175.667,-161.5 232.333,-161.5 232.333,-161.5 236.167,-161.5 240,-165.333 240,-169.167 240,-169.167 240,-176.833 240,-176.833 240,-180.667 236.167,-184.5 232.333,-184.5 232.333,-184.5 175.667,-184.5 175.667,-184.5 171.833,-184.5 168,-180.667 168,-176.833 168,-176.833 168,-169.167 168,-169.167 168,-165.333 171.833,-161.5 175.667,-161.5"/>
<text text-anchor="middle" x="186.5" y="-169.3" font-family="Arial" font-size="14.00">•</text>
<polyline fill="none" stroke="black" points="205,-161.5 205,-184.5 "/>
<text text-anchor="middle" x="222.5" y="-169.3" font-family="Arial" font-size="14.00"> </text>
</a>
</g>
<text text-anchor="middle" x="163.5" y="-149.8" font-family="Arial" font-size="14.00">3</text>
</g>
<!-- UC2082&#45;&gt;UC2083 -->
<g id="edge2" class="edge"><title>UC2082:JMP&#45;&gt;UC2083:JMP</title>
<g id="a_edge2"><a xlink:href="#UC208_2">
<path fill="none" stroke="black" d="M139.303,-173C145.008,-173 151.508,-173 157.977,-173"/>
<polygon fill="black" stroke="black" points="158,-176.5 168,-173 158,-169.5 158,-176.5"/>
</a>
</g>
</g>
<!-- UC2084 -->
<g id="node4" class="node"><title>UC2084</title>
<g id="a_node4"><a xlink:title="Administrator grants roles to the user in the system.">
<path fill="#b3cde3" stroke="black" d="M286.667,-161.5C286.667,-161.5 307.333,-161.5 307.333,-161.5 311.167,-161.5 315,-165.333 315,-169.167 315,-169.167 315,-176.833 315,-176.833 315,-180.667 311.167,-184.5 307.333,-184.5 307.333,-184.5 286.667,-184.5 286.667,-184.5 282.833,-184.5 279,-180.667 279,-176.833 279,-176.833 279,-169.167 279,-169.167 279,-165.333 282.833,-161.5 286.667,-161.5"/>
<text text-anchor="middle" x="297" y="-169.3" font-family="Arial" font-size="14.00">•</text>
</a>
</g>
<text text-anchor="middle" x="274.5" y="-149.8" font-family="Arial" font-size="14.00">4</text>
</g>
<!-- UC2083&#45;&gt;UC2084 -->
<g id="edge3" class="edge"><title>UC2083:EXT&#45;&gt;UC2084:JMP</title>
<g id="a_edge3"><a xlink:href="#UC208_3">
<path fill="none" stroke="black" d="M240,-173C249.318,-173 259.492,-173 268.632,-173"/>
<polygon fill="black" stroke="black" points="268.774,-176.5 278.774,-173 268.774,-169.5 268.774,-176.5"/>
</a>
</g>
</g>
<!-- UC2083a1 -->
<g id="node8" class="node"><title>UC2083a1</title>
<g id="a_node8"><a xlink:title="System informs that some data is missing.">
<path fill="#b3cde3" stroke="black" d="M286.667,-38.5C286.667,-38.5 307.333,-38.5 307.333,-38.5 311.167,-38.5 315,-42.3333 315,-46.1667 315,-46.1667 315,-53.8333 315,-53.8333 315,-57.6667 311.167,-61.5 307.333,-61.5 307.333,-61.5 286.667,-61.5 286.667,-61.5 282.833,-61.5 279,-57.6667 279,-53.8333 279,-53.8333 279,-46.1667 279,-46.1667 279,-42.3333 282.833,-38.5 286.667,-38.5"/>
<text text-anchor="middle" x="297" y="-46.3" font-family="Arial" font-size="14.00">•</text>
</a>
</g>
<text text-anchor="middle" x="266.5" y="-26.8" font-family="Arial" font-size="14.00">3a1</text>
</g>
<!-- UC2083&#45;&gt;UC2083a1 -->
<g id="edge7" class="edge"><title>UC2083:EXT&#45;&gt;UC2083a1:JMP</title>
<g id="a_edge7"><a xlink:href="#UC208_3">
<path fill="none" stroke="black" d="M223,-160C223,-113.365 241.285,-99.9461 271.529,-69.2176"/>
<polygon fill="black" stroke="black" points="274.149,-71.544 278.594,-61.9268 269.122,-66.6728 274.149,-71.544"/>
</a>
</g>
</g>
<!-- UC2085 -->
<g id="node5" class="node"><title>UC2085</title>
<g id="a_node5"><a xlink:title="System stores the user data.">
<path fill="#b3cde3" stroke="black" d="M351.667,-161.5C351.667,-161.5 372.333,-161.5 372.333,-161.5 376.167,-161.5 380,-165.333 380,-169.167 380,-169.167 380,-176.833 380,-176.833 380,-180.667 376.167,-184.5 372.333,-184.5 372.333,-184.5 351.667,-184.5 351.667,-184.5 347.833,-184.5 344,-180.667 344,-176.833 344,-176.833 344,-169.167 344,-169.167 344,-165.333 347.833,-161.5 351.667,-161.5"/>
<text text-anchor="middle" x="362" y="-169.3" font-family="Arial" font-size="14.00">•</text>
</a>
</g>
<text text-anchor="middle" x="339.5" y="-149.8" font-family="Arial" font-size="14.00">5</text>
</g>
<!-- UC2084&#45;&gt;UC2085 -->
<g id="edge4" class="edge"><title>UC2084:JMP&#45;&gt;UC2085:JMP</title>
<g id="a_edge4"><a xlink:href="#UC208_4">
<path fill="none" stroke="black" d="M315.106,-173C320.882,-173 327.417,-173 333.735,-173"/>
<polygon fill="black" stroke="black" points="333.991,-176.5 343.991,-173 333.991,-169.5 333.991,-176.5"/>
</a>
</g>
</g>
<!-- UC2086 -->
<g id="node6" class="node"><title>UC2086</title>
<g id="a_node6"><a xlink:title="System grants the user roles.">
<path fill="#b3cde3" stroke="black" d="M416.667,-161.5C416.667,-161.5 437.333,-161.5 437.333,-161.5 441.167,-161.5 445,-165.333 445,-169.167 445,-169.167 445,-176.833 445,-176.833 445,-180.667 441.167,-184.5 437.333,-184.5 437.333,-184.5 416.667,-184.5 416.667,-184.5 412.833,-184.5 409,-180.667 409,-176.833 409,-176.833 409,-169.167 409,-169.167 409,-165.333 412.833,-161.5 416.667,-161.5"/>
<text text-anchor="middle" x="427" y="-169.3" font-family="Arial" font-size="14.00">•</text>
</a>
</g>
<text text-anchor="middle" x="404.5" y="-149.8" font-family="Arial" font-size="14.00">6</text>
</g>
<!-- UC2085&#45;&gt;UC2086 -->
<g id="edge5" class="edge"><title>UC2085:JMP&#45;&gt;UC2086:JMP</title>
<g id="a_edge5"><a xlink:href="#UC208_5">
<path fill="none" stroke="black" d="M380.106,-173C385.882,-173 392.417,-173 398.735,-173"/>
<polygon fill="black" stroke="black" points="398.991,-176.5 408.991,-173 398.991,-169.5 398.991,-176.5"/>
</a>
</g>
</g>
<!-- UC2087 -->
<g id="node7" class="node"><title>UC2087</title>
<g id="a_node7"><a xlink:title="System displays confirmation message.">
<path fill="#ccebc5" stroke="black" d="M492.667,-161.5C492.667,-161.5 513.333,-161.5 513.333,-161.5 517.167,-161.5 521,-165.333 521,-169.167 521,-169.167 521,-176.833 521,-176.833 521,-180.667 517.167,-184.5 513.333,-184.5 513.333,-184.5 492.667,-184.5 492.667,-184.5 488.833,-184.5 485,-180.667 485,-176.833 485,-176.833 485,-169.167 485,-169.167 485,-165.333 488.833,-161.5 492.667,-161.5"/>
<text text-anchor="middle" x="503" y="-169.3" font-family="Arial" font-size="14.00">•</text>
</a>
</g>
<text text-anchor="middle" x="480.5" y="-149.8" font-family="Arial" font-size="14.00">7</text>
</g>
<!-- UC2086&#45;&gt;UC2087 -->
<g id="edge6" class="edge"><title>UC2086:JMP&#45;&gt;UC2087:JMP</title>
<g id="a_edge6"><a xlink:href="#UC208_6">
<path fill="none" stroke="black" d="M445.011,-173C453.843,-173 464.69,-173 474.604,-173"/>
<polygon fill="black" stroke="black" points="474.855,-176.5 484.855,-173 474.855,-169.5 474.855,-176.5"/>
</a>
</g>
</g>
<!-- UC2083a2 -->
<g id="node9" class="node"><title>UC2083a2</title>
<g id="a_node9"><a xlink:title="System highlights the missing fields.">
<path fill="#b3cde3" stroke="black" d="M351.667,-38.5C351.667,-38.5 372.333,-38.5 372.333,-38.5 376.167,-38.5 380,-42.3333 380,-46.1667 380,-46.1667 380,-53.8333 380,-53.8333 380,-57.6667 376.167,-61.5 372.333,-61.5 372.333,-61.5 351.667,-61.5 351.667,-61.5 347.833,-61.5 344,-57.6667 344,-53.8333 344,-53.8333 344,-46.1667 344,-46.1667 344,-42.3333 347.833,-38.5 351.667,-38.5"/>
<text text-anchor="middle" x="362" y="-46.3" font-family="Arial" font-size="14.00">•</text>
</a>
</g>
<text text-anchor="middle" x="331.5" y="-26.8" font-family="Arial" font-size="14.00">3a2</text>
</g>
<!-- UC2083a1&#45;&gt;UC2083a2 -->
<g id="edge8" class="edge"><title>UC2083a1:JMP&#45;&gt;UC2083a2:JMP</title>
<g id="a_edge8"><a xlink:href="#UC208_3a1">
<path fill="none" stroke="black" d="M315.106,-50C320.882,-50 327.417,-50 333.735,-50"/>
<polygon fill="black" stroke="black" points="333.991,-53.5001 343.991,-50 333.991,-46.5001 333.991,-53.5001"/>
</a>
</g>
</g>
<!-- UC2083a3 -->
<g id="node10" class="node"><title>UC2083a3</title>
<g id="a_node10"><a xlink:title="Go back to step 3.">
<path fill="#b3cde3" stroke="black" d="M416.667,-38.5C416.667,-38.5 437.333,-38.5 437.333,-38.5 441.167,-38.5 445,-42.3333 445,-46.1667 445,-46.1667 445,-53.8333 445,-53.8333 445,-57.6667 441.167,-61.5 437.333,-61.5 437.333,-61.5 416.667,-61.5 416.667,-61.5 412.833,-61.5 409,-57.6667 409,-53.8333 409,-53.8333 409,-46.1667 409,-46.1667 409,-42.3333 412.833,-38.5 416.667,-38.5"/>
<text text-anchor="middle" x="427" y="-46.3" font-family="Arial" font-size="14.00">•</text>
</a>
</g>
<text text-anchor="middle" x="396.5" y="-26.8" font-family="Arial" font-size="14.00">3a3</text>
</g>
<!-- UC2083a2&#45;&gt;UC2083a3 -->
<g id="edge9" class="edge"><title>UC2083a2:JMP&#45;&gt;UC2083a3:JMP</title>
<g id="a_edge9"><a xlink:href="#UC208_3a2">
<path fill="none" stroke="black" d="M380.106,-50C385.882,-50 392.417,-50 398.735,-50"/>
<polygon fill="black" stroke="black" points="398.991,-53.5001 408.991,-50 398.991,-46.5001 398.991,-53.5001"/>
</a>
</g>
</g>
<!-- UC2083a3&#45;&gt;UC2083 -->
<g id="edge10" class="edge"><title>UC2083a3:JMP&#45;&gt;UC2083:JMP</title>
<g id="a_edge10"><a xlink:href="#UC208_3a3">
<path fill="none" stroke="black" d="M408.823,-41.1615C374.476,-25.8554 298.925,1.02578 248,-31 197.097,-63.0123 187.028,-92.9336 186.079,-149.846"/>
<polygon fill="black" stroke="black" points="182.578,-149.973 186,-160 189.578,-150.028 182.578,-149.973"/>
</a>
</g>
</g>
</g>
</svg>
