<?xml version="1.0" encoding="UTF-8" standalone="no"?>
<!DOCTYPE svg PUBLIC "-//W3C//DTD SVG 1.1//EN"
 "http://www.w3.org/Graphics/SVG/1.1/DTD/svg11.dtd">
<!-- Generated by graphviz version 2.35.20131004.0446 (20131004.0446)
 -->
<!-- Title: mygraph Pages: 1 -->
<svg width="638pt" height="250pt"
 viewBox="62.00 62.00 576.08 187.72" xmlns="http://www.w3.org/2000/svg" xmlns:xlink="http://www.w3.org/1999/xlink">
<g id="graph0" class="graph" transform="scale(0.861111 0.861111) rotate(0) translate(76 214)">
<title>mygraph</title>
<polygon fill="white" stroke="white" points="-4,4 -4,-142 593,-142 593,4 -4,4"/>
<g id="clust1" class="cluster"><title>cluster_UC214</title>
<polygon fill="#ffffcc" stroke="black" points="8,-8 8,-92 270,-92 270,-8 8,-8"/>
</g>
<g id="clust2" class="cluster"><title>cluster_UC2143a</title>
<polygon fill="#f2f2f2" stroke="black" points="278,-8 278,-130 588,-130 588,-8 278,-8"/>
<text text-anchor="start" x="286" y="-114.8" font-family="Arial" font-size="14.00" fill="gray">Extension: 3a.</text>
<text text-anchor="middle" x="433" y="-99.8" font-family="Arial" font-size="14.00" fill="gray"> Selecting committee does not approve issue. </text>
</g>
<!-- UC2141 -->
<g id="node1" class="node"><title>UC2141</title>
<g id="a_node1"><a xlink:title="System presents a list of current issues.">
<path fill="#b3cde3" stroke="black" d="M45.6667,-38.5C45.6667,-38.5 66.3333,-38.5 66.3333,-38.5 70.1667,-38.5 74,-42.3333 74,-46.1667 74,-46.1667 74,-53.8333 74,-53.8333 74,-57.6667 70.1667,-61.5 66.3333,-61.5 66.3333,-61.5 45.6667,-61.5 45.6667,-61.5 41.8333,-61.5 38,-57.6667 38,-53.8333 38,-53.8333 38,-46.1667 38,-46.1667 38,-42.3333 41.8333,-38.5 45.6667,-38.5"/>
<text text-anchor="middle" x="56" y="-46.3" font-family="Arial" font-size="14.00">•</text>
</a>
</g>
<text text-anchor="middle" x="33.5" y="-26.8" font-family="Arial" font-size="14.00">1</text>
</g>
<!-- UC2142 -->
<g id="node2" class="node"><title>UC2142</title>
<g id="a_node2"><a xlink:title="Selecting committee selects the issue.">
<path fill="#b3cde3" stroke="black" d="M110.667,-38.5C110.667,-38.5 131.333,-38.5 131.333,-38.5 135.167,-38.5 139,-42.3333 139,-46.1667 139,-46.1667 139,-53.8333 139,-53.8333 139,-57.6667 135.167,-61.5 131.333,-61.5 131.333,-61.5 110.667,-61.5 110.667,-61.5 106.833,-61.5 103,-57.6667 103,-53.8333 103,-53.8333 103,-46.1667 103,-46.1667 103,-42.3333 106.833,-38.5 110.667,-38.5"/>
<text text-anchor="middle" x="121" y="-46.3" font-family="Arial" font-size="14.00">•</text>
</a>
</g>
<text text-anchor="middle" x="98.5" y="-26.8" font-family="Arial" font-size="14.00">2</text>
</g>
<!-- UC2141&#45;&gt;UC2142 -->
<g id="edge1" class="edge"><title>UC2141:JMP&#45;&gt;UC2142:JMP</title>
<g id="a_edge1"><a xlink:href="#UC214_1">
<path fill="none" stroke="black" d="M74.1061,-50C79.8817,-50 86.4172,-50 92.7354,-50"/>
<polygon fill="black" stroke="black" points="92.991,-53.5001 102.991,-50 92.9909,-46.5001 92.991,-53.5001"/>
</a>
</g>
</g>
<!-- UC2143 -->
<g id="node3" class="node"><title>UC2143</title>
<g id="a_node3"><a xlink:title="Selecting committee marks the issue as considered positively.">
<path fill="#ccebc5" stroke="black" d="M175.667,-38.5C175.667,-38.5 232.333,-38.5 232.333,-38.5 236.167,-38.5 240,-42.3333 240,-46.1667 240,-46.1667 240,-53.8333 240,-53.8333 240,-57.6667 236.167,-61.5 232.333,-61.5 232.333,-61.5 175.667,-61.5 175.667,-61.5 171.833,-61.5 168,-57.6667 168,-53.8333 168,-53.8333 168,-46.1667 168,-46.1667 168,-42.3333 171.833,-38.5 175.667,-38.5"/>
<text text-anchor="middle" x="186.5" y="-46.3" font-family="Arial" font-size="14.00">•</text>
<polyline fill="none" stroke="black" points="205,-38.5 205,-61.5 "/>
<text text-anchor="middle" x="222.5" y="-46.3" font-family="Arial" font-size="14.00"> </text>
</a>
</g>
<text text-anchor="middle" x="163.5" y="-26.8" font-family="Arial" font-size="14.00">3</text>
</g>
<!-- UC2142&#45;&gt;UC2143 -->
<g id="edge2" class="edge"><title>UC2142:JMP&#45;&gt;UC2143:JMP</title>
<g id="a_edge2"><a xlink:href="#UC214_2">
<path fill="none" stroke="black" d="M139.303,-50C145.008,-50 151.508,-50 157.977,-50"/>
<polygon fill="black" stroke="black" points="158,-53.5001 168,-50 158,-46.5001 158,-53.5001"/>
</a>
</g>
</g>
<!-- UC2143a1 -->
<g id="node4" class="node"><title>UC2143a1</title>
<g id="a_node4"><a xlink:title="Selecting committee marks the issue as considered negatively.">
<path fill="#b3cde3" stroke="black" d="M389.667,-38.5C389.667,-38.5 410.333,-38.5 410.333,-38.5 414.167,-38.5 418,-42.3333 418,-46.1667 418,-46.1667 418,-53.8333 418,-53.8333 418,-57.6667 414.167,-61.5 410.333,-61.5 410.333,-61.5 389.667,-61.5 389.667,-61.5 385.833,-61.5 382,-57.6667 382,-53.8333 382,-53.8333 382,-46.1667 382,-46.1667 382,-42.3333 385.833,-38.5 389.667,-38.5"/>
<text text-anchor="middle" x="400" y="-46.3" font-family="Arial" font-size="14.00">•</text>
</a>
</g>
<text text-anchor="middle" x="369.5" y="-26.8" font-family="Arial" font-size="14.00">3a1</text>
</g>
<!-- UC2143&#45;&gt;UC2143a1 -->
<g id="edge3" class="edge"><title>UC2143:EXT&#45;&gt;UC2143a1:JMP</title>
<g id="a_edge3"><a xlink:href="#UC214_3">
<path fill="none" stroke="black" d="M241,-50C286.682,-50 339.746,-50 371.558,-50"/>
<polygon fill="black" stroke="black" points="371.878,-53.5001 381.878,-50 371.878,-46.5001 371.878,-53.5001"/>
</a>
</g>
</g>
<!-- UC2143a2 -->
<g id="node5" class="node"><title>UC2143a2</title>
<g id="a_node5"><a xlink:title="Use case finishes.">
<path fill="#fbb4ae" stroke="black" d="M454.667,-38.5C454.667,-38.5 475.333,-38.5 475.333,-38.5 479.167,-38.5 483,-42.3333 483,-46.1667 483,-46.1667 483,-53.8333 483,-53.8333 483,-57.6667 479.167,-61.5 475.333,-61.5 475.333,-61.5 454.667,-61.5 454.667,-61.5 450.833,-61.5 447,-57.6667 447,-53.8333 447,-53.8333 447,-46.1667 447,-46.1667 447,-42.3333 450.833,-38.5 454.667,-38.5"/>
<text text-anchor="middle" x="465" y="-46.3" font-family="Arial" font-size="14.00">•</text>
</a>
</g>
<text text-anchor="middle" x="434.5" y="-26.8" font-family="Arial" font-size="14.00">3a2</text>
</g>
<!-- UC2143a1&#45;&gt;UC2143a2 -->
<g id="edge4" class="edge"><title>UC2143a1:JMP&#45;&gt;UC2143a2:JMP</title>
<g id="a_edge4"><a xlink:href="#UC214_3a1">
<path fill="none" stroke="black" d="M418.106,-50C423.882,-50 430.417,-50 436.735,-50"/>
<polygon fill="black" stroke="black" points="436.991,-53.5001 446.991,-50 436.991,-46.5001 436.991,-53.5001"/>
</a>
</g>
</g>
</g>
</svg>
