<?xml version="1.0" encoding="UTF-8" standalone="no"?>
<!DOCTYPE svg PUBLIC "-//W3C//DTD SVG 1.1//EN"
 "http://www.w3.org/Graphics/SVG/1.1/DTD/svg11.dtd">
<!-- Generated by graphviz version 2.35.20131004.0446 (20131004.0446)
 -->
<!-- Title: mygraph Pages: 1 -->
<svg width="867pt" height="323pt"
 viewBox="62.00 62.00 805.14 260.92" xmlns="http://www.w3.org/2000/svg" xmlns:xlink="http://www.w3.org/1999/xlink">
<g id="graph0" class="graph" transform="scale(0.861111 0.861111) rotate(0) translate(76 299)">
<title>mygraph</title>
<polygon fill="white" stroke="white" points="-4,4 -4,-227 859,-227 859,4 -4,4"/>
<g id="clust1" class="cluster"><title>cluster_UC108</title>
<polygon fill="#ffffcc" stroke="black" points="8,-131 8,-215 747,-215 747,-131 8,-131"/>
</g>
<g id="clust2" class="cluster"><title>cluster_UC1087a</title>
<polygon fill="#f2f2f2" stroke="black" points="618,-8 618,-130 854,-130 854,-8 618,-8"/>
<text text-anchor="start" x="626" y="-114.8" font-family="Arial" font-size="14.00" fill="gray">Variation: 7a.</text>
<text text-anchor="middle" x="736" y="-99.8" font-family="Arial" font-size="14.00" fill="gray"> The issue was marked negatively. </text>
</g>
<!-- UC1081 -->
<g id="node1" class="node"><title>UC1081</title>
<g id="a_node1"><a xlink:title="Candidate chooses one of the selected and payed majors.">
<path fill="#b3cde3" stroke="black" d="M45.6667,-161.5C45.6667,-161.5 66.3333,-161.5 66.3333,-161.5 70.1667,-161.5 74,-165.333 74,-169.167 74,-169.167 74,-176.833 74,-176.833 74,-180.667 70.1667,-184.5 66.3333,-184.5 66.3333,-184.5 45.6667,-184.5 45.6667,-184.5 41.8333,-184.5 38,-180.667 38,-176.833 38,-176.833 38,-169.167 38,-169.167 38,-165.333 41.8333,-161.5 45.6667,-161.5"/>
<text text-anchor="middle" x="56" y="-169.3" font-family="Arial" font-size="14.00">•</text>
</a>
</g>
<text text-anchor="middle" x="33.5" y="-149.8" font-family="Arial" font-size="14.00">1</text>
</g>
<!-- UC1082 -->
<g id="node2" class="node"><title>UC1082</title>
<g id="a_node2"><a xlink:title="Candidate chooses the apply for cancellation option.">
<path fill="#b3cde3" stroke="black" d="M110.667,-161.5C110.667,-161.5 131.333,-161.5 131.333,-161.5 135.167,-161.5 139,-165.333 139,-169.167 139,-169.167 139,-176.833 139,-176.833 139,-180.667 135.167,-184.5 131.333,-184.5 131.333,-184.5 110.667,-184.5 110.667,-184.5 106.833,-184.5 103,-180.667 103,-176.833 103,-176.833 103,-169.167 103,-169.167 103,-165.333 106.833,-161.5 110.667,-161.5"/>
<text text-anchor="middle" x="121" y="-169.3" font-family="Arial" font-size="14.00">•</text>
</a>
</g>
<text text-anchor="middle" x="98.5" y="-149.8" font-family="Arial" font-size="14.00">2</text>
</g>
<!-- UC1081&#45;&gt;UC1082 -->
<g id="edge3" class="edge"><title>UC1081:JMP&#45;&gt;UC1082:JMP</title>
<g id="a_edge3"><a xlink:href="#UC108_1">
<path fill="none" stroke="black" d="M74.1061,-173C79.8817,-173 86.4172,-173 92.7354,-173"/>
<polygon fill="black" stroke="black" points="92.991,-176.5 102.991,-173 92.9909,-169.5 92.991,-176.5"/>
</a>
</g>
</g>
<!-- UC1083 -->
<g id="node3" class="node"><title>UC1083</title>
<g id="a_node3"><a xlink:title="System presents the application form.">
<path fill="#b3cde3" stroke="black" d="M175.667,-161.5C175.667,-161.5 196.333,-161.5 196.333,-161.5 200.167,-161.5 204,-165.333 204,-169.167 204,-169.167 204,-176.833 204,-176.833 204,-180.667 200.167,-184.5 196.333,-184.5 196.333,-184.5 175.667,-184.5 175.667,-184.5 171.833,-184.5 168,-180.667 168,-176.833 168,-176.833 168,-169.167 168,-169.167 168,-165.333 171.833,-161.5 175.667,-161.5"/>
<text text-anchor="middle" x="186" y="-169.3" font-family="Arial" font-size="14.00">•</text>
</a>
</g>
<text text-anchor="middle" x="163.5" y="-149.8" font-family="Arial" font-size="14.00">3</text>
</g>
<!-- UC1082&#45;&gt;UC1083 -->
<g id="edge4" class="edge"><title>UC1082:JMP&#45;&gt;UC1083:JMP</title>
<g id="a_edge4"><a xlink:href="#UC108_2">
<path fill="none" stroke="black" d="M139.106,-173C144.882,-173 151.417,-173 157.735,-173"/>
<polygon fill="black" stroke="black" points="157.991,-176.5 167.991,-173 157.991,-169.5 157.991,-176.5"/>
</a>
</g>
</g>
<!-- UC1084 -->
<g id="node4" class="node"><title>UC1084</title>
<g id="a_node4"><a xlink:title="Candidate provides justification for the payment cancellation.">
<path fill="#b3cde3" stroke="black" d="M240.667,-161.5C240.667,-161.5 261.333,-161.5 261.333,-161.5 265.167,-161.5 269,-165.333 269,-169.167 269,-169.167 269,-176.833 269,-176.833 269,-180.667 265.167,-184.5 261.333,-184.5 261.333,-184.5 240.667,-184.5 240.667,-184.5 236.833,-184.5 233,-180.667 233,-176.833 233,-176.833 233,-169.167 233,-169.167 233,-165.333 236.833,-161.5 240.667,-161.5"/>
<text text-anchor="middle" x="251" y="-169.3" font-family="Arial" font-size="14.00">•</text>
</a>
</g>
<text text-anchor="middle" x="228.5" y="-149.8" font-family="Arial" font-size="14.00">4</text>
</g>
<!-- UC1083&#45;&gt;UC1084 -->
<g id="edge5" class="edge"><title>UC1083:JMP&#45;&gt;UC1084:JMP</title>
<g id="a_edge5"><a xlink:href="#UC108_3">
<path fill="none" stroke="black" d="M204.106,-173C209.882,-173 216.417,-173 222.735,-173"/>
<polygon fill="black" stroke="black" points="222.991,-176.5 232.991,-173 222.991,-169.5 222.991,-176.5"/>
</a>
</g>
</g>
<!-- UC1085 -->
<g id="node5" class="node"><title>UC1085</title>
<g id="a_node5"><a xlink:title="System stores the application.">
<path fill="#b3cde3" stroke="black" d="M305.667,-161.5C305.667,-161.5 326.333,-161.5 326.333,-161.5 330.167,-161.5 334,-165.333 334,-169.167 334,-169.167 334,-176.833 334,-176.833 334,-180.667 330.167,-184.5 326.333,-184.5 326.333,-184.5 305.667,-184.5 305.667,-184.5 301.833,-184.5 298,-180.667 298,-176.833 298,-176.833 298,-169.167 298,-169.167 298,-165.333 301.833,-161.5 305.667,-161.5"/>
<text text-anchor="middle" x="316" y="-169.3" font-family="Arial" font-size="14.00">•</text>
</a>
</g>
<text text-anchor="middle" x="293.5" y="-149.8" font-family="Arial" font-size="14.00">5</text>
</g>
<!-- UC1084&#45;&gt;UC1085 -->
<g id="edge6" class="edge"><title>UC1084:JMP&#45;&gt;UC1085:JMP</title>
<g id="a_edge6"><a xlink:href="#UC108_4">
<path fill="none" stroke="black" d="M269.106,-173C274.882,-173 281.417,-173 287.735,-173"/>
<polygon fill="black" stroke="black" points="287.991,-176.5 297.991,-173 287.991,-169.5 287.991,-176.5"/>
</a>
</g>
</g>
<!-- UC1086 -->
<g id="node6" class="node"><title>UC1086</title>
<g id="a_node6"><a xlink:title="Selecting committee analyses application as an issue.">
<path fill="#b3cde3" stroke="black" d="M370.667,-161.5C370.667,-161.5 427.333,-161.5 427.333,-161.5 431.167,-161.5 435,-165.333 435,-169.167 435,-169.167 435,-176.833 435,-176.833 435,-180.667 431.167,-184.5 427.333,-184.5 427.333,-184.5 370.667,-184.5 370.667,-184.5 366.833,-184.5 363,-180.667 363,-176.833 363,-176.833 363,-169.167 363,-169.167 363,-165.333 366.833,-161.5 370.667,-161.5"/>
<text text-anchor="middle" x="381.5" y="-169.3" font-family="Arial" font-size="14.00">•</text>
<polyline fill="none" stroke="black" points="400,-161.5 400,-184.5 "/>
<text text-anchor="middle" x="417.5" y="-169.3" font-family="Arial" font-size="14.00"> </text>
</a>
</g>
<text text-anchor="middle" x="358.5" y="-149.8" font-family="Arial" font-size="14.00">6</text>
</g>
<!-- UC1085&#45;&gt;UC1086 -->
<g id="edge7" class="edge"><title>UC1085:JMP&#45;&gt;UC1086:JMP</title>
<g id="a_edge7"><a xlink:href="#UC108_5">
<path fill="none" stroke="black" d="M334.303,-173C340.008,-173 346.508,-173 352.977,-173"/>
<polygon fill="black" stroke="black" points="353,-176.5 363,-173 353,-169.5 353,-176.5"/>
</a>
</g>
</g>
<!-- UC1087 -->
<g id="node7" class="node"><title>UC1087</title>
<g id="a_node7"><a xlink:title="Selecting committee confirms payment cancellation.">
<path fill="#b3cde3" stroke="black" d="M508.667,-161.5C508.667,-161.5 565.333,-161.5 565.333,-161.5 569.167,-161.5 573,-165.333 573,-169.167 573,-169.167 573,-176.833 573,-176.833 573,-180.667 569.167,-184.5 565.333,-184.5 565.333,-184.5 508.667,-184.5 508.667,-184.5 504.833,-184.5 501,-180.667 501,-176.833 501,-176.833 501,-169.167 501,-169.167 501,-165.333 504.833,-161.5 508.667,-161.5"/>
<text text-anchor="middle" x="518.5" y="-169.3" font-family="Arial" font-size="14.00"> </text>
<polyline fill="none" stroke="black" points="536,-161.5 536,-184.5 "/>
<text text-anchor="middle" x="554.5" y="-169.3" font-family="Arial" font-size="14.00">•</text>
</a>
</g>
<text text-anchor="middle" x="496.5" y="-149.8" font-family="Arial" font-size="14.00">7</text>
</g>
<!-- UC1086&#45;&gt;UC1087 -->
<g id="edge8" class="edge"><title>UC1086:EXT&#45;&gt;UC1087:VAR</title>
<g id="a_edge8"><a xlink:href="#UC108_6">
<path fill="none" stroke="black" d="M435,-173C460.165,-173 468.889,-173 489.815,-173"/>
<polygon fill="black" stroke="black" points="490,-176.5 500,-173 490,-169.5 490,-176.5"/>
</a>
</g>
</g>
<!-- UC214 -->
<g id="node11" class="node"><title>UC214</title>
<g id="a_node11"><a xlink:href="../UC214/UC214.html" xlink:title="UC214 Solve issues" target="_top">
<polygon fill="#fed9a6" stroke="black" points="610,-101 464,-101 464,-65 610,-65 610,-101"/>
<text text-anchor="middle" x="537" y="-79.3" font-family="Arial" font-size="14.00">UC214 Solve issues</text>
</a>
</g>
</g>
<!-- UC1086&#45;&gt;UC214 -->
<g id="edge1" class="edge"><title>UC1086:JMP&#45;&gt;UC214</title>
<g id="a_edge1"><a xlink:href="#UC108_6">
<path fill="none" stroke="black" d="M381,-160C381,-123.04 416.786,-103.82 453.968,-93.8264"/>
<polygon fill="black" stroke="black" points="455.076,-97.158 463.945,-91.3621 453.398,-90.3622 455.076,-97.158"/>
</a>
</g>
</g>
<!-- UC1088 -->
<g id="node8" class="node"><title>UC1088</title>
<g id="a_node8"><a xlink:title="System sends information to the Candidate that the cancellation has been accepted and how money can be refunded.">
<path fill="#ccebc5" stroke="black" d="M688.667,-161.5C688.667,-161.5 709.333,-161.5 709.333,-161.5 713.167,-161.5 717,-165.333 717,-169.167 717,-169.167 717,-176.833 717,-176.833 717,-180.667 713.167,-184.5 709.333,-184.5 709.333,-184.5 688.667,-184.5 688.667,-184.5 684.833,-184.5 681,-180.667 681,-176.833 681,-176.833 681,-169.167 681,-169.167 681,-165.333 684.833,-161.5 688.667,-161.5"/>
<text text-anchor="middle" x="699" y="-169.3" font-family="Arial" font-size="14.00">•</text>
</a>
</g>
<text text-anchor="middle" x="676.5" y="-149.8" font-family="Arial" font-size="14.00">8</text>
</g>
<!-- UC1087&#45;&gt;UC1088 -->
<g id="edge9" class="edge"><title>UC1087:JMP&#45;&gt;UC1088:JMP</title>
<g id="a_edge9"><a xlink:href="#UC108_7">
<path fill="none" stroke="black" d="M574,-173C607.23,-173 645.43,-173 670.765,-173"/>
<polygon fill="black" stroke="black" points="670.783,-176.5 680.783,-173 670.783,-169.5 670.783,-176.5"/>
</a>
</g>
</g>
<!-- UC1087a1 -->
<g id="node9" class="node"><title>UC1087a1</title>
<g id="a_node9"><a xlink:title="System sends information to the Candidate that the cancellation has been refused.">
<path fill="#b3cde3" stroke="black" d="M688.667,-38.5C688.667,-38.5 709.333,-38.5 709.333,-38.5 713.167,-38.5 717,-42.3333 717,-46.1667 717,-46.1667 717,-53.8333 717,-53.8333 717,-57.6667 713.167,-61.5 709.333,-61.5 709.333,-61.5 688.667,-61.5 688.667,-61.5 684.833,-61.5 681,-57.6667 681,-53.8333 681,-53.8333 681,-46.1667 681,-46.1667 681,-42.3333 684.833,-38.5 688.667,-38.5"/>
<text text-anchor="middle" x="699" y="-46.3" font-family="Arial" font-size="14.00">•</text>
</a>
</g>
<text text-anchor="middle" x="668.5" y="-26.8" font-family="Arial" font-size="14.00">7a1</text>
</g>
<!-- UC1087&#45;&gt;UC1087a1 -->
<g id="edge10" class="edge"><title>UC1087:VAR&#45;&gt;UC1087a1:JMP</title>
<g id="a_edge10"><a xlink:href="#UC108_7">
<path fill="none" stroke="black" d="M518,-160C518,-113.032 569.888,-132.435 610,-108 638.955,-90.3614 647.632,-83.4161 672.089,-67.3142"/>
<polygon fill="black" stroke="black" points="674.169,-70.1363 680.63,-61.7394 670.343,-64.2744 674.169,-70.1363"/>
</a>
</g>
</g>
<!-- UC1087a2 -->
<g id="node10" class="node"><title>UC1087a2</title>
<g id="a_node10"><a xlink:title="Use case aborted.">
<path fill="#fbb4ae" stroke="black" d="M762.667,-38.5C762.667,-38.5 783.333,-38.5 783.333,-38.5 787.167,-38.5 791,-42.3333 791,-46.1667 791,-46.1667 791,-53.8333 791,-53.8333 791,-57.6667 787.167,-61.5 783.333,-61.5 783.333,-61.5 762.667,-61.5 762.667,-61.5 758.833,-61.5 755,-57.6667 755,-53.8333 755,-53.8333 755,-46.1667 755,-46.1667 755,-42.3333 758.833,-38.5 762.667,-38.5"/>
<text text-anchor="middle" x="773" y="-46.3" font-family="Arial" font-size="14.00">•</text>
</a>
</g>
<text text-anchor="middle" x="742.5" y="-26.8" font-family="Arial" font-size="14.00">7a2</text>
</g>
<!-- UC1087a1&#45;&gt;UC1087a2 -->
<g id="edge11" class="edge"><title>UC1087a1:JMP&#45;&gt;UC1087a2:JMP</title>
<g id="a_edge11"><a xlink:href="#UC108_7a1">
<path fill="none" stroke="black" d="M717.292,-50C725.536,-50 735.462,-50 744.638,-50"/>
<polygon fill="black" stroke="black" points="744.918,-53.5001 754.918,-50 744.918,-46.5001 744.918,-53.5001"/>
</a>
</g>
</g>
<!-- UC214&#45;&gt;UC1086 -->
<g id="edge2" class="edge"><title>UC214&#45;&gt;UC1086:EXT</title>
<path fill="none" stroke="black" d="M500.436,-101.016C488.043,-108.336 474.6,-117.546 464,-128 450.103,-141.705 455.502,-163.206 444.757,-170.491"/>
<polygon fill="black" stroke="black" points="443.813,-167.12 435,-173 445.557,-173.899 443.813,-167.12"/>
</g>
</g>
</svg>
