<?xml version="1.0" encoding="UTF-8" standalone="no"?>
<!DOCTYPE svg PUBLIC "-//W3C//DTD SVG 1.1//EN"
 "http://www.w3.org/Graphics/SVG/1.1/DTD/svg11.dtd">
<!-- Generated by graphviz version 2.35.20131004.0446 (20131004.0446)
 -->
<!-- Title: mygraph Pages: 1 -->
<svg width="1088pt" height="479pt"
 viewBox="62.00 62.00 1026.44 416.78" xmlns="http://www.w3.org/2000/svg" xmlns:xlink="http://www.w3.org/1999/xlink">
<g id="graph0" class="graph" transform="scale(0.861111 0.861111) rotate(0) translate(76 480)">
<title>mygraph</title>
<polygon fill="white" stroke="white" points="-4,4 -4,-408 1116,-408 1116,4 -4,4"/>
<g id="clust1" class="cluster"><title>cluster_UC104</title>
<polygon fill="#ffffcc" stroke="black" points="8,-312 8,-396 539,-396 539,-312 8,-312"/>
</g>
<g id="clust2" class="cluster"><title>cluster_UC1045a</title>
<polygon fill="#f2f2f2" stroke="black" points="378,-189 378,-311 1078,-311 1078,-189 378,-189"/>
<text text-anchor="start" x="386" y="-295.8" font-family="Arial" font-size="14.00" fill="gray">Variation: 5a.</text>
<text text-anchor="middle" x="532.5" y="-280.8" font-family="Arial" font-size="14.00" fill="gray"> Candidate chooses to pay by money transfer. </text>
</g>
<g id="clust3" class="cluster"><title>cluster_UC1045a3a</title>
<polygon fill="#f2f2f2" stroke="black" points="648,-66 648,-188 942,-188 942,-66 648,-66"/>
<text text-anchor="start" x="656" y="-172.8" font-family="Arial" font-size="14.00" fill="gray">Extension: 5a3a.</text>
<text text-anchor="middle" x="795" y="-157.8" font-family="Arial" font-size="14.00" fill="gray"> Error occurred while registering the money. </text>
</g>
<g id="clust4" class="cluster"><title>cluster_UC1045a4a</title>
<polygon fill="#f2f2f2" stroke="black" points="950,-66 950,-188 1111,-188 1111,-66 950,-66"/>
<text text-anchor="start" x="958" y="-172.8" font-family="Arial" font-size="14.00" fill="gray">Variation: 5a4a.</text>
<text text-anchor="middle" x="1030.5" y="-157.8" font-family="Arial" font-size="14.00" fill="gray"> If he/she don’t do that </text>
</g>
<!-- UC1041 -->
<g id="node1" class="node"><title>UC1041</title>
<g id="a_node1"><a xlink:title="Candidate proceeds to the chosen−majors view.">
<path fill="#b3cde3" stroke="black" d="M45.6667,-342.5C45.6667,-342.5 66.3333,-342.5 66.3333,-342.5 70.1667,-342.5 74,-346.333 74,-350.167 74,-350.167 74,-357.833 74,-357.833 74,-361.667 70.1667,-365.5 66.3333,-365.5 66.3333,-365.5 45.6667,-365.5 45.6667,-365.5 41.8333,-365.5 38,-361.667 38,-357.833 38,-357.833 38,-350.167 38,-350.167 38,-346.333 41.8333,-342.5 45.6667,-342.5"/>
<text text-anchor="middle" x="56" y="-350.3" font-family="Arial" font-size="14.00">•</text>
</a>
</g>
<text text-anchor="middle" x="33.5" y="-330.8" font-family="Arial" font-size="14.00">1</text>
</g>
<!-- UC1042 -->
<g id="node2" class="node"><title>UC1042</title>
<g id="a_node2"><a xlink:title="System presents list containing chosen majors.">
<path fill="#b3cde3" stroke="black" d="M110.667,-342.5C110.667,-342.5 131.333,-342.5 131.333,-342.5 135.167,-342.5 139,-346.333 139,-350.167 139,-350.167 139,-357.833 139,-357.833 139,-361.667 135.167,-365.5 131.333,-365.5 131.333,-365.5 110.667,-365.5 110.667,-365.5 106.833,-365.5 103,-361.667 103,-357.833 103,-357.833 103,-350.167 103,-350.167 103,-346.333 106.833,-342.5 110.667,-342.5"/>
<text text-anchor="middle" x="121" y="-350.3" font-family="Arial" font-size="14.00">•</text>
</a>
</g>
<text text-anchor="middle" x="98.5" y="-330.8" font-family="Arial" font-size="14.00">2</text>
</g>
<!-- UC1041&#45;&gt;UC1042 -->
<g id="edge3" class="edge"><title>UC1041:JMP&#45;&gt;UC1042:JMP</title>
<g id="a_edge3"><a xlink:href="#UC104_1">
<path fill="none" stroke="black" d="M74.1061,-354C79.8817,-354 86.4172,-354 92.7354,-354"/>
<polygon fill="black" stroke="black" points="92.991,-357.5 102.991,-354 92.9909,-350.5 92.991,-357.5"/>
</a>
</g>
</g>
<!-- UC1043 -->
<g id="node3" class="node"><title>UC1043</title>
<g id="a_node3"><a xlink:title="Candidate chooses a major that he/she wants to pay for.">
<path fill="#b3cde3" stroke="black" d="M175.667,-342.5C175.667,-342.5 196.333,-342.5 196.333,-342.5 200.167,-342.5 204,-346.333 204,-350.167 204,-350.167 204,-357.833 204,-357.833 204,-361.667 200.167,-365.5 196.333,-365.5 196.333,-365.5 175.667,-365.5 175.667,-365.5 171.833,-365.5 168,-361.667 168,-357.833 168,-357.833 168,-350.167 168,-350.167 168,-346.333 171.833,-342.5 175.667,-342.5"/>
<text text-anchor="middle" x="186" y="-350.3" font-family="Arial" font-size="14.00">•</text>
</a>
</g>
<text text-anchor="middle" x="163.5" y="-330.8" font-family="Arial" font-size="14.00">3</text>
</g>
<!-- UC1042&#45;&gt;UC1043 -->
<g id="edge4" class="edge"><title>UC1042:JMP&#45;&gt;UC1043:JMP</title>
<g id="a_edge4"><a xlink:href="#UC104_2">
<path fill="none" stroke="black" d="M139.106,-354C144.882,-354 151.417,-354 157.735,-354"/>
<polygon fill="black" stroke="black" points="157.991,-357.5 167.991,-354 157.991,-350.5 157.991,-357.5"/>
</a>
</g>
</g>
<!-- UC1044 -->
<g id="node4" class="node"><title>UC1044</title>
<g id="a_node4"><a xlink:title="System presents a payment form and asks about the method of payment.">
<path fill="#b3cde3" stroke="black" d="M240.667,-342.5C240.667,-342.5 261.333,-342.5 261.333,-342.5 265.167,-342.5 269,-346.333 269,-350.167 269,-350.167 269,-357.833 269,-357.833 269,-361.667 265.167,-365.5 261.333,-365.5 261.333,-365.5 240.667,-365.5 240.667,-365.5 236.833,-365.5 233,-361.667 233,-357.833 233,-357.833 233,-350.167 233,-350.167 233,-346.333 236.833,-342.5 240.667,-342.5"/>
<text text-anchor="middle" x="251" y="-350.3" font-family="Arial" font-size="14.00">•</text>
</a>
</g>
<text text-anchor="middle" x="228.5" y="-330.8" font-family="Arial" font-size="14.00">4</text>
</g>
<!-- UC1043&#45;&gt;UC1044 -->
<g id="edge5" class="edge"><title>UC1043:JMP&#45;&gt;UC1044:JMP</title>
<g id="a_edge5"><a xlink:href="#UC104_3">
<path fill="none" stroke="black" d="M204.106,-354C209.882,-354 216.417,-354 222.735,-354"/>
<polygon fill="black" stroke="black" points="222.991,-357.5 232.991,-354 222.991,-350.5 222.991,-357.5"/>
</a>
</g>
</g>
<!-- UC1045 -->
<g id="node5" class="node"><title>UC1045</title>
<g id="a_node5"><a xlink:title="Candidate chooses to use a credit card.">
<path fill="#b3cde3" stroke="black" d="M305.667,-342.5C305.667,-342.5 362.333,-342.5 362.333,-342.5 366.167,-342.5 370,-346.333 370,-350.167 370,-350.167 370,-357.833 370,-357.833 370,-361.667 366.167,-365.5 362.333,-365.5 362.333,-365.5 305.667,-365.5 305.667,-365.5 301.833,-365.5 298,-361.667 298,-357.833 298,-357.833 298,-350.167 298,-350.167 298,-346.333 301.833,-342.5 305.667,-342.5"/>
<text text-anchor="middle" x="315.5" y="-350.3" font-family="Arial" font-size="14.00"> </text>
<polyline fill="none" stroke="black" points="333,-342.5 333,-365.5 "/>
<text text-anchor="middle" x="351.5" y="-350.3" font-family="Arial" font-size="14.00">•</text>
</a>
</g>
<text text-anchor="middle" x="293.5" y="-330.8" font-family="Arial" font-size="14.00">5</text>
</g>
<!-- UC1044&#45;&gt;UC1045 -->
<g id="edge6" class="edge"><title>UC1044:JMP&#45;&gt;UC1045:VAR</title>
<g id="a_edge6"><a xlink:href="#UC104_4">
<path fill="none" stroke="black" d="M269.303,-354C275.008,-354 281.508,-354 287.977,-354"/>
<polygon fill="black" stroke="black" points="288,-357.5 298,-354 288,-350.5 288,-357.5"/>
</a>
</g>
</g>
<!-- UC1046 -->
<g id="node6" class="node"><title>UC1046</title>
<g id="a_node6"><a xlink:title="Candidate provides credit card data and confirms payment.">
<path fill="#b3cde3" stroke="black" d="M415.667,-342.5C415.667,-342.5 436.333,-342.5 436.333,-342.5 440.167,-342.5 444,-346.333 444,-350.167 444,-350.167 444,-357.833 444,-357.833 444,-361.667 440.167,-365.5 436.333,-365.5 436.333,-365.5 415.667,-365.5 415.667,-365.5 411.833,-365.5 408,-361.667 408,-357.833 408,-357.833 408,-350.167 408,-350.167 408,-346.333 411.833,-342.5 415.667,-342.5"/>
<text text-anchor="middle" x="426" y="-350.3" font-family="Arial" font-size="14.00">•</text>
</a>
</g>
<text text-anchor="middle" x="403.5" y="-330.8" font-family="Arial" font-size="14.00">6</text>
</g>
<!-- UC1045&#45;&gt;UC1046 -->
<g id="edge7" class="edge"><title>UC1045:JMP&#45;&gt;UC1046:JMP</title>
<g id="a_edge7"><a xlink:href="#UC104_5">
<path fill="none" stroke="black" d="M370,-354C378.985,-354 388.782,-354 397.633,-354"/>
<polygon fill="black" stroke="black" points="397.841,-357.5 407.841,-354 397.841,-350.5 397.841,-357.5"/>
</a>
</g>
</g>
<!-- UC1045a1 -->
<g id="node8" class="node"><title>UC1045a1</title>
<g id="a_node8"><a xlink:title="System presents Candidate ’s individual account number.">
<path fill="#b3cde3" stroke="black" d="M415.667,-219.5C415.667,-219.5 436.333,-219.5 436.333,-219.5 440.167,-219.5 444,-223.333 444,-227.167 444,-227.167 444,-234.833 444,-234.833 444,-238.667 440.167,-242.5 436.333,-242.5 436.333,-242.5 415.667,-242.5 415.667,-242.5 411.833,-242.5 408,-238.667 408,-234.833 408,-234.833 408,-227.167 408,-227.167 408,-223.333 411.833,-219.5 415.667,-219.5"/>
<text text-anchor="middle" x="426" y="-227.3" font-family="Arial" font-size="14.00">•</text>
</a>
</g>
<text text-anchor="middle" x="395.5" y="-207.8" font-family="Arial" font-size="14.00">5a1</text>
</g>
<!-- UC1045&#45;&gt;UC1045a1 -->
<g id="edge9" class="edge"><title>UC1045:VAR&#45;&gt;UC1045a1:JMP</title>
<g id="a_edge9"><a xlink:href="#UC104_5">
<path fill="none" stroke="black" d="M315,-341C315,-294.083 365.65,-260.358 398.522,-243.41"/>
<polygon fill="black" stroke="black" points="400.259,-246.456 407.671,-238.885 397.155,-240.181 400.259,-246.456"/>
</a>
</g>
</g>
<!-- UC1047 -->
<g id="node7" class="node"><title>UC1047</title>
<g id="a_node7"><a xlink:title="System presents updated list of the chosen majors.">
<path fill="#ccebc5" stroke="black" d="M480.667,-342.5C480.667,-342.5 501.333,-342.5 501.333,-342.5 505.167,-342.5 509,-346.333 509,-350.167 509,-350.167 509,-357.833 509,-357.833 509,-361.667 505.167,-365.5 501.333,-365.5 501.333,-365.5 480.667,-365.5 480.667,-365.5 476.833,-365.5 473,-361.667 473,-357.833 473,-357.833 473,-350.167 473,-350.167 473,-346.333 476.833,-342.5 480.667,-342.5"/>
<text text-anchor="middle" x="491" y="-350.3" font-family="Arial" font-size="14.00">•</text>
</a>
</g>
<text text-anchor="middle" x="468.5" y="-330.8" font-family="Arial" font-size="14.00">7</text>
</g>
<!-- UC1046&#45;&gt;UC1047 -->
<g id="edge8" class="edge"><title>UC1046:JMP&#45;&gt;UC1047:JMP</title>
<g id="a_edge8"><a xlink:href="#UC104_6">
<path fill="none" stroke="black" d="M444.106,-354C449.882,-354 456.417,-354 462.735,-354"/>
<polygon fill="black" stroke="black" points="462.991,-357.5 472.991,-354 462.991,-350.5 462.991,-357.5"/>
</a>
</g>
</g>
<!-- UC1045a2 -->
<g id="node9" class="node"><title>UC1045a2</title>
<g id="a_node9"><a xlink:title="Candidate performs money transfer ( outside the system ).">
<path fill="#b3cde3" stroke="black" d="M480.667,-219.5C480.667,-219.5 501.333,-219.5 501.333,-219.5 505.167,-219.5 509,-223.333 509,-227.167 509,-227.167 509,-234.833 509,-234.833 509,-238.667 505.167,-242.5 501.333,-242.5 501.333,-242.5 480.667,-242.5 480.667,-242.5 476.833,-242.5 473,-238.667 473,-234.833 473,-234.833 473,-227.167 473,-227.167 473,-223.333 476.833,-219.5 480.667,-219.5"/>
<text text-anchor="middle" x="491" y="-227.3" font-family="Arial" font-size="14.00">•</text>
</a>
</g>
<text text-anchor="middle" x="460.5" y="-207.8" font-family="Arial" font-size="14.00">5a2</text>
</g>
<!-- UC1045a1&#45;&gt;UC1045a2 -->
<g id="edge10" class="edge"><title>UC1045a1:JMP&#45;&gt;UC1045a2:JMP</title>
<g id="a_edge10"><a xlink:href="#UC104_5a1">
<path fill="none" stroke="black" d="M444.106,-231C449.882,-231 456.417,-231 462.735,-231"/>
<polygon fill="black" stroke="black" points="462.991,-234.5 472.991,-231 462.991,-227.5 462.991,-234.5"/>
</a>
</g>
</g>
<!-- UC1045a3 -->
<g id="node10" class="node"><title>UC1045a3</title>
<g id="a_node10"><a xlink:title="Money is registered by the System (MOD2 UC12)">
<path fill="#b3cde3" stroke="black" d="M554.667,-219.5C554.667,-219.5 611.333,-219.5 611.333,-219.5 615.167,-219.5 619,-223.333 619,-227.167 619,-227.167 619,-234.833 619,-234.833 619,-238.667 615.167,-242.5 611.333,-242.5 611.333,-242.5 554.667,-242.5 554.667,-242.5 550.833,-242.5 547,-238.667 547,-234.833 547,-234.833 547,-227.167 547,-227.167 547,-223.333 550.833,-219.5 554.667,-219.5"/>
<text text-anchor="middle" x="565.5" y="-227.3" font-family="Arial" font-size="14.00">•</text>
<polyline fill="none" stroke="black" points="584,-219.5 584,-242.5 "/>
<text text-anchor="middle" x="601.5" y="-227.3" font-family="Arial" font-size="14.00"> </text>
</a>
</g>
<text text-anchor="middle" x="534.5" y="-207.8" font-family="Arial" font-size="14.00">5a3</text>
</g>
<!-- UC1045a2&#45;&gt;UC1045a3 -->
<g id="edge11" class="edge"><title>UC1045a2:JMP&#45;&gt;UC1045a3:JMP</title>
<g id="a_edge11"><a xlink:href="#UC104_5a2">
<path fill="none" stroke="black" d="M509.159,-231C517.292,-231 527.235,-231 536.988,-231"/>
<polygon fill="black" stroke="black" points="537,-234.5 547,-231 537,-227.5 537,-234.5"/>
</a>
</g>
</g>
<!-- UC1045a4 -->
<g id="node11" class="node"><title>UC1045a4</title>
<g id="a_node11"><a xlink:title="After money is registered candidate assigns the payment to a major.">
<path fill="#b3cde3" stroke="black" d="M748.667,-219.5C748.667,-219.5 841.333,-219.5 841.333,-219.5 845.167,-219.5 849,-223.333 849,-227.167 849,-227.167 849,-234.833 849,-234.833 849,-238.667 845.167,-242.5 841.333,-242.5 841.333,-242.5 748.667,-242.5 748.667,-242.5 744.833,-242.5 741,-238.667 741,-234.833 741,-234.833 741,-227.167 741,-227.167 741,-223.333 744.833,-219.5 748.667,-219.5"/>
<text text-anchor="middle" x="758.5" y="-227.3" font-family="Arial" font-size="14.00"> </text>
<polyline fill="none" stroke="black" points="776,-219.5 776,-242.5 "/>
<text text-anchor="middle" x="794.5" y="-227.3" font-family="Arial" font-size="14.00">•</text>
<polyline fill="none" stroke="black" points="813,-219.5 813,-242.5 "/>
<text text-anchor="middle" x="831" y="-227.3" font-family="Arial" font-size="14.00"> </text>
</a>
</g>
<text text-anchor="middle" x="728.5" y="-207.8" font-family="Arial" font-size="14.00">5a4</text>
</g>
<!-- UC1045a3&#45;&gt;UC1045a4 -->
<g id="edge12" class="edge"><title>UC1045a3:EXT&#45;&gt;UC1045a4:VAR</title>
<g id="a_edge12"><a xlink:href="#UC104_5a3">
<path fill="none" stroke="black" d="M619,-231C669.207,-231 684.259,-231 729.796,-231"/>
<polygon fill="black" stroke="black" points="730,-234.5 740,-231 730,-227.5 730,-234.5"/>
</a>
</g>
</g>
<!-- UC1045a3a1 -->
<g id="node13" class="node"><title>UC1045a3a1</title>
<g id="a_node13"><a xlink:title="Transaction terminated.">
<path fill="#fbb4ae" stroke="black" d="M784.667,-96.5C784.667,-96.5 805.333,-96.5 805.333,-96.5 809.167,-96.5 813,-100.333 813,-104.167 813,-104.167 813,-111.833 813,-111.833 813,-115.667 809.167,-119.5 805.333,-119.5 805.333,-119.5 784.667,-119.5 784.667,-119.5 780.833,-119.5 777,-115.667 777,-111.833 777,-111.833 777,-104.167 777,-104.167 777,-100.333 780.833,-96.5 784.667,-96.5"/>
<text text-anchor="middle" x="795" y="-104.3" font-family="Arial" font-size="14.00">•</text>
</a>
</g>
<text text-anchor="middle" x="757" y="-84.8" font-family="Arial" font-size="14.00">5a3a1</text>
</g>
<!-- UC1045a3&#45;&gt;UC1045a3a1 -->
<g id="edge14" class="edge"><title>UC1045a3:EXT&#45;&gt;UC1045a3a1:JMP</title>
<g id="a_edge14"><a xlink:href="#UC104_5a3">
<path fill="none" stroke="black" d="M619,-231C642.793,-231 630.479,-202.098 648,-186 683.707,-153.194 735.778,-129.877 767.409,-117.709"/>
<polygon fill="black" stroke="black" points="768.775,-120.935 776.914,-114.151 766.322,-114.379 768.775,-120.935"/>
</a>
</g>
</g>
<!-- UC212 -->
<g id="node15" class="node"><title>UC212</title>
<g id="a_node15"><a xlink:href="../UC212/UC212.html" xlink:title="UC212 Import admissions fees" target="_top">
<polygon fill="#fed9a6" stroke="black" points="902.5,-36 687.5,-36 687.5,-0 902.5,-0 902.5,-36"/>
<text text-anchor="middle" x="795" y="-14.3" font-family="Arial" font-size="14.00">UC212 Import admissions fees</text>
</a>
</g>
</g>
<!-- UC1045a3&#45;&gt;UC212 -->
<g id="edge1" class="edge"><title>UC1045a3:JMP&#45;&gt;UC212</title>
<g id="a_edge1"><a xlink:href="#UC104_5a3">
<path fill="none" stroke="black" d="M565,-218C565,-139.856 587.686,-112.686 648,-63 659.755,-53.3161 673.583,-45.7124 687.961,-39.743"/>
<polygon fill="black" stroke="black" points="689.418,-42.9322 697.474,-36.0508 686.885,-36.4066 689.418,-42.9322"/>
</a>
</g>
</g>
<!-- UC1045a5 -->
<g id="node12" class="node"><title>UC1045a5</title>
<g id="a_node12"><a xlink:title="Use cases finishes.">
<path fill="#fbb4ae" stroke="black" d="M1019.67,-219.5C1019.67,-219.5 1040.33,-219.5 1040.33,-219.5 1044.17,-219.5 1048,-223.333 1048,-227.167 1048,-227.167 1048,-234.833 1048,-234.833 1048,-238.667 1044.17,-242.5 1040.33,-242.5 1040.33,-242.5 1019.67,-242.5 1019.67,-242.5 1015.83,-242.5 1012,-238.667 1012,-234.833 1012,-234.833 1012,-227.167 1012,-227.167 1012,-223.333 1015.83,-219.5 1019.67,-219.5"/>
<text text-anchor="middle" x="1030" y="-227.3" font-family="Arial" font-size="14.00">•</text>
</a>
</g>
<text text-anchor="middle" x="999.5" y="-207.8" font-family="Arial" font-size="14.00">5a5</text>
</g>
<!-- UC1045a4&#45;&gt;UC1045a5 -->
<g id="edge13" class="edge"><title>UC1045a4:OUT&#45;&gt;UC1045a5:JMP</title>
<g id="a_edge13"><a xlink:href="#UC104_5a4">
<path fill="none" stroke="black" d="M850,-231C903.667,-231 966.334,-231 1001.78,-231"/>
<polygon fill="black" stroke="black" points="1001.86,-234.5 1011.86,-231 1001.86,-227.5 1001.86,-234.5"/>
</a>
</g>
</g>
<!-- UC1045a4a1 -->
<g id="node14" class="node"><title>UC1045a4a1</title>
<g id="a_node14"><a xlink:title="the payment will be assigned automatically according to priorities.">
<path fill="#b3cde3" stroke="black" d="M1019.67,-96.5C1019.67,-96.5 1040.33,-96.5 1040.33,-96.5 1044.17,-96.5 1048,-100.333 1048,-104.167 1048,-104.167 1048,-111.833 1048,-111.833 1048,-115.667 1044.17,-119.5 1040.33,-119.5 1040.33,-119.5 1019.67,-119.5 1019.67,-119.5 1015.83,-119.5 1012,-115.667 1012,-111.833 1012,-111.833 1012,-104.167 1012,-104.167 1012,-100.333 1015.83,-96.5 1019.67,-96.5"/>
<text text-anchor="middle" x="1030" y="-104.3" font-family="Arial" font-size="14.00">•</text>
</a>
</g>
<text text-anchor="middle" x="992" y="-84.8" font-family="Arial" font-size="14.00">5a4a1</text>
</g>
<!-- UC1045a4&#45;&gt;UC1045a4a1 -->
<g id="edge15" class="edge"><title>UC1045a4:VAR&#45;&gt;UC1045a4a1:JMP</title>
<g id="a_edge15"><a xlink:href="#UC104_5a4">
<path fill="none" stroke="black" d="M758,-218C758,-176.673 905.17,-209.748 942,-191 959.127,-182.282 986.046,-145.697 1004.18,-126.876"/>
<polygon fill="black" stroke="black" points="1006.75,-129.259 1011.59,-119.835 1001.93,-124.184 1006.75,-129.259"/>
</a>
</g>
</g>
<!-- UC1045a4a1&#45;&gt;UC1045a4 -->
<g id="edge16" class="edge"><title>UC1045a4a1:JMP&#45;&gt;UC1045a4:OUT</title>
<g id="a_edge16"><a xlink:href="#UC104_5a4a1">
<path fill="none" stroke="black" d="M1011.6,-119.823C946.901,-172.577 937.903,-226.395 860.338,-230.72"/>
<polygon fill="black" stroke="black" points="859.902,-227.231 850,-231 860.091,-234.228 859.902,-227.231"/>
</a>
</g>
</g>
<!-- UC212&#45;&gt;UC1045a3 -->
<g id="edge2" class="edge"><title>UC212&#45;&gt;UC1045a3:EXT</title>
<path fill="none" stroke="black" d="M687.15,-35.5662C672.341,-42.0828 658.598,-50.9504 648,-63 625.521,-88.5589 650.606,-203.8 628.459,-226.944"/>
<polygon fill="black" stroke="black" points="626.811,-223.842 619,-231 629.57,-230.276 626.811,-223.842"/>
</g>
</g>
</svg>
