<?xml version="1.0" encoding="UTF-8" standalone="no"?>
<!DOCTYPE svg PUBLIC "-//W3C//DTD SVG 1.1//EN"
 "http://www.w3.org/Graphics/SVG/1.1/DTD/svg11.dtd">
<!-- Generated by graphviz version 2.36.0 (20140111.2315)
 -->
<!-- Title: mygraph Pages: 1 -->
<svg width="475pt" height="323pt"
 viewBox="62.00 62.00 413.33 260.92" xmlns="http://www.w3.org/2000/svg" xmlns:xlink="http://www.w3.org/1999/xlink">
<g id="graph0" class="graph" transform="scale(0.861111 0.861111) rotate(0) translate(76 299)">
<title>mygraph</title>
<polygon fill="white" stroke="none" points="-4,4 -4,-227 404,-227 404,4 -4,4"/>
<g id="clust1" class="cluster"><title>cluster_UC19_</title>
<polygon fill="#ffffcc" stroke="black" points="8,-131 8,-215 339,-215 339,-131 8,-131"/>
</g>
<g id="clust2" class="cluster"><title>cluster_UC19_2a</title>
<polygon fill="#f2f2f2" stroke="black" points="183,-8 183,-130 400,-130 400,-8 183,-8"/>
<text text-anchor="start" x="191" y="-114.8" font-family="Arial" font-size="14.00" fill="gray">Extension: 2a.</text>
<text text-anchor="middle" x="291.5" y="-99.8" font-family="Arial" font-size="14.00" fill="gray"> Application is in stopped or h... </text>
</g>
<!-- UC191 -->
<g id="node1" class="node"><title>UC191</title>
<g id="a_node1"><a xlink:title="Client sends request to application&#39;s url.">
<path fill="#b3cde3" stroke="black" d="M45.6667,-161.5C45.6667,-161.5 66.3333,-161.5 66.3333,-161.5 70.1667,-161.5 74,-165.333 74,-169.167 74,-169.167 74,-176.833 74,-176.833 74,-180.667 70.1667,-184.5 66.3333,-184.5 66.3333,-184.5 45.6667,-184.5 45.6667,-184.5 41.8333,-184.5 38,-180.667 38,-176.833 38,-176.833 38,-169.167 38,-169.167 38,-165.333 41.8333,-161.5 45.6667,-161.5"/>
<text text-anchor="middle" x="56" y="-169.3" font-family="Arial" font-size="14.00">•</text>
</a>
</g>
<text text-anchor="middle" x="33.5" y="-149.8" font-family="Arial" font-size="14.00">1</text>
</g>
<!-- UC192 -->
<g id="node2" class="node"><title>UC192</title>
<g id="a_node2"><a xlink:title="System checks that application is in running state.">
<path fill="#b3cde3" stroke="black" d="M110.667,-161.5C110.667,-161.5 167.333,-161.5 167.333,-161.5 171.167,-161.5 175,-165.333 175,-169.167 175,-169.167 175,-176.833 175,-176.833 175,-180.667 171.167,-184.5 167.333,-184.5 167.333,-184.5 110.667,-184.5 110.667,-184.5 106.833,-184.5 103,-180.667 103,-176.833 103,-176.833 103,-169.167 103,-169.167 103,-165.333 106.833,-161.5 110.667,-161.5"/>
<text text-anchor="middle" x="121.5" y="-169.3" font-family="Arial" font-size="14.00">•</text>
<polyline fill="none" stroke="black" points="140,-161.5 140,-184.5 "/>
<text text-anchor="middle" x="157.5" y="-169.3" font-family="Arial" font-size="14.00"> </text>
</a>
</g>
<text text-anchor="middle" x="98.5" y="-149.8" font-family="Arial" font-size="14.00">2</text>
</g>
<!-- UC191&#45;&gt;UC192 -->
<g id="edge1" class="edge"><title>UC191:JMP&#45;&gt;UC192:JMP</title>
<g id="a_edge1"><a xlink:href="#UC19_1">
<path fill="none" stroke="black" d="M74.3026,-173C80.0084,-173 86.5079,-173 92.9772,-173"/>
<polygon fill="black" stroke="black" points="93,-176.5 103,-173 93,-169.5 93,-176.5"/>
</a>
</g>
</g>
<!-- UC193 -->
<g id="node3" class="node"><title>UC193</title>
<g id="a_node3"><a xlink:title="System routes request to application.">
<path fill="#ccebc5" stroke="black" d="M280.667,-161.5C280.667,-161.5 301.333,-161.5 301.333,-161.5 305.167,-161.5 309,-165.333 309,-169.167 309,-169.167 309,-176.833 309,-176.833 309,-180.667 305.167,-184.5 301.333,-184.5 301.333,-184.5 280.667,-184.5 280.667,-184.5 276.833,-184.5 273,-180.667 273,-176.833 273,-176.833 273,-169.167 273,-169.167 273,-165.333 276.833,-161.5 280.667,-161.5"/>
<text text-anchor="middle" x="291" y="-169.3" font-family="Arial" font-size="14.00">•</text>
</a>
</g>
<text text-anchor="middle" x="268.5" y="-149.8" font-family="Arial" font-size="14.00">3</text>
</g>
<!-- UC192&#45;&gt;UC193 -->
<g id="edge2" class="edge"><title>UC192:EXT&#45;&gt;UC193:JMP</title>
<g id="a_edge2"><a xlink:href="#UC19_2">
<path fill="none" stroke="black" d="M175,-173C204.903,-173 239.142,-173 262.628,-173"/>
<polygon fill="black" stroke="black" points="262.917,-176.5 272.917,-173 262.917,-169.5 262.917,-176.5"/>
</a>
</g>
</g>
<!-- UC192a1 -->
<g id="node4" class="node"><title>UC192a1</title>
<g id="a_node4"><a xlink:title="System responds with error message. #(abort)">
<path fill="#fbb4ae" stroke="black" d="M280.667,-38.5C280.667,-38.5 301.333,-38.5 301.333,-38.5 305.167,-38.5 309,-42.3333 309,-46.1667 309,-46.1667 309,-53.8333 309,-53.8333 309,-57.6667 305.167,-61.5 301.333,-61.5 301.333,-61.5 280.667,-61.5 280.667,-61.5 276.833,-61.5 273,-57.6667 273,-53.8333 273,-53.8333 273,-46.1667 273,-46.1667 273,-42.3333 276.833,-38.5 280.667,-38.5"/>
<text text-anchor="middle" x="291" y="-46.3" font-family="Arial" font-size="14.00">•</text>
</a>
</g>
<text text-anchor="middle" x="260.5" y="-26.8" font-family="Arial" font-size="14.00">2a1</text>
</g>
<!-- UC192&#45;&gt;UC192a1 -->
<g id="edge3" class="edge"><title>UC192:EXT&#45;&gt;UC192a1:JMP</title>
<g id="a_edge3"><a xlink:href="#UC19_2">
<path fill="none" stroke="black" d="M175,-173C185.157,-173 177.646,-136.631 183,-128 202.134,-97.1519 238.401,-74.8108 263.601,-62.1406"/>
<polygon fill="black" stroke="black" points="265.179,-65.265 272.658,-57.7605 262.132,-58.9632 265.179,-65.265"/>
</a>
</g>
</g>
</g>
</svg>
