<?xml version="1.0" encoding="UTF-8" standalone="no"?>
<!DOCTYPE svg PUBLIC "-//W3C//DTD SVG 1.1//EN"
 "http://www.w3.org/Graphics/SVG/1.1/DTD/svg11.dtd">
<!-- Generated by graphviz version 2.36.0 (20140111.2315)
 -->
<!-- Title: mygraph Pages: 1 -->
<svg width="1006pt" height="812pt"
 viewBox="62.00 62.00 943.78 750.03" xmlns="http://www.w3.org/2000/svg" xmlns:xlink="http://www.w3.org/1999/xlink">
<g id="graph0" class="graph" transform="scale(0.861111 0.861111) rotate(0) translate(76 867)">
<title>mygraph</title>
<polygon fill="white" stroke="none" points="-4,4 -4,-795 1020,-795 1020,4 -4,4"/>
<g id="clust1" class="cluster"><title>cluster_UC18_</title>
<polygon fill="#ffffcc" stroke="black" points="8,-112 8,-196 719,-196 719,-112 8,-112"/>
</g>
<g id="clust2" class="cluster"><title>cluster_UC18_4a</title>
<polygon fill="#f2f2f2" stroke="black" points="794,-8 794,-130 1016,-130 1016,-8 794,-8"/>
<text text-anchor="start" x="802" y="-114.8" font-family="Arial" font-size="14.00" fill="gray">Variation: 4a.</text>
<text text-anchor="middle" x="905" y="-99.8" font-family="Arial" font-size="14.00" fill="gray"> User intends to perform additi... </text>
</g>
<g id="clust3" class="cluster"><title>cluster_UC18_3a</title>
<polygon fill="#f2f2f2" stroke="black" points="525,-661 525,-783 746,-783 746,-661 525,-661"/>
<text text-anchor="start" x="533" y="-767.8" font-family="Arial" font-size="14.00" fill="gray">Variation: 3a.</text>
<text text-anchor="middle" x="635.5" y="-752.8" font-family="Arial" font-size="14.00" fill="gray"> User decides to start the appl... </text>
</g>
<g id="clust4" class="cluster"><title>cluster_UC18_3b</title>
<polygon fill="#f2f2f2" stroke="black" points="523,-538 523,-660 747,-660 747,-538 523,-538"/>
<text text-anchor="start" x="531" y="-644.8" font-family="Arial" font-size="14.00" fill="gray">Variation: 3b.</text>
<text text-anchor="middle" x="635" y="-629.8" font-family="Arial" font-size="14.00" fill="gray"> User decides to stop the appli... </text>
</g>
<g id="clust5" class="cluster"><title>cluster_UC18_3c</title>
<polygon fill="#f2f2f2" stroke="black" points="521,-415 521,-537 750,-537 750,-415 521,-415"/>
<text text-anchor="start" x="529" y="-521.8" font-family="Arial" font-size="14.00" fill="gray">Variation: 3c.</text>
<text text-anchor="middle" x="635.5" y="-506.8" font-family="Arial" font-size="14.00" fill="gray"> User decides to hibernate appl... </text>
</g>
<g id="clust6" class="cluster"><title>cluster_UC18_3d</title>
<polygon fill="#f2f2f2" stroke="black" points="520,-292 520,-414 750,-414 750,-292 520,-292"/>
<text text-anchor="start" x="528" y="-398.8" font-family="Arial" font-size="14.00" fill="gray">Variation: 3d.</text>
<text text-anchor="middle" x="635" y="-383.8" font-family="Arial" font-size="14.00" fill="gray"> User does not want to perform ... </text>
</g>
<!-- UC181 -->
<g id="node1" class="node"><title>UC181</title>
<g id="a_node1"><a xlink:title="User creates an application. #(include:UC1)">
<path fill="#b3cde3" stroke="black" d="M45.6667,-142.5C45.6667,-142.5 102.333,-142.5 102.333,-142.5 106.167,-142.5 110,-146.333 110,-150.167 110,-150.167 110,-157.833 110,-157.833 110,-161.667 106.167,-165.5 102.333,-165.5 102.333,-165.5 45.6667,-165.5 45.6667,-165.5 41.8333,-165.5 38,-161.667 38,-157.833 38,-157.833 38,-150.167 38,-150.167 38,-146.333 41.8333,-142.5 45.6667,-142.5"/>
<text text-anchor="middle" x="56.5" y="-150.3" font-family="Arial" font-size="14.00">•</text>
<polyline fill="none" stroke="black" points="75,-142.5 75,-165.5 "/>
<text text-anchor="middle" x="92.5" y="-150.3" font-family="Arial" font-size="14.00"> </text>
</a>
</g>
<text text-anchor="middle" x="33.5" y="-130.8" font-family="Arial" font-size="14.00">1</text>
</g>
<!-- UC182 -->
<g id="node2" class="node"><title>UC182</title>
<g id="a_node2"><a xlink:title="User evaluates the service. (this step is just target for gotos)">
<path fill="#b3cde3" stroke="black" d="M210.667,-142.5C210.667,-142.5 231.333,-142.5 231.333,-142.5 235.167,-142.5 239,-146.333 239,-150.167 239,-150.167 239,-157.833 239,-157.833 239,-161.667 235.167,-165.5 231.333,-165.5 231.333,-165.5 210.667,-165.5 210.667,-165.5 206.833,-165.5 203,-161.667 203,-157.833 203,-157.833 203,-150.167 203,-150.167 203,-146.333 206.833,-142.5 210.667,-142.5"/>
<text text-anchor="middle" x="221" y="-150.3" font-family="Arial" font-size="14.00">•</text>
</a>
</g>
<text text-anchor="middle" x="198.5" y="-130.8" font-family="Arial" font-size="14.00">2</text>
</g>
<!-- UC181&#45;&gt;UC182 -->
<g id="edge13" class="edge"><title>UC181:EXT&#45;&gt;UC182:JMP</title>
<g id="a_edge13"><a xlink:href="#UC18_1">
<path fill="none" stroke="black" d="M110,-154C138.153,-154 170.324,-154 192.757,-154"/>
<polygon fill="black" stroke="black" points="192.928,-157.5 202.927,-154 192.927,-150.5 192.928,-157.5"/>
</a>
</g>
</g>
<!-- UC1 -->
<g id="node10" class="node"><title>UC1</title>
<g id="a_node10"><a xlink:href="../UC1/UC1.html" xlink:title="UC1 Create application" target="_top">
<polygon fill="#fed9a6" stroke="black" points="302.5,-82 139.5,-82 139.5,-46 302.5,-46 302.5,-82"/>
<text text-anchor="middle" x="221" y="-60.3" font-family="Arial" font-size="14.00">UC1 Create application</text>
</a>
</g>
</g>
<!-- UC181&#45;&gt;UC1 -->
<g id="edge1" class="edge"><title>UC181:JMP&#45;&gt;UC1</title>
<g id="a_edge1"><a xlink:href="#UC18_1">
<path fill="none" stroke="black" d="M56,-141C56,-103.608 91.3638,-84.3393 129.248,-74.4251"/>
<polygon fill="black" stroke="black" points="130.531,-77.717 139.441,-71.9851 128.901,-70.9093 130.531,-77.717"/>
</a>
</g>
</g>
<!-- UC183 -->
<g id="node3" class="node"><title>UC183</title>
<g id="a_node3"><a xlink:title="User modifies the application using Git. #(include:UC15)">
<path fill="#b3cde3" stroke="black" d="M339.667,-142.5C339.667,-142.5 468.333,-142.5 468.333,-142.5 472.167,-142.5 476,-146.333 476,-150.167 476,-150.167 476,-157.833 476,-157.833 476,-161.667 472.167,-165.5 468.333,-165.5 468.333,-165.5 339.667,-165.5 339.667,-165.5 335.833,-165.5 332,-161.667 332,-157.833 332,-157.833 332,-150.167 332,-150.167 332,-146.333 335.833,-142.5 339.667,-142.5"/>
<text text-anchor="middle" x="349.5" y="-150.3" font-family="Arial" font-size="14.00"> </text>
<polyline fill="none" stroke="black" points="367,-142.5 367,-165.5 "/>
<text text-anchor="middle" x="386" y="-150.3" font-family="Arial" font-size="14.00">•</text>
<polyline fill="none" stroke="black" points="405,-142.5 405,-165.5 "/>
<text text-anchor="middle" x="422.5" y="-150.3" font-family="Arial" font-size="14.00"> </text>
<polyline fill="none" stroke="black" points="440,-142.5 440,-165.5 "/>
<text text-anchor="middle" x="458" y="-150.3" font-family="Arial" font-size="14.00"> </text>
</a>
</g>
<text text-anchor="middle" x="327.5" y="-130.8" font-family="Arial" font-size="14.00">3</text>
</g>
<!-- UC182&#45;&gt;UC183 -->
<g id="edge14" class="edge"><title>UC182:JMP&#45;&gt;UC183:VAR</title>
<g id="a_edge14"><a xlink:href="#UC18_2">
<path fill="none" stroke="black" d="M239.073,-154C258.809,-154 291.648,-154 321.873,-154"/>
<polygon fill="black" stroke="black" points="322,-157.5 332,-154 322,-150.5 322,-157.5"/>
</a>
</g>
</g>
<!-- UC184 -->
<g id="node4" class="node"><title>UC184</title>
<g id="a_node4"><a xlink:title="User deletes the application. #(include:UC2)">
<path fill="#ccebc5" stroke="black" d="M588.667,-142.5C588.667,-142.5 681.333,-142.5 681.333,-142.5 685.167,-142.5 689,-146.333 689,-150.167 689,-150.167 689,-157.833 689,-157.833 689,-161.667 685.167,-165.5 681.333,-165.5 681.333,-165.5 588.667,-165.5 588.667,-165.5 584.833,-165.5 581,-161.667 581,-157.833 581,-157.833 581,-150.167 581,-150.167 581,-146.333 584.833,-142.5 588.667,-142.5"/>
<text text-anchor="middle" x="598.5" y="-150.3" font-family="Arial" font-size="14.00"> </text>
<polyline fill="none" stroke="black" points="616,-142.5 616,-165.5 "/>
<text text-anchor="middle" x="634.5" y="-150.3" font-family="Arial" font-size="14.00">•</text>
<polyline fill="none" stroke="black" points="653,-142.5 653,-165.5 "/>
<text text-anchor="middle" x="671" y="-150.3" font-family="Arial" font-size="14.00"> </text>
</a>
</g>
<text text-anchor="middle" x="576.5" y="-130.8" font-family="Arial" font-size="14.00">4</text>
</g>
<!-- UC183&#45;&gt;UC184 -->
<g id="edge15" class="edge"><title>UC183:OUT&#45;&gt;UC184:VAR</title>
<g id="a_edge15"><a xlink:href="#UC18_3">
<path fill="none" stroke="black" d="M476,-154C518.611,-154 531.761,-154 569.768,-154"/>
<polygon fill="black" stroke="black" points="570,-157.5 580,-154 570,-150.5 570,-157.5"/>
</a>
</g>
</g>
<!-- UC183a1 -->
<g id="node6" class="node"><title>UC183a1</title>
<g id="a_node6"><a xlink:title="User starts the application. #(include:UC3)">
<path fill="#b3cde3" stroke="black" d="M606.667,-691.5C606.667,-691.5 663.333,-691.5 663.333,-691.5 667.167,-691.5 671,-695.333 671,-699.167 671,-699.167 671,-706.833 671,-706.833 671,-710.667 667.167,-714.5 663.333,-714.5 663.333,-714.5 606.667,-714.5 606.667,-714.5 602.833,-714.5 599,-710.667 599,-706.833 599,-706.833 599,-699.167 599,-699.167 599,-695.333 602.833,-691.5 606.667,-691.5"/>
<text text-anchor="middle" x="617.5" y="-699.3" font-family="Arial" font-size="14.00">•</text>
<polyline fill="none" stroke="black" points="636,-691.5 636,-714.5 "/>
<text text-anchor="middle" x="653.5" y="-699.3" font-family="Arial" font-size="14.00"> </text>
</a>
</g>
<text text-anchor="middle" x="586.5" y="-679.8" font-family="Arial" font-size="14.00">3a1</text>
</g>
<!-- UC183&#45;&gt;UC183a1 -->
<g id="edge18" class="edge"><title>UC183:VAR&#45;&gt;UC183a1:JMP</title>
<g id="a_edge18"><a xlink:href="#UC18_3">
<path fill="none" stroke="black" d="M349,-167C349,-282.545 420.561,-584.129 505,-663 539.496,-695.221 605.574,-647.465 615.688,-679.922"/>
<polygon fill="black" stroke="black" points="612.238,-680.536 617,-690 619.179,-679.632 612.238,-680.536"/>
</a>
</g>
</g>
<!-- UC183b1 -->
<g id="node7" class="node"><title>UC183b1</title>
<g id="a_node7"><a xlink:title="User stops the application. #(include:UC4)">
<path fill="#b3cde3" stroke="black" d="M606.667,-568.5C606.667,-568.5 663.333,-568.5 663.333,-568.5 667.167,-568.5 671,-572.333 671,-576.167 671,-576.167 671,-583.833 671,-583.833 671,-587.667 667.167,-591.5 663.333,-591.5 663.333,-591.5 606.667,-591.5 606.667,-591.5 602.833,-591.5 599,-587.667 599,-583.833 599,-583.833 599,-576.167 599,-576.167 599,-572.333 602.833,-568.5 606.667,-568.5"/>
<text text-anchor="middle" x="617.5" y="-576.3" font-family="Arial" font-size="14.00">•</text>
<polyline fill="none" stroke="black" points="636,-568.5 636,-591.5 "/>
<text text-anchor="middle" x="653.5" y="-576.3" font-family="Arial" font-size="14.00"> </text>
</a>
</g>
<text text-anchor="middle" x="586.5" y="-556.8" font-family="Arial" font-size="14.00">3b1</text>
</g>
<!-- UC183&#45;&gt;UC183b1 -->
<g id="edge20" class="edge"><title>UC183:VAR&#45;&gt;UC183b1:JMP</title>
<g id="a_edge20"><a xlink:href="#UC18_3">
<path fill="none" stroke="black" d="M349,-167C349,-346.692 368.216,-423.469 505,-540 540.932,-570.612 605.798,-524.213 615.714,-556.893"/>
<polygon fill="black" stroke="black" points="612.266,-557.522 617,-567 619.21,-556.638 612.266,-557.522"/>
</a>
</g>
</g>
<!-- UC183c1 -->
<g id="node8" class="node"><title>UC183c1</title>
<g id="a_node8"><a xlink:title="User hibernates the application. #(include:UC5)">
<path fill="#b3cde3" stroke="black" d="M606.667,-445.5C606.667,-445.5 663.333,-445.5 663.333,-445.5 667.167,-445.5 671,-449.333 671,-453.167 671,-453.167 671,-460.833 671,-460.833 671,-464.667 667.167,-468.5 663.333,-468.5 663.333,-468.5 606.667,-468.5 606.667,-468.5 602.833,-468.5 599,-464.667 599,-460.833 599,-460.833 599,-453.167 599,-453.167 599,-449.333 602.833,-445.5 606.667,-445.5"/>
<text text-anchor="middle" x="617.5" y="-453.3" font-family="Arial" font-size="14.00">•</text>
<polyline fill="none" stroke="black" points="636,-445.5 636,-468.5 "/>
<text text-anchor="middle" x="653.5" y="-453.3" font-family="Arial" font-size="14.00"> </text>
</a>
</g>
<text text-anchor="middle" x="586.5" y="-433.8" font-family="Arial" font-size="14.00">3c1</text>
</g>
<!-- UC183&#45;&gt;UC183c1 -->
<g id="edge22" class="edge"><title>UC183:VAR&#45;&gt;UC183c1:JMP</title>
<g id="a_edge22"><a xlink:href="#UC18_3">
<path fill="none" stroke="black" d="M349,-167C349,-333.397 424.907,-452.052 587.663,-456.849"/>
<polygon fill="black" stroke="black" points="587.95,-460.354 598,-457 588.052,-453.354 587.95,-460.354"/>
</a>
</g>
</g>
<!-- UC183d1 -->
<g id="node9" class="node"><title>UC183d1</title>
<g id="a_node9"><a xlink:title="Flow of the use case continues with next step.">
<path fill="#b3cde3" stroke="black" d="M624.667,-322.5C624.667,-322.5 645.333,-322.5 645.333,-322.5 649.167,-322.5 653,-326.333 653,-330.167 653,-330.167 653,-337.833 653,-337.833 653,-341.667 649.167,-345.5 645.333,-345.5 645.333,-345.5 624.667,-345.5 624.667,-345.5 620.833,-345.5 617,-341.667 617,-337.833 617,-337.833 617,-330.167 617,-330.167 617,-326.333 620.833,-322.5 624.667,-322.5"/>
<text text-anchor="middle" x="635" y="-330.3" font-family="Arial" font-size="14.00">•</text>
</a>
</g>
<text text-anchor="middle" x="604.5" y="-310.8" font-family="Arial" font-size="14.00">3d1</text>
</g>
<!-- UC183&#45;&gt;UC183d1 -->
<g id="edge24" class="edge"><title>UC183:VAR&#45;&gt;UC183d1:JMP</title>
<g id="a_edge24"><a xlink:href="#UC18_3">
<path fill="none" stroke="black" d="M349,-167C349,-285.404 534.063,-321.379 606.456,-330.922"/>
<polygon fill="black" stroke="black" points="606.319,-334.432 616.674,-332.19 607.182,-327.485 606.319,-334.432"/>
</a>
</g>
</g>
<!-- UC15 -->
<g id="node11" class="node"><title>UC15</title>
<g id="a_node11"><a xlink:href="../UC15/UC15.html" xlink:title="UC15 Modify application data using Git" target="_top">
<polygon fill="#fed9a6" stroke="black" points="765,-262 505,-262 505,-226 765,-226 765,-262"/>
<text text-anchor="middle" x="635" y="-240.3" font-family="Arial" font-size="14.00">UC15 Modify application data using Git</text>
</a>
</g>
</g>
<!-- UC183&#45;&gt;UC15 -->
<g id="edge3" class="edge"><title>UC183:JMP&#45;&gt;UC15</title>
<g id="a_edge3"><a xlink:href="#UC18_3">
<path fill="none" stroke="black" d="M386,-167C386,-219.949 438.199,-240.521 494.702,-247.279"/>
<polygon fill="black" stroke="black" points="494.605,-250.788 504.915,-248.351 495.335,-243.827 494.605,-250.788"/>
</a>
</g>
</g>
<!-- UC184a1 -->
<g id="node5" class="node"><title>UC184a1</title>
<g id="a_node5"><a xlink:title="User performs additional action. #(goto:2)">
<path fill="#b3cde3" stroke="black" d="M894.667,-38.5C894.667,-38.5 915.333,-38.5 915.333,-38.5 919.167,-38.5 923,-42.3333 923,-46.1667 923,-46.1667 923,-53.8333 923,-53.8333 923,-57.6667 919.167,-61.5 915.333,-61.5 915.333,-61.5 894.667,-61.5 894.667,-61.5 890.833,-61.5 887,-57.6667 887,-53.8333 887,-53.8333 887,-46.1667 887,-46.1667 887,-42.3333 890.833,-38.5 894.667,-38.5"/>
<text text-anchor="middle" x="905" y="-46.3" font-family="Arial" font-size="14.00">•</text>
</a>
</g>
<text text-anchor="middle" x="874.5" y="-26.8" font-family="Arial" font-size="14.00">4a1</text>
</g>
<!-- UC184&#45;&gt;UC184a1 -->
<g id="edge16" class="edge"><title>UC184:VAR&#45;&gt;UC184a1:JMP</title>
<g id="a_edge16"><a xlink:href="#UC18_4">
<path fill="none" stroke="black" d="M598,-141C598,-126.532 801.072,-75.404 876.895,-56.818"/>
<polygon fill="black" stroke="black" points="877.832,-60.1922 886.715,-54.4186 876.17,-53.3922 877.832,-60.1922"/>
</a>
</g>
</g>
<!-- UC2 -->
<g id="node12" class="node"><title>UC2</title>
<g id="a_node12"><a xlink:href="../UC2/UC2.html" xlink:title="UC2 Delete application" target="_top">
<polygon fill="#fed9a6" stroke="black" points="986,-196 824,-196 824,-160 986,-160 986,-196"/>
<text text-anchor="middle" x="905" y="-174.3" font-family="Arial" font-size="14.00">UC2 Delete application</text>
</a>
</g>
</g>
<!-- UC184&#45;&gt;UC2 -->
<g id="edge5" class="edge"><title>UC184:JMP&#45;&gt;UC2</title>
<g id="a_edge5"><a xlink:href="#UC18_4">
<path fill="none" stroke="black" d="M634,-167C634,-203.779 735.284,-199.632 813.785,-190.894"/>
<polygon fill="black" stroke="black" points="814.188,-194.371 823.722,-189.751 813.388,-187.417 814.188,-194.371"/>
</a>
</g>
</g>
<!-- UC184a1&#45;&gt;UC182 -->
<g id="edge17" class="edge"><title>UC184a1:JMP&#45;&gt;UC182:JMP</title>
<g id="a_edge17"><a xlink:href="#UC18_4a1">
<path fill="none" stroke="black" d="M886.671,-52.5675C815.413,-62.5813 549.983,-100.18 332,-135 303.666,-139.526 271.339,-145.107 248.909,-149.046"/>
<polygon fill="black" stroke="black" points="248.293,-145.6 239.052,-150.783 249.508,-152.494 248.293,-145.6"/>
</a>
</g>
</g>
<!-- UC183a1&#45;&gt;UC183 -->
<g id="edge19" class="edge"><title>UC183a1:EXT&#45;&gt;UC183:OUT</title>
<g id="a_edge19"><a xlink:href="#UC18_3a1">
<path fill="none" stroke="black" d="M654,-690C654,-622.699 550.529,-712.563 505,-663 469.342,-624.183 458.978,-259.805 458.068,-177.236"/>
<polygon fill="black" stroke="black" points="461.566,-176.977 458,-167 454.566,-177.023 461.566,-176.977"/>
</a>
</g>
</g>
<!-- UC3 -->
<g id="node13" class="node"><title>UC3</title>
<g id="a_node13"><a xlink:href="../UC3/UC3.html" xlink:title="UC3 Start application" target="_top">
<polygon fill="#fed9a6" stroke="black" points="979.5,-721 830.5,-721 830.5,-685 979.5,-685 979.5,-721"/>
<text text-anchor="middle" x="905" y="-699.3" font-family="Arial" font-size="14.00">UC3 Start application</text>
</a>
</g>
</g>
<!-- UC183a1&#45;&gt;UC3 -->
<g id="edge7" class="edge"><title>UC183a1:JMP&#45;&gt;UC3</title>
<g id="a_edge7"><a xlink:href="#UC18_3a1">
<path fill="none" stroke="black" d="M617,-690C617,-648.919 735.833,-666.089 820.568,-683.555"/>
<polygon fill="black" stroke="black" points="819.958,-687.003 830.463,-685.627 821.393,-680.152 819.958,-687.003"/>
</a>
</g>
</g>
<!-- UC183b1&#45;&gt;UC183 -->
<g id="edge21" class="edge"><title>UC183b1:EXT&#45;&gt;UC183:OUT</title>
<g id="a_edge21"><a xlink:href="#UC18_3b1">
<path fill="none" stroke="black" d="M654,-567C654,-499.699 551.289,-588.854 505,-540 478.009,-511.513 460.251,-244.218 458.199,-177.32"/>
<polygon fill="black" stroke="black" points="461.692,-176.931 458,-167 454.694,-177.066 461.692,-176.931"/>
</a>
</g>
</g>
<!-- UC4 -->
<g id="node14" class="node"><title>UC4</title>
<g id="a_node14"><a xlink:href="../UC4/UC4.html" xlink:title="UC4 Stop application" target="_top">
<polygon fill="#fed9a6" stroke="black" points="980,-598 830,-598 830,-562 980,-562 980,-598"/>
<text text-anchor="middle" x="905" y="-576.3" font-family="Arial" font-size="14.00">UC4 Stop application</text>
</a>
</g>
</g>
<!-- UC183b1&#45;&gt;UC4 -->
<g id="edge9" class="edge"><title>UC183b1:JMP&#45;&gt;UC4</title>
<g id="a_edge9"><a xlink:href="#UC18_3b1">
<path fill="none" stroke="black" d="M617,-567C617,-526.039 735.14,-542.989 819.825,-560.402"/>
<polygon fill="black" stroke="black" points="819.213,-563.849 829.717,-562.469 820.644,-556.997 819.213,-563.849"/>
</a>
</g>
</g>
<!-- UC183c1&#45;&gt;UC183 -->
<g id="edge23" class="edge"><title>UC183c1:EXT&#45;&gt;UC183:OUT</title>
<g id="a_edge23"><a xlink:href="#UC18_3c1">
<path fill="none" stroke="black" d="M654,-444C654,-376.699 552.745,-464.432 505,-417 467.09,-379.338 458.854,-239.992 458.066,-177.111"/>
<polygon fill="black" stroke="black" points="461.565,-176.977 458,-167 454.566,-177.023 461.565,-176.977"/>
</a>
</g>
</g>
<!-- UC5 -->
<g id="node15" class="node"><title>UC5</title>
<g id="a_node15"><a xlink:href="../UC5/UC5.html" xlink:title="UC5 Hibernate application" target="_top">
<polygon fill="#fed9a6" stroke="black" points="995.5,-475 814.5,-475 814.5,-439 995.5,-439 995.5,-475"/>
<text text-anchor="middle" x="905" y="-453.3" font-family="Arial" font-size="14.00">UC5 Hibernate application</text>
</a>
</g>
</g>
<!-- UC183c1&#45;&gt;UC5 -->
<g id="edge11" class="edge"><title>UC183c1:JMP&#45;&gt;UC5</title>
<g id="a_edge11"><a xlink:href="#UC18_3c1">
<path fill="none" stroke="black" d="M617,-444C617,-403.399 733.073,-419.696 817.585,-436.943"/>
<polygon fill="black" stroke="black" points="816.964,-440.389 827.466,-438.993 818.386,-433.534 816.964,-440.389"/>
</a>
</g>
</g>
<!-- UC183d1&#45;&gt;UC183 -->
<g id="edge25" class="edge"><title>UC183d1:JMP&#45;&gt;UC183:OUT</title>
<g id="a_edge25"><a xlink:href="#UC18_3d1">
<path fill="none" stroke="black" d="M616.838,-330.055C588.521,-322.934 534.089,-305.187 505,-269 474.426,-230.966 520.784,-164.791 486.009,-155.178"/>
<polygon fill="black" stroke="black" points="486.341,-151.693 476,-154 485.522,-158.645 486.341,-151.693"/>
</a>
</g>
</g>
<!-- UC1&#45;&gt;UC181 -->
<g id="edge2" class="edge"><title>UC1&#45;&gt;UC181:EXT</title>
<path fill="none" stroke="black" d="M178.254,-82.1688C164.776,-89.2883 150.389,-98.3325 139,-109 124.755,-122.343 130.377,-144.076 119.724,-151.456"/>
<polygon fill="black" stroke="black" points="118.788,-148.083 110,-154 120.56,-154.855 118.788,-148.083"/>
</g>
<!-- UC15&#45;&gt;UC183 -->
<g id="edge4" class="edge"><title>UC15&#45;&gt;UC183:EXT</title>
<path fill="none" stroke="black" d="M504.88,-238.971C464.67,-230.442 429.286,-212.659 423.751,-176.995"/>
<polygon fill="black" stroke="black" points="427.239,-176.71 423,-167 420.259,-177.234 427.239,-176.71"/>
</g>
<!-- UC2&#45;&gt;UC184 -->
<g id="edge6" class="edge"><title>UC2&#45;&gt;UC184:EXT</title>
<path fill="none" stroke="black" d="M823.957,-164.736C786.913,-159.609 741.956,-154.792 700.245,-154.088"/>
<polygon fill="black" stroke="black" points="700.03,-150.586 690,-154 699.969,-157.586 700.03,-150.586"/>
</g>
<!-- UC3&#45;&gt;UC183a1 -->
<g id="edge8" class="edge"><title>UC3&#45;&gt;UC183a1:EXT</title>
<path fill="none" stroke="black" d="M830.338,-703C787.583,-703 732.381,-703 682.006,-703"/>
<polygon fill="black" stroke="black" points="682,-699.5 672,-703 682,-706.5 682,-699.5"/>
</g>
<!-- UC4&#45;&gt;UC183b1 -->
<g id="edge10" class="edge"><title>UC4&#45;&gt;UC183b1:EXT</title>
<path fill="none" stroke="black" d="M829.817,-580C787.213,-580 732.378,-580 682.281,-580"/>
<polygon fill="black" stroke="black" points="682,-576.5 672,-580 682,-583.5 682,-576.5"/>
</g>
<!-- UC5&#45;&gt;UC183c1 -->
<g id="edge12" class="edge"><title>UC5&#45;&gt;UC183c1:EXT</title>
<path fill="none" stroke="black" d="M814.487,-457C774.523,-457 726.547,-457 682.273,-457"/>
<polygon fill="black" stroke="black" points="682,-453.5 672,-457 682,-460.5 682,-453.5"/>
</g>
</g>
</svg>
