<?xml version="1.0" encoding="UTF-8" standalone="no"?>
<!DOCTYPE svg PUBLIC "-//W3C//DTD SVG 1.1//EN"
 "http://www.w3.org/Graphics/SVG/1.1/DTD/svg11.dtd">
<!-- Generated by graphviz version 2.36.0 (20140111.2315)
 -->
<!-- Title: mygraph Pages: 1 -->
<svg width="836pt" height="323pt"
 viewBox="62.00 62.00 774.14 261.49" xmlns="http://www.w3.org/2000/svg" xmlns:xlink="http://www.w3.org/1999/xlink">
<g id="graph0" class="graph" transform="scale(0.861111 0.861111) rotate(0) translate(76 299.671)">
<title>mygraph</title>
<polygon fill="white" stroke="none" points="-4,4 -4,-227.671 823,-227.671 823,4 -4,4"/>
<g id="clust1" class="cluster"><title>cluster_UC2_</title>
<polygon fill="#ffffcc" stroke="black" points="8,-131.671 8,-215.671 811,-215.671 811,-131.671 8,-131.671"/>
</g>
<g id="clust2" class="cluster"><title>cluster_UC2_4a</title>
<polygon fill="#f2f2f2" stroke="black" points="349,-8.67073 349,-130.671 558,-130.671 558,-8.67073 349,-8.67073"/>
<text text-anchor="start" x="357" y="-115.471" font-family="Arial" font-size="14.00" fill="gray">Extension: 4a.</text>
<text text-anchor="middle" x="453.5" y="-100.471" font-family="Arial" font-size="14.00" fill="gray"> Application is in the running ... </text>
</g>
<!-- UC21 -->
<g id="node1" class="node"><title>UC21</title>
<g id="a_node1"><a xlink:title="User selects application to delete.">
<path fill="#b3cde3" stroke="black" d="M45.6667,-162.171C45.6667,-162.171 66.3333,-162.171 66.3333,-162.171 70.1667,-162.171 74,-166.004 74,-169.837 74,-169.837 74,-177.504 74,-177.504 74,-181.337 70.1667,-185.171 66.3333,-185.171 66.3333,-185.171 45.6667,-185.171 45.6667,-185.171 41.8333,-185.171 38,-181.337 38,-177.504 38,-177.504 38,-169.837 38,-169.837 38,-166.004 41.8333,-162.171 45.6667,-162.171"/>
<text text-anchor="middle" x="56" y="-169.971" font-family="Arial" font-size="14.00">•</text>
</a>
</g>
<text text-anchor="middle" x="33.5" y="-150.471" font-family="Arial" font-size="14.00">1</text>
</g>
<!-- UC22 -->
<g id="node2" class="node"><title>UC22</title>
<g id="a_node2"><a xlink:title="System shows warning message and asks for user confirmation.">
<path fill="#b3cde3" stroke="black" d="M110.667,-162.171C110.667,-162.171 131.333,-162.171 131.333,-162.171 135.167,-162.171 139,-166.004 139,-169.837 139,-169.837 139,-177.504 139,-177.504 139,-181.337 135.167,-185.171 131.333,-185.171 131.333,-185.171 110.667,-185.171 110.667,-185.171 106.833,-185.171 103,-181.337 103,-177.504 103,-177.504 103,-169.837 103,-169.837 103,-166.004 106.833,-162.171 110.667,-162.171"/>
<text text-anchor="middle" x="121" y="-169.971" font-family="Arial" font-size="14.00">•</text>
</a>
</g>
<text text-anchor="middle" x="98.5" y="-150.471" font-family="Arial" font-size="14.00">2</text>
</g>
<!-- UC21&#45;&gt;UC22 -->
<g id="edge3" class="edge"><title>UC21:JMP&#45;&gt;UC22:JMP</title>
<g id="a_edge3"><a xlink:href="#UC2_1">
<path fill="none" stroke="black" d="M74.1061,-173.671C79.8817,-173.671 86.4172,-173.671 92.7354,-173.671"/>
<polygon fill="black" stroke="black" points="92.991,-177.171 102.991,-173.671 92.9909,-170.171 92.991,-177.171"/>
</a>
</g>
</g>
<!-- UC23 -->
<g id="node3" class="node"><title>UC23</title>
<g id="a_node3"><a xlink:title="User confirms the delete.">
<path fill="#b3cde3" stroke="black" d="M175.667,-162.171C175.667,-162.171 196.333,-162.171 196.333,-162.171 200.167,-162.171 204,-166.004 204,-169.837 204,-169.837 204,-177.504 204,-177.504 204,-181.337 200.167,-185.171 196.333,-185.171 196.333,-185.171 175.667,-185.171 175.667,-185.171 171.833,-185.171 168,-181.337 168,-177.504 168,-177.504 168,-169.837 168,-169.837 168,-166.004 171.833,-162.171 175.667,-162.171"/>
<text text-anchor="middle" x="186" y="-169.971" font-family="Arial" font-size="14.00">•</text>
</a>
</g>
<text text-anchor="middle" x="163.5" y="-150.471" font-family="Arial" font-size="14.00">3</text>
</g>
<!-- UC22&#45;&gt;UC23 -->
<g id="edge4" class="edge"><title>UC22:JMP&#45;&gt;UC23:JMP</title>
<g id="a_edge4"><a xlink:href="#UC2_2">
<path fill="none" stroke="black" d="M139.106,-173.671C144.882,-173.671 151.417,-173.671 157.735,-173.671"/>
<polygon fill="black" stroke="black" points="157.991,-177.171 167.991,-173.671 157.991,-170.171 157.991,-177.171"/>
</a>
</g>
</g>
<!-- UC24 -->
<g id="node4" class="node"><title>UC24</title>
<g id="a_node4"><a xlink:title="System checks state of the application.">
<path fill="#b3cde3" stroke="black" d="M240.667,-162.171C240.667,-162.171 333.333,-162.171 333.333,-162.171 337.167,-162.171 341,-166.004 341,-169.837 341,-169.837 341,-177.504 341,-177.504 341,-181.337 337.167,-185.171 333.333,-185.171 333.333,-185.171 240.667,-185.171 240.667,-185.171 236.833,-185.171 233,-181.337 233,-177.504 233,-177.504 233,-169.837 233,-169.837 233,-166.004 236.833,-162.171 240.667,-162.171"/>
<text text-anchor="middle" x="251.5" y="-169.971" font-family="Arial" font-size="14.00">•</text>
<polyline fill="none" stroke="black" points="270,-162.171 270,-185.171 "/>
<text text-anchor="middle" x="287.5" y="-169.971" font-family="Arial" font-size="14.00"> </text>
<polyline fill="none" stroke="black" points="305,-162.171 305,-185.171 "/>
<text text-anchor="middle" x="323" y="-169.971" font-family="Arial" font-size="14.00"> </text>
</a>
</g>
<text text-anchor="middle" x="228.5" y="-150.471" font-family="Arial" font-size="14.00">4</text>
</g>
<!-- UC23&#45;&gt;UC24 -->
<g id="edge5" class="edge"><title>UC23:JMP&#45;&gt;UC24:JMP</title>
<g id="a_edge5"><a xlink:href="#UC2_3">
<path fill="none" stroke="black" d="M204.303,-173.671C210.008,-173.671 216.508,-173.671 222.977,-173.671"/>
<polygon fill="black" stroke="black" points="223,-177.171 233,-173.671 223,-170.171 223,-177.171"/>
</a>
</g>
</g>
<!-- UC25 -->
<g id="node5" class="node"><title>UC25</title>
<g id="a_node5"><a xlink:title="System deletes the application.">
<path fill="#b3cde3" stroke="black" d="M442.667,-162.171C442.667,-162.171 463.333,-162.171 463.333,-162.171 467.167,-162.171 471,-166.004 471,-169.837 471,-169.837 471,-177.504 471,-177.504 471,-181.337 467.167,-185.171 463.333,-185.171 463.333,-185.171 442.667,-185.171 442.667,-185.171 438.833,-185.171 435,-181.337 435,-177.504 435,-177.504 435,-169.837 435,-169.837 435,-166.004 438.833,-162.171 442.667,-162.171"/>
<text text-anchor="middle" x="453" y="-169.971" font-family="Arial" font-size="14.00">•</text>
</a>
</g>
<text text-anchor="middle" x="430.5" y="-150.471" font-family="Arial" font-size="14.00">5</text>
</g>
<!-- UC24&#45;&gt;UC25 -->
<g id="edge6" class="edge"><title>UC24:OUT&#45;&gt;UC25:JMP</title>
<g id="a_edge6"><a xlink:href="#UC2_4">
<path fill="none" stroke="black" d="M341,-173.671C369.407,-173.671 401.867,-173.671 424.503,-173.671"/>
<polygon fill="black" stroke="black" points="424.765,-177.171 434.765,-173.671 424.765,-170.171 424.765,-177.171"/>
</a>
</g>
</g>
<!-- UC24a1 -->
<g id="node8" class="node"><title>UC24a1</title>
<g id="a_node8"><a xlink:title="System stops application. #(include:UC4)">
<path fill="#b3cde3" stroke="black" d="M424.667,-39.1707C424.667,-39.1707 481.333,-39.1707 481.333,-39.1707 485.167,-39.1707 489,-43.0041 489,-46.8374 489,-46.8374 489,-54.5041 489,-54.5041 489,-58.3374 485.167,-62.1707 481.333,-62.1707 481.333,-62.1707 424.667,-62.1707 424.667,-62.1707 420.833,-62.1707 417,-58.3374 417,-54.5041 417,-54.5041 417,-46.8374 417,-46.8374 417,-43.0041 420.833,-39.1707 424.667,-39.1707"/>
<text text-anchor="middle" x="435.5" y="-46.9707" font-family="Arial" font-size="14.00">•</text>
<polyline fill="none" stroke="black" points="454,-39.1707 454,-62.1707 "/>
<text text-anchor="middle" x="471.5" y="-46.9707" font-family="Arial" font-size="14.00"> </text>
</a>
</g>
<text text-anchor="middle" x="404.5" y="-27.4707" font-family="Arial" font-size="14.00">4a1</text>
</g>
<!-- UC24&#45;&gt;UC24a1 -->
<g id="edge9" class="edge"><title>UC24:EXT&#45;&gt;UC24a1:JMP</title>
<g id="a_edge9"><a xlink:href="#UC2_4">
<path fill="none" stroke="black" d="M288,-160.671C288,-89.177 336.139,-54.039 405.6,-50.9019"/>
<polygon fill="black" stroke="black" points="406.08,-54.3922 416,-50.6707 405.925,-47.3939 406.08,-54.3922"/>
</a>
</g>
</g>
<!-- UC26 -->
<g id="node6" class="node"><title>UC26</title>
<g id="a_node6"><a xlink:title="System deletes the git repository.">
<path fill="#b3cde3" stroke="black" d="M630.667,-162.171C630.667,-162.171 651.333,-162.171 651.333,-162.171 655.167,-162.171 659,-166.004 659,-169.837 659,-169.837 659,-177.504 659,-177.504 659,-181.337 655.167,-185.171 651.333,-185.171 651.333,-185.171 630.667,-185.171 630.667,-185.171 626.833,-185.171 623,-181.337 623,-177.504 623,-177.504 623,-169.837 623,-169.837 623,-166.004 626.833,-162.171 630.667,-162.171"/>
<text text-anchor="middle" x="641" y="-169.971" font-family="Arial" font-size="14.00">•</text>
</a>
</g>
<text text-anchor="middle" x="618.5" y="-150.471" font-family="Arial" font-size="14.00">6</text>
</g>
<!-- UC25&#45;&gt;UC26 -->
<g id="edge7" class="edge"><title>UC25:JMP&#45;&gt;UC26:JMP</title>
<g id="a_edge7"><a xlink:href="#UC2_5">
<path fill="none" stroke="black" d="M471.026,-173.671C503.789,-173.671 573.328,-173.671 612.549,-173.671"/>
<polygon fill="black" stroke="black" points="612.752,-177.171 622.752,-173.671 612.752,-170.171 612.752,-177.171"/>
</a>
</g>
</g>
<!-- UC27 -->
<g id="node7" class="node"><title>UC27</title>
<g id="a_node7"><a xlink:title="System informs user that the application has been deleted.">
<path fill="#ccebc5" stroke="black" d="M752.667,-162.171C752.667,-162.171 773.333,-162.171 773.333,-162.171 777.167,-162.171 781,-166.004 781,-169.837 781,-169.837 781,-177.504 781,-177.504 781,-181.337 777.167,-185.171 773.333,-185.171 773.333,-185.171 752.667,-185.171 752.667,-185.171 748.833,-185.171 745,-181.337 745,-177.504 745,-177.504 745,-169.837 745,-169.837 745,-166.004 748.833,-162.171 752.667,-162.171"/>
<text text-anchor="middle" x="763" y="-169.971" font-family="Arial" font-size="14.00">•</text>
</a>
</g>
<text text-anchor="middle" x="740.5" y="-150.471" font-family="Arial" font-size="14.00">7</text>
</g>
<!-- UC26&#45;&gt;UC27 -->
<g id="edge8" class="edge"><title>UC26:JMP&#45;&gt;UC27:JMP</title>
<g id="a_edge8"><a xlink:href="#UC2_6">
<path fill="none" stroke="black" d="M659.002,-173.671C679.004,-173.671 711.557,-173.671 734.917,-173.671"/>
<polygon fill="black" stroke="black" points="734.925,-177.171 744.925,-173.671 734.925,-170.171 734.925,-177.171"/>
</a>
</g>
</g>
<!-- UC24a1&#45;&gt;UC24 -->
<g id="edge10" class="edge"><title>UC24a1:EXT&#45;&gt;UC24:OUT</title>
<g id="a_edge10"><a xlink:href="#UC2_4a1">
<path fill="none" stroke="black" d="M472,-63.6707C472,-125.501 385.442,-78.7206 349,-128.671 344.884,-134.312 347.447,-153.466 346.15,-164.886"/>
<polygon fill="black" stroke="black" points="343.039,-163.274 341,-173.671 349.077,-166.814 343.039,-163.274"/>
</a>
</g>
</g>
<!-- UC4 -->
<g id="node9" class="node"><title>UC4</title>
<g id="a_node9"><a xlink:href="../UC4/UC4.html" xlink:title="UC4 Stop application" target="_top">
<polygon fill="#fed9a6" stroke="black" points="716,-68.6707 566,-68.6707 566,-32.6707 716,-32.6707 716,-68.6707"/>
<text text-anchor="middle" x="641" y="-46.9707" font-family="Arial" font-size="14.00">UC4 Stop application</text>
</a>
</g>
</g>
<!-- UC24a1&#45;&gt;UC4 -->
<g id="edge1" class="edge"><title>UC24a1:JMP&#45;&gt;UC4</title>
<g id="a_edge1"><a xlink:href="#UC2_4a1">
<path fill="none" stroke="black" d="M435,-37.6707C435,24.6148 530.421,-4.13948 591.06,-28.7014"/>
<polygon fill="black" stroke="black" points="589.895,-32.007 600.474,-32.5928 592.57,-25.538 589.895,-32.007"/>
</a>
</g>
</g>
<!-- UC4&#45;&gt;UC24a1 -->
<g id="edge2" class="edge"><title>UC4&#45;&gt;UC24a1:EXT</title>
<path fill="none" stroke="black" d="M565.994,-50.6707C545.086,-50.6707 522.079,-50.6707 500.263,-50.6707"/>
<polygon fill="black" stroke="black" points="500,-47.1708 490,-50.6707 500,-54.1708 500,-47.1708"/>
</g>
</g>
</svg>
