<?xml version="1.0" encoding="UTF-8" standalone="no"?>
<!DOCTYPE svg PUBLIC "-//W3C//DTD SVG 1.1//EN"
 "http://www.w3.org/Graphics/SVG/1.1/DTD/svg11.dtd">
<!-- Generated by graphviz version 2.36.0 (20140111.2315)
 -->
<!-- Title: mygraph Pages: 1 -->
<svg width="451pt" height="217pt"
 viewBox="62.00 62.00 389.22 155.00" xmlns="http://www.w3.org/2000/svg" xmlns:xlink="http://www.w3.org/1999/xlink">
<g id="graph0" class="graph" transform="scale(0.861111 0.861111) rotate(0) translate(76 176)">
<title>mygraph</title>
<polygon fill="white" stroke="none" points="-4,4 -4,-104 376,-104 376,4 -4,4"/>
<g id="clust1" class="cluster"><title>cluster_UC21_</title>
<polygon fill="#ffffcc" stroke="black" points="8,-8 8,-92 364,-92 364,-8 8,-8"/>
</g>
<!-- UC211 -->
<g id="node1" class="node"><title>UC211</title>
<g id="a_node1"><a xlink:title="System changes state of the git repository to hibernated.">
<path fill="#b3cde3" stroke="black" d="M45.6667,-38.5C45.6667,-38.5 66.3333,-38.5 66.3333,-38.5 70.1667,-38.5 74,-42.3333 74,-46.1667 74,-46.1667 74,-53.8333 74,-53.8333 74,-57.6667 70.1667,-61.5 66.3333,-61.5 66.3333,-61.5 45.6667,-61.5 45.6667,-61.5 41.8333,-61.5 38,-57.6667 38,-53.8333 38,-53.8333 38,-46.1667 38,-46.1667 38,-42.3333 41.8333,-38.5 45.6667,-38.5"/>
<text text-anchor="middle" x="56" y="-46.3" font-family="Arial" font-size="14.00">•</text>
</a>
</g>
<text text-anchor="middle" x="33.5" y="-26.8" font-family="Arial" font-size="14.00">1</text>
</g>
<!-- UC212 -->
<g id="node2" class="node"><title>UC212</title>
<g id="a_node2"><a xlink:title="System compresses the disk image used by application.">
<path fill="#b3cde3" stroke="black" d="M110.667,-38.5C110.667,-38.5 131.333,-38.5 131.333,-38.5 135.167,-38.5 139,-42.3333 139,-46.1667 139,-46.1667 139,-53.8333 139,-53.8333 139,-57.6667 135.167,-61.5 131.333,-61.5 131.333,-61.5 110.667,-61.5 110.667,-61.5 106.833,-61.5 103,-57.6667 103,-53.8333 103,-53.8333 103,-46.1667 103,-46.1667 103,-42.3333 106.833,-38.5 110.667,-38.5"/>
<text text-anchor="middle" x="121" y="-46.3" font-family="Arial" font-size="14.00">•</text>
</a>
</g>
<text text-anchor="middle" x="98.5" y="-26.8" font-family="Arial" font-size="14.00">2</text>
</g>
<!-- UC211&#45;&gt;UC212 -->
<g id="edge1" class="edge"><title>UC211:JMP&#45;&gt;UC212:JMP</title>
<g id="a_edge1"><a xlink:href="#UC21_1">
<path fill="none" stroke="black" d="M74.1061,-50C79.8817,-50 86.4172,-50 92.7354,-50"/>
<polygon fill="black" stroke="black" points="92.991,-53.5001 102.991,-50 92.9909,-46.5001 92.991,-53.5001"/>
</a>
</g>
</g>
<!-- UC213 -->
<g id="node3" class="node"><title>UC213</title>
<g id="a_node3"><a xlink:title="System saves the disk image used by application.">
<path fill="#b3cde3" stroke="black" d="M175.667,-38.5C175.667,-38.5 196.333,-38.5 196.333,-38.5 200.167,-38.5 204,-42.3333 204,-46.1667 204,-46.1667 204,-53.8333 204,-53.8333 204,-57.6667 200.167,-61.5 196.333,-61.5 196.333,-61.5 175.667,-61.5 175.667,-61.5 171.833,-61.5 168,-57.6667 168,-53.8333 168,-53.8333 168,-46.1667 168,-46.1667 168,-42.3333 171.833,-38.5 175.667,-38.5"/>
<text text-anchor="middle" x="186" y="-46.3" font-family="Arial" font-size="14.00">•</text>
</a>
</g>
<text text-anchor="middle" x="163.5" y="-26.8" font-family="Arial" font-size="14.00">3</text>
</g>
<!-- UC212&#45;&gt;UC213 -->
<g id="edge2" class="edge"><title>UC212:JMP&#45;&gt;UC213:JMP</title>
<g id="a_edge2"><a xlink:href="#UC21_2">
<path fill="none" stroke="black" d="M139.106,-50C144.882,-50 151.417,-50 157.735,-50"/>
<polygon fill="black" stroke="black" points="157.991,-53.5001 167.991,-50 157.991,-46.5001 157.991,-53.5001"/>
</a>
</g>
</g>
<!-- UC214 -->
<g id="node4" class="node"><title>UC214</title>
<g id="a_node4"><a xlink:title="System frees the disk space used by application.">
<path fill="#b3cde3" stroke="black" d="M240.667,-38.5C240.667,-38.5 261.333,-38.5 261.333,-38.5 265.167,-38.5 269,-42.3333 269,-46.1667 269,-46.1667 269,-53.8333 269,-53.8333 269,-57.6667 265.167,-61.5 261.333,-61.5 261.333,-61.5 240.667,-61.5 240.667,-61.5 236.833,-61.5 233,-57.6667 233,-53.8333 233,-53.8333 233,-46.1667 233,-46.1667 233,-42.3333 236.833,-38.5 240.667,-38.5"/>
<text text-anchor="middle" x="251" y="-46.3" font-family="Arial" font-size="14.00">•</text>
</a>
</g>
<text text-anchor="middle" x="228.5" y="-26.8" font-family="Arial" font-size="14.00">4</text>
</g>
<!-- UC213&#45;&gt;UC214 -->
<g id="edge3" class="edge"><title>UC213:JMP&#45;&gt;UC214:JMP</title>
<g id="a_edge3"><a xlink:href="#UC21_3">
<path fill="none" stroke="black" d="M204.106,-50C209.882,-50 216.417,-50 222.735,-50"/>
<polygon fill="black" stroke="black" points="222.991,-53.5001 232.991,-50 222.991,-46.5001 222.991,-53.5001"/>
</a>
</g>
</g>
<!-- UC215 -->
<g id="node5" class="node"><title>UC215</title>
<g id="a_node5"><a xlink:title="System sets application state to hibernated. #(open:app_hibernated)
		 &#160;#(mark:app_hibernated)">
<path fill="#ccebc5" stroke="black" d="M305.667,-38.5C305.667,-38.5 326.333,-38.5 326.333,-38.5 330.167,-38.5 334,-42.3333 334,-46.1667 334,-46.1667 334,-53.8333 334,-53.8333 334,-57.6667 330.167,-61.5 326.333,-61.5 326.333,-61.5 305.667,-61.5 305.667,-61.5 301.833,-61.5 298,-57.6667 298,-53.8333 298,-53.8333 298,-46.1667 298,-46.1667 298,-42.3333 301.833,-38.5 305.667,-38.5"/>
<text text-anchor="middle" x="316" y="-46.3" font-family="Arial" font-size="14.00">•</text>
</a>
</g>
<text text-anchor="middle" x="293.5" y="-26.8" font-family="Arial" font-size="14.00">5</text>
</g>
<!-- UC214&#45;&gt;UC215 -->
<g id="edge4" class="edge"><title>UC214:JMP&#45;&gt;UC215:JMP</title>
<g id="a_edge4"><a xlink:href="#UC21_4">
<path fill="none" stroke="black" d="M269.106,-50C274.882,-50 281.417,-50 287.735,-50"/>
<polygon fill="black" stroke="black" points="287.991,-53.5001 297.991,-50 287.991,-46.5001 287.991,-53.5001"/>
</a>
</g>
</g>
</g>
</svg>
