<?xml version="1.0" encoding="UTF-8" standalone="no"?>
<!DOCTYPE svg PUBLIC "-//W3C//DTD SVG 1.1//EN"
 "http://www.w3.org/Graphics/SVG/1.1/DTD/svg11.dtd">
<!-- Generated by graphviz version 2.37.20140307.0545 (20140307.0545)
 -->
<!-- Title: mygraph Pages: 1 -->
<svg width="656pt" height="529pt"
 viewBox="62.00 62.00 594.17 466.72" xmlns="http://www.w3.org/2000/svg" xmlns:xlink="http://www.w3.org/1999/xlink">
<g id="graph0" class="graph" transform="scale(0.861111 0.861111) rotate(0) translate(76 538)">
<title>mygraph</title>
<polygon fill="white" stroke="none" points="-4,4 -4,-466 614,-466 614,4 -4,4"/>
<g id="clust1" class="cluster"><title>cluster_UC3</title>
<polygon fill="#ffffcc" stroke="black" points="8,-131 8,-215 332,-215 332,-131 8,-131"/>
</g>
<g id="clust2" class="cluster"><title>cluster_UC31a</title>
<polygon fill="#f2f2f2" stroke="black" points="200,-332 200,-454 546,-454 546,-332 200,-332"/>
<text text-anchor="start" x="208" y="-438.8" font-family="Arial" font-size="14.00" fill="gray">Extension: 1a.</text>
<text text-anchor="middle" x="268" y="-423.8" font-family="Arial" font-size="14.00" fill="gray"> Dotaznik je spam. </text>
</g>
<g id="clust3" class="cluster"><title>cluster_UC31b</title>
<polygon fill="#f2f2f2" stroke="black" points="154,-8 154,-130 378,-130 378,-8 154,-8"/>
<text text-anchor="start" x="162" y="-114.8" font-family="Arial" font-size="14.00" fill="gray">Extension: 1b.</text>
<text text-anchor="middle" x="266" y="-99.8" font-family="Arial" font-size="14.00" fill="gray"> V dotazniku chyba dolezity udaj. </text>
</g>
<g id="clust4" class="cluster"><title>cluster_UC32a</title>
<polygon fill="#f2f2f2" stroke="black" points="424,-114 424,-236 573,-236 573,-114 424,-114"/>
<text text-anchor="start" x="432" y="-220.8" font-family="Arial" font-size="14.00" fill="gray">Variation: 2a.</text>
<text text-anchor="middle" x="498.5" y="-205.8" font-family="Arial" font-size="14.00" fill="gray"> There was an abort. </text>
</g>
<!-- UC31 -->
<g id="node1" class="node"><title>UC31</title>
<g id="a_node1"><a xlink:title="Koordinator skontroluje uplnost dotaznika.">
<path fill="#b3cde3" stroke="black" d="M45.6667,-161.5C45.6667,-161.5 138.333,-161.5 138.333,-161.5 142.167,-161.5 146,-165.333 146,-169.167 146,-169.167 146,-176.833 146,-176.833 146,-180.667 142.167,-184.5 138.333,-184.5 138.333,-184.5 45.6667,-184.5 45.6667,-184.5 41.8333,-184.5 38,-180.667 38,-176.833 38,-176.833 38,-169.167 38,-169.167 38,-165.333 41.8333,-161.5 45.6667,-161.5"/>
<text text-anchor="middle" x="56.5" y="-169.3" font-family="Arial" font-size="14.00">•</text>
<polyline fill="none" stroke="black" points="75,-161.5 75,-184.5 "/>
<text text-anchor="middle" x="92.5" y="-169.3" font-family="Arial" font-size="14.00"> </text>
<polyline fill="none" stroke="black" points="110,-161.5 110,-184.5 "/>
<text text-anchor="middle" x="128" y="-169.3" font-family="Arial" font-size="14.00"> </text>
</a>
</g>
<text text-anchor="middle" x="33.5" y="-149.8" font-family="Arial" font-size="14.00">1</text>
</g>
<!-- UC32 -->
<g id="node2" class="node"><title>UC32</title>
<g id="a_node2"><a xlink:title="Dotaznik je uplny.">
<path fill="#ccebc5" stroke="black" d="M237.667,-161.5C237.667,-161.5 294.333,-161.5 294.333,-161.5 298.167,-161.5 302,-165.333 302,-169.167 302,-169.167 302,-176.833 302,-176.833 302,-180.667 298.167,-184.5 294.333,-184.5 294.333,-184.5 237.667,-184.5 237.667,-184.5 233.833,-184.5 230,-180.667 230,-176.833 230,-176.833 230,-169.167 230,-169.167 230,-165.333 233.833,-161.5 237.667,-161.5"/>
<text text-anchor="middle" x="247.5" y="-169.3" font-family="Arial" font-size="14.00"> </text>
<polyline fill="none" stroke="black" points="265,-161.5 265,-184.5 "/>
<text text-anchor="middle" x="283.5" y="-169.3" font-family="Arial" font-size="14.00">•</text>
</a>
</g>
<text text-anchor="middle" x="225.5" y="-149.8" font-family="Arial" font-size="14.00">2</text>
</g>
<!-- UC31&#45;&gt;UC32 -->
<g id="edge5" class="edge"><title>UC31:OUT&#45;&gt;UC32:VAR</title>
<g id="a_edge5"><a xlink:href="#UC3_1">
<path fill="none" stroke="black" d="M146,-173C179.286,-173 190.046,-173 218.933,-173"/>
<polygon fill="black" stroke="black" points="219,-176.5 229,-173 219,-169.5 219,-176.5"/>
</a>
</g>
</g>
<!-- UC31a1 -->
<g id="node3" class="node"><title>UC31a1</title>
<g id="a_node3"><a xlink:title="Vymazanie zakazky.">
<path fill="#b3cde3" stroke="black" d="M237.667,-362.5C237.667,-362.5 294.333,-362.5 294.333,-362.5 298.167,-362.5 302,-366.333 302,-370.167 302,-370.167 302,-377.833 302,-377.833 302,-381.667 298.167,-385.5 294.333,-385.5 294.333,-385.5 237.667,-385.5 237.667,-385.5 233.833,-385.5 230,-381.667 230,-377.833 230,-377.833 230,-370.167 230,-370.167 230,-366.333 233.833,-362.5 237.667,-362.5"/>
<text text-anchor="middle" x="248.5" y="-370.3" font-family="Arial" font-size="14.00">•</text>
<polyline fill="none" stroke="black" points="267,-362.5 267,-385.5 "/>
<text text-anchor="middle" x="284.5" y="-370.3" font-family="Arial" font-size="14.00"> </text>
</a>
</g>
<text text-anchor="middle" x="217.5" y="-350.8" font-family="Arial" font-size="14.00">1a1</text>
</g>
<!-- UC31&#45;&gt;UC31a1 -->
<g id="edge6" class="edge"><title>UC31:EXT&#45;&gt;UC31a1:JMP</title>
<g id="a_edge6"><a xlink:href="#UC3_1">
<path fill="none" stroke="black" d="M93,-186C93,-285.702 123.727,-368.344 218.959,-373.722"/>
<polygon fill="black" stroke="black" points="218.907,-377.222 229,-374 219.101,-370.224 218.907,-377.222"/>
</a>
</g>
</g>
<!-- UC31b1 -->
<g id="node5" class="node"><title>UC31b1</title>
<g id="a_node5"><a xlink:title="Ziadost o doplnujuce udaje.">
<path fill="#b3cde3" stroke="black" d="M237.667,-38.5C237.667,-38.5 294.333,-38.5 294.333,-38.5 298.167,-38.5 302,-42.3333 302,-46.1667 302,-46.1667 302,-53.8333 302,-53.8333 302,-57.6667 298.167,-61.5 294.333,-61.5 294.333,-61.5 237.667,-61.5 237.667,-61.5 233.833,-61.5 230,-57.6667 230,-53.8333 230,-53.8333 230,-46.1667 230,-46.1667 230,-42.3333 233.833,-38.5 237.667,-38.5"/>
<text text-anchor="middle" x="248.5" y="-46.3" font-family="Arial" font-size="14.00">•</text>
<polyline fill="none" stroke="black" points="267,-38.5 267,-61.5 "/>
<text text-anchor="middle" x="284.5" y="-46.3" font-family="Arial" font-size="14.00"> </text>
</a>
</g>
<text text-anchor="middle" x="217.5" y="-26.8" font-family="Arial" font-size="14.00">1b1</text>
</g>
<!-- UC31&#45;&gt;UC31b1 -->
<g id="edge8" class="edge"><title>UC31:EXT&#45;&gt;UC31b1:JMP</title>
<g id="a_edge8"><a xlink:href="#UC3_1">
<path fill="none" stroke="black" d="M93,-160C93,-85.7513 146.142,-52.9901 218.645,-50.1965"/>
<polygon fill="black" stroke="black" points="219.068,-53.6892 229,-50 218.935,-46.6904 219.068,-53.6892"/>
</a>
</g>
</g>
<!-- UC32a1 -->
<g id="node6" class="node"><title>UC32a1</title>
<g id="a_node6"><a xlink:title="Use&#45;case is terminated.">
<path fill="#fbb4ae" stroke="black" d="M487.667,-144.5C487.667,-144.5 508.333,-144.5 508.333,-144.5 512.167,-144.5 516,-148.333 516,-152.167 516,-152.167 516,-159.833 516,-159.833 516,-163.667 512.167,-167.5 508.333,-167.5 508.333,-167.5 487.667,-167.5 487.667,-167.5 483.833,-167.5 480,-163.667 480,-159.833 480,-159.833 480,-152.167 480,-152.167 480,-148.333 483.833,-144.5 487.667,-144.5"/>
<text text-anchor="middle" x="498" y="-152.3" font-family="Arial" font-size="14.00">•</text>
</a>
</g>
<text text-anchor="middle" x="467.5" y="-132.8" font-family="Arial" font-size="14.00">2a1</text>
</g>
<!-- UC32&#45;&gt;UC32a1 -->
<g id="edge10" class="edge"><title>UC32:VAR&#45;&gt;UC32a1:JMP</title>
<g id="a_edge10"><a xlink:href="#UC3_2">
<path fill="none" stroke="black" d="M247,-160C247,-115.826 404.386,-139.103 469.904,-150.706"/>
<polygon fill="black" stroke="black" points="469.486,-154.187 479.949,-152.522 470.731,-147.299 469.486,-154.187"/>
</a>
</g>
</g>
<!-- UC31a2 -->
<g id="node4" class="node"><title>UC31a2</title>
<g id="a_node4"><a xlink:title="Use&#45;case is terminated.">
<path fill="#fbb4ae" stroke="black" d="M487.667,-362.5C487.667,-362.5 508.333,-362.5 508.333,-362.5 512.167,-362.5 516,-366.333 516,-370.167 516,-370.167 516,-377.833 516,-377.833 516,-381.667 512.167,-385.5 508.333,-385.5 508.333,-385.5 487.667,-385.5 487.667,-385.5 483.833,-385.5 480,-381.667 480,-377.833 480,-377.833 480,-370.167 480,-370.167 480,-366.333 483.833,-362.5 487.667,-362.5"/>
<text text-anchor="middle" x="498" y="-370.3" font-family="Arial" font-size="14.00">•</text>
</a>
</g>
<text text-anchor="middle" x="467.5" y="-350.8" font-family="Arial" font-size="14.00">1a2</text>
</g>
<!-- UC31a1&#45;&gt;UC31a2 -->
<g id="edge7" class="edge"><title>UC31a1:EXT&#45;&gt;UC31a2:JMP</title>
<g id="a_edge7"><a xlink:href="#UC3_1a1">
<path fill="none" stroke="black" d="M303,-374C362.314,-374 431.777,-374 469.715,-374"/>
<polygon fill="black" stroke="black" points="469.988,-377.5 479.988,-374 469.988,-370.5 469.988,-377.5"/>
</a>
</g>
</g>
<!-- UC11 -->
<g id="node7" class="node"><title>UC11</title>
<g id="a_node7"><a xlink:href="../UC11/UC11.html" xlink:title="UC11 Vymazanie zakazky." target="_top">
<polygon fill="#fed9a6" stroke="black" points="588,-302 408,-302 408,-266 588,-266 588,-302"/>
<text text-anchor="middle" x="498" y="-280.3" font-family="Arial" font-size="14.00">UC11 Vymazanie zakazky.</text>
</a>
</g>
</g>
<!-- UC31a1&#45;&gt;UC11 -->
<g id="edge1" class="edge"><title>UC31a1:JMP&#45;&gt;UC11</title>
<g id="a_edge1"><a xlink:href="#UC3_1a1">
<path fill="none" stroke="black" d="M248,-361C248,-295.23 328.271,-279.323 397.661,-277.859"/>
<polygon fill="black" stroke="black" points="397.849,-281.357 407.809,-277.744 397.769,-274.358 397.849,-281.357"/>
</a>
</g>
</g>
<!-- UC31b1&#45;&gt;UC31 -->
<g id="edge9" class="edge"><title>UC31b1:EXT&#45;&gt;UC31:OUT</title>
<g id="a_edge9"><a xlink:href="#UC3_1b1">
<path fill="none" stroke="black" d="M285,-63C285,-127.995 192.975,-75.987 154,-128 149.813,-133.588 152.402,-152.762 151.129,-164.2"/>
<polygon fill="black" stroke="black" points="148.012,-162.598 146,-173 154.06,-166.123 148.012,-162.598"/>
</a>
</g>
</g>
<!-- UC2 -->
<g id="node8" class="node"><title>UC2</title>
<g id="a_node8"><a xlink:href="../UC2/UC2.html" xlink:title="UC2 Ziadost o doplnujuce udaje." target="_top">
<polygon fill="#fed9a6" stroke="black" points="609.5,-68 386.5,-68 386.5,-32 609.5,-32 609.5,-68"/>
<text text-anchor="middle" x="498" y="-46.3" font-family="Arial" font-size="14.00">UC2 Ziadost o doplnujuce udaje.</text>
</a>
</g>
</g>
<!-- UC31b1&#45;&gt;UC2 -->
<g id="edge3" class="edge"><title>UC31b1:JMP&#45;&gt;UC2</title>
<g id="a_edge3"><a xlink:href="#UC3_1b1">
<path fill="none" stroke="black" d="M248,-37C248,-3.40844 339.517,-15.3247 411.587,-29.9168"/>
<polygon fill="black" stroke="black" points="411.115,-33.393 421.616,-31.9891 412.531,-26.5378 411.115,-33.393"/>
</a>
</g>
</g>
<!-- UC11&#45;&gt;UC31a1 -->
<g id="edge2" class="edge"><title>UC11&#45;&gt;UC31a1:EXT</title>
<path fill="none" stroke="black" d="M449.236,-302.011C429.451,-309.82 406.403,-319.37 386,-329 351.314,-345.371 345.75,-369.412 313.004,-373.423"/>
<polygon fill="black" stroke="black" points="312.782,-369.93 303,-374 313.185,-376.918 312.782,-369.93"/>
</g>
<!-- UC2&#45;&gt;UC31b1 -->
<g id="edge4" class="edge"><title>UC2&#45;&gt;UC31b1:EXT</title>
<path fill="none" stroke="black" d="M386.457,-50C362.586,-50 337.286,-50 313.227,-50"/>
<polygon fill="black" stroke="black" points="313,-46.5001 303,-50 313,-53.5001 313,-46.5001"/>
</g>
</g>
</svg>
