<?xml version="1.0" encoding="UTF-8" standalone="no"?>
<!DOCTYPE svg PUBLIC "-//W3C//DTD SVG 1.1//EN"
 "http://www.w3.org/Graphics/SVG/1.1/DTD/svg11.dtd">
<!-- Generated by graphviz version 2.36.0 (20140111.2315)
 -->
<!-- Title: mygraph Pages: 1 -->
<svg width="639pt" height="323pt"
 viewBox="62.00 62.00 576.94 260.92" xmlns="http://www.w3.org/2000/svg" xmlns:xlink="http://www.w3.org/1999/xlink">
<g id="graph0" class="graph" transform="scale(0.861111 0.861111) rotate(0) translate(76 299)">
<title>mygraph</title>
<polygon fill="white" stroke="none" points="-4,4 -4,-227 594,-227 594,4 -4,4"/>
<g id="clust1" class="cluster"><title>cluster_UC12_</title>
<polygon fill="#ffffcc" stroke="black" points="8,-131 8,-215 549,-215 549,-131 8,-131"/>
</g>
<g id="clust2" class="cluster"><title>cluster_UC12_3a</title>
<polygon fill="#f2f2f2" stroke="black" points="412,-8 412,-130 590,-130 590,-8 412,-8"/>
<text text-anchor="start" x="420" y="-114.8" font-family="Arial" font-size="14.00" fill="gray">Extension: 3a.</text>
<text text-anchor="middle" x="501" y="-99.8" font-family="Arial" font-size="14.00" fill="gray"> Entered values not valid. </text>
</g>
<g id="clust3" class="cluster"><title>cluster_UC12_2a</title>
<polygon fill="#f2f2f2" stroke="black" points="192,-8 192,-130 404,-130 404,-8 192,-8"/>
<text text-anchor="start" x="200" y="-114.8" font-family="Arial" font-size="14.00" fill="gray">Variation: 2a.</text>
<text text-anchor="middle" x="298" y="-99.8" font-family="Arial" font-size="14.00" fill="gray"> User cancels the billing infor... </text>
</g>
<!-- UC121 -->
<g id="node1" class="node"><title>UC121</title>
<g id="a_node1"><a xlink:title="System asks user to provide billing information.">
<path fill="#b3cde3" stroke="black" d="M45.6667,-161.5C45.6667,-161.5 66.3333,-161.5 66.3333,-161.5 70.1667,-161.5 74,-165.333 74,-169.167 74,-169.167 74,-176.833 74,-176.833 74,-180.667 70.1667,-184.5 66.3333,-184.5 66.3333,-184.5 45.6667,-184.5 45.6667,-184.5 41.8333,-184.5 38,-180.667 38,-176.833 38,-176.833 38,-169.167 38,-169.167 38,-165.333 41.8333,-161.5 45.6667,-161.5"/>
<text text-anchor="middle" x="56" y="-169.3" font-family="Arial" font-size="14.00">•</text>
</a>
</g>
<text text-anchor="middle" x="33.5" y="-149.8" font-family="Arial" font-size="14.00">1</text>
</g>
<!-- UC122 -->
<g id="node2" class="node"><title>UC122</title>
<g id="a_node2"><a xlink:title="User provides the billing information.">
<path fill="#b3cde3" stroke="black" d="M110.667,-161.5C110.667,-161.5 167.333,-161.5 167.333,-161.5 171.167,-161.5 175,-165.333 175,-169.167 175,-169.167 175,-176.833 175,-176.833 175,-180.667 171.167,-184.5 167.333,-184.5 167.333,-184.5 110.667,-184.5 110.667,-184.5 106.833,-184.5 103,-180.667 103,-176.833 103,-176.833 103,-169.167 103,-169.167 103,-165.333 106.833,-161.5 110.667,-161.5"/>
<text text-anchor="middle" x="120.5" y="-169.3" font-family="Arial" font-size="14.00"> </text>
<polyline fill="none" stroke="black" points="138,-161.5 138,-184.5 "/>
<text text-anchor="middle" x="156.5" y="-169.3" font-family="Arial" font-size="14.00">•</text>
</a>
</g>
<text text-anchor="middle" x="98.5" y="-149.8" font-family="Arial" font-size="14.00">2</text>
</g>
<!-- UC121&#45;&gt;UC122 -->
<g id="edge1" class="edge"><title>UC121:JMP&#45;&gt;UC122:VAR</title>
<g id="a_edge1"><a xlink:href="#UC12_1">
<path fill="none" stroke="black" d="M74.3026,-173C80.0084,-173 86.5079,-173 92.9772,-173"/>
<polygon fill="black" stroke="black" points="93,-176.5 103,-173 93,-169.5 93,-176.5"/>
</a>
</g>
</g>
<!-- UC123 -->
<g id="node3" class="node"><title>UC123</title>
<g id="a_node3"><a xlink:title="System validates the entered data.">
<path fill="#b3cde3" stroke="black" d="M269.667,-161.5C269.667,-161.5 326.333,-161.5 326.333,-161.5 330.167,-161.5 334,-165.333 334,-169.167 334,-169.167 334,-176.833 334,-176.833 334,-180.667 330.167,-184.5 326.333,-184.5 326.333,-184.5 269.667,-184.5 269.667,-184.5 265.833,-184.5 262,-180.667 262,-176.833 262,-176.833 262,-169.167 262,-169.167 262,-165.333 265.833,-161.5 269.667,-161.5"/>
<text text-anchor="middle" x="280.5" y="-169.3" font-family="Arial" font-size="14.00">•</text>
<polyline fill="none" stroke="black" points="299,-161.5 299,-184.5 "/>
<text text-anchor="middle" x="316.5" y="-169.3" font-family="Arial" font-size="14.00"> </text>
</a>
</g>
<text text-anchor="middle" x="257.5" y="-149.8" font-family="Arial" font-size="14.00">3</text>
</g>
<!-- UC122&#45;&gt;UC123 -->
<g id="edge2" class="edge"><title>UC122:JMP&#45;&gt;UC123:JMP</title>
<g id="a_edge2"><a xlink:href="#UC12_2">
<path fill="none" stroke="black" d="M175,-173C209.639,-173 220.734,-173 250.959,-173"/>
<polygon fill="black" stroke="black" points="251,-176.5 261,-173 251,-169.5 251,-176.5"/>
</a>
</g>
</g>
<!-- UC122a1 -->
<g id="node6" class="node"><title>UC122a1</title>
<g id="a_node6"><a xlink:title="Use case aborts. #(abort)">
<path fill="#fbb4ae" stroke="black" d="M287.667,-38.5C287.667,-38.5 308.333,-38.5 308.333,-38.5 312.167,-38.5 316,-42.3333 316,-46.1667 316,-46.1667 316,-53.8333 316,-53.8333 316,-57.6667 312.167,-61.5 308.333,-61.5 308.333,-61.5 287.667,-61.5 287.667,-61.5 283.833,-61.5 280,-57.6667 280,-53.8333 280,-53.8333 280,-46.1667 280,-46.1667 280,-42.3333 283.833,-38.5 287.667,-38.5"/>
<text text-anchor="middle" x="298" y="-46.3" font-family="Arial" font-size="14.00">•</text>
</a>
</g>
<text text-anchor="middle" x="267.5" y="-26.8" font-family="Arial" font-size="14.00">2a1</text>
</g>
<!-- UC122&#45;&gt;UC122a1 -->
<g id="edge5" class="edge"><title>UC122:VAR&#45;&gt;UC122a1:JMP</title>
<g id="a_edge5"><a xlink:href="#UC12_2">
<path fill="none" stroke="black" d="M120,-160C120,-90.3045 219.972,-63.2918 270.073,-54.1306"/>
<polygon fill="black" stroke="black" points="270.688,-57.5763 279.953,-52.4377 269.505,-50.6769 270.688,-57.5763"/>
</a>
</g>
</g>
<!-- UC124 -->
<g id="node4" class="node"><title>UC124</title>
<g id="a_node4"><a xlink:title="System saves the billing and account information.">
<path fill="#ccebc5" stroke="black" d="M490.667,-161.5C490.667,-161.5 511.333,-161.5 511.333,-161.5 515.167,-161.5 519,-165.333 519,-169.167 519,-169.167 519,-176.833 519,-176.833 519,-180.667 515.167,-184.5 511.333,-184.5 511.333,-184.5 490.667,-184.5 490.667,-184.5 486.833,-184.5 483,-180.667 483,-176.833 483,-176.833 483,-169.167 483,-169.167 483,-165.333 486.833,-161.5 490.667,-161.5"/>
<text text-anchor="middle" x="501" y="-169.3" font-family="Arial" font-size="14.00">•</text>
</a>
</g>
<text text-anchor="middle" x="478.5" y="-149.8" font-family="Arial" font-size="14.00">4</text>
</g>
<!-- UC123&#45;&gt;UC124 -->
<g id="edge3" class="edge"><title>UC123:EXT&#45;&gt;UC124:JMP</title>
<g id="a_edge3"><a xlink:href="#UC12_3">
<path fill="none" stroke="black" d="M335,-173C383.16,-173 439.179,-173 472.276,-173"/>
<polygon fill="black" stroke="black" points="472.577,-176.5 482.577,-173 472.577,-169.5 472.577,-176.5"/>
</a>
</g>
</g>
<!-- UC123a1 -->
<g id="node5" class="node"><title>UC123a1</title>
<g id="a_node5"><a xlink:title="System notifies user that entered values are not valid. #(abort)">
<path fill="#fbb4ae" stroke="black" d="M490.667,-38.5C490.667,-38.5 511.333,-38.5 511.333,-38.5 515.167,-38.5 519,-42.3333 519,-46.1667 519,-46.1667 519,-53.8333 519,-53.8333 519,-57.6667 515.167,-61.5 511.333,-61.5 511.333,-61.5 490.667,-61.5 490.667,-61.5 486.833,-61.5 483,-57.6667 483,-53.8333 483,-53.8333 483,-46.1667 483,-46.1667 483,-42.3333 486.833,-38.5 490.667,-38.5"/>
<text text-anchor="middle" x="501" y="-46.3" font-family="Arial" font-size="14.00">•</text>
</a>
</g>
<text text-anchor="middle" x="470.5" y="-26.8" font-family="Arial" font-size="14.00">3a1</text>
</g>
<!-- UC123&#45;&gt;UC123a1 -->
<g id="edge4" class="edge"><title>UC123:EXT&#45;&gt;UC123a1:JMP</title>
<g id="a_edge4"><a xlink:href="#UC12_3">
<path fill="none" stroke="black" d="M335,-173C372.973,-173 438.936,-99.4312 474.641,-68.3832"/>
<polygon fill="black" stroke="black" points="477.134,-70.8631 482.615,-61.7956 472.676,-65.4665 477.134,-70.8631"/>
</a>
</g>
</g>
</g>
</svg>
