<?xml version="1.0" encoding="UTF-8" standalone="no"?>
<!DOCTYPE svg PUBLIC "-//W3C//DTD SVG 1.1//EN"
 "http://www.w3.org/Graphics/SVG/1.1/DTD/svg11.dtd">
<!-- Generated by graphviz version 2.35.20131004.0446 (20131004.0446)
 -->
<!-- Title: mygraph Pages: 1 -->
<svg width="395pt" height="217pt"
 viewBox="62.00 62.00 333.25 155.00" xmlns="http://www.w3.org/2000/svg" xmlns:xlink="http://www.w3.org/1999/xlink">
<g id="graph0" class="graph" transform="scale(0.861111 0.861111) rotate(0) translate(76 176)">
<title>mygraph</title>
<polygon fill="white" stroke="white" points="-4,4 -4,-104 311,-104 311,4 -4,4"/>
<g id="clust1" class="cluster"><title>cluster_UC107</title>
<polygon fill="#ffffcc" stroke="black" points="8,-8 8,-92 299,-92 299,-8 8,-8"/>
</g>
<!-- UC1071 -->
<g id="node1" class="node"><title>UC1071</title>
<g id="a_node1"><a xlink:title="Candidate proceeds to the chosen&#45;majors&#45;view.">
<path fill="#b3cde3" stroke="black" d="M45.6667,-38.5C45.6667,-38.5 66.3333,-38.5 66.3333,-38.5 70.1667,-38.5 74,-42.3333 74,-46.1667 74,-46.1667 74,-53.8333 74,-53.8333 74,-57.6667 70.1667,-61.5 66.3333,-61.5 66.3333,-61.5 45.6667,-61.5 45.6667,-61.5 41.8333,-61.5 38,-57.6667 38,-53.8333 38,-53.8333 38,-46.1667 38,-46.1667 38,-42.3333 41.8333,-38.5 45.6667,-38.5"/>
<text text-anchor="middle" x="56" y="-46.3" font-family="Arial" font-size="14.00">•</text>
</a>
</g>
<text text-anchor="middle" x="33.5" y="-26.8" font-family="Arial" font-size="14.00">1</text>
</g>
<!-- UC1072 -->
<g id="node2" class="node"><title>UC1072</title>
<g id="a_node2"><a xlink:title="System presents a list containing chosen majors.">
<path fill="#b3cde3" stroke="black" d="M110.667,-38.5C110.667,-38.5 131.333,-38.5 131.333,-38.5 135.167,-38.5 139,-42.3333 139,-46.1667 139,-46.1667 139,-53.8333 139,-53.8333 139,-57.6667 135.167,-61.5 131.333,-61.5 131.333,-61.5 110.667,-61.5 110.667,-61.5 106.833,-61.5 103,-57.6667 103,-53.8333 103,-53.8333 103,-46.1667 103,-46.1667 103,-42.3333 106.833,-38.5 110.667,-38.5"/>
<text text-anchor="middle" x="121" y="-46.3" font-family="Arial" font-size="14.00">•</text>
</a>
</g>
<text text-anchor="middle" x="98.5" y="-26.8" font-family="Arial" font-size="14.00">2</text>
</g>
<!-- UC1071&#45;&gt;UC1072 -->
<g id="edge1" class="edge"><title>UC1071:JMP&#45;&gt;UC1072:JMP</title>
<g id="a_edge1"><a xlink:href="#UC107_1">
<path fill="none" stroke="black" d="M74.1061,-50C79.8817,-50 86.4172,-50 92.7354,-50"/>
<polygon fill="black" stroke="black" points="92.991,-53.5001 102.991,-50 92.9909,-46.5001 92.991,-53.5001"/>
</a>
</g>
</g>
<!-- UC1073 -->
<g id="node3" class="node"><title>UC1073</title>
<g id="a_node3"><a xlink:title="Candidate assigns priority value to each major.">
<path fill="#b3cde3" stroke="black" d="M175.667,-38.5C175.667,-38.5 196.333,-38.5 196.333,-38.5 200.167,-38.5 204,-42.3333 204,-46.1667 204,-46.1667 204,-53.8333 204,-53.8333 204,-57.6667 200.167,-61.5 196.333,-61.5 196.333,-61.5 175.667,-61.5 175.667,-61.5 171.833,-61.5 168,-57.6667 168,-53.8333 168,-53.8333 168,-46.1667 168,-46.1667 168,-42.3333 171.833,-38.5 175.667,-38.5"/>
<text text-anchor="middle" x="186" y="-46.3" font-family="Arial" font-size="14.00">•</text>
</a>
</g>
<text text-anchor="middle" x="163.5" y="-26.8" font-family="Arial" font-size="14.00">3</text>
</g>
<!-- UC1072&#45;&gt;UC1073 -->
<g id="edge2" class="edge"><title>UC1072:JMP&#45;&gt;UC1073:JMP</title>
<g id="a_edge2"><a xlink:href="#UC107_2">
<path fill="none" stroke="black" d="M139.106,-50C144.882,-50 151.417,-50 157.735,-50"/>
<polygon fill="black" stroke="black" points="157.991,-53.5001 167.991,-50 157.991,-46.5001 157.991,-53.5001"/>
</a>
</g>
</g>
<!-- UC1074 -->
<g id="node4" class="node"><title>UC1074</title>
<g id="a_node4"><a xlink:title="System stores priorities and presents updated majors&#45;list.">
<path fill="#ccebc5" stroke="black" d="M240.667,-38.5C240.667,-38.5 261.333,-38.5 261.333,-38.5 265.167,-38.5 269,-42.3333 269,-46.1667 269,-46.1667 269,-53.8333 269,-53.8333 269,-57.6667 265.167,-61.5 261.333,-61.5 261.333,-61.5 240.667,-61.5 240.667,-61.5 236.833,-61.5 233,-57.6667 233,-53.8333 233,-53.8333 233,-46.1667 233,-46.1667 233,-42.3333 236.833,-38.5 240.667,-38.5"/>
<text text-anchor="middle" x="251" y="-46.3" font-family="Arial" font-size="14.00">•</text>
</a>
</g>
<text text-anchor="middle" x="228.5" y="-26.8" font-family="Arial" font-size="14.00">4</text>
</g>
<!-- UC1073&#45;&gt;UC1074 -->
<g id="edge3" class="edge"><title>UC1073:JMP&#45;&gt;UC1074:JMP</title>
<g id="a_edge3"><a xlink:href="#UC107_3">
<path fill="none" stroke="black" d="M204.106,-50C209.882,-50 216.417,-50 222.735,-50"/>
<polygon fill="black" stroke="black" points="222.991,-53.5001 232.991,-50 222.991,-46.5001 222.991,-53.5001"/>
</a>
</g>
</g>
</g>
</svg>
