<?xml version="1.0" encoding="UTF-8" standalone="no"?>
<!DOCTYPE svg PUBLIC "-//W3C//DTD SVG 1.1//EN"
 "http://www.w3.org/Graphics/SVG/1.1/DTD/svg11.dtd">
<!-- Generated by graphviz version 2.37.20140307.0545 (20140307.0545)
 -->
<!-- Title: mygraph Pages: 1 -->
<svg width="227pt" height="217pt"
 viewBox="62.00 62.00 165.33 155.00" xmlns="http://www.w3.org/2000/svg" xmlns:xlink="http://www.w3.org/1999/xlink">
<g id="graph0" class="graph" transform="scale(0.861111 0.861111) rotate(0) translate(76 176)">
<title>mygraph</title>
<polygon fill="white" stroke="none" points="-4,4 -4,-104 116,-104 116,4 -4,4"/>
<g id="clust1" class="cluster"><title>cluster_UC9</title>
<polygon fill="#ffffcc" stroke="black" points="8,-8 8,-92 104,-92 104,-8 8,-8"/>
</g>
<!-- UC91 -->
<g id="node1" class="node"><title>UC91</title>
<g id="a_node1"><a xlink:title="Koordinator odkaze klienta na online dotaznik.">
<path fill="#ccebc5" stroke="black" d="M45.6667,-38.5C45.6667,-38.5 66.3333,-38.5 66.3333,-38.5 70.1667,-38.5 74,-42.3333 74,-46.1667 74,-46.1667 74,-53.8333 74,-53.8333 74,-57.6667 70.1667,-61.5 66.3333,-61.5 66.3333,-61.5 45.6667,-61.5 45.6667,-61.5 41.8333,-61.5 38,-57.6667 38,-53.8333 38,-53.8333 38,-46.1667 38,-46.1667 38,-42.3333 41.8333,-38.5 45.6667,-38.5"/>
<text text-anchor="middle" x="56" y="-46.3" font-family="Arial" font-size="14.00">•</text>
</a>
</g>
<text text-anchor="middle" x="33.5" y="-26.8" font-family="Arial" font-size="14.00">1</text>
</g>
</g>
</svg>
