<?xml version="1.0" encoding="UTF-8" standalone="no"?>
<!DOCTYPE svg PUBLIC "-//W3C//DTD SVG 1.1//EN"
 "http://www.w3.org/Graphics/SVG/1.1/DTD/svg11.dtd">
<!-- Generated by graphviz version 2.36.0 (20140111.2315)
 -->
<!-- Title: mygraph Pages: 1 -->
<svg width="704pt" height="267pt"
 viewBox="62.00 62.00 641.53 204.94" xmlns="http://www.w3.org/2000/svg" xmlns:xlink="http://www.w3.org/1999/xlink">
<g id="graph0" class="graph" transform="scale(0.861111 0.861111) rotate(0) translate(76 234)">
<title>mygraph</title>
<polygon fill="white" stroke="none" points="-4,4 -4,-162 669,-162 669,4 -4,4"/>
<g id="clust1" class="cluster"><title>cluster_UC5_</title>
<polygon fill="#ffffcc" stroke="black" points="8,-66 8,-150 580,-150 580,-66 8,-66"/>
</g>
<!-- UC51 -->
<g id="node1" class="node"><title>UC51</title>
<g id="a_node1"><a xlink:title="User selects application to hibernate.">
<path fill="#b3cde3" stroke="black" d="M45.6667,-96.5C45.6667,-96.5 66.3333,-96.5 66.3333,-96.5 70.1667,-96.5 74,-100.333 74,-104.167 74,-104.167 74,-111.833 74,-111.833 74,-115.667 70.1667,-119.5 66.3333,-119.5 66.3333,-119.5 45.6667,-119.5 45.6667,-119.5 41.8333,-119.5 38,-115.667 38,-111.833 38,-111.833 38,-104.167 38,-104.167 38,-100.333 41.8333,-96.5 45.6667,-96.5"/>
<text text-anchor="middle" x="56" y="-104.3" font-family="Arial" font-size="14.00">•</text>
</a>
</g>
<text text-anchor="middle" x="33.5" y="-84.8" font-family="Arial" font-size="14.00">1</text>
</g>
<!-- UC52 -->
<g id="node2" class="node"><title>UC52</title>
<g id="a_node2"><a xlink:title="System checks that application can be hibernated.">
<path fill="#b3cde3" stroke="black" d="M110.667,-96.5C110.667,-96.5 131.333,-96.5 131.333,-96.5 135.167,-96.5 139,-100.333 139,-104.167 139,-104.167 139,-111.833 139,-111.833 139,-115.667 135.167,-119.5 131.333,-119.5 131.333,-119.5 110.667,-119.5 110.667,-119.5 106.833,-119.5 103,-115.667 103,-111.833 103,-111.833 103,-104.167 103,-104.167 103,-100.333 106.833,-96.5 110.667,-96.5"/>
<text text-anchor="middle" x="121" y="-104.3" font-family="Arial" font-size="14.00">•</text>
</a>
</g>
<text text-anchor="middle" x="98.5" y="-84.8" font-family="Arial" font-size="14.00">2</text>
</g>
<!-- UC51&#45;&gt;UC52 -->
<g id="edge3" class="edge"><title>UC51:JMP&#45;&gt;UC52:JMP</title>
<g id="a_edge3"><a xlink:href="#UC5_1">
<path fill="none" stroke="black" d="M74.1061,-108C79.8817,-108 86.4172,-108 92.7354,-108"/>
<polygon fill="black" stroke="black" points="92.991,-111.5 102.991,-108 92.9909,-104.5 92.991,-111.5"/>
</a>
</g>
</g>
<!-- UC53 -->
<g id="node3" class="node"><title>UC53</title>
<g id="a_node3"><a xlink:title="System prompts user to confirm hibernation.">
<path fill="#b3cde3" stroke="black" d="M175.667,-96.5C175.667,-96.5 196.333,-96.5 196.333,-96.5 200.167,-96.5 204,-100.333 204,-104.167 204,-104.167 204,-111.833 204,-111.833 204,-115.667 200.167,-119.5 196.333,-119.5 196.333,-119.5 175.667,-119.5 175.667,-119.5 171.833,-119.5 168,-115.667 168,-111.833 168,-111.833 168,-104.167 168,-104.167 168,-100.333 171.833,-96.5 175.667,-96.5"/>
<text text-anchor="middle" x="186" y="-104.3" font-family="Arial" font-size="14.00">•</text>
</a>
</g>
<text text-anchor="middle" x="163.5" y="-84.8" font-family="Arial" font-size="14.00">3</text>
</g>
<!-- UC52&#45;&gt;UC53 -->
<g id="edge4" class="edge"><title>UC52:JMP&#45;&gt;UC53:JMP</title>
<g id="a_edge4"><a xlink:href="#UC5_2">
<path fill="none" stroke="black" d="M139.106,-108C144.882,-108 151.417,-108 157.735,-108"/>
<polygon fill="black" stroke="black" points="157.991,-111.5 167.991,-108 157.991,-104.5 157.991,-111.5"/>
</a>
</g>
</g>
<!-- UC54 -->
<g id="node4" class="node"><title>UC54</title>
<g id="a_node4"><a xlink:title="User confirms the hibernation.">
<path fill="#b3cde3" stroke="black" d="M240.667,-96.5C240.667,-96.5 261.333,-96.5 261.333,-96.5 265.167,-96.5 269,-100.333 269,-104.167 269,-104.167 269,-111.833 269,-111.833 269,-115.667 265.167,-119.5 261.333,-119.5 261.333,-119.5 240.667,-119.5 240.667,-119.5 236.833,-119.5 233,-115.667 233,-111.833 233,-111.833 233,-104.167 233,-104.167 233,-100.333 236.833,-96.5 240.667,-96.5"/>
<text text-anchor="middle" x="251" y="-104.3" font-family="Arial" font-size="14.00">•</text>
</a>
</g>
<text text-anchor="middle" x="228.5" y="-84.8" font-family="Arial" font-size="14.00">4</text>
</g>
<!-- UC53&#45;&gt;UC54 -->
<g id="edge5" class="edge"><title>UC53:JMP&#45;&gt;UC54:JMP</title>
<g id="a_edge5"><a xlink:href="#UC5_3">
<path fill="none" stroke="black" d="M204.106,-108C209.882,-108 216.417,-108 222.735,-108"/>
<polygon fill="black" stroke="black" points="222.991,-111.5 232.991,-108 222.991,-104.5 222.991,-111.5"/>
</a>
</g>
</g>
<!-- UC55 -->
<g id="node5" class="node"><title>UC55</title>
<g id="a_node5"><a xlink:title="System initiates application hibernation. #(include:UC21)">
<path fill="#b3cde3" stroke="black" d="M305.667,-96.5C305.667,-96.5 362.333,-96.5 362.333,-96.5 366.167,-96.5 370,-100.333 370,-104.167 370,-104.167 370,-111.833 370,-111.833 370,-115.667 366.167,-119.5 362.333,-119.5 362.333,-119.5 305.667,-119.5 305.667,-119.5 301.833,-119.5 298,-115.667 298,-111.833 298,-111.833 298,-104.167 298,-104.167 298,-100.333 301.833,-96.5 305.667,-96.5"/>
<text text-anchor="middle" x="316.5" y="-104.3" font-family="Arial" font-size="14.00">•</text>
<polyline fill="none" stroke="black" points="335,-96.5 335,-119.5 "/>
<text text-anchor="middle" x="352.5" y="-104.3" font-family="Arial" font-size="14.00"> </text>
</a>
</g>
<text text-anchor="middle" x="293.5" y="-84.8" font-family="Arial" font-size="14.00">5</text>
</g>
<!-- UC54&#45;&gt;UC55 -->
<g id="edge6" class="edge"><title>UC54:JMP&#45;&gt;UC55:JMP</title>
<g id="a_edge6"><a xlink:href="#UC5_4">
<path fill="none" stroke="black" d="M269.303,-108C275.008,-108 281.508,-108 287.977,-108"/>
<polygon fill="black" stroke="black" points="288,-111.5 298,-108 288,-104.5 288,-111.5"/>
</a>
</g>
</g>
<!-- UC56 -->
<g id="node6" class="node"><title>UC56</title>
<g id="a_node6"><a xlink:title="Use case finishes. #(close:app_hibernated)">
<path fill="#ccebc5" stroke="black" d="M521.667,-96.5C521.667,-96.5 542.333,-96.5 542.333,-96.5 546.167,-96.5 550,-100.333 550,-104.167 550,-104.167 550,-111.833 550,-111.833 550,-115.667 546.167,-119.5 542.333,-119.5 542.333,-119.5 521.667,-119.5 521.667,-119.5 517.833,-119.5 514,-115.667 514,-111.833 514,-111.833 514,-104.167 514,-104.167 514,-100.333 517.833,-96.5 521.667,-96.5"/>
<text text-anchor="middle" x="532" y="-104.3" font-family="Arial" font-size="14.00">•</text>
</a>
</g>
<text text-anchor="middle" x="509.5" y="-84.8" font-family="Arial" font-size="14.00">6</text>
</g>
<!-- UC55&#45;&gt;UC56 -->
<g id="edge7" class="edge"><title>UC55:EXT&#45;&gt;UC56:JMP</title>
<g id="a_edge7"><a xlink:href="#UC5_5">
<path fill="none" stroke="black" d="M370,-108C416.747,-108 471.081,-108 503.445,-108"/>
<polygon fill="black" stroke="black" points="503.536,-111.5 513.536,-108 503.536,-104.5 503.536,-111.5"/>
</a>
</g>
</g>
<!-- UC21 -->
<g id="node7" class="node"><title>UC21</title>
<g id="a_node7"><a xlink:href="../UC21/UC21.html" xlink:title="UC21 Hibernate application subfunction" target="_top">
<polygon fill="#fed9a6" stroke="black" points="665,-36 399,-36 399,-0 665,-0 665,-36"/>
<text text-anchor="middle" x="532" y="-14.3" font-family="Arial" font-size="14.00">UC21 Hibernate application subfunction</text>
</a>
</g>
</g>
<!-- UC55&#45;&gt;UC21 -->
<g id="edge1" class="edge"><title>UC55:JMP&#45;&gt;UC21</title>
<g id="a_edge1"><a xlink:href="#UC5_5">
<path fill="none" stroke="black" d="M316,-95C316,-55.2664 348.948,-34.8417 389.048,-24.6972"/>
<polygon fill="black" stroke="black" points="389.856,-28.1029 398.817,-22.451 388.287,-21.281 389.856,-28.1029"/>
</a>
</g>
</g>
<!-- UC21&#45;&gt;UC55 -->
<g id="edge2" class="edge"><title>UC21&#45;&gt;UC55:EXT</title>
<path fill="none" stroke="black" d="M450.22,-36.0201C432.177,-42.5376 413.975,-51.2953 399,-63 383.769,-74.9054 389.851,-97.1715 379.905,-105.103"/>
<polygon fill="black" stroke="black" points="378.615,-101.833 370,-108 380.58,-108.552 378.615,-101.833"/>
</g>
</g>
</svg>
