<?xml version="1.0" encoding="UTF-8" standalone="no"?>
<!DOCTYPE svg PUBLIC "-//W3C//DTD SVG 1.1//EN"
 "http://www.w3.org/Graphics/SVG/1.1/DTD/svg11.dtd">
<!-- Generated by graphviz version 2.36.0 (20140111.2315)
 -->
<!-- Title: mygraph Pages: 1 -->
<svg width="876pt" height="487pt"
 viewBox="70.00 70.00 806.35 417.08" xmlns="http://www.w3.org/2000/svg" xmlns:xlink="http://www.w3.org/1999/xlink">
<g id="graph0" class="graph" transform="scale(0.972222 0.972222) rotate(0) translate(76 425)">
<title>mygraph</title>
<polygon fill="white" stroke="none" points="-4,4 -4,-353 753.389,-353 753.389,4 -4,4"/>
<!-- UC7 -->
<g id="node1" class="node"><title>UC7</title>
<g id="a_node1"><a xlink:href="../UC7/UC7.html" xlink:title="Login" target="_top">
<ellipse fill="none" stroke="black" cx="314.389" cy="-269" rx="31.6406" ry="16.0303"/>
<text text-anchor="middle" x="314.389" y="-265.3" font-family="Arial" font-size="14.00">UC7</text>
</a>
</g>
</g>
<!-- UC6 -->
<g id="node3" class="node"><title>UC6</title>
<g id="a_node3"><a xlink:href="../UC6/UC6.html" xlink:title="Create account" target="_top">
<ellipse fill="none" stroke="black" cx="152.389" cy="-332" rx="31.6406" ry="16.0303"/>
<text text-anchor="middle" x="152.389" y="-328.3" font-family="Arial" font-size="14.00">UC6</text>
</a>
</g>
</g>
<!-- UC7&#45;&gt;UC6 -->
<g id="edge1" class="edge"><title>UC7&#45;&gt;UC6</title>
<path fill="none" stroke="black" d="M289.785,-279.265C262.23,-289.64 217.389,-306.525 186.469,-318.167"/>
<polygon fill="black" stroke="black" points="185.084,-314.949 176.959,-321.748 187.551,-321.5 185.084,-314.949"/>
</g>
<!-- UC13 -->
<g id="node2" class="node"><title>UC13</title>
<g id="a_node2"><a xlink:href="../UC13/UC13.html" xlink:title="Change credit card" target="_top">
<ellipse fill="none" stroke="black" cx="285.389" cy="-206" rx="37.4533" ry="16.0303"/>
<text text-anchor="middle" x="285.389" y="-202.3" font-family="Arial" font-size="14.00">UC13</text>
</a>
</g>
</g>
<!-- UC13&#45;&gt;UC7 -->
<g id="edge2" class="edge"><title>UC13&#45;&gt;UC7</title>
<path fill="none" stroke="black" d="M292.558,-222.079C295.648,-228.579 299.342,-236.348 302.804,-243.63"/>
<polygon fill="black" stroke="black" points="299.849,-245.566 307.303,-253.095 306.17,-242.561 299.849,-245.566"/>
</g>
<!-- UC10 -->
<g id="node4" class="node"><title>UC10</title>
<g id="a_node4"><a xlink:href="../UC10/UC10.html" xlink:title="Delete account" target="_top">
<ellipse fill="none" stroke="black" cx="49.3892" cy="-206" rx="37.4533" ry="16.0303"/>
<text text-anchor="middle" x="49.3892" y="-202.3" font-family="Arial" font-size="14.00">UC10</text>
</a>
</g>
</g>
<!-- UC10&#45;&gt;UC7 -->
<g id="edge3" class="edge"><title>UC10&#45;&gt;UC7</title>
<path fill="none" stroke="black" d="M77.141,-216.864C83.7331,-219.037 90.7734,-221.218 97.3892,-223 158.782,-239.537 231.337,-253.475 275.061,-261.279"/>
<polygon fill="black" stroke="black" points="274.544,-264.742 285,-263.036 275.762,-257.849 274.544,-264.742"/>
</g>
<!-- UC12 -->
<g id="node5" class="node"><title>UC12</title>
<g id="a_node5"><a xlink:href="../UC12/UC12.html" xlink:title="Change billing information" target="_top">
<ellipse fill="none" stroke="black" cx="167.389" cy="-206" rx="37.4533" ry="16.0303"/>
<text text-anchor="middle" x="167.389" y="-202.3" font-family="Arial" font-size="14.00">UC12</text>
</a>
</g>
</g>
<!-- UC12&#45;&gt;UC7 -->
<g id="edge4" class="edge"><title>UC12&#45;&gt;UC7</title>
<path fill="none" stroke="black" d="M193.331,-217.765C217.85,-227.939 254.742,-243.248 281.353,-254.291"/>
<polygon fill="black" stroke="black" points="280.072,-257.549 290.65,-258.149 282.755,-251.083 280.072,-257.549"/>
</g>
<!-- UC9 -->
<g id="node6" class="node"><title>UC9</title>
<g id="a_node6"><a xlink:href="../UC9/UC9.html" xlink:title="Change plan" target="_top">
<ellipse fill="none" stroke="black" cx="226.389" cy="-143" rx="31.6406" ry="16.0303"/>
<text text-anchor="middle" x="226.389" y="-139.3" font-family="Arial" font-size="14.00">UC9</text>
</a>
</g>
</g>
<!-- UC9&#45;&gt;UC7 -->
<g id="edge5" class="edge"><title>UC9&#45;&gt;UC7</title>
<path fill="none" stroke="black" d="M225.774,-159.35C225.841,-176.362 228.247,-203.913 241.389,-223 250.947,-236.881 266.327,-247.285 280.51,-254.573"/>
<polygon fill="black" stroke="black" points="279.054,-257.756 289.585,-258.917 282.076,-251.442 279.054,-257.756"/>
</g>
<!-- UC9&#45;&gt;UC13 -->
<g id="edge29" class="edge"><title>UC9&#45;&gt;UC13</title>
<path fill="none" stroke="black" stroke-dasharray="5,2" d="M239.777,-157.842C247.066,-165.377 256.247,-174.87 264.459,-183.36"/>
<polygon fill="none" stroke="black" points="262.177,-186.035 271.645,-190.79 267.208,-181.168 262.177,-186.035"/>
</g>
<!-- UC9&#45;&gt;UC12 -->
<g id="edge30" class="edge"><title>UC9&#45;&gt;UC12</title>
<path fill="none" stroke="black" stroke-dasharray="5,2" d="M213.001,-157.842C205.713,-165.377 196.531,-174.87 188.32,-183.36"/>
<polygon fill="none" stroke="black" points="185.57,-181.168 181.134,-190.79 190.602,-186.035 185.57,-181.168"/>
</g>
<!-- UC15 -->
<g id="node7" class="node"><title>UC15</title>
<g id="a_node7"><a xlink:href="../UC15/UC15.html" xlink:title="Modify application data using Git" target="_top">
<ellipse fill="none" stroke="black" cx="380.389" cy="-80" rx="37.4533" ry="16.0303"/>
<text text-anchor="middle" x="380.389" y="-76.3" font-family="Arial" font-size="14.00">UC15</text>
</a>
</g>
</g>
<!-- UC15&#45;&gt;UC7 -->
<g id="edge6" class="edge"><title>UC15&#45;&gt;UC7</title>
<path fill="none" stroke="black" d="M377.597,-96.3809C372.465,-122.943 360.293,-178.81 341.389,-223 338.236,-230.371 334.06,-237.992 329.937,-244.82"/>
<polygon fill="black" stroke="black" points="326.813,-243.214 324.449,-253.542 332.737,-246.942 326.813,-243.214"/>
</g>
<!-- UC3 -->
<g id="node11" class="node"><title>UC3</title>
<g id="a_node11"><a xlink:href="../UC3/UC3.html" xlink:title="Start application" target="_top">
<ellipse fill="none" stroke="black" cx="314.389" cy="-143" rx="31.6406" ry="16.0303"/>
<text text-anchor="middle" x="314.389" y="-139.3" font-family="Arial" font-size="14.00">UC3</text>
</a>
</g>
</g>
<!-- UC15&#45;&gt;UC3 -->
<g id="edge31" class="edge"><title>UC15&#45;&gt;UC3</title>
<path fill="none" stroke="black" stroke-dasharray="5,2" d="M365.082,-95.1479C356.633,-102.957 345.987,-112.796 336.635,-121.44"/>
<polygon fill="none" stroke="black" points="334.128,-118.991 329.16,-128.348 338.879,-124.131 334.128,-118.991"/>
</g>
<!-- UC1 -->
<g id="node12" class="node"><title>UC1</title>
<g id="a_node12"><a xlink:href="../UC1/UC1.html" xlink:title="Create application" target="_top">
<ellipse fill="none" stroke="black" cx="441.389" cy="-206" rx="31.6406" ry="16.0303"/>
<text text-anchor="middle" x="441.389" y="-202.3" font-family="Arial" font-size="14.00">UC1</text>
</a>
</g>
</g>
<!-- UC15&#45;&gt;UC1 -->
<g id="edge7" class="edge"><title>UC15&#45;&gt;UC1</title>
<path fill="none" stroke="black" d="M387.869,-96.2048C398.261,-117.329 417.176,-155.78 429.51,-180.853"/>
<polygon fill="black" stroke="black" points="426.484,-182.63 434.039,-190.058 432.765,-179.54 426.484,-182.63"/>
</g>
<!-- UC21 -->
<g id="node8" class="node"><title>UC21</title>
<g id="a_node8"><a xlink:href="../UC21/UC21.html" xlink:title="Hibernate application subfunction" target="_top">
<ellipse fill="none" stroke="black" cx="537.389" cy="-143" rx="37.4533" ry="16.0303"/>
<text text-anchor="middle" x="537.389" y="-139.3" font-family="Arial" font-size="14.00">UC21</text>
</a>
</g>
</g>
<!-- UC2 -->
<g id="node9" class="node"><title>UC2</title>
<g id="a_node9"><a xlink:href="../UC2/UC2.html" xlink:title="Delete application" target="_top">
<ellipse fill="none" stroke="black" cx="717.389" cy="-80" rx="31.6406" ry="16.0303"/>
<text text-anchor="middle" x="717.389" y="-76.3" font-family="Arial" font-size="14.00">UC2</text>
</a>
</g>
</g>
<!-- UC2&#45;&gt;UC7 -->
<g id="edge8" class="edge"><title>UC2&#45;&gt;UC7</title>
<path fill="none" stroke="black" d="M720.835,-96.4286C723.757,-112.789 726.335,-139.102 718.389,-160 705.076,-195.017 695.508,-205.489 662.389,-223 610.011,-250.695 436.315,-262.283 355.903,-266.252"/>
<polygon fill="black" stroke="black" points="355.477,-262.768 345.655,-266.741 355.811,-269.76 355.477,-262.768"/>
</g>
<!-- UC4 -->
<g id="node10" class="node"><title>UC4</title>
<g id="a_node10"><a xlink:href="../UC4/UC4.html" xlink:title="Stop application" target="_top">
<ellipse fill="none" stroke="black" cx="680.389" cy="-143" rx="31.6406" ry="16.0303"/>
<text text-anchor="middle" x="680.389" y="-139.3" font-family="Arial" font-size="14.00">UC4</text>
</a>
</g>
</g>
<!-- UC2&#45;&gt;UC4 -->
<g id="edge32" class="edge"><title>UC2&#45;&gt;UC4</title>
<path fill="none" stroke="black" stroke-dasharray="5,2" d="M708.433,-95.7664C704.251,-102.66 699.175,-111.03 694.496,-118.743"/>
<polygon fill="none" stroke="black" points="691.457,-117.004 689.263,-127.37 697.442,-120.635 691.457,-117.004"/>
</g>
<!-- UC2&#45;&gt;UC1 -->
<g id="edge9" class="edge"><title>UC2&#45;&gt;UC1</title>
<path fill="none" stroke="black" d="M697.545,-92.6776C661.266,-114.006 587.392,-157.329 581.389,-160 547.735,-174.974 507.545,-187.363 478.877,-195.325"/>
<polygon fill="black" stroke="black" points="477.597,-192.046 468.87,-198.054 479.439,-198.799 477.597,-192.046"/>
</g>
<!-- UC4&#45;&gt;UC7 -->
<g id="edge10" class="edge"><title>UC4&#45;&gt;UC7</title>
<path fill="none" stroke="black" d="M676.578,-159.319C671.156,-177.661 659.346,-207.804 637.389,-223 592.591,-254.003 432.61,-263.824 355.941,-266.789"/>
<polygon fill="black" stroke="black" points="355.561,-263.301 345.696,-267.164 355.817,-270.296 355.561,-263.301"/>
</g>
<!-- UC4&#45;&gt;UC1 -->
<g id="edge11" class="edge"><title>UC4&#45;&gt;UC1</title>
<path fill="none" stroke="black" d="M652.973,-150.997C610.047,-161.954 526.897,-183.176 478.602,-195.502"/>
<polygon fill="black" stroke="black" points="477.677,-192.126 468.853,-197.99 479.408,-198.909 477.677,-192.126"/>
</g>
<!-- UC3&#45;&gt;UC7 -->
<g id="edge12" class="edge"><title>UC3&#45;&gt;UC7</title>
<path fill="none" stroke="black" d="M320.779,-159.104C324.067,-167.697 327.727,-178.758 329.389,-189 331.81,-203.916 331.81,-208.084 329.389,-223 328.298,-229.721 326.347,-236.796 324.206,-243.293"/>
<polygon fill="black" stroke="black" points="320.843,-242.302 320.779,-252.896 327.436,-244.654 320.843,-242.302"/>
</g>
<!-- UC3&#45;&gt;UC1 -->
<g id="edge13" class="edge"><title>UC3&#45;&gt;UC1</title>
<path fill="none" stroke="black" d="M336.511,-154.625C356.783,-164.362 387.02,-178.886 409.826,-189.84"/>
<polygon fill="black" stroke="black" points="408.565,-193.117 419.095,-194.292 411.596,-186.807 408.565,-193.117"/>
</g>
<!-- UC1&#45;&gt;UC7 -->
<g id="edge14" class="edge"><title>UC1&#45;&gt;UC7</title>
<path fill="none" stroke="black" d="M419.268,-217.625C398.996,-227.362 368.758,-241.886 345.952,-252.84"/>
<polygon fill="black" stroke="black" points="344.182,-249.807 336.684,-257.292 347.213,-256.117 344.182,-249.807"/>
</g>
<!-- UC5 -->
<g id="node13" class="node"><title>UC5</title>
<g id="a_node13"><a xlink:href="../UC5/UC5.html" xlink:title="Hibernate application" target="_top">
<ellipse fill="none" stroke="black" cx="595.389" cy="-80" rx="31.6406" ry="16.0303"/>
<text text-anchor="middle" x="595.389" y="-76.3" font-family="Arial" font-size="14.00">UC5</text>
</a>
</g>
</g>
<!-- UC5&#45;&gt;UC7 -->
<g id="edge15" class="edge"><title>UC5&#45;&gt;UC7</title>
<path fill="none" stroke="black" d="M596.231,-96.3338C596.408,-113.332 594.377,-140.87 581.389,-160 530.279,-235.28 416.92,-258.108 355.634,-265.015"/>
<polygon fill="black" stroke="black" points="355.129,-261.549 345.543,-266.061 355.851,-268.511 355.129,-261.549"/>
</g>
<!-- UC5&#45;&gt;UC21 -->
<g id="edge33" class="edge"><title>UC5&#45;&gt;UC21</title>
<path fill="none" stroke="black" stroke-dasharray="5,2" d="M582.228,-94.8418C575.063,-102.377 566.037,-111.87 557.965,-120.36"/>
<polygon fill="none" stroke="black" points="555.255,-118.131 550.901,-127.79 560.328,-122.954 555.255,-118.131"/>
</g>
<!-- UC5&#45;&gt;UC4 -->
<g id="edge16" class="edge"><title>UC5&#45;&gt;UC4</title>
<path fill="none" stroke="black" d="M613.001,-93.6392C624.968,-102.227 641,-113.732 654.424,-123.366"/>
<polygon fill="black" stroke="black" points="652.635,-126.39 662.8,-129.377 656.716,-120.703 652.635,-126.39"/>
</g>
<!-- UC20 -->
<g id="node14" class="node"><title>UC20</title>
<g id="a_node14"><a xlink:href="../UC20/UC20.html" xlink:title="Suspend application" target="_top">
<ellipse fill="none" stroke="black" cx="218.389" cy="-80" rx="37.4533" ry="16.0303"/>
<text text-anchor="middle" x="218.389" y="-76.3" font-family="Arial" font-size="14.00">UC20</text>
</a>
</g>
</g>
<!-- UC20&#45;&gt;UC3 -->
<g id="edge17" class="edge"><title>UC20&#45;&gt;UC3</title>
<path fill="none" stroke="black" d="M238.748,-93.9365C252.735,-102.824 271.472,-114.73 286.798,-124.468"/>
<polygon fill="black" stroke="black" points="285.048,-127.503 295.365,-129.912 288.802,-121.595 285.048,-127.503"/>
</g>
<!-- UC19 -->
<g id="node15" class="node"><title>UC19</title>
<g id="a_node15"><a xlink:href="../UC19/UC19.html" xlink:title="Process request" target="_top">
<ellipse fill="none" stroke="black" cx="218.389" cy="-17" rx="37.4533" ry="16.0303"/>
<text text-anchor="middle" x="218.389" y="-13.3" font-family="Arial" font-size="14.00">UC19</text>
</a>
</g>
</g>
<!-- UC19&#45;&gt;UC9 -->
<g id="edge19" class="edge"><title>UC19&#45;&gt;UC9</title>
<path fill="none" stroke="black" d="M199.894,-31.1646C190.326,-39.1508 179.586,-50.2512 174.389,-63 168.685,-76.9931 168.107,-83.2565 174.389,-97 179.367,-107.891 188.426,-117.155 197.604,-124.396"/>
<polygon fill="black" stroke="black" points="195.807,-127.416 205.953,-130.465 199.923,-121.754 195.807,-127.416"/>
</g>
<!-- UC19&#45;&gt;UC3 -->
<g id="edge18" class="edge"><title>UC19&#45;&gt;UC3</title>
<path fill="none" stroke="black" d="M233.397,-31.9338C242.271,-40.5071 253.478,-51.9385 262.389,-63 276.597,-80.6366 290.59,-102.202 300.476,-118.342"/>
<polygon fill="black" stroke="black" points="297.627,-120.396 305.792,-127.148 303.62,-116.778 297.627,-120.396"/>
</g>
<!-- UC19&#45;&gt;UC20 -->
<g id="edge20" class="edge"><title>UC19&#45;&gt;UC20</title>
<path fill="none" stroke="black" d="M218.389,-33.3929C218.389,-39.415 218.389,-46.4883 218.389,-53.2434"/>
<polygon fill="black" stroke="black" points="214.889,-53.3998 218.389,-63.3999 221.889,-53.3999 214.889,-53.3998"/>
</g>
<!-- UC16 -->
<g id="node16" class="node"><title>UC16</title>
<g id="a_node16"><a xlink:href="../UC16/UC16.html" xlink:title="Subtract monthly fee" target="_top">
<ellipse fill="none" stroke="black" cx="512.389" cy="-80" rx="37.4533" ry="16.0303"/>
<text text-anchor="middle" x="512.389" y="-76.3" font-family="Arial" font-size="14.00">UC16</text>
</a>
</g>
</g>
<!-- UC16&#45;&gt;UC9 -->
<g id="edge22" class="edge"><title>UC16&#45;&gt;UC9</title>
<path fill="none" stroke="black" d="M478.534,-87.1797C417.794,-98.3036 294.808,-121.008 275.389,-126 270.758,-127.191 265.925,-128.581 261.176,-130.037"/>
<polygon fill="black" stroke="black" points="260.107,-126.704 251.639,-133.072 262.23,-133.374 260.107,-126.704"/>
</g>
<!-- UC16&#45;&gt;UC21 -->
<g id="edge35" class="edge"><title>UC16&#45;&gt;UC21</title>
<path fill="none" stroke="black" stroke-dasharray="5,2" d="M518.569,-96.0787C521.193,-102.482 524.322,-110.116 527.268,-117.304"/>
<polygon fill="none" stroke="black" points="524.076,-118.745 531.107,-126.671 530.553,-116.091 524.076,-118.745"/>
</g>
<!-- UC16&#45;&gt;UC4 -->
<g id="edge34" class="edge"><title>UC16&#45;&gt;UC4</title>
<path fill="none" stroke="black" stroke-dasharray="5,2" d="M539.85,-90.9887C545.328,-92.9807 551.041,-95.0573 556.389,-97 586.47,-107.927 620.66,-120.334 645.509,-129.349"/>
<polygon fill="none" stroke="black" points="644.619,-132.749 655.213,-132.869 647.006,-126.169 644.619,-132.749"/>
</g>
<!-- UC16&#45;&gt;UC1 -->
<g id="edge21" class="edge"><title>UC16&#45;&gt;UC1</title>
<path fill="none" stroke="black" d="M503.683,-96.2048C491.534,-117.422 469.376,-156.121 455.025,-181.185"/>
<polygon fill="black" stroke="black" points="451.876,-179.641 449.945,-190.058 457.951,-183.119 451.876,-179.641"/>
</g>
<!-- UC17 -->
<g id="node17" class="node"><title>UC17</title>
<g id="a_node17"><a xlink:href="../UC17/UC17.html" xlink:title="Administer account" target="_top">
<ellipse fill="none" stroke="black" cx="78.3892" cy="-143" rx="37.4533" ry="16.0303"/>
<text text-anchor="middle" x="78.3892" y="-139.3" font-family="Arial" font-size="14.00">UC17</text>
</a>
</g>
</g>
<!-- UC17&#45;&gt;UC7 -->
<g id="edge23" class="edge"><title>UC17&#45;&gt;UC7</title>
<path fill="none" stroke="black" d="M82.9376,-159.315C89.1082,-177.364 101.902,-206.928 123.389,-223 167.149,-255.731 231.059,-265.112 272.687,-267.554"/>
<polygon fill="black" stroke="black" points="272.609,-271.054 282.764,-268.035 272.943,-264.062 272.609,-271.054"/>
</g>
<!-- UC17&#45;&gt;UC6 -->
<g id="edge36" class="edge"><title>UC17&#45;&gt;UC6</title>
<path fill="none" stroke="black" stroke-dasharray="5,2" d="M49.9724,-153.529C33.7892,-160.586 14.8965,-171.971 5.38922,-189 -1.97697,-202.194 -1.43528,-209.518 5.38922,-223 28.9205,-269.488 82.925,-300.831 118.513,-317.294"/>
<polygon fill="none" stroke="black" points="117.463,-320.659 128.021,-321.543 120.319,-314.268 117.463,-320.659"/>
</g>
<!-- UC17&#45;&gt;UC10 -->
<g id="edge37" class="edge"><title>UC17&#45;&gt;UC10</title>
<path fill="none" stroke="black" stroke-dasharray="5,2" d="M71.2207,-159.079C68.1764,-165.482 64.547,-173.116 61.1299,-180.304"/>
<polygon fill="none" stroke="black" points="57.8094,-179.137 56.6767,-189.671 64.1313,-182.143 57.8094,-179.137"/>
</g>
<!-- UC17&#45;&gt;UC12 -->
<g id="edge38" class="edge"><title>UC17&#45;&gt;UC12</title>
<path fill="none" stroke="black" stroke-dasharray="5,2" d="M97.7009,-157.236C110.031,-165.687 126.207,-176.774 139.871,-186.139"/>
<polygon fill="none" stroke="black" points="138.194,-189.233 148.421,-191.999 142.151,-183.459 138.194,-189.233"/>
</g>
<!-- UC18 -->
<g id="node18" class="node"><title>UC18</title>
<g id="a_node18"><a xlink:href="../UC18/UC18.html" xlink:title="Administer application" target="_top">
<ellipse fill="none" stroke="black" cx="446.389" cy="-17" rx="37.4533" ry="16.0303"/>
<text text-anchor="middle" x="446.389" y="-13.3" font-family="Arial" font-size="14.00">UC18</text>
</a>
</g>
</g>
<!-- UC18&#45;&gt;UC15 -->
<g id="edge28" class="edge"><title>UC18&#45;&gt;UC15</title>
<path fill="none" stroke="black" d="M427.652,-31.2361C418.745,-38.7161 408.199,-48.2617 399.284,-56.8502"/>
<polygon fill="black" stroke="black" points="396.617,-54.5637 391.95,-64.0753 401.53,-59.55 396.617,-54.5637"/>
</g>
<!-- UC18&#45;&gt;UC15 -->
<g id="edge40" class="edge"><title>UC18&#45;&gt;UC15</title>
<path fill="none" stroke="black" stroke-dasharray="5,2" d="M434.984,-32.7664C427.184,-40.6679 416.664,-50.5096 406.901,-59.0793"/>
<polygon fill="none" stroke="black" points="404.599,-56.4432 399.3,-65.618 409.164,-61.7498 404.599,-56.4432"/>
</g>
<!-- UC18&#45;&gt;UC2 -->
<g id="edge25" class="edge"><title>UC18&#45;&gt;UC2</title>
<path fill="none" stroke="black" d="M480.548,-23.7591C524.355,-30.9415 602.163,-44.5584 667.389,-63 671.94,-64.2867 676.693,-65.8373 681.397,-67.46"/>
<polygon fill="black" stroke="black" points="680.308,-70.7874 690.903,-70.8311 682.648,-64.19 680.308,-70.7874"/>
</g>
<!-- UC18&#45;&gt;UC2 -->
<g id="edge41" class="edge"><title>UC18&#45;&gt;UC2</title>
<path fill="none" stroke="black" stroke-dasharray="5,2" d="M481.607,-22.4314C528.112,-29.1791 611.893,-43.3509 681.389,-63 683.075,-63.4768 684.79,-63.9897 686.51,-64.5292"/>
<polygon fill="none" stroke="black" points="685.682,-67.9444 696.277,-67.8405 687.93,-61.315 685.682,-67.9444"/>
</g>
<!-- UC18&#45;&gt;UC4 -->
<g id="edge27" class="edge"><title>UC18&#45;&gt;UC4</title>
<path fill="none" stroke="black" d="M483.594,-18.9735C522.64,-21.8936 583.918,-31.6988 626.389,-63 645.033,-76.7407 657.643,-100.291 666.344,-118.112"/>
<polygon fill="black" stroke="black" points="663.292,-119.84 670.789,-127.325 669.596,-116.798 663.292,-119.84"/>
</g>
<!-- UC18&#45;&gt;UC4 -->
<g id="edge43" class="edge"><title>UC18&#45;&gt;UC4</title>
<path fill="none" stroke="black" stroke-dasharray="5,2" d="M483.521,-18.3493C525.633,-20.3247 594.155,-28.9252 640.389,-63 658.646,-76.4552 671.117,-99.3161 677.402,-116.994"/>
<polygon fill="none" stroke="black" points="674.1,-118.164 680.385,-126.693 680.791,-116.106 674.1,-118.164"/>
</g>
<!-- UC18&#45;&gt;UC3 -->
<g id="edge26" class="edge"><title>UC18&#45;&gt;UC3</title>
<path fill="none" stroke="black" d="M411.463,-22.6441C385.106,-28.0967 350.235,-39.5674 329.389,-63 316.348,-77.6595 310.972,-99.4298 309.88,-116.407"/>
<polygon fill="black" stroke="black" points="306.376,-116.702 309.744,-126.748 313.375,-116.795 306.376,-116.702"/>
</g>
<!-- UC18&#45;&gt;UC3 -->
<g id="edge42" class="edge"><title>UC18&#45;&gt;UC3</title>
<path fill="none" stroke="black" stroke-dasharray="5,2" d="M413.516,-24.9132C390.825,-31.0661 361.698,-42.4194 343.389,-63 330.224,-77.7991 324.871,-99.8451 321.603,-116.89"/>
<polygon fill="none" stroke="black" points="318.157,-116.279 319.787,-126.748 325.041,-117.548 318.157,-116.279"/>
</g>
<!-- UC18&#45;&gt;UC1 -->
<g id="edge24" class="edge"><title>UC18&#45;&gt;UC1</title>
<path fill="none" stroke="black" d="M442.938,-33.303C439.387,-65.4352 437.157,-140.207 438.335,-179.631"/>
<polygon fill="black" stroke="black" points="434.843,-179.903 438.759,-189.748 441.837,-179.61 434.843,-179.903"/>
</g>
<!-- UC18&#45;&gt;UC1 -->
<g id="edge39" class="edge"><title>UC18&#45;&gt;UC1</title>
<path fill="none" stroke="black" stroke-dasharray="5,2" d="M449.023,-33.303C450.855,-65.4352 449.086,-140.207 445.8,-179.631"/>
<polygon fill="none" stroke="black" points="442.301,-179.461 444.835,-189.748 449.269,-180.125 442.301,-179.461"/>
</g>
<!-- UC18&#45;&gt;UC5 -->
<g id="edge44" class="edge"><title>UC18&#45;&gt;UC5</title>
<path fill="none" stroke="black" stroke-dasharray="5,2" d="M472.618,-28.7215C494.906,-37.834 527.749,-51.267 556.389,-63 558.218,-63.7491 560.094,-64.5181 561.989,-65.2946"/>
<polygon fill="none" stroke="black" points="560.885,-68.625 571.466,-69.1808 563.541,-62.1484 560.885,-68.625"/>
</g>
</g>
</svg>
