<?xml version="1.0" encoding="UTF-8" standalone="no"?>
<!DOCTYPE svg PUBLIC "-//W3C//DTD SVG 1.1//EN"
 "http://www.w3.org/Graphics/SVG/1.1/DTD/svg11.dtd">
<!-- Generated by graphviz version 2.36.0 (20140111.2315)
 -->
<!-- Title: mygraph Pages: 1 -->
<svg width="743pt" height="373pt"
 viewBox="62.00 62.00 681.14 310.86" xmlns="http://www.w3.org/2000/svg" xmlns:xlink="http://www.w3.org/1999/xlink">
<g id="graph0" class="graph" transform="scale(0.861111 0.861111) rotate(0) translate(76 357)">
<title>mygraph</title>
<polygon fill="white" stroke="none" points="-4,4 -4,-285 715,-285 715,4 -4,4"/>
<g id="clust1" class="cluster"><title>cluster_UC15_</title>
<polygon fill="#ffffcc" stroke="black" points="8,-131 8,-215 684,-215 684,-131 8,-131"/>
</g>
<g id="clust2" class="cluster"><title>cluster_UC15_2a</title>
<polygon fill="#f2f2f2" stroke="black" points="322,-8 322,-130 544,-130 544,-8 322,-8"/>
<text text-anchor="start" x="330" y="-114.8" font-family="Arial" font-size="14.00" fill="gray">Extension: 2a.</text>
<text text-anchor="middle" x="433" y="-99.8" font-family="Arial" font-size="14.00" fill="gray"> Application in stopped or hibe... </text>
</g>
<!-- UC151 -->
<g id="node1" class="node"><title>UC151</title>
<g id="a_node1"><a xlink:title="User pushes changes to the application&#39;s remote git repository.">
<path fill="#b3cde3" stroke="black" d="M45.6667,-161.5C45.6667,-161.5 66.3333,-161.5 66.3333,-161.5 70.1667,-161.5 74,-165.333 74,-169.167 74,-169.167 74,-176.833 74,-176.833 74,-180.667 70.1667,-184.5 66.3333,-184.5 66.3333,-184.5 45.6667,-184.5 45.6667,-184.5 41.8333,-184.5 38,-180.667 38,-176.833 38,-176.833 38,-169.167 38,-169.167 38,-165.333 41.8333,-161.5 45.6667,-161.5"/>
<text text-anchor="middle" x="56" y="-169.3" font-family="Arial" font-size="14.00">•</text>
</a>
</g>
<text text-anchor="middle" x="33.5" y="-149.8" font-family="Arial" font-size="14.00">1</text>
</g>
<!-- UC152 -->
<g id="node2" class="node"><title>UC152</title>
<g id="a_node2"><a xlink:title="System detects changes in the application&#39;s remote repository.">
<path fill="#b3cde3" stroke="black" d="M110.667,-161.5C110.667,-161.5 167.333,-161.5 167.333,-161.5 171.167,-161.5 175,-165.333 175,-169.167 175,-169.167 175,-176.833 175,-176.833 175,-180.667 171.167,-184.5 167.333,-184.5 167.333,-184.5 110.667,-184.5 110.667,-184.5 106.833,-184.5 103,-180.667 103,-176.833 103,-176.833 103,-169.167 103,-169.167 103,-165.333 106.833,-161.5 110.667,-161.5"/>
<text text-anchor="middle" x="121.5" y="-169.3" font-family="Arial" font-size="14.00">•</text>
<polyline fill="none" stroke="black" points="140,-161.5 140,-184.5 "/>
<text text-anchor="middle" x="157.5" y="-169.3" font-family="Arial" font-size="14.00"> </text>
</a>
</g>
<text text-anchor="middle" x="98.5" y="-149.8" font-family="Arial" font-size="14.00">2</text>
</g>
<!-- UC151&#45;&gt;UC152 -->
<g id="edge3" class="edge"><title>UC151:JMP&#45;&gt;UC152:JMP</title>
<g id="a_edge3"><a xlink:href="#UC15_1">
<path fill="none" stroke="black" d="M74.3026,-173C80.0084,-173 86.5079,-173 92.9772,-173"/>
<polygon fill="black" stroke="black" points="93,-176.5 103,-173 93,-169.5 93,-176.5"/>
</a>
</g>
</g>
<!-- UC153 -->
<g id="node3" class="node"><title>UC153</title>
<g id="a_node3"><a xlink:title="System verifies that application is in running or suspended state.">
<path fill="#b3cde3" stroke="black" d="M211.667,-161.5C211.667,-161.5 232.333,-161.5 232.333,-161.5 236.167,-161.5 240,-165.333 240,-169.167 240,-169.167 240,-176.833 240,-176.833 240,-180.667 236.167,-184.5 232.333,-184.5 232.333,-184.5 211.667,-184.5 211.667,-184.5 207.833,-184.5 204,-180.667 204,-176.833 204,-176.833 204,-169.167 204,-169.167 204,-165.333 207.833,-161.5 211.667,-161.5"/>
<text text-anchor="middle" x="222" y="-169.3" font-family="Arial" font-size="14.00">•</text>
</a>
</g>
<text text-anchor="middle" x="199.5" y="-149.8" font-family="Arial" font-size="14.00">3</text>
</g>
<!-- UC152&#45;&gt;UC153 -->
<g id="edge4" class="edge"><title>UC152:EXT&#45;&gt;UC153:JMP</title>
<g id="a_edge4"><a xlink:href="#UC15_2">
<path fill="none" stroke="black" d="M175,-173C180.916,-173 187.25,-173 193.292,-173"/>
<polygon fill="black" stroke="black" points="193.697,-176.5 203.697,-173 193.697,-169.5 193.697,-176.5"/>
</a>
</g>
</g>
<!-- UC152a1 -->
<g id="node7" class="node"><title>UC152a1</title>
<g id="a_node7"><a xlink:title="Use case finishes. #(goto:6)">
<path fill="#b3cde3" stroke="black" d="M422.667,-38.5C422.667,-38.5 443.333,-38.5 443.333,-38.5 447.167,-38.5 451,-42.3333 451,-46.1667 451,-46.1667 451,-53.8333 451,-53.8333 451,-57.6667 447.167,-61.5 443.333,-61.5 443.333,-61.5 422.667,-61.5 422.667,-61.5 418.833,-61.5 415,-57.6667 415,-53.8333 415,-53.8333 415,-46.1667 415,-46.1667 415,-42.3333 418.833,-38.5 422.667,-38.5"/>
<text text-anchor="middle" x="433" y="-46.3" font-family="Arial" font-size="14.00">•</text>
</a>
</g>
<text text-anchor="middle" x="402.5" y="-26.8" font-family="Arial" font-size="14.00">2a1</text>
</g>
<!-- UC152&#45;&gt;UC152a1 -->
<g id="edge8" class="edge"><title>UC152:EXT&#45;&gt;UC152a1:JMP</title>
<g id="a_edge8"><a xlink:href="#UC15_2">
<path fill="none" stroke="black" d="M175,-173C190.409,-173 190.501,-161.43 204,-154 274.268,-115.324 361.6,-78.6052 405.329,-60.9478"/>
<polygon fill="black" stroke="black" points="406.749,-64.1494 414.726,-57.1765 404.142,-57.6531 406.749,-64.1494"/>
</a>
</g>
</g>
<!-- UC154 -->
<g id="node4" class="node"><title>UC154</title>
<g id="a_node4"><a xlink:title="System stops application.">
<path fill="#b3cde3" stroke="black" d="M276.667,-161.5C276.667,-161.5 297.333,-161.5 297.333,-161.5 301.167,-161.5 305,-165.333 305,-169.167 305,-169.167 305,-176.833 305,-176.833 305,-180.667 301.167,-184.5 297.333,-184.5 297.333,-184.5 276.667,-184.5 276.667,-184.5 272.833,-184.5 269,-180.667 269,-176.833 269,-176.833 269,-169.167 269,-169.167 269,-165.333 272.833,-161.5 276.667,-161.5"/>
<text text-anchor="middle" x="287" y="-169.3" font-family="Arial" font-size="14.00">•</text>
</a>
</g>
<text text-anchor="middle" x="264.5" y="-149.8" font-family="Arial" font-size="14.00">4</text>
</g>
<!-- UC153&#45;&gt;UC154 -->
<g id="edge5" class="edge"><title>UC153:JMP&#45;&gt;UC154:JMP</title>
<g id="a_edge5"><a xlink:href="#UC15_3">
<path fill="none" stroke="black" d="M240.106,-173C245.882,-173 252.417,-173 258.735,-173"/>
<polygon fill="black" stroke="black" points="258.991,-176.5 268.991,-173 258.991,-169.5 258.991,-176.5"/>
</a>
</g>
</g>
<!-- UC155 -->
<g id="node5" class="node"><title>UC155</title>
<g id="a_node5"><a xlink:title="System starts application. #(include:UC3)">
<path fill="#b3cde3" stroke="black" d="M404.667,-161.5C404.667,-161.5 461.333,-161.5 461.333,-161.5 465.167,-161.5 469,-165.333 469,-169.167 469,-169.167 469,-176.833 469,-176.833 469,-180.667 465.167,-184.5 461.333,-184.5 461.333,-184.5 404.667,-184.5 404.667,-184.5 400.833,-184.5 397,-180.667 397,-176.833 397,-176.833 397,-169.167 397,-169.167 397,-165.333 400.833,-161.5 404.667,-161.5"/>
<text text-anchor="middle" x="415.5" y="-169.3" font-family="Arial" font-size="14.00">•</text>
<polyline fill="none" stroke="black" points="434,-161.5 434,-184.5 "/>
<text text-anchor="middle" x="451.5" y="-169.3" font-family="Arial" font-size="14.00"> </text>
</a>
</g>
<text text-anchor="middle" x="392.5" y="-149.8" font-family="Arial" font-size="14.00">5</text>
</g>
<!-- UC154&#45;&gt;UC155 -->
<g id="edge6" class="edge"><title>UC154:JMP&#45;&gt;UC155:JMP</title>
<g id="a_edge6"><a xlink:href="#UC15_4">
<path fill="none" stroke="black" d="M305.129,-173C324.479,-173 356.334,-173 385.729,-173"/>
<polygon fill="black" stroke="black" points="386,-176.5 396,-173 386,-169.5 386,-176.5"/>
</a>
</g>
</g>
<!-- UC156 -->
<g id="node6" class="node"><title>UC156</title>
<g id="a_node6"><a xlink:title="Use case finishes.">
<path fill="#ccebc5" stroke="black" d="M625.667,-161.5C625.667,-161.5 646.333,-161.5 646.333,-161.5 650.167,-161.5 654,-165.333 654,-169.167 654,-169.167 654,-176.833 654,-176.833 654,-180.667 650.167,-184.5 646.333,-184.5 646.333,-184.5 625.667,-184.5 625.667,-184.5 621.833,-184.5 618,-180.667 618,-176.833 618,-176.833 618,-169.167 618,-169.167 618,-165.333 621.833,-161.5 625.667,-161.5"/>
<text text-anchor="middle" x="636" y="-169.3" font-family="Arial" font-size="14.00">•</text>
</a>
</g>
<text text-anchor="middle" x="613.5" y="-149.8" font-family="Arial" font-size="14.00">6</text>
</g>
<!-- UC155&#45;&gt;UC156 -->
<g id="edge7" class="edge"><title>UC155:EXT&#45;&gt;UC156:JMP</title>
<g id="a_edge7"><a xlink:href="#UC15_5">
<path fill="none" stroke="black" d="M470,-173C518.16,-173 574.179,-173 607.276,-173"/>
<polygon fill="black" stroke="black" points="607.577,-176.5 617.577,-173 607.577,-169.5 607.577,-176.5"/>
</a>
</g>
</g>
<!-- UC3 -->
<g id="node8" class="node"><title>UC3</title>
<g id="a_node8"><a xlink:href="../UC3/UC3.html" xlink:title="UC3 Start application" target="_top">
<polygon fill="#fed9a6" stroke="black" points="710.5,-281 561.5,-281 561.5,-245 710.5,-245 710.5,-281"/>
<text text-anchor="middle" x="636" y="-259.3" font-family="Arial" font-size="14.00">UC3 Start application</text>
</a>
</g>
</g>
<!-- UC155&#45;&gt;UC3 -->
<g id="edge1" class="edge"><title>UC155:JMP&#45;&gt;UC3</title>
<g id="a_edge1"><a xlink:href="#UC15_5">
<path fill="none" stroke="black" d="M415,-186C415,-246.086 489.012,-262.375 551.18,-265.458"/>
<polygon fill="black" stroke="black" points="551.309,-268.966 561.437,-265.856 551.58,-261.971 551.309,-268.966"/>
</a>
</g>
</g>
<!-- UC152a1&#45;&gt;UC156 -->
<g id="edge9" class="edge"><title>UC152a1:JMP&#45;&gt;UC156:JMP</title>
<g id="a_edge9"><a xlink:href="#UC15_2a1">
<path fill="none" stroke="black" d="M451.015,-60.9154C486.814,-82.6064 567.069,-131.234 609.126,-156.716"/>
<polygon fill="black" stroke="black" points="607.367,-159.743 617.734,-161.932 610.995,-153.757 607.367,-159.743"/>
</a>
</g>
</g>
<!-- UC3&#45;&gt;UC155 -->
<g id="edge2" class="edge"><title>UC3&#45;&gt;UC155:EXT</title>
<path fill="none" stroke="black" d="M605.331,-244.787C568.076,-222.187 505.872,-185.414 479.691,-175.519"/>
<polygon fill="black" stroke="black" points="480.559,-172.128 470,-173 478.798,-178.903 480.559,-172.128"/>
</g>
</g>
</svg>
