<?xml version="1.0" encoding="UTF-8" standalone="no"?>
<!DOCTYPE svg PUBLIC "-//W3C//DTD SVG 1.1//EN"
 "http://www.w3.org/Graphics/SVG/1.1/DTD/svg11.dtd">
<!-- Generated by graphviz version 2.36.0 (20140111.2315)
 -->
<!-- Title: mygraph Pages: 1 -->
<svg width="511pt" height="429pt"
 viewBox="62.00 62.00 449.50 366.83" xmlns="http://www.w3.org/2000/svg" xmlns:xlink="http://www.w3.org/1999/xlink">
<g id="graph0" class="graph" transform="scale(0.861111 0.861111) rotate(0) translate(76 422)">
<title>mygraph</title>
<polygon fill="white" stroke="none" points="-4,4 -4,-350 446,-350 446,4 -4,4"/>
<g id="clust1" class="cluster"><title>cluster_UC19_</title>
<polygon fill="#ffffcc" stroke="black" points="8,-254 8,-338 378,-338 378,-254 8,-254"/>
</g>
<g id="clust2" class="cluster"><title>cluster_UC19_2a</title>
<polygon fill="#f2f2f2" stroke="black" points="222,-131 222,-253 439,-253 439,-131 222,-131"/>
<text text-anchor="start" x="230" y="-237.8" font-family="Arial" font-size="14.00" fill="gray">Extension: 2a.</text>
<text text-anchor="middle" x="330.5" y="-222.8" font-family="Arial" font-size="14.00" fill="gray"> Application is in stopped or h... </text>
</g>
<g id="clust3" class="cluster"><title>cluster_UC19_2b</title>
<polygon fill="#f2f2f2" stroke="black" points="219,-8 219,-130 442,-130 442,-8 219,-8"/>
<text text-anchor="start" x="227" y="-114.8" font-family="Arial" font-size="14.00" fill="gray">Extension: 2b.</text>
<text text-anchor="middle" x="330.5" y="-99.8" font-family="Arial" font-size="14.00" fill="gray"> Application is in suspended st... </text>
</g>
<!-- UC191 -->
<g id="node1" class="node"><title>UC191</title>
<g id="a_node1"><a xlink:title="Client sends request to application&#39;s url.">
<path fill="#b3cde3" stroke="black" d="M45.6667,-284.5C45.6667,-284.5 66.3333,-284.5 66.3333,-284.5 70.1667,-284.5 74,-288.333 74,-292.167 74,-292.167 74,-299.833 74,-299.833 74,-303.667 70.1667,-307.5 66.3333,-307.5 66.3333,-307.5 45.6667,-307.5 45.6667,-307.5 41.8333,-307.5 38,-303.667 38,-299.833 38,-299.833 38,-292.167 38,-292.167 38,-288.333 41.8333,-284.5 45.6667,-284.5"/>
<text text-anchor="middle" x="56" y="-292.3" font-family="Arial" font-size="14.00">•</text>
</a>
</g>
<text text-anchor="middle" x="33.5" y="-272.8" font-family="Arial" font-size="14.00">1</text>
</g>
<!-- UC192 -->
<g id="node2" class="node"><title>UC192</title>
<g id="a_node2"><a xlink:title="System checks that application is in running state.">
<path fill="#b3cde3" stroke="black" d="M110.667,-284.5C110.667,-284.5 203.333,-284.5 203.333,-284.5 207.167,-284.5 211,-288.333 211,-292.167 211,-292.167 211,-299.833 211,-299.833 211,-303.667 207.167,-307.5 203.333,-307.5 203.333,-307.5 110.667,-307.5 110.667,-307.5 106.833,-307.5 103,-303.667 103,-299.833 103,-299.833 103,-292.167 103,-292.167 103,-288.333 106.833,-284.5 110.667,-284.5"/>
<text text-anchor="middle" x="121.5" y="-292.3" font-family="Arial" font-size="14.00">•</text>
<polyline fill="none" stroke="black" points="140,-284.5 140,-307.5 "/>
<text text-anchor="middle" x="157.5" y="-292.3" font-family="Arial" font-size="14.00"> </text>
<polyline fill="none" stroke="black" points="175,-284.5 175,-307.5 "/>
<text text-anchor="middle" x="193" y="-292.3" font-family="Arial" font-size="14.00"> </text>
</a>
</g>
<text text-anchor="middle" x="98.5" y="-272.8" font-family="Arial" font-size="14.00">2</text>
</g>
<!-- UC191&#45;&gt;UC192 -->
<g id="edge1" class="edge"><title>UC191:JMP&#45;&gt;UC192:JMP</title>
<g id="a_edge1"><a xlink:href="#UC19_1">
<path fill="none" stroke="black" d="M74.3026,-296C80.0084,-296 86.5079,-296 92.9772,-296"/>
<polygon fill="black" stroke="black" points="93,-299.5 103,-296 93,-292.5 93,-299.5"/>
</a>
</g>
</g>
<!-- UC193 -->
<g id="node3" class="node"><title>UC193</title>
<g id="a_node3"><a xlink:title="System routes request to application.">
<path fill="#ccebc5" stroke="black" d="M319.667,-284.5C319.667,-284.5 340.333,-284.5 340.333,-284.5 344.167,-284.5 348,-288.333 348,-292.167 348,-292.167 348,-299.833 348,-299.833 348,-303.667 344.167,-307.5 340.333,-307.5 340.333,-307.5 319.667,-307.5 319.667,-307.5 315.833,-307.5 312,-303.667 312,-299.833 312,-299.833 312,-292.167 312,-292.167 312,-288.333 315.833,-284.5 319.667,-284.5"/>
<text text-anchor="middle" x="330" y="-292.3" font-family="Arial" font-size="14.00">•</text>
</a>
</g>
<text text-anchor="middle" x="307.5" y="-272.8" font-family="Arial" font-size="14.00">3</text>
</g>
<!-- UC192&#45;&gt;UC193 -->
<g id="edge2" class="edge"><title>UC192:OUT&#45;&gt;UC193:JMP</title>
<g id="a_edge2"><a xlink:href="#UC19_2">
<path fill="none" stroke="black" d="M211,-296C241.994,-296 277.53,-296 301.639,-296"/>
<polygon fill="black" stroke="black" points="301.855,-299.5 311.855,-296 301.855,-292.5 301.855,-299.5"/>
</a>
</g>
</g>
<!-- UC192a1 -->
<g id="node4" class="node"><title>UC192a1</title>
<g id="a_node4"><a xlink:title="System responds with error message. #(abort)">
<path fill="#fbb4ae" stroke="black" d="M319.667,-161.5C319.667,-161.5 340.333,-161.5 340.333,-161.5 344.167,-161.5 348,-165.333 348,-169.167 348,-169.167 348,-176.833 348,-176.833 348,-180.667 344.167,-184.5 340.333,-184.5 340.333,-184.5 319.667,-184.5 319.667,-184.5 315.833,-184.5 312,-180.667 312,-176.833 312,-176.833 312,-169.167 312,-169.167 312,-165.333 315.833,-161.5 319.667,-161.5"/>
<text text-anchor="middle" x="330" y="-169.3" font-family="Arial" font-size="14.00">•</text>
</a>
</g>
<text text-anchor="middle" x="299.5" y="-149.8" font-family="Arial" font-size="14.00">2a1</text>
</g>
<!-- UC192&#45;&gt;UC192a1 -->
<g id="edge3" class="edge"><title>UC192:EXT&#45;&gt;UC192a1:JMP</title>
<g id="a_edge3"><a xlink:href="#UC19_2">
<path fill="none" stroke="black" d="M158,-283C158,-215.469 253.265,-187.529 301.998,-177.654"/>
<polygon fill="black" stroke="black" points="302.75,-181.074 311.918,-175.763 301.44,-174.197 302.75,-181.074"/>
</a>
</g>
</g>
<!-- UC192b1 -->
<g id="node5" class="node"><title>UC192b1</title>
<g id="a_node5"><a xlink:title="System wakes up the application and changes it&#39;s state
		 &#160;to running. #(guard:app_suspended) #(consume:free_plan)">
<path fill="#b3cde3" stroke="black" d="M319.667,-38.5C319.667,-38.5 340.333,-38.5 340.333,-38.5 344.167,-38.5 348,-42.3333 348,-46.1667 348,-46.1667 348,-53.8333 348,-53.8333 348,-57.6667 344.167,-61.5 340.333,-61.5 340.333,-61.5 319.667,-61.5 319.667,-61.5 315.833,-61.5 312,-57.6667 312,-53.8333 312,-53.8333 312,-46.1667 312,-46.1667 312,-42.3333 315.833,-38.5 319.667,-38.5"/>
<text text-anchor="middle" x="330" y="-46.3" font-family="Arial" font-size="14.00">•</text>
</a>
</g>
<text text-anchor="middle" x="299.5" y="-26.8" font-family="Arial" font-size="14.00">2b1</text>
</g>
<!-- UC192&#45;&gt;UC192b1 -->
<g id="edge4" class="edge"><title>UC192:EXT&#45;&gt;UC192b1:JMP</title>
<g id="a_edge4"><a xlink:href="#UC19_2">
<path fill="none" stroke="black" d="M158,-283C158,-208.968 173.465,-186.371 219,-128 241.609,-99.0181 277.904,-76.3845 302.796,-63.1298"/>
<polygon fill="black" stroke="black" points="304.448,-66.2156 311.725,-58.5153 301.234,-59.9969 304.448,-66.2156"/>
</a>
</g>
</g>
<!-- UC192b1&#45;&gt;UC192 -->
<g id="edge5" class="edge"><title>UC192b1:JMP&#45;&gt;UC192:OUT</title>
<g id="a_edge5"><a xlink:href="#UC19_2b1">
<path fill="none" stroke="black" d="M311.974,-57.2187C286.7,-68.3521 241.327,-92.2378 219,-128 202.093,-155.08 194.371,-232.978 193.168,-272.839"/>
<polygon fill="black" stroke="black" points="189.666,-272.943 193,-283 196.665,-273.059 189.666,-272.943"/>
</a>
</g>
</g>
</g>
</svg>
