<?xml version="1.0" encoding="UTF-8" standalone="no"?>
<!DOCTYPE svg PUBLIC "-//W3C//DTD SVG 1.1//EN"
 "http://www.w3.org/Graphics/SVG/1.1/DTD/svg11.dtd">
<!-- Generated by graphviz version 2.36.0 (20140111.2315)
 -->
<!-- Title: mygraph Pages: 1 -->
<svg width="719pt" height="323pt"
 viewBox="62.00 62.00 657.03 260.92" xmlns="http://www.w3.org/2000/svg" xmlns:xlink="http://www.w3.org/1999/xlink">
<g id="graph0" class="graph" transform="scale(0.861111 0.861111) rotate(0) translate(76 299)">
<title>mygraph</title>
<polygon fill="white" stroke="none" points="-4,4 -4,-227 687,-227 687,4 -4,4"/>
<g id="clust1" class="cluster"><title>cluster_UC1_</title>
<polygon fill="#ffffcc" stroke="black" points="8,-131 8,-215 675,-215 675,-131 8,-131"/>
</g>
<g id="clust2" class="cluster"><title>cluster_UC1_2a</title>
<polygon fill="#f2f2f2" stroke="black" points="183,-8 183,-130 406,-130 406,-8 183,-8"/>
<text text-anchor="start" x="191" y="-114.8" font-family="Arial" font-size="14.00" fill="gray">Extension: 2a.</text>
<text text-anchor="middle" x="294.5" y="-99.8" font-family="Arial" font-size="14.00" fill="gray"> Application with given name al... </text>
</g>
<!-- UC11 -->
<g id="node1" class="node"><title>UC11</title>
<g id="a_node1"><a xlink:title="User enters application&#39;s name and selects the web cartridge.">
<path fill="#b3cde3" stroke="black" d="M45.6667,-161.5C45.6667,-161.5 66.3333,-161.5 66.3333,-161.5 70.1667,-161.5 74,-165.333 74,-169.167 74,-169.167 74,-176.833 74,-176.833 74,-180.667 70.1667,-184.5 66.3333,-184.5 66.3333,-184.5 45.6667,-184.5 45.6667,-184.5 41.8333,-184.5 38,-180.667 38,-176.833 38,-176.833 38,-169.167 38,-169.167 38,-165.333 41.8333,-161.5 45.6667,-161.5"/>
<text text-anchor="middle" x="56" y="-169.3" font-family="Arial" font-size="14.00">•</text>
</a>
</g>
<text text-anchor="middle" x="33.5" y="-149.8" font-family="Arial" font-size="14.00">1</text>
</g>
<!-- UC12 -->
<g id="node2" class="node"><title>UC12</title>
<g id="a_node2"><a xlink:title="System validates the inputs.">
<path fill="#b3cde3" stroke="black" d="M110.667,-161.5C110.667,-161.5 167.333,-161.5 167.333,-161.5 171.167,-161.5 175,-165.333 175,-169.167 175,-169.167 175,-176.833 175,-176.833 175,-180.667 171.167,-184.5 167.333,-184.5 167.333,-184.5 110.667,-184.5 110.667,-184.5 106.833,-184.5 103,-180.667 103,-176.833 103,-176.833 103,-169.167 103,-169.167 103,-165.333 106.833,-161.5 110.667,-161.5"/>
<text text-anchor="middle" x="121.5" y="-169.3" font-family="Arial" font-size="14.00">•</text>
<polyline fill="none" stroke="black" points="140,-161.5 140,-184.5 "/>
<text text-anchor="middle" x="157.5" y="-169.3" font-family="Arial" font-size="14.00"> </text>
</a>
</g>
<text text-anchor="middle" x="98.5" y="-149.8" font-family="Arial" font-size="14.00">2</text>
</g>
<!-- UC11&#45;&gt;UC12 -->
<g id="edge1" class="edge"><title>UC11:JMP&#45;&gt;UC12:JMP</title>
<g id="a_edge1"><a xlink:href="#UC1_1">
<path fill="none" stroke="black" d="M74.3026,-173C80.0084,-173 86.5079,-173 92.9772,-173"/>
<polygon fill="black" stroke="black" points="93,-176.5 103,-173 93,-169.5 93,-176.5"/>
</a>
</g>
</g>
<!-- UC13 -->
<g id="node3" class="node"><title>UC13</title>
<g id="a_node3"><a xlink:title="System creates new application with given web cartridge.
		 &#160;TODO: user can add additional cartridges.">
<path fill="#b3cde3" stroke="black" d="M283.667,-161.5C283.667,-161.5 304.333,-161.5 304.333,-161.5 308.167,-161.5 312,-165.333 312,-169.167 312,-169.167 312,-176.833 312,-176.833 312,-180.667 308.167,-184.5 304.333,-184.5 304.333,-184.5 283.667,-184.5 283.667,-184.5 279.833,-184.5 276,-180.667 276,-176.833 276,-176.833 276,-169.167 276,-169.167 276,-165.333 279.833,-161.5 283.667,-161.5"/>
<text text-anchor="middle" x="294" y="-169.3" font-family="Arial" font-size="14.00">•</text>
</a>
</g>
<text text-anchor="middle" x="271.5" y="-149.8" font-family="Arial" font-size="14.00">3</text>
</g>
<!-- UC12&#45;&gt;UC13 -->
<g id="edge2" class="edge"><title>UC12:EXT&#45;&gt;UC13:JMP</title>
<g id="a_edge2"><a xlink:href="#UC1_2">
<path fill="none" stroke="black" d="M175,-173C205.994,-173 241.53,-173 265.639,-173"/>
<polygon fill="black" stroke="black" points="265.855,-176.5 275.855,-173 265.855,-169.5 265.855,-176.5"/>
</a>
</g>
</g>
<!-- UC12a1 -->
<g id="node8" class="node"><title>UC12a1</title>
<g id="a_node8"><a xlink:title="System shows message refering to given problem. #(abort)">
<path fill="#fbb4ae" stroke="black" d="M283.667,-38.5C283.667,-38.5 304.333,-38.5 304.333,-38.5 308.167,-38.5 312,-42.3333 312,-46.1667 312,-46.1667 312,-53.8333 312,-53.8333 312,-57.6667 308.167,-61.5 304.333,-61.5 304.333,-61.5 283.667,-61.5 283.667,-61.5 279.833,-61.5 276,-57.6667 276,-53.8333 276,-53.8333 276,-46.1667 276,-46.1667 276,-42.3333 279.833,-38.5 283.667,-38.5"/>
<text text-anchor="middle" x="294" y="-46.3" font-family="Arial" font-size="14.00">•</text>
</a>
</g>
<text text-anchor="middle" x="263.5" y="-26.8" font-family="Arial" font-size="14.00">2a1</text>
</g>
<!-- UC12&#45;&gt;UC12a1 -->
<g id="edge7" class="edge"><title>UC12:EXT&#45;&gt;UC12a1:JMP</title>
<g id="a_edge7"><a xlink:href="#UC1_2">
<path fill="none" stroke="black" d="M175,-173C185.157,-173 177.579,-136.589 183,-128 202.841,-96.5624 240.411,-74.2402 266.306,-61.7436"/>
<polygon fill="black" stroke="black" points="267.996,-64.8177 275.597,-57.4367 265.053,-58.4667 267.996,-64.8177"/>
</a>
</g>
</g>
<!-- UC14 -->
<g id="node4" class="node"><title>UC14</title>
<g id="a_node4"><a xlink:title="System sets the application state to stopped.">
<path fill="#b3cde3" stroke="black" d="M421.667,-161.5C421.667,-161.5 442.333,-161.5 442.333,-161.5 446.167,-161.5 450,-165.333 450,-169.167 450,-169.167 450,-176.833 450,-176.833 450,-180.667 446.167,-184.5 442.333,-184.5 442.333,-184.5 421.667,-184.5 421.667,-184.5 417.833,-184.5 414,-180.667 414,-176.833 414,-176.833 414,-169.167 414,-169.167 414,-165.333 417.833,-161.5 421.667,-161.5"/>
<text text-anchor="middle" x="432" y="-169.3" font-family="Arial" font-size="14.00">•</text>
</a>
</g>
<text text-anchor="middle" x="409.5" y="-149.8" font-family="Arial" font-size="14.00">4</text>
</g>
<!-- UC13&#45;&gt;UC14 -->
<g id="edge3" class="edge"><title>UC13:JMP&#45;&gt;UC14:JMP</title>
<g id="a_edge3"><a xlink:href="#UC1_3">
<path fill="none" stroke="black" d="M312.041,-173C335.389,-173 376.326,-173 403.799,-173"/>
<polygon fill="black" stroke="black" points="403.955,-176.5 413.954,-173 403.954,-169.5 403.955,-176.5"/>
</a>
</g>
</g>
<!-- UC15 -->
<g id="node5" class="node"><title>UC15</title>
<g id="a_node5"><a xlink:title="System creates application&#39;s git repository.">
<path fill="#b3cde3" stroke="black" d="M486.667,-161.5C486.667,-161.5 507.333,-161.5 507.333,-161.5 511.167,-161.5 515,-165.333 515,-169.167 515,-169.167 515,-176.833 515,-176.833 515,-180.667 511.167,-184.5 507.333,-184.5 507.333,-184.5 486.667,-184.5 486.667,-184.5 482.833,-184.5 479,-180.667 479,-176.833 479,-176.833 479,-169.167 479,-169.167 479,-165.333 482.833,-161.5 486.667,-161.5"/>
<text text-anchor="middle" x="497" y="-169.3" font-family="Arial" font-size="14.00">•</text>
</a>
</g>
<text text-anchor="middle" x="474.5" y="-149.8" font-family="Arial" font-size="14.00">5</text>
</g>
<!-- UC14&#45;&gt;UC15 -->
<g id="edge4" class="edge"><title>UC14:JMP&#45;&gt;UC15:JMP</title>
<g id="a_edge4"><a xlink:href="#UC1_4">
<path fill="none" stroke="black" d="M450.106,-173C455.882,-173 462.417,-173 468.735,-173"/>
<polygon fill="black" stroke="black" points="468.991,-176.5 478.991,-173 468.991,-169.5 468.991,-176.5"/>
</a>
</g>
</g>
<!-- UC16 -->
<g id="node6" class="node"><title>UC16</title>
<g id="a_node6"><a xlink:title="System creates application&#39;s URL.">
<path fill="#b3cde3" stroke="black" d="M551.667,-161.5C551.667,-161.5 572.333,-161.5 572.333,-161.5 576.167,-161.5 580,-165.333 580,-169.167 580,-169.167 580,-176.833 580,-176.833 580,-180.667 576.167,-184.5 572.333,-184.5 572.333,-184.5 551.667,-184.5 551.667,-184.5 547.833,-184.5 544,-180.667 544,-176.833 544,-176.833 544,-169.167 544,-169.167 544,-165.333 547.833,-161.5 551.667,-161.5"/>
<text text-anchor="middle" x="562" y="-169.3" font-family="Arial" font-size="14.00">•</text>
</a>
</g>
<text text-anchor="middle" x="539.5" y="-149.8" font-family="Arial" font-size="14.00">6</text>
</g>
<!-- UC15&#45;&gt;UC16 -->
<g id="edge5" class="edge"><title>UC15:JMP&#45;&gt;UC16:JMP</title>
<g id="a_edge5"><a xlink:href="#UC1_5">
<path fill="none" stroke="black" d="M515.106,-173C520.882,-173 527.417,-173 533.735,-173"/>
<polygon fill="black" stroke="black" points="533.991,-176.5 543.991,-173 533.991,-169.5 533.991,-176.5"/>
</a>
</g>
</g>
<!-- UC17 -->
<g id="node7" class="node"><title>UC17</title>
<g id="a_node7"><a xlink:title="System presents URL and address of the git repository to the user.">
<path fill="#ccebc5" stroke="black" d="M616.667,-161.5C616.667,-161.5 637.333,-161.5 637.333,-161.5 641.167,-161.5 645,-165.333 645,-169.167 645,-169.167 645,-176.833 645,-176.833 645,-180.667 641.167,-184.5 637.333,-184.5 637.333,-184.5 616.667,-184.5 616.667,-184.5 612.833,-184.5 609,-180.667 609,-176.833 609,-176.833 609,-169.167 609,-169.167 609,-165.333 612.833,-161.5 616.667,-161.5"/>
<text text-anchor="middle" x="627" y="-169.3" font-family="Arial" font-size="14.00">•</text>
</a>
</g>
<text text-anchor="middle" x="604.5" y="-149.8" font-family="Arial" font-size="14.00">7</text>
</g>
<!-- UC16&#45;&gt;UC17 -->
<g id="edge6" class="edge"><title>UC16:JMP&#45;&gt;UC17:JMP</title>
<g id="a_edge6"><a xlink:href="#UC1_6">
<path fill="none" stroke="black" d="M580.106,-173C585.882,-173 592.417,-173 598.735,-173"/>
<polygon fill="black" stroke="black" points="598.991,-176.5 608.991,-173 598.991,-169.5 598.991,-176.5"/>
</a>
</g>
</g>
</g>
</svg>
