<?xml version="1.0" encoding="UTF-8" standalone="no"?>
<!DOCTYPE svg PUBLIC "-//W3C//DTD SVG 1.1//EN"
 "http://www.w3.org/Graphics/SVG/1.1/DTD/svg11.dtd">
<!-- Generated by graphviz version 2.35.20131004.0446 (20131004.0446)
 -->
<!-- Title: mygraph Pages: 1 -->
<svg width="1029pt" height="641pt"
 viewBox="62.00 62.00 967.03 578.67" xmlns="http://www.w3.org/2000/svg" xmlns:xlink="http://www.w3.org/1999/xlink">
<g id="graph0" class="graph" transform="scale(0.861111 0.861111) rotate(0) translate(76 668)">
<title>mygraph</title>
<polygon fill="white" stroke="white" points="-4,4 -4,-596 1047,-596 1047,4 -4,4"/>
<g id="clust1" class="cluster"><title>cluster_UC1</title>
<polygon fill="#ffffcc" stroke="black" points="8,-8 8,-92 420,-92 420,-8 8,-8"/>
</g>
<g id="clust2" class="cluster"><title>cluster_UC14b2a</title>
<polygon fill="#f2f2f2" stroke="black" points="550,-339 550,-461 829,-461 829,-339 550,-339"/>
<text text-anchor="start" x="558" y="-445.8" font-family="Arial" font-size="14.00" fill="gray">Extension: 4b2a.</text>
<text text-anchor="middle" x="689.5" y="-430.8" font-family="Arial" font-size="14.00" fill="gray"> User decided to register as a Candidate. </text>
</g>
<g id="clust3" class="cluster"><title>cluster_UC14b2b</title>
<polygon fill="#f2f2f2" stroke="black" points="579,-462 579,-584 800,-584 800,-462 579,-462"/>
<text text-anchor="start" x="587" y="-568.8" font-family="Arial" font-size="14.00" fill="gray">Extension: 4b2b.</text>
<text text-anchor="middle" x="689.5" y="-553.8" font-family="Arial" font-size="14.00" fill="gray"> User decided to contact admin. </text>
</g>
<g id="clust4" class="cluster"><title>cluster_UC14a</title>
<polygon fill="#f2f2f2" stroke="black" points="313,-93 313,-215 542,-215 542,-93 313,-93"/>
<text text-anchor="start" x="321" y="-199.8" font-family="Arial" font-size="14.00" fill="gray">Extension: 4a.</text>
<text text-anchor="middle" x="427.5" y="-184.8" font-family="Arial" font-size="14.00" fill="gray"> Not all obligatory data was given. </text>
</g>
<g id="clust5" class="cluster"><title>cluster_UC14b</title>
<polygon fill="#f2f2f2" stroke="black" points="324,-216 324,-338 737,-338 737,-216 324,-216"/>
<text text-anchor="start" x="332" y="-322.8" font-family="Arial" font-size="14.00" fill="gray">Extension: 4b.</text>
<text text-anchor="middle" x="502.5" y="-307.8" font-family="Arial" font-size="14.00" fill="gray"> No account with the certain login exists in the system. </text>
</g>
<!-- UC11 -->
<g id="node1" class="node"><title>UC11</title>
<g id="a_node1"><a xlink:title="User opens main page.">
<path fill="#b3cde3" stroke="black" d="M45.6667,-38.5C45.6667,-38.5 66.3333,-38.5 66.3333,-38.5 70.1667,-38.5 74,-42.3333 74,-46.1667 74,-46.1667 74,-53.8333 74,-53.8333 74,-57.6667 70.1667,-61.5 66.3333,-61.5 66.3333,-61.5 45.6667,-61.5 45.6667,-61.5 41.8333,-61.5 38,-57.6667 38,-53.8333 38,-53.8333 38,-46.1667 38,-46.1667 38,-42.3333 41.8333,-38.5 45.6667,-38.5"/>
<text text-anchor="middle" x="56" y="-46.3" font-family="Arial" font-size="14.00">•</text>
</a>
</g>
<text text-anchor="middle" x="33.5" y="-26.8" font-family="Arial" font-size="14.00">1</text>
</g>
<!-- UC12 -->
<g id="node2" class="node"><title>UC12</title>
<g id="a_node2"><a xlink:title="System presents main page with a login form.">
<path fill="#b3cde3" stroke="black" d="M110.667,-38.5C110.667,-38.5 131.333,-38.5 131.333,-38.5 135.167,-38.5 139,-42.3333 139,-46.1667 139,-46.1667 139,-53.8333 139,-53.8333 139,-57.6667 135.167,-61.5 131.333,-61.5 131.333,-61.5 110.667,-61.5 110.667,-61.5 106.833,-61.5 103,-57.6667 103,-53.8333 103,-53.8333 103,-46.1667 103,-46.1667 103,-42.3333 106.833,-38.5 110.667,-38.5"/>
<text text-anchor="middle" x="121" y="-46.3" font-family="Arial" font-size="14.00">•</text>
</a>
</g>
<text text-anchor="middle" x="98.5" y="-26.8" font-family="Arial" font-size="14.00">2</text>
</g>
<!-- UC11&#45;&gt;UC12 -->
<g id="edge5" class="edge"><title>UC11:JMP&#45;&gt;UC12:JMP</title>
<g id="a_edge5"><a xlink:href="#UC1_1">
<path fill="none" stroke="black" d="M74.1061,-50C79.8817,-50 86.4172,-50 92.7354,-50"/>
<polygon fill="black" stroke="black" points="92.991,-53.5001 102.991,-50 92.9909,-46.5001 92.991,-53.5001"/>
</a>
</g>
</g>
<!-- UC13 -->
<g id="node3" class="node"><title>UC13</title>
<g id="a_node3"><a xlink:title="User fills the login form with the authentication data.">
<path fill="#b3cde3" stroke="black" d="M175.667,-38.5C175.667,-38.5 196.333,-38.5 196.333,-38.5 200.167,-38.5 204,-42.3333 204,-46.1667 204,-46.1667 204,-53.8333 204,-53.8333 204,-57.6667 200.167,-61.5 196.333,-61.5 196.333,-61.5 175.667,-61.5 175.667,-61.5 171.833,-61.5 168,-57.6667 168,-53.8333 168,-53.8333 168,-46.1667 168,-46.1667 168,-42.3333 171.833,-38.5 175.667,-38.5"/>
<text text-anchor="middle" x="186" y="-46.3" font-family="Arial" font-size="14.00">•</text>
</a>
</g>
<text text-anchor="middle" x="163.5" y="-26.8" font-family="Arial" font-size="14.00">3</text>
</g>
<!-- UC12&#45;&gt;UC13 -->
<g id="edge6" class="edge"><title>UC12:JMP&#45;&gt;UC13:JMP</title>
<g id="a_edge6"><a xlink:href="#UC1_2">
<path fill="none" stroke="black" d="M139.106,-50C144.882,-50 151.417,-50 157.735,-50"/>
<polygon fill="black" stroke="black" points="157.991,-53.5001 167.991,-50 157.991,-46.5001 157.991,-53.5001"/>
</a>
</g>
</g>
<!-- UC14 -->
<g id="node4" class="node"><title>UC14</title>
<g id="a_node4"><a xlink:title="System verifies the given data.">
<path fill="#b3cde3" stroke="black" d="M240.667,-38.5C240.667,-38.5 297.333,-38.5 297.333,-38.5 301.167,-38.5 305,-42.3333 305,-46.1667 305,-46.1667 305,-53.8333 305,-53.8333 305,-57.6667 301.167,-61.5 297.333,-61.5 297.333,-61.5 240.667,-61.5 240.667,-61.5 236.833,-61.5 233,-57.6667 233,-53.8333 233,-53.8333 233,-46.1667 233,-46.1667 233,-42.3333 236.833,-38.5 240.667,-38.5"/>
<text text-anchor="middle" x="251.5" y="-46.3" font-family="Arial" font-size="14.00">•</text>
<polyline fill="none" stroke="black" points="270,-38.5 270,-61.5 "/>
<text text-anchor="middle" x="287.5" y="-46.3" font-family="Arial" font-size="14.00"> </text>
</a>
</g>
<text text-anchor="middle" x="228.5" y="-26.8" font-family="Arial" font-size="14.00">4</text>
</g>
<!-- UC13&#45;&gt;UC14 -->
<g id="edge7" class="edge"><title>UC13:JMP&#45;&gt;UC14:JMP</title>
<g id="a_edge7"><a xlink:href="#UC1_3">
<path fill="none" stroke="black" d="M204.303,-50C210.008,-50 216.508,-50 222.977,-50"/>
<polygon fill="black" stroke="black" points="223,-53.5001 233,-50 223,-46.5001 223,-53.5001"/>
</a>
</g>
</g>
<!-- UC15 -->
<g id="node5" class="node"><title>UC15</title>
<g id="a_node5"><a xlink:title="System welcomes Candidate.">
<path fill="#ccebc5" stroke="black" d="M361.667,-38.5C361.667,-38.5 382.333,-38.5 382.333,-38.5 386.167,-38.5 390,-42.3333 390,-46.1667 390,-46.1667 390,-53.8333 390,-53.8333 390,-57.6667 386.167,-61.5 382.333,-61.5 382.333,-61.5 361.667,-61.5 361.667,-61.5 357.833,-61.5 354,-57.6667 354,-53.8333 354,-53.8333 354,-46.1667 354,-46.1667 354,-42.3333 357.833,-38.5 361.667,-38.5"/>
<text text-anchor="middle" x="372" y="-46.3" font-family="Arial" font-size="14.00">•</text>
</a>
</g>
<text text-anchor="middle" x="349.5" y="-26.8" font-family="Arial" font-size="14.00">5</text>
</g>
<!-- UC14&#45;&gt;UC15 -->
<g id="edge8" class="edge"><title>UC14:EXT&#45;&gt;UC15:JMP</title>
<g id="a_edge8"><a xlink:href="#UC1_4">
<path fill="none" stroke="black" d="M305,-50C317.646,-50 331.635,-50 343.545,-50"/>
<polygon fill="black" stroke="black" points="343.801,-53.5001 353.801,-50 343.8,-46.5001 343.801,-53.5001"/>
</a>
</g>
</g>
<!-- UC14a1 -->
<g id="node8" class="node"><title>UC14a1</title>
<g id="a_node8"><a xlink:title="System points which data is missing.">
<path fill="#b3cde3" stroke="black" d="M361.667,-123.5C361.667,-123.5 382.333,-123.5 382.333,-123.5 386.167,-123.5 390,-127.333 390,-131.167 390,-131.167 390,-138.833 390,-138.833 390,-142.667 386.167,-146.5 382.333,-146.5 382.333,-146.5 361.667,-146.5 361.667,-146.5 357.833,-146.5 354,-142.667 354,-138.833 354,-138.833 354,-131.167 354,-131.167 354,-127.333 357.833,-123.5 361.667,-123.5"/>
<text text-anchor="middle" x="372" y="-131.3" font-family="Arial" font-size="14.00">•</text>
</a>
</g>
<text text-anchor="middle" x="341.5" y="-111.8" font-family="Arial" font-size="14.00">4a1</text>
</g>
<!-- UC14&#45;&gt;UC14a1 -->
<g id="edge13" class="edge"><title>UC14:EXT&#45;&gt;UC14a1:JMP</title>
<g id="a_edge13"><a xlink:href="#UC1_4">
<path fill="none" stroke="black" d="M305,-50C315.157,-50 307.522,-86.447 313,-95 320.636,-106.923 333.232,-116.179 344.829,-122.769"/>
<polygon fill="black" stroke="black" points="343.32,-125.93 353.801,-127.483 346.576,-119.734 343.32,-125.93"/>
</a>
</g>
</g>
<!-- UC14b1 -->
<g id="node10" class="node"><title>UC14b1</title>
<g id="a_node10"><a xlink:title="System informs the User that there is no account with the given user name in the system.">
<path fill="#b3cde3" stroke="black" d="M361.667,-246.5C361.667,-246.5 382.333,-246.5 382.333,-246.5 386.167,-246.5 390,-250.333 390,-254.167 390,-254.167 390,-261.833 390,-261.833 390,-265.667 386.167,-269.5 382.333,-269.5 382.333,-269.5 361.667,-269.5 361.667,-269.5 357.833,-269.5 354,-265.667 354,-261.833 354,-261.833 354,-254.167 354,-254.167 354,-250.333 357.833,-246.5 361.667,-246.5"/>
<text text-anchor="middle" x="372" y="-254.3" font-family="Arial" font-size="14.00">•</text>
</a>
</g>
<text text-anchor="middle" x="341.5" y="-234.8" font-family="Arial" font-size="14.00">4b1</text>
</g>
<!-- UC14&#45;&gt;UC14b1 -->
<g id="edge16" class="edge"><title>UC14:EXT&#45;&gt;UC14b1:JMP</title>
<g id="a_edge16"><a xlink:href="#UC1_4">
<path fill="none" stroke="black" d="M288,-63C288,-97.8896 294.419,-188.47 313,-218 320.541,-229.984 333.126,-239.246 344.741,-245.825"/>
<polygon fill="black" stroke="black" points="343.249,-248.994 353.732,-250.527 346.493,-242.791 343.249,-248.994"/>
</a>
</g>
</g>
<!-- UC14b2a1 -->
<g id="node6" class="node"><title>UC14b2a1</title>
<g id="a_node6"><a xlink:title="Include MOD1_UC1.">
<path fill="#b3cde3" stroke="black" d="M660.667,-369.5C660.667,-369.5 717.333,-369.5 717.333,-369.5 721.167,-369.5 725,-373.333 725,-377.167 725,-377.167 725,-384.833 725,-384.833 725,-388.667 721.167,-392.5 717.333,-392.5 717.333,-392.5 660.667,-392.5 660.667,-392.5 656.833,-392.5 653,-388.667 653,-384.833 653,-384.833 653,-377.167 653,-377.167 653,-373.333 656.833,-369.5 660.667,-369.5"/>
<text text-anchor="middle" x="671.5" y="-377.3" font-family="Arial" font-size="14.00">•</text>
<polyline fill="none" stroke="black" points="690,-369.5 690,-392.5 "/>
<text text-anchor="middle" x="707.5" y="-377.3" font-family="Arial" font-size="14.00"> </text>
</a>
</g>
<text text-anchor="middle" x="632.5" y="-357.8" font-family="Arial" font-size="14.00">4b2a1</text>
</g>
<!-- UC14b2 -->
<g id="node11" class="node"><title>UC14b2</title>
<g id="a_node11"><a xlink:title="System suggests the User to register in the system as a Candidate or contact Administrator to create new account.">
<path fill="#b3cde3" stroke="black" d="M435.667,-246.5C435.667,-246.5 528.333,-246.5 528.333,-246.5 532.167,-246.5 536,-250.333 536,-254.167 536,-254.167 536,-261.833 536,-261.833 536,-265.667 532.167,-269.5 528.333,-269.5 528.333,-269.5 435.667,-269.5 435.667,-269.5 431.833,-269.5 428,-265.667 428,-261.833 428,-261.833 428,-254.167 428,-254.167 428,-250.333 431.833,-246.5 435.667,-246.5"/>
<text text-anchor="middle" x="446.5" y="-254.3" font-family="Arial" font-size="14.00">•</text>
<polyline fill="none" stroke="black" points="465,-246.5 465,-269.5 "/>
<text text-anchor="middle" x="482.5" y="-254.3" font-family="Arial" font-size="14.00"> </text>
<polyline fill="none" stroke="black" points="500,-246.5 500,-269.5 "/>
<text text-anchor="middle" x="518" y="-254.3" font-family="Arial" font-size="14.00"> </text>
</a>
</g>
<text text-anchor="middle" x="415.5" y="-234.8" font-family="Arial" font-size="14.00">4b2</text>
</g>
<!-- UC14b2a1&#45;&gt;UC14b2 -->
<g id="edge10" class="edge"><title>UC14b2a1:EXT&#45;&gt;UC14b2:OUT</title>
<g id="a_edge10"><a xlink:href="#UC1_4b2a1">
<path fill="none" stroke="black" d="M708,-368C708,-332.38 575.012,-366.361 550,-341 539.451,-330.304 549.55,-283.077 544.17,-265.038"/>
<polygon fill="black" stroke="black" points="546.588,-262.507 537,-258 541.685,-267.503 546.588,-262.507"/>
</a>
</g>
</g>
<!-- UC101 -->
<g id="node13" class="node"><title>UC101</title>
<g id="a_node13"><a xlink:href="../UC101/UC101.html" xlink:title="UC101 Register in the system" target="_top">
<polygon fill="#fed9a6" stroke="black" points="1043,-399 837,-399 837,-363 1043,-363 1043,-399"/>
<text text-anchor="middle" x="940" y="-377.3" font-family="Arial" font-size="14.00">UC101 Register in the system</text>
</a>
</g>
</g>
<!-- UC14b2a1&#45;&gt;UC101 -->
<g id="edge1" class="edge"><title>UC14b2a1:JMP&#45;&gt;UC101</title>
<g id="a_edge1"><a xlink:href="#UC1_4b2a1">
<path fill="none" stroke="black" d="M671,-368C671,-330.922 774.632,-344.984 853.011,-360.922"/>
<polygon fill="black" stroke="black" points="852.417,-364.373 862.919,-362.974 853.836,-357.519 852.417,-364.373"/>
</a>
</g>
</g>
<!-- UC14b2b1 -->
<g id="node7" class="node"><title>UC14b2b1</title>
<g id="a_node7"><a xlink:title="Include MOD2_UC8.">
<path fill="#b3cde3" stroke="black" d="M660.667,-492.5C660.667,-492.5 717.333,-492.5 717.333,-492.5 721.167,-492.5 725,-496.333 725,-500.167 725,-500.167 725,-507.833 725,-507.833 725,-511.667 721.167,-515.5 717.333,-515.5 717.333,-515.5 660.667,-515.5 660.667,-515.5 656.833,-515.5 653,-511.667 653,-507.833 653,-507.833 653,-500.167 653,-500.167 653,-496.333 656.833,-492.5 660.667,-492.5"/>
<text text-anchor="middle" x="671.5" y="-500.3" font-family="Arial" font-size="14.00">•</text>
<polyline fill="none" stroke="black" points="690,-492.5 690,-515.5 "/>
<text text-anchor="middle" x="707.5" y="-500.3" font-family="Arial" font-size="14.00"> </text>
</a>
</g>
<text text-anchor="middle" x="632" y="-480.8" font-family="Arial" font-size="14.00">4b2b1</text>
</g>
<!-- UC14b2b1&#45;&gt;UC14b2 -->
<g id="edge12" class="edge"><title>UC14b2b1:EXT&#45;&gt;UC14b2:OUT</title>
<g id="a_edge12"><a xlink:href="#UC1_4b2b1">
<path fill="none" stroke="black" d="M708,-491C708,-455.38 573.815,-490.489 550,-464 536.583,-449.077 554.252,-302.55 543.514,-266.152"/>
<polygon fill="black" stroke="black" points="545.977,-263.627 537,-258 540.509,-267.997 545.977,-263.627"/>
</a>
</g>
</g>
<!-- UC208 -->
<g id="node14" class="node"><title>UC208</title>
<g id="a_node14"><a xlink:href="../UC208/UC208.html" xlink:title="UC208 Add a new user" target="_top">
<polygon fill="#fed9a6" stroke="black" points="1021.5,-522 858.5,-522 858.5,-486 1021.5,-486 1021.5,-522"/>
<text text-anchor="middle" x="940" y="-500.3" font-family="Arial" font-size="14.00">UC208 Add a new user</text>
</a>
</g>
</g>
<!-- UC14b2b1&#45;&gt;UC208 -->
<g id="edge3" class="edge"><title>UC14b2b1:JMP&#45;&gt;UC208</title>
<g id="a_edge3"><a xlink:href="#UC1_4b2b1">
<path fill="none" stroke="black" d="M671,-491C671,-453.922 774.632,-467.984 853.011,-483.922"/>
<polygon fill="black" stroke="black" points="852.417,-487.373 862.919,-485.974 853.836,-480.519 852.417,-487.373"/>
</a>
</g>
</g>
<!-- UC14a2 -->
<g id="node9" class="node"><title>UC14a2</title>
<g id="a_node9"><a xlink:title="Go back to step 3.">
<path fill="#b3cde3" stroke="black" d="M471.667,-123.5C471.667,-123.5 492.333,-123.5 492.333,-123.5 496.167,-123.5 500,-127.333 500,-131.167 500,-131.167 500,-138.833 500,-138.833 500,-142.667 496.167,-146.5 492.333,-146.5 492.333,-146.5 471.667,-146.5 471.667,-146.5 467.833,-146.5 464,-142.667 464,-138.833 464,-138.833 464,-131.167 464,-131.167 464,-127.333 467.833,-123.5 471.667,-123.5"/>
<text text-anchor="middle" x="482" y="-131.3" font-family="Arial" font-size="14.00">•</text>
</a>
</g>
<text text-anchor="middle" x="451.5" y="-111.8" font-family="Arial" font-size="14.00">4a2</text>
</g>
<!-- UC14a1&#45;&gt;UC14a2 -->
<g id="edge14" class="edge"><title>UC14a1:JMP&#45;&gt;UC14a2:JMP</title>
<g id="a_edge14"><a xlink:href="#UC1_4a1">
<path fill="none" stroke="black" d="M390.164,-135C407.441,-135 433.691,-135 453.708,-135"/>
<polygon fill="black" stroke="black" points="453.809,-138.5 463.809,-135 453.809,-131.5 453.809,-138.5"/>
</a>
</g>
</g>
<!-- UC14a2&#45;&gt;UC13 -->
<g id="edge15" class="edge"><title>UC14a2:JMP&#45;&gt;UC13:JMP</title>
<g id="a_edge15"><a xlink:href="#UC1_4a2">
<path fill="none" stroke="black" d="M463.649,-123.1C434.066,-89.1023 458.339,-55.2183 420,-31 355.472,9.76213 260.14,-19.2757 213.597,-37.8089"/>
<polygon fill="black" stroke="black" points="212.087,-34.6454 204.171,-41.6872 214.75,-41.1189 212.087,-34.6454"/>
</a>
</g>
</g>
<!-- UC14b1&#45;&gt;UC14b2 -->
<g id="edge17" class="edge"><title>UC14b1:JMP&#45;&gt;UC14b2:JMP</title>
<g id="a_edge17"><a xlink:href="#UC1_4b1">
<path fill="none" stroke="black" d="M390.159,-258C398.292,-258 408.235,-258 417.988,-258"/>
<polygon fill="black" stroke="black" points="418,-261.5 428,-258 418,-254.5 418,-261.5"/>
</a>
</g>
</g>
<!-- UC14b2&#45;&gt;UC14b2a1 -->
<g id="edge9" class="edge"><title>UC14b2:EXT&#45;&gt;UC14b2a1:JMP</title>
<g id="a_edge9"><a xlink:href="#UC1_4b2">
<path fill="none" stroke="black" d="M483,-271C483,-357.207 556.448,-379.347 641.809,-380.909"/>
<polygon fill="black" stroke="black" points="641.969,-384.41 652,-381 642.032,-377.41 641.969,-384.41"/>
</a>
</g>
</g>
<!-- UC14b2&#45;&gt;UC14b2b1 -->
<g id="edge11" class="edge"><title>UC14b2:EXT&#45;&gt;UC14b2b1:JMP</title>
<g id="a_edge11"><a xlink:href="#UC1_4b2">
<path fill="none" stroke="black" d="M483,-271C483,-395.429 521.857,-498.237 641.7,-503.766"/>
<polygon fill="black" stroke="black" points="641.923,-507.272 652,-504 642.082,-500.274 641.923,-507.272"/>
</a>
</g>
</g>
<!-- UC14b3 -->
<g id="node12" class="node"><title>UC14b3</title>
<g id="a_node12"><a xlink:title="Go back to step 3.">
<path fill="#b3cde3" stroke="black" d="M678.667,-246.5C678.667,-246.5 699.333,-246.5 699.333,-246.5 703.167,-246.5 707,-250.333 707,-254.167 707,-254.167 707,-261.833 707,-261.833 707,-265.667 703.167,-269.5 699.333,-269.5 699.333,-269.5 678.667,-269.5 678.667,-269.5 674.833,-269.5 671,-265.667 671,-261.833 671,-261.833 671,-254.167 671,-254.167 671,-250.333 674.833,-246.5 678.667,-246.5"/>
<text text-anchor="middle" x="689" y="-254.3" font-family="Arial" font-size="14.00">•</text>
</a>
</g>
<text text-anchor="middle" x="658.5" y="-234.8" font-family="Arial" font-size="14.00">4b3</text>
</g>
<!-- UC14b2&#45;&gt;UC14b3 -->
<g id="edge18" class="edge"><title>UC14b2:OUT&#45;&gt;UC14b3:JMP</title>
<g id="a_edge18"><a xlink:href="#UC1_4b2">
<path fill="none" stroke="black" d="M537,-258C580.01,-258 629.865,-258 660.416,-258"/>
<polygon fill="black" stroke="black" points="660.75,-261.5 670.75,-258 660.75,-254.5 660.75,-261.5"/>
</a>
</g>
</g>
<!-- UC14b3&#45;&gt;UC13 -->
<g id="edge19" class="edge"><title>UC14b3:JMP&#45;&gt;UC13:JMP</title>
<g id="a_edge19"><a xlink:href="#UC1_4b3">
<path fill="none" stroke="black" d="M670.663,-246.201C555.837,-144.277 567.054,-52.8275 420,-8 414.513,-6.32742 249.721,-3.96652 233,-11 220.562,-16.2317 218.361,-23.0698 211.887,-30.8513"/>
<polygon fill="black" stroke="black" points="209.029,-28.7505 204.325,-38.2438 213.923,-33.7561 209.029,-28.7505"/>
</a>
</g>
</g>
<!-- UC101&#45;&gt;UC14b2a1 -->
<g id="edge2" class="edge"><title>UC101&#45;&gt;UC14b2a1:EXT</title>
<path fill="none" stroke="black" d="M836.888,-381C805.039,-381 769.533,-381 736.251,-381"/>
<polygon fill="black" stroke="black" points="736,-377.5 726,-381 736,-384.5 736,-377.5"/>
</g>
<!-- UC208&#45;&gt;UC14b2b1 -->
<g id="edge4" class="edge"><title>UC208&#45;&gt;UC14b2b1:EXT</title>
<path fill="none" stroke="black" d="M858.338,-504C821.539,-504 777.107,-504 736.074,-504"/>
<polygon fill="black" stroke="black" points="736,-500.5 726,-504 736,-507.5 736,-500.5"/>
</g>
</g>
</svg>
