<?xml version="1.0" encoding="UTF-8" standalone="no"?>
<!DOCTYPE svg PUBLIC "-//W3C//DTD SVG 1.1//EN"
 "http://www.w3.org/Graphics/SVG/1.1/DTD/svg11.dtd">
<!-- Generated by graphviz version 2.36.0 (20140111.2315)
 -->
<!-- Title: mygraph Pages: 1 -->
<svg width="604pt" height="323pt"
 viewBox="62.00 62.00 541.64 260.92" xmlns="http://www.w3.org/2000/svg" xmlns:xlink="http://www.w3.org/1999/xlink">
<g id="graph0" class="graph" transform="scale(0.861111 0.861111) rotate(0) translate(76 299)">
<title>mygraph</title>
<polygon fill="white" stroke="none" points="-4,4 -4,-227 553,-227 553,4 -4,4"/>
<g id="clust1" class="cluster"><title>cluster_UC3_</title>
<polygon fill="#ffffcc" stroke="black" points="8,-131 8,-215 541,-215 541,-131 8,-131"/>
</g>
<g id="clust2" class="cluster"><title>cluster_UC3_2a</title>
<polygon fill="#f2f2f2" stroke="black" points="183,-8 183,-130 402,-130 402,-8 183,-8"/>
<text text-anchor="start" x="191" y="-114.8" font-family="Arial" font-size="14.00" fill="gray">Extension: 2a.</text>
<text text-anchor="middle" x="292.5" y="-99.8" font-family="Arial" font-size="14.00" fill="gray"> Application in running or susp... </text>
</g>
<!-- UC31 -->
<g id="node1" class="node"><title>UC31</title>
<g id="a_node1"><a xlink:title="User selects application to start or the application
		 &#160;to be started is given by the calling use case.">
<path fill="#b3cde3" stroke="black" d="M45.6667,-161.5C45.6667,-161.5 66.3333,-161.5 66.3333,-161.5 70.1667,-161.5 74,-165.333 74,-169.167 74,-169.167 74,-176.833 74,-176.833 74,-180.667 70.1667,-184.5 66.3333,-184.5 66.3333,-184.5 45.6667,-184.5 45.6667,-184.5 41.8333,-184.5 38,-180.667 38,-176.833 38,-176.833 38,-169.167 38,-169.167 38,-165.333 41.8333,-161.5 45.6667,-161.5"/>
<text text-anchor="middle" x="56" y="-169.3" font-family="Arial" font-size="14.00">•</text>
</a>
</g>
<text text-anchor="middle" x="33.5" y="-149.8" font-family="Arial" font-size="14.00">1</text>
</g>
<!-- UC32 -->
<g id="node2" class="node"><title>UC32</title>
<g id="a_node2"><a xlink:title="System checks state of the application.">
<path fill="#b3cde3" stroke="black" d="M110.667,-161.5C110.667,-161.5 167.333,-161.5 167.333,-161.5 171.167,-161.5 175,-165.333 175,-169.167 175,-169.167 175,-176.833 175,-176.833 175,-180.667 171.167,-184.5 167.333,-184.5 167.333,-184.5 110.667,-184.5 110.667,-184.5 106.833,-184.5 103,-180.667 103,-176.833 103,-176.833 103,-169.167 103,-169.167 103,-165.333 106.833,-161.5 110.667,-161.5"/>
<text text-anchor="middle" x="121.5" y="-169.3" font-family="Arial" font-size="14.00">•</text>
<polyline fill="none" stroke="black" points="140,-161.5 140,-184.5 "/>
<text text-anchor="middle" x="157.5" y="-169.3" font-family="Arial" font-size="14.00"> </text>
</a>
</g>
<text text-anchor="middle" x="98.5" y="-149.8" font-family="Arial" font-size="14.00">2</text>
</g>
<!-- UC31&#45;&gt;UC32 -->
<g id="edge1" class="edge"><title>UC31:JMP&#45;&gt;UC32:JMP</title>
<g id="a_edge1"><a xlink:href="#UC3_1">
<path fill="none" stroke="black" d="M74.3026,-173C80.0084,-173 86.5079,-173 92.9772,-173"/>
<polygon fill="black" stroke="black" points="93,-176.5 103,-173 93,-169.5 93,-176.5"/>
</a>
</g>
</g>
<!-- UC33 -->
<g id="node3" class="node"><title>UC33</title>
<g id="a_node3"><a xlink:title="System checks that application can be started &#45;
		 &#160;maximum number of running applications is not exceeded">
<path fill="#b3cde3" stroke="black" d="M249.667,-161.5C249.667,-161.5 270.333,-161.5 270.333,-161.5 274.167,-161.5 278,-165.333 278,-169.167 278,-169.167 278,-176.833 278,-176.833 278,-180.667 274.167,-184.5 270.333,-184.5 270.333,-184.5 249.667,-184.5 249.667,-184.5 245.833,-184.5 242,-180.667 242,-176.833 242,-176.833 242,-169.167 242,-169.167 242,-165.333 245.833,-161.5 249.667,-161.5"/>
<text text-anchor="middle" x="260" y="-169.3" font-family="Arial" font-size="14.00">•</text>
</a>
</g>
<text text-anchor="middle" x="237.5" y="-149.8" font-family="Arial" font-size="14.00">3</text>
</g>
<!-- UC32&#45;&gt;UC33 -->
<g id="edge2" class="edge"><title>UC32:EXT&#45;&gt;UC33:JMP</title>
<g id="a_edge2"><a xlink:href="#UC3_2">
<path fill="none" stroke="black" d="M175,-173C193.884,-173 215.129,-173 231.655,-173"/>
<polygon fill="black" stroke="black" points="231.761,-176.5 241.761,-173 231.761,-169.5 231.761,-176.5"/>
</a>
</g>
</g>
<!-- UC32a1 -->
<g id="node7" class="node"><title>UC32a1</title>
<g id="a_node7"><a xlink:title="System notifies user that the application has been 
		 &#160;&#160;&#160;already started.">
<path fill="#b3cde3" stroke="black" d="M249.667,-38.5C249.667,-38.5 270.333,-38.5 270.333,-38.5 274.167,-38.5 278,-42.3333 278,-46.1667 278,-46.1667 278,-53.8333 278,-53.8333 278,-57.6667 274.167,-61.5 270.333,-61.5 270.333,-61.5 249.667,-61.5 249.667,-61.5 245.833,-61.5 242,-57.6667 242,-53.8333 242,-53.8333 242,-46.1667 242,-46.1667 242,-42.3333 245.833,-38.5 249.667,-38.5"/>
<text text-anchor="middle" x="260" y="-46.3" font-family="Arial" font-size="14.00">•</text>
</a>
</g>
<text text-anchor="middle" x="229.5" y="-26.8" font-family="Arial" font-size="14.00">2a1</text>
</g>
<!-- UC32&#45;&gt;UC32a1 -->
<g id="edge6" class="edge"><title>UC32:EXT&#45;&gt;UC32a1:JMP</title>
<g id="a_edge6"><a xlink:href="#UC3_2">
<path fill="none" stroke="black" d="M175,-173C185.157,-173 178.575,-137.142 183,-128 198.54,-95.8964 209.618,-88.4725 233.728,-68.457"/>
<polygon fill="black" stroke="black" points="236.246,-70.9134 241.649,-61.7998 231.742,-65.5548 236.246,-70.9134"/>
</a>
</g>
</g>
<!-- UC34 -->
<g id="node4" class="node"><title>UC34</title>
<g id="a_node4"><a xlink:title="System pulls changes from the application&#39;s repository
		 &#160;to the location where application is being run.">
<path fill="#b3cde3" stroke="black" d="M314.667,-161.5C314.667,-161.5 335.333,-161.5 335.333,-161.5 339.167,-161.5 343,-165.333 343,-169.167 343,-169.167 343,-176.833 343,-176.833 343,-180.667 339.167,-184.5 335.333,-184.5 335.333,-184.5 314.667,-184.5 314.667,-184.5 310.833,-184.5 307,-180.667 307,-176.833 307,-176.833 307,-169.167 307,-169.167 307,-165.333 310.833,-161.5 314.667,-161.5"/>
<text text-anchor="middle" x="325" y="-169.3" font-family="Arial" font-size="14.00">•</text>
</a>
</g>
<text text-anchor="middle" x="302.5" y="-149.8" font-family="Arial" font-size="14.00">4</text>
</g>
<!-- UC33&#45;&gt;UC34 -->
<g id="edge3" class="edge"><title>UC33:JMP&#45;&gt;UC34:JMP</title>
<g id="a_edge3"><a xlink:href="#UC3_3">
<path fill="none" stroke="black" d="M278.106,-173C283.882,-173 290.417,-173 296.735,-173"/>
<polygon fill="black" stroke="black" points="296.991,-176.5 306.991,-173 296.991,-169.5 296.991,-176.5"/>
</a>
</g>
</g>
<!-- UC35 -->
<g id="node5" class="node"><title>UC35</title>
<g id="a_node5"><a xlink:title="System starts the application and makes it available
		 &#160;on the given url.">
<path fill="#b3cde3" stroke="black" d="M417.667,-161.5C417.667,-161.5 438.333,-161.5 438.333,-161.5 442.167,-161.5 446,-165.333 446,-169.167 446,-169.167 446,-176.833 446,-176.833 446,-180.667 442.167,-184.5 438.333,-184.5 438.333,-184.5 417.667,-184.5 417.667,-184.5 413.833,-184.5 410,-180.667 410,-176.833 410,-176.833 410,-169.167 410,-169.167 410,-165.333 413.833,-161.5 417.667,-161.5"/>
<text text-anchor="middle" x="428" y="-169.3" font-family="Arial" font-size="14.00">•</text>
</a>
</g>
<text text-anchor="middle" x="405.5" y="-149.8" font-family="Arial" font-size="14.00">5</text>
</g>
<!-- UC34&#45;&gt;UC35 -->
<g id="edge4" class="edge"><title>UC34:JMP&#45;&gt;UC35:JMP</title>
<g id="a_edge4"><a xlink:href="#UC3_4">
<path fill="none" stroke="black" d="M343.414,-173C359.013,-173 381.635,-173 399.56,-173"/>
<polygon fill="black" stroke="black" points="399.745,-176.5 409.745,-173 399.745,-169.5 399.745,-176.5"/>
</a>
</g>
</g>
<!-- UC36 -->
<g id="node6" class="node"><title>UC36</title>
<g id="a_node6"><a xlink:title="System changes state of the application to running.">
<path fill="#ccebc5" stroke="black" d="M482.667,-161.5C482.667,-161.5 503.333,-161.5 503.333,-161.5 507.167,-161.5 511,-165.333 511,-169.167 511,-169.167 511,-176.833 511,-176.833 511,-180.667 507.167,-184.5 503.333,-184.5 503.333,-184.5 482.667,-184.5 482.667,-184.5 478.833,-184.5 475,-180.667 475,-176.833 475,-176.833 475,-169.167 475,-169.167 475,-165.333 478.833,-161.5 482.667,-161.5"/>
<text text-anchor="middle" x="493" y="-169.3" font-family="Arial" font-size="14.00">•</text>
</a>
</g>
<text text-anchor="middle" x="470.5" y="-149.8" font-family="Arial" font-size="14.00">6</text>
</g>
<!-- UC35&#45;&gt;UC36 -->
<g id="edge5" class="edge"><title>UC35:JMP&#45;&gt;UC36:JMP</title>
<g id="a_edge5"><a xlink:href="#UC3_5">
<path fill="none" stroke="black" d="M446.106,-173C451.882,-173 458.417,-173 464.735,-173"/>
<polygon fill="black" stroke="black" points="464.991,-176.5 474.991,-173 464.991,-169.5 464.991,-176.5"/>
</a>
</g>
</g>
<!-- UC32a2 -->
<g id="node8" class="node"><title>UC32a2</title>
<g id="a_node8"><a xlink:title="Use case aborts. #(abort)">
<path fill="#fbb4ae" stroke="black" d="M314.667,-38.5C314.667,-38.5 335.333,-38.5 335.333,-38.5 339.167,-38.5 343,-42.3333 343,-46.1667 343,-46.1667 343,-53.8333 343,-53.8333 343,-57.6667 339.167,-61.5 335.333,-61.5 335.333,-61.5 314.667,-61.5 314.667,-61.5 310.833,-61.5 307,-57.6667 307,-53.8333 307,-53.8333 307,-46.1667 307,-46.1667 307,-42.3333 310.833,-38.5 314.667,-38.5"/>
<text text-anchor="middle" x="325" y="-46.3" font-family="Arial" font-size="14.00">•</text>
</a>
</g>
<text text-anchor="middle" x="294.5" y="-26.8" font-family="Arial" font-size="14.00">2a2</text>
</g>
<!-- UC32a1&#45;&gt;UC32a2 -->
<g id="edge7" class="edge"><title>UC32a1:JMP&#45;&gt;UC32a2:JMP</title>
<g id="a_edge7"><a xlink:href="#UC3_2a1">
<path fill="none" stroke="black" d="M278.106,-50C283.882,-50 290.417,-50 296.735,-50"/>
<polygon fill="black" stroke="black" points="296.991,-53.5001 306.991,-50 296.991,-46.5001 296.991,-53.5001"/>
</a>
</g>
</g>
</g>
</svg>
