<?xml version="1.0" encoding="UTF-8" standalone="no"?>
<!DOCTYPE svg PUBLIC "-//W3C//DTD SVG 1.1//EN"
 "http://www.w3.org/Graphics/SVG/1.1/DTD/svg11.dtd">
<!-- Generated by graphviz version 2.35.20131004.0446 (20131004.0446)
 -->
<!-- Title: mygraph Pages: 1 -->
<svg width="733pt" height="585pt"
 viewBox="62.00 62.00 670.81 522.69" xmlns="http://www.w3.org/2000/svg" xmlns:xlink="http://www.w3.org/1999/xlink">
<g id="graph0" class="graph" transform="scale(0.861111 0.861111) rotate(0) translate(76 603)">
<title>mygraph</title>
<polygon fill="white" stroke="white" points="-4,4 -4,-531 703,-531 703,4 -4,4"/>
<g id="clust1" class="cluster"><title>cluster_UC101</title>
<polygon fill="#ffffcc" stroke="black" points="8,-435 8,-519 549,-519 549,-435 8,-435"/>
</g>
<g id="clust2" class="cluster"><title>cluster_UC1015a</title>
<polygon fill="#f2f2f2" stroke="black" points="408,-312 408,-434 669,-434 669,-312 408,-312"/>
<text text-anchor="start" x="416" y="-418.8" font-family="Arial" font-size="14.00" fill="gray">Extension: 5a.</text>
<text text-anchor="middle" x="538.5" y="-403.8" font-family="Arial" font-size="14.00" fill="gray"> Some obligatory fields were not filled. </text>
</g>
<g id="clust3" class="cluster"><title>cluster_UC1015b</title>
<polygon fill="#f2f2f2" stroke="black" points="378,-160 378,-282 698,-282 698,-160 378,-160"/>
<text text-anchor="start" x="386" y="-266.8" font-family="Arial" font-size="14.00" fill="gray">Extension: 5b.</text>
<text text-anchor="middle" x="538" y="-251.8" font-family="Arial" font-size="14.00" fill="gray"> Account with the given user name already exist. </text>
</g>
<g id="clust4" class="cluster"><title>cluster_UC1015c</title>
<polygon fill="#f2f2f2" stroke="black" points="431,-8 431,-130 645,-130 645,-8 431,-8"/>
<text text-anchor="start" x="439" y="-114.8" font-family="Arial" font-size="14.00" fill="gray">Extension: 5c.</text>
<text text-anchor="middle" x="538" y="-99.8" font-family="Arial" font-size="14.00" fill="gray"> Given passwords don&#39;t match. </text>
</g>
<!-- UC1011 -->
<g id="node1" class="node"><title>UC1011</title>
<g id="a_node1"><a xlink:title="Candidate opens system main&#45;page.">
<path fill="#b3cde3" stroke="black" d="M45.6667,-465.5C45.6667,-465.5 66.3333,-465.5 66.3333,-465.5 70.1667,-465.5 74,-469.333 74,-473.167 74,-473.167 74,-480.833 74,-480.833 74,-484.667 70.1667,-488.5 66.3333,-488.5 66.3333,-488.5 45.6667,-488.5 45.6667,-488.5 41.8333,-488.5 38,-484.667 38,-480.833 38,-480.833 38,-473.167 38,-473.167 38,-469.333 41.8333,-465.5 45.6667,-465.5"/>
<text text-anchor="middle" x="56" y="-473.3" font-family="Arial" font-size="14.00">•</text>
</a>
</g>
<text text-anchor="middle" x="33.5" y="-453.8" font-family="Arial" font-size="14.00">1</text>
</g>
<!-- UC1012 -->
<g id="node2" class="node"><title>UC1012</title>
<g id="a_node2"><a xlink:title="Candidate chooses registration option.">
<path fill="#b3cde3" stroke="black" d="M110.667,-465.5C110.667,-465.5 131.333,-465.5 131.333,-465.5 135.167,-465.5 139,-469.333 139,-473.167 139,-473.167 139,-480.833 139,-480.833 139,-484.667 135.167,-488.5 131.333,-488.5 131.333,-488.5 110.667,-488.5 110.667,-488.5 106.833,-488.5 103,-484.667 103,-480.833 103,-480.833 103,-473.167 103,-473.167 103,-469.333 106.833,-465.5 110.667,-465.5"/>
<text text-anchor="middle" x="121" y="-473.3" font-family="Arial" font-size="14.00">•</text>
</a>
</g>
<text text-anchor="middle" x="98.5" y="-453.8" font-family="Arial" font-size="14.00">2</text>
</g>
<!-- UC1011&#45;&gt;UC1012 -->
<g id="edge1" class="edge"><title>UC1011:JMP&#45;&gt;UC1012:JMP</title>
<g id="a_edge1"><a xlink:href="#UC101_1">
<path fill="none" stroke="black" d="M74.1061,-477C79.8817,-477 86.4172,-477 92.7354,-477"/>
<polygon fill="black" stroke="black" points="92.991,-480.5 102.991,-477 92.9909,-473.5 92.991,-480.5"/>
</a>
</g>
</g>
<!-- UC1013 -->
<g id="node3" class="node"><title>UC1013</title>
<g id="a_node3"><a xlink:title="System presents a registration data form and asks to enter the registration data.">
<path fill="#b3cde3" stroke="black" d="M175.667,-465.5C175.667,-465.5 196.333,-465.5 196.333,-465.5 200.167,-465.5 204,-469.333 204,-473.167 204,-473.167 204,-480.833 204,-480.833 204,-484.667 200.167,-488.5 196.333,-488.5 196.333,-488.5 175.667,-488.5 175.667,-488.5 171.833,-488.5 168,-484.667 168,-480.833 168,-480.833 168,-473.167 168,-473.167 168,-469.333 171.833,-465.5 175.667,-465.5"/>
<text text-anchor="middle" x="186" y="-473.3" font-family="Arial" font-size="14.00">•</text>
</a>
</g>
<text text-anchor="middle" x="163.5" y="-453.8" font-family="Arial" font-size="14.00">3</text>
</g>
<!-- UC1012&#45;&gt;UC1013 -->
<g id="edge2" class="edge"><title>UC1012:JMP&#45;&gt;UC1013:JMP</title>
<g id="a_edge2"><a xlink:href="#UC101_2">
<path fill="none" stroke="black" d="M139.106,-477C144.882,-477 151.417,-477 157.735,-477"/>
<polygon fill="black" stroke="black" points="157.991,-480.5 167.991,-477 157.991,-473.5 157.991,-480.5"/>
</a>
</g>
</g>
<!-- UC1014 -->
<g id="node4" class="node"><title>UC1014</title>
<g id="a_node4"><a xlink:title="Candidate fills the registration data form and submits the registration data form.">
<path fill="#b3cde3" stroke="black" d="M240.667,-465.5C240.667,-465.5 261.333,-465.5 261.333,-465.5 265.167,-465.5 269,-469.333 269,-473.167 269,-473.167 269,-480.833 269,-480.833 269,-484.667 265.167,-488.5 261.333,-488.5 261.333,-488.5 240.667,-488.5 240.667,-488.5 236.833,-488.5 233,-484.667 233,-480.833 233,-480.833 233,-473.167 233,-473.167 233,-469.333 236.833,-465.5 240.667,-465.5"/>
<text text-anchor="middle" x="251" y="-473.3" font-family="Arial" font-size="14.00">•</text>
</a>
</g>
<text text-anchor="middle" x="228.5" y="-453.8" font-family="Arial" font-size="14.00">4</text>
</g>
<!-- UC1013&#45;&gt;UC1014 -->
<g id="edge3" class="edge"><title>UC1013:JMP&#45;&gt;UC1014:JMP</title>
<g id="a_edge3"><a xlink:href="#UC101_3">
<path fill="none" stroke="black" d="M204.106,-477C209.882,-477 216.417,-477 222.735,-477"/>
<polygon fill="black" stroke="black" points="222.991,-480.5 232.991,-477 222.991,-473.5 222.991,-480.5"/>
</a>
</g>
</g>
<!-- UC1015 -->
<g id="node5" class="node"><title>UC1015</title>
<g id="a_node5"><a xlink:title="System verifies if data is correct.">
<path fill="#b3cde3" stroke="black" d="M305.667,-465.5C305.667,-465.5 362.333,-465.5 362.333,-465.5 366.167,-465.5 370,-469.333 370,-473.167 370,-473.167 370,-480.833 370,-480.833 370,-484.667 366.167,-488.5 362.333,-488.5 362.333,-488.5 305.667,-488.5 305.667,-488.5 301.833,-488.5 298,-484.667 298,-480.833 298,-480.833 298,-473.167 298,-473.167 298,-469.333 301.833,-465.5 305.667,-465.5"/>
<text text-anchor="middle" x="316.5" y="-473.3" font-family="Arial" font-size="14.00">•</text>
<polyline fill="none" stroke="black" points="335,-465.5 335,-488.5 "/>
<text text-anchor="middle" x="352.5" y="-473.3" font-family="Arial" font-size="14.00"> </text>
</a>
</g>
<text text-anchor="middle" x="293.5" y="-453.8" font-family="Arial" font-size="14.00">5</text>
</g>
<!-- UC1014&#45;&gt;UC1015 -->
<g id="edge4" class="edge"><title>UC1014:JMP&#45;&gt;UC1015:JMP</title>
<g id="a_edge4"><a xlink:href="#UC101_4">
<path fill="none" stroke="black" d="M269.303,-477C275.008,-477 281.508,-477 287.977,-477"/>
<polygon fill="black" stroke="black" points="288,-480.5 298,-477 288,-473.5 288,-480.5"/>
</a>
</g>
</g>
<!-- UC1016 -->
<g id="node6" class="node"><title>UC1016</title>
<g id="a_node6"><a xlink:title="System informs that account has been created.">
<path fill="#ccebc5" stroke="black" d="M490.667,-465.5C490.667,-465.5 511.333,-465.5 511.333,-465.5 515.167,-465.5 519,-469.333 519,-473.167 519,-473.167 519,-480.833 519,-480.833 519,-484.667 515.167,-488.5 511.333,-488.5 511.333,-488.5 490.667,-488.5 490.667,-488.5 486.833,-488.5 483,-484.667 483,-480.833 483,-480.833 483,-473.167 483,-473.167 483,-469.333 486.833,-465.5 490.667,-465.5"/>
<text text-anchor="middle" x="501" y="-473.3" font-family="Arial" font-size="14.00">•</text>
</a>
</g>
<text text-anchor="middle" x="478.5" y="-453.8" font-family="Arial" font-size="14.00">6</text>
</g>
<!-- UC1015&#45;&gt;UC1016 -->
<g id="edge5" class="edge"><title>UC1015:EXT&#45;&gt;UC1016:JMP</title>
<g id="a_edge5"><a xlink:href="#UC101_5">
<path fill="none" stroke="black" d="M370,-477C405.381,-477 446.136,-477 472.669,-477"/>
<polygon fill="black" stroke="black" points="472.775,-480.5 482.775,-477 472.775,-473.5 472.775,-480.5"/>
</a>
</g>
</g>
<!-- UC1015a1 -->
<g id="node7" class="node"><title>UC1015a1</title>
<g id="a_node7"><a xlink:title="Systems highlights the missing fields.">
<path fill="#b3cde3" stroke="black" d="M490.667,-342.5C490.667,-342.5 511.333,-342.5 511.333,-342.5 515.167,-342.5 519,-346.333 519,-350.167 519,-350.167 519,-357.833 519,-357.833 519,-361.667 515.167,-365.5 511.333,-365.5 511.333,-365.5 490.667,-365.5 490.667,-365.5 486.833,-365.5 483,-361.667 483,-357.833 483,-357.833 483,-350.167 483,-350.167 483,-346.333 486.833,-342.5 490.667,-342.5"/>
<text text-anchor="middle" x="501" y="-350.3" font-family="Arial" font-size="14.00">•</text>
</a>
</g>
<text text-anchor="middle" x="470.5" y="-330.8" font-family="Arial" font-size="14.00">5a1</text>
</g>
<!-- UC1015&#45;&gt;UC1015a1 -->
<g id="edge6" class="edge"><title>UC1015:EXT&#45;&gt;UC1015a1:JMP</title>
<g id="a_edge6"><a xlink:href="#UC101_5">
<path fill="none" stroke="black" d="M370,-477C380.157,-477 372.342,-440.435 378,-432 401.057,-397.623 444.92,-375.317 473.553,-363.701"/>
<polygon fill="black" stroke="black" points="474.933,-366.92 482.987,-360.036 472.398,-360.395 474.933,-366.92"/>
</a>
</g>
</g>
<!-- UC1015b1 -->
<g id="node9" class="node"><title>UC1015b1</title>
<g id="a_node9"><a xlink:title="System informs that the user nameUserAccount.userName is in use.">
<path fill="#b3cde3" stroke="black" d="M490.667,-190.5C490.667,-190.5 511.333,-190.5 511.333,-190.5 515.167,-190.5 519,-194.333 519,-198.167 519,-198.167 519,-205.833 519,-205.833 519,-209.667 515.167,-213.5 511.333,-213.5 511.333,-213.5 490.667,-213.5 490.667,-213.5 486.833,-213.5 483,-209.667 483,-205.833 483,-205.833 483,-198.167 483,-198.167 483,-194.333 486.833,-190.5 490.667,-190.5"/>
<text text-anchor="middle" x="501" y="-198.3" font-family="Arial" font-size="14.00">•</text>
</a>
</g>
<text text-anchor="middle" x="470.5" y="-178.8" font-family="Arial" font-size="14.00">5b1</text>
</g>
<!-- UC1015&#45;&gt;UC1015b1 -->
<g id="edge9" class="edge"><title>UC1015:EXT&#45;&gt;UC1015b1:JMP</title>
<g id="a_edge9"><a xlink:href="#UC101_5">
<path fill="none" stroke="black" d="M353,-464C353,-429.11 361.386,-339.68 378,-309 400.256,-267.902 444.977,-235.304 473.921,-217.34"/>
<polygon fill="black" stroke="black" points="475.965,-220.195 482.716,-212.029 472.346,-214.202 475.965,-220.195"/>
</a>
</g>
</g>
<!-- UC1015c1 -->
<g id="node11" class="node"><title>UC1015c1</title>
<g id="a_node11"><a xlink:title="System informs Candidate that passwords don&#39;t match.">
<path fill="#b3cde3" stroke="black" d="M490.667,-38.5C490.667,-38.5 511.333,-38.5 511.333,-38.5 515.167,-38.5 519,-42.3333 519,-46.1667 519,-46.1667 519,-53.8333 519,-53.8333 519,-57.6667 515.167,-61.5 511.333,-61.5 511.333,-61.5 490.667,-61.5 490.667,-61.5 486.833,-61.5 483,-57.6667 483,-53.8333 483,-53.8333 483,-46.1667 483,-46.1667 483,-42.3333 486.833,-38.5 490.667,-38.5"/>
<text text-anchor="middle" x="501" y="-46.3" font-family="Arial" font-size="14.00">•</text>
</a>
</g>
<text text-anchor="middle" x="470.5" y="-26.8" font-family="Arial" font-size="14.00">5c1</text>
</g>
<!-- UC1015&#45;&gt;UC1015c1 -->
<g id="edge12" class="edge"><title>UC1015:EXT&#45;&gt;UC1015c1:JMP</title>
<g id="a_edge12"><a xlink:href="#UC101_5">
<path fill="none" stroke="black" d="M353,-464C353,-429.776 362.898,-187.712 378,-157 398.736,-114.83 444.312,-82.352 473.786,-64.7325"/>
<polygon fill="black" stroke="black" points="475.843,-67.5853 482.738,-59.5405 472.331,-61.5301 475.843,-67.5853"/>
</a>
</g>
</g>
<!-- UC1015a2 -->
<g id="node8" class="node"><title>UC1015a2</title>
<g id="a_node8"><a xlink:title="Back to step 4.">
<path fill="#b3cde3" stroke="black" d="M564.667,-342.5C564.667,-342.5 585.333,-342.5 585.333,-342.5 589.167,-342.5 593,-346.333 593,-350.167 593,-350.167 593,-357.833 593,-357.833 593,-361.667 589.167,-365.5 585.333,-365.5 585.333,-365.5 564.667,-365.5 564.667,-365.5 560.833,-365.5 557,-361.667 557,-357.833 557,-357.833 557,-350.167 557,-350.167 557,-346.333 560.833,-342.5 564.667,-342.5"/>
<text text-anchor="middle" x="575" y="-350.3" font-family="Arial" font-size="14.00">•</text>
</a>
</g>
<text text-anchor="middle" x="544.5" y="-330.8" font-family="Arial" font-size="14.00">5a2</text>
</g>
<!-- UC1015a1&#45;&gt;UC1015a2 -->
<g id="edge7" class="edge"><title>UC1015a1:JMP&#45;&gt;UC1015a2:JMP</title>
<g id="a_edge7"><a xlink:href="#UC101_5a1">
<path fill="none" stroke="black" d="M519.292,-354C527.536,-354 537.462,-354 546.638,-354"/>
<polygon fill="black" stroke="black" points="546.918,-357.5 556.918,-354 546.918,-350.5 546.918,-357.5"/>
</a>
</g>
</g>
<!-- UC1015a2&#45;&gt;UC1014 -->
<g id="edge8" class="edge"><title>UC1015a2:JMP&#45;&gt;UC1014:JMP</title>
<g id="a_edge8"><a xlink:href="#UC101_5a2">
<path fill="none" stroke="black" d="M556.651,-342.22C553.171,-339.34 553.391,-336.736 549,-335 478.325,-307.052 446.843,-302.803 378,-335 312.882,-365.455 324.352,-410.878 276.793,-458.212"/>
<polygon fill="black" stroke="black" points="274.233,-455.814 269.332,-465.207 279.02,-460.921 274.233,-455.814"/>
</a>
</g>
</g>
<!-- UC1015b2 -->
<g id="node10" class="node"><title>UC1015b2</title>
<g id="a_node10"><a xlink:title="Back to step 4.">
<path fill="#b3cde3" stroke="black" d="M564.667,-190.5C564.667,-190.5 585.333,-190.5 585.333,-190.5 589.167,-190.5 593,-194.333 593,-198.167 593,-198.167 593,-205.833 593,-205.833 593,-209.667 589.167,-213.5 585.333,-213.5 585.333,-213.5 564.667,-213.5 564.667,-213.5 560.833,-213.5 557,-209.667 557,-205.833 557,-205.833 557,-198.167 557,-198.167 557,-194.333 560.833,-190.5 564.667,-190.5"/>
<text text-anchor="middle" x="575" y="-198.3" font-family="Arial" font-size="14.00">•</text>
</a>
</g>
<text text-anchor="middle" x="544.5" y="-178.8" font-family="Arial" font-size="14.00">5b2</text>
</g>
<!-- UC1015b1&#45;&gt;UC1015b2 -->
<g id="edge10" class="edge"><title>UC1015b1:JMP&#45;&gt;UC1015b2:JMP</title>
<g id="a_edge10"><a xlink:href="#UC101_5b1">
<path fill="none" stroke="black" d="M519.292,-202C527.536,-202 537.462,-202 546.638,-202"/>
<polygon fill="black" stroke="black" points="546.918,-205.5 556.918,-202 546.918,-198.5 546.918,-205.5"/>
</a>
</g>
</g>
<!-- UC1015b2&#45;&gt;UC1014 -->
<g id="edge11" class="edge"><title>UC1015b2:JMP&#45;&gt;UC1014:JMP</title>
<g id="a_edge11"><a xlink:href="#UC101_5b2">
<path fill="none" stroke="black" d="M556.651,-190.22C553.171,-187.34 553.391,-184.736 549,-183 478.325,-155.052 442.956,-143.545 378,-183 312.079,-223.041 324.486,-264.562 298,-337 279.149,-388.557 299.728,-414.275 274.639,-456.781"/>
<polygon fill="black" stroke="black" points="271.675,-454.919 269.196,-465.219 277.558,-458.713 271.675,-454.919"/>
</a>
</g>
</g>
<!-- UC1015c2 -->
<g id="node12" class="node"><title>UC1015c2</title>
<g id="a_node12"><a xlink:title="Back to step 4.">
<path fill="#b3cde3" stroke="black" d="M564.667,-38.5C564.667,-38.5 585.333,-38.5 585.333,-38.5 589.167,-38.5 593,-42.3333 593,-46.1667 593,-46.1667 593,-53.8333 593,-53.8333 593,-57.6667 589.167,-61.5 585.333,-61.5 585.333,-61.5 564.667,-61.5 564.667,-61.5 560.833,-61.5 557,-57.6667 557,-53.8333 557,-53.8333 557,-46.1667 557,-46.1667 557,-42.3333 560.833,-38.5 564.667,-38.5"/>
<text text-anchor="middle" x="575" y="-46.3" font-family="Arial" font-size="14.00">•</text>
</a>
</g>
<text text-anchor="middle" x="544.5" y="-26.8" font-family="Arial" font-size="14.00">5c2</text>
</g>
<!-- UC1015c1&#45;&gt;UC1015c2 -->
<g id="edge13" class="edge"><title>UC1015c1:JMP&#45;&gt;UC1015c2:JMP</title>
<g id="a_edge13"><a xlink:href="#UC101_5c1">
<path fill="none" stroke="black" d="M519.292,-50C527.536,-50 537.462,-50 546.638,-50"/>
<polygon fill="black" stroke="black" points="546.918,-53.5001 556.918,-50 546.918,-46.5001 546.918,-53.5001"/>
</a>
</g>
</g>
<!-- UC1015c2&#45;&gt;UC1014 -->
<g id="edge14" class="edge"><title>UC1015c2:JMP&#45;&gt;UC1014:JMP</title>
<g id="a_edge14"><a xlink:href="#UC101_5c2">
<path fill="none" stroke="black" d="M556.651,-38.2204C553.171,-35.3397 553.391,-32.7362 549,-31 478.325,-3.0519 442.904,8.54035 378,-31 311.795,-71.3329 320.163,-111.712 298,-186 263.341,-302.174 330.44,-356.023 274.41,-456.3"/>
<polygon fill="black" stroke="black" points="271.236,-454.793 269.192,-465.189 277.273,-458.337 271.236,-454.793"/>
</a>
</g>
</g>
</g>
</svg>
