<?xml version="1.0" encoding="UTF-8" standalone="no"?>
<!DOCTYPE svg PUBLIC "-//W3C//DTD SVG 1.1//EN"
 "http://www.w3.org/Graphics/SVG/1.1/DTD/svg11.dtd">
<!-- Generated by graphviz version 2.37.20140307.0545 (20140307.0545)
 -->
<!-- Title: mygraph Pages: 1 -->
<svg width="505pt" height="487pt"
 viewBox="70.00 70.00 434.58 417.08" xmlns="http://www.w3.org/2000/svg" xmlns:xlink="http://www.w3.org/1999/xlink">
<g id="graph0" class="graph" transform="scale(0.972222 0.972222) rotate(0) translate(76 425)">
<title>mygraph</title>
<polygon fill="white" stroke="none" points="-4,4 -4,-353 371,-353 371,4 -4,4"/>
<!-- UC1 -->
<g id="node1" class="node"><title>UC1</title>
<g id="a_node1"><a xlink:href="../UC1/UC1.html" xlink:title="Vznik zakazky" target="_top">
<ellipse fill="#f2f2f2" stroke="black" cx="31" cy="-269" rx="31.6406" ry="16.0303"/>
<text text-anchor="middle" x="31" y="-265.3" font-family="Arial" font-size="14.00">UC1</text>
</a>
</g>
</g>
<!-- UC8 -->
<g id="node3" class="node"><title>UC8</title>
<g id="a_node3"><a xlink:href="../UC8/UC8.html" xlink:title="Priprava online dotazniku." target="_top">
<ellipse fill="#f2f2f2" stroke="black" cx="70" cy="-332" rx="31.6406" ry="16.0303"/>
<text text-anchor="middle" x="70" y="-328.3" font-family="Arial" font-size="14.00">UC8</text>
</a>
</g>
</g>
<!-- UC1&#45;&gt;UC8 -->
<g id="edge1" class="edge"><title>UC1&#45;&gt;UC8</title>
<path fill="none" stroke="black" d="M40.4408,-284.766C44.848,-291.66 50.1993,-300.03 55.131,-307.743"/>
<polygon fill="black" stroke="black" points="52.3106,-309.83 60.6461,-316.37 58.2083,-306.059 52.3106,-309.83"/>
</g>
<!-- UC11 -->
<g id="node2" class="node"><title>UC11</title>
<g id="a_node2"><a xlink:href="../UC11/UC11.html" xlink:title="Vymazanie zakazky." target="_top">
<ellipse fill="#f2f2f2" stroke="black" cx="192" cy="-269" rx="37.4533" ry="16.0303"/>
<text text-anchor="middle" x="192" y="-265.3" font-family="Arial" font-size="14.00">UC11</text>
</a>
</g>
</g>
<!-- UC5 -->
<g id="node4" class="node"><title>UC5</title>
<g id="a_node4"><a xlink:href="../UC5/UC5.html" xlink:title="Termin prvej schodzky." target="_top">
<ellipse fill="#f2f2f2" stroke="black" cx="332" cy="-80" rx="31.6406" ry="16.0303"/>
<text text-anchor="middle" x="332" y="-76.3" font-family="Arial" font-size="14.00">UC5</text>
</a>
</g>
</g>
<!-- UC10 -->
<g id="node7" class="node"><title>UC10</title>
<g id="a_node7"><a xlink:href="../UC10/UC10.html" xlink:title="Storno zakazky." target="_top">
<ellipse fill="#f2f2f2" stroke="black" cx="329" cy="-332" rx="37.4533" ry="16.0303"/>
<text text-anchor="middle" x="329" y="-328.3" font-family="Arial" font-size="14.00">UC10</text>
</a>
</g>
</g>
<!-- UC5&#45;&gt;UC10 -->
<g id="edge3" class="edge"><title>UC5&#45;&gt;UC10</title>
<path fill="none" stroke="black" stroke-dasharray="5,2" d="M336.691,-96.244C339.105,-104.881 341.788,-115.939 343,-126 350.779,-190.585 340.372,-267.178 333.741,-305.9"/>
<polygon fill="none" stroke="black" points="330.289,-305.319 331.988,-315.776 337.181,-306.541 330.289,-305.319"/>
</g>
<!-- UC4 -->
<g id="node10" class="node"><title>UC4</title>
<g id="a_node10"><a xlink:href="../UC4/UC4.html" xlink:title="Priradenie zakazky designerovi." target="_top">
<ellipse fill="#f2f2f2" stroke="black" cx="305" cy="-143" rx="31.6406" ry="16.0303"/>
<text text-anchor="middle" x="305" y="-139.3" font-family="Arial" font-size="14.00">UC4</text>
</a>
</g>
</g>
<!-- UC5&#45;&gt;UC4 -->
<g id="edge2" class="edge"><title>UC5&#45;&gt;UC4</title>
<path fill="none" stroke="black" d="M325.326,-96.0787C322.449,-102.579 319.01,-110.348 315.787,-117.63"/>
<polygon fill="black" stroke="black" points="312.444,-116.534 311.597,-127.095 318.845,-119.367 312.444,-116.534"/>
</g>
<!-- UC3 -->
<g id="node5" class="node"><title>UC3</title>
<g id="a_node5"><a xlink:href="../UC3/UC3.html" xlink:title="Kontrola a uprava dotaznika." target="_top">
<ellipse fill="#f2f2f2" stroke="black" cx="234" cy="-206" rx="31.6406" ry="16.0303"/>
<text text-anchor="middle" x="234" y="-202.3" font-family="Arial" font-size="14.00">UC3</text>
</a>
</g>
</g>
<!-- UC3&#45;&gt;UC1 -->
<g id="edge4" class="edge"><title>UC3&#45;&gt;UC1</title>
<path fill="none" stroke="black" d="M206.122,-213.551C173.239,-221.531 117.088,-235.947 70,-252 68.0778,-252.655 66.114,-253.357 64.1403,-254.086"/>
<polygon fill="black" stroke="black" points="62.3938,-251.009 54.3353,-257.888 64.9243,-257.536 62.3938,-251.009"/>
</g>
<!-- UC3&#45;&gt;UC11 -->
<g id="edge5" class="edge"><title>UC3&#45;&gt;UC11</title>
<path fill="none" stroke="black" stroke-dasharray="5,2" d="M224.047,-221.456C219.253,-228.419 213.385,-236.941 207.987,-244.781"/>
<polygon fill="none" stroke="black" points="204.962,-243.003 202.174,-253.224 210.728,-246.972 204.962,-243.003"/>
</g>
<!-- UC2 -->
<g id="node6" class="node"><title>UC2</title>
<g id="a_node6"><a xlink:href="../UC2/UC2.html" xlink:title="Ziadost o doplnujuce udaje." target="_top">
<ellipse fill="#f2f2f2" stroke="black" cx="275" cy="-269" rx="31.6406" ry="16.0303"/>
<text text-anchor="middle" x="275" y="-265.3" font-family="Arial" font-size="14.00">UC2</text>
</a>
</g>
</g>
<!-- UC3&#45;&gt;UC2 -->
<g id="edge6" class="edge"><title>UC3&#45;&gt;UC2</title>
<path fill="none" stroke="black" stroke-dasharray="5,2" d="M243.925,-221.766C248.609,-228.735 254.306,-237.212 259.537,-244.995"/>
<polygon fill="none" stroke="black" points="256.683,-247.022 265.166,-253.37 262.493,-243.118 256.683,-247.022"/>
</g>
<!-- UC2&#45;&gt;UC10 -->
<g id="edge7" class="edge"><title>UC2&#45;&gt;UC10</title>
<path fill="none" stroke="black" stroke-dasharray="5,2" d="M287.524,-284.148C294.041,-291.509 302.155,-300.675 309.473,-308.942"/>
<polygon fill="none" stroke="black" points="306.919,-311.337 316.169,-316.505 312.161,-306.698 306.919,-311.337"/>
</g>
<!-- UC6 -->
<g id="node8" class="node"><title>UC6</title>
<g id="a_node8"><a xlink:href="../UC6/UC6.html" xlink:title="Dokoncenie zakazky." target="_top">
<ellipse fill="#f2f2f2" stroke="black" cx="332" cy="-17" rx="31.6406" ry="16.0303"/>
<text text-anchor="middle" x="332" y="-13.3" font-family="Arial" font-size="14.00">UC6</text>
</a>
</g>
</g>
<!-- UC6&#45;&gt;UC5 -->
<g id="edge8" class="edge"><title>UC6&#45;&gt;UC5</title>
<path fill="none" stroke="black" d="M332,-33.3929C332,-39.415 332,-46.4883 332,-53.2434"/>
<polygon fill="black" stroke="black" points="328.5,-53.3998 332,-63.3999 335.5,-53.3999 328.5,-53.3998"/>
</g>
<!-- UC9 -->
<g id="node9" class="node"><title>UC9</title>
<g id="a_node9"><a xlink:href="../UC9/UC9.html" xlink:title="Klient kontaktuje koordinatora telefonicky." target="_top">
<ellipse fill="#f2f2f2" stroke="black" cx="109" cy="-269" rx="31.6406" ry="16.0303"/>
<text text-anchor="middle" x="109" y="-265.3" font-family="Arial" font-size="14.00">UC9</text>
</a>
</g>
</g>
<!-- UC9&#45;&gt;UC8 -->
<g id="edge9" class="edge"><title>UC9&#45;&gt;UC8</title>
<path fill="none" stroke="black" d="M99.5592,-284.766C95.152,-291.66 89.8007,-300.03 84.869,-307.743"/>
<polygon fill="black" stroke="black" points="81.7917,-306.059 79.3539,-316.37 87.6894,-309.83 81.7917,-306.059"/>
</g>
<!-- UC4&#45;&gt;UC3 -->
<g id="edge10" class="edge"><title>UC4&#45;&gt;UC3</title>
<path fill="none" stroke="black" d="M289.594,-157.236C280.104,-165.39 267.757,-175.997 257.111,-185.144"/>
<polygon fill="black" stroke="black" points="254.68,-182.618 249.376,-191.79 259.242,-187.928 254.68,-182.618"/>
</g>
<!-- UC4&#45;&gt;UC10 -->
<g id="edge11" class="edge"><title>UC4&#45;&gt;UC10</title>
<path fill="none" stroke="black" stroke-dasharray="5,2" d="M306.964,-159.303C311.088,-191.435 320.684,-266.207 325.744,-305.631"/>
<polygon fill="none" stroke="black" points="322.298,-306.275 327.043,-315.748 329.241,-305.384 322.298,-306.275"/>
</g>
</g>
</svg>
