<?xml version="1.0" encoding="UTF-8" standalone="no"?>
<!DOCTYPE svg PUBLIC "-//W3C//DTD SVG 1.1//EN"
 "http://www.w3.org/Graphics/SVG/1.1/DTD/svg11.dtd">
<!-- Generated by graphviz version 2.37.20140129.0545 (20140129.0545)
 -->
<!-- Title: mygraph Pages: 1 -->
<svg width="225pt" height="274pt"
 viewBox="70.00 70.00 154.58 204.17" xmlns="http://www.w3.org/2000/svg" xmlns:xlink="http://www.w3.org/1999/xlink">
<g id="graph0" class="graph" transform="scale(0.972222 0.972222) rotate(0) translate(76 206)">
<title>mygraph</title>
<polygon fill="white" stroke="none" points="-4,4 -4,-134 83,-134 83,4 -4,4"/>
<!-- UC1 -->
<g id="node1" class="node"><title>UC1</title>
<g id="a_node1"><a xlink:href="../UC1/UC1.html" xlink:title="Select city on map" target="_top">
<polygon fill="#f2f2f2" stroke="black" points="54,-129.5 0,-129.5 0,-106.5 54,-106.5 54,-129.5"/>
<text text-anchor="middle" x="27" y="-114.3" font-family="Arial" font-size="14.00">UC1</text>
</a>
</g>
</g>
<!-- UC2 -->
<g id="node2" class="node"><title>UC2</title>
<g id="a_node2"><a xlink:href="../UC2/UC2.html" xlink:title="Generate city" target="_top">
<polygon fill="#f2f2f2" stroke="black" points="79,-76.5 25,-76.5 25,-53.5 79,-53.5 79,-76.5"/>
<text text-anchor="middle" x="52" y="-61.3" font-family="Arial" font-size="14.00">UC2</text>
</a>
</g>
</g>
<!-- UC2&#45;&gt;UC1 -->
<g id="edge1" class="edge"><title>UC2&#45;&gt;UC1</title>
<path fill="none" stroke="black" d="M46.6981,-76.8158C43.8477,-82.6308 40.2396,-89.9912 36.8926,-96.8191"/>
<polygon fill="black" stroke="black" points="33.5531,-95.68 32.2942,-106.2 39.8386,-98.7612 33.5531,-95.68"/>
</g>
<!-- UC3 -->
<g id="node3" class="node"><title>UC3</title>
<g id="a_node3"><a xlink:href="../UC3/UC3.html" xlink:title="Generate restaurant map for city" target="_top">
<polygon fill="#f2f2f2" stroke="black" points="54,-23.5 0,-23.5 0,-0.5 54,-0.5 54,-23.5"/>
<text text-anchor="middle" x="27" y="-8.3" font-family="Arial" font-size="14.00">UC3</text>
</a>
</g>
</g>
<!-- UC3&#45;&gt;UC1 -->
<g id="edge2" class="edge"><title>UC3&#45;&gt;UC1</title>
<path fill="none" stroke="black" d="M23.8994,-23.7555C21.7632,-31.7458 19.1162,-42.9542 18,-53 16.8221,-63.6014 16.8221,-66.3986 18,-77 18.6976,-83.2786 19.9932,-90.0114 21.3883,-96.1288"/>
<polygon fill="black" stroke="black" points="18.0932,-97.3823 23.8994,-106.245 24.887,-95.6958 18.0932,-97.3823"/>
</g>
<!-- UC3&#45;&gt;UC2 -->
<g id="edge3" class="edge"><title>UC3&#45;&gt;UC2</title>
<path fill="none" stroke="black" stroke-dasharray="5,2" d="M32.3019,-23.8158C35.1523,-29.6308 38.7604,-36.9912 42.1074,-43.8191"/>
<polygon fill="none" stroke="black" points="39.1614,-45.7612 46.7058,-53.1998 45.4469,-42.68 39.1614,-45.7612"/>
</g>
</g>
</svg>
