<?xml version="1.0" encoding="UTF-8" standalone="no"?>
<!DOCTYPE svg PUBLIC "-//W3C//DTD SVG 1.1//EN"
 "http://www.w3.org/Graphics/SVG/1.1/DTD/svg11.dtd">
<!-- Generated by graphviz version 2.36.0 (20140111.2315)
 -->
<!-- Title: mygraph Pages: 1 -->
<svg width="554pt" height="323pt"
 viewBox="62.00 62.00 491.69 260.92" xmlns="http://www.w3.org/2000/svg" xmlns:xlink="http://www.w3.org/1999/xlink">
<g id="graph0" class="graph" transform="scale(0.861111 0.861111) rotate(0) translate(76 299)">
<title>mygraph</title>
<polygon fill="white" stroke="none" points="-4,4 -4,-227 495,-227 495,4 -4,4"/>
<g id="clust1" class="cluster"><title>cluster_UC21_</title>
<polygon fill="#ffffcc" stroke="black" points="8,-131 8,-215 409,-215 409,-131 8,-131"/>
</g>
<g id="clust2" class="cluster"><title>cluster_UC21_3a</title>
<polygon fill="#f2f2f2" stroke="black" points="248,-8 248,-130 483,-130 483,-8 248,-8"/>
<text text-anchor="start" x="256" y="-114.8" font-family="Arial" font-size="14.00" fill="gray">Extension: 3a.</text>
<text text-anchor="middle" x="361" y="-99.8" font-family="Arial" font-size="14.00" fill="gray"> Storage for hibernated disk no... </text>
</g>
<!-- UC211 -->
<g id="node1" class="node"><title>UC211</title>
<g id="a_node1"><a xlink:title="System changes state of the git repository to hibernated.">
<path fill="#b3cde3" stroke="black" d="M45.6667,-161.5C45.6667,-161.5 66.3333,-161.5 66.3333,-161.5 70.1667,-161.5 74,-165.333 74,-169.167 74,-169.167 74,-176.833 74,-176.833 74,-180.667 70.1667,-184.5 66.3333,-184.5 66.3333,-184.5 45.6667,-184.5 45.6667,-184.5 41.8333,-184.5 38,-180.667 38,-176.833 38,-176.833 38,-169.167 38,-169.167 38,-165.333 41.8333,-161.5 45.6667,-161.5"/>
<text text-anchor="middle" x="56" y="-169.3" font-family="Arial" font-size="14.00">•</text>
</a>
</g>
<text text-anchor="middle" x="33.5" y="-149.8" font-family="Arial" font-size="14.00">1</text>
</g>
<!-- UC212 -->
<g id="node2" class="node"><title>UC212</title>
<g id="a_node2"><a xlink:title="System compresses the disk image used by application.">
<path fill="#b3cde3" stroke="black" d="M110.667,-161.5C110.667,-161.5 131.333,-161.5 131.333,-161.5 135.167,-161.5 139,-165.333 139,-169.167 139,-169.167 139,-176.833 139,-176.833 139,-180.667 135.167,-184.5 131.333,-184.5 131.333,-184.5 110.667,-184.5 110.667,-184.5 106.833,-184.5 103,-180.667 103,-176.833 103,-176.833 103,-169.167 103,-169.167 103,-165.333 106.833,-161.5 110.667,-161.5"/>
<text text-anchor="middle" x="121" y="-169.3" font-family="Arial" font-size="14.00">•</text>
</a>
</g>
<text text-anchor="middle" x="98.5" y="-149.8" font-family="Arial" font-size="14.00">2</text>
</g>
<!-- UC211&#45;&gt;UC212 -->
<g id="edge1" class="edge"><title>UC211:JMP&#45;&gt;UC212:JMP</title>
<g id="a_edge1"><a xlink:href="#UC21_1">
<path fill="none" stroke="black" d="M74.1061,-173C79.8817,-173 86.4172,-173 92.7354,-173"/>
<polygon fill="black" stroke="black" points="92.991,-176.5 102.991,-173 92.9909,-169.5 92.991,-176.5"/>
</a>
</g>
</g>
<!-- UC213 -->
<g id="node3" class="node"><title>UC213</title>
<g id="a_node3"><a xlink:title="System saves the disk image used by application.">
<path fill="#b3cde3" stroke="black" d="M175.667,-161.5C175.667,-161.5 232.333,-161.5 232.333,-161.5 236.167,-161.5 240,-165.333 240,-169.167 240,-169.167 240,-176.833 240,-176.833 240,-180.667 236.167,-184.5 232.333,-184.5 232.333,-184.5 175.667,-184.5 175.667,-184.5 171.833,-184.5 168,-180.667 168,-176.833 168,-176.833 168,-169.167 168,-169.167 168,-165.333 171.833,-161.5 175.667,-161.5"/>
<text text-anchor="middle" x="186.5" y="-169.3" font-family="Arial" font-size="14.00">•</text>
<polyline fill="none" stroke="black" points="205,-161.5 205,-184.5 "/>
<text text-anchor="middle" x="222.5" y="-169.3" font-family="Arial" font-size="14.00"> </text>
</a>
</g>
<text text-anchor="middle" x="163.5" y="-149.8" font-family="Arial" font-size="14.00">3</text>
</g>
<!-- UC212&#45;&gt;UC213 -->
<g id="edge2" class="edge"><title>UC212:JMP&#45;&gt;UC213:JMP</title>
<g id="a_edge2"><a xlink:href="#UC21_2">
<path fill="none" stroke="black" d="M139.303,-173C145.008,-173 151.508,-173 157.977,-173"/>
<polygon fill="black" stroke="black" points="158,-176.5 168,-173 158,-169.5 158,-176.5"/>
</a>
</g>
</g>
<!-- UC214 -->
<g id="node4" class="node"><title>UC214</title>
<g id="a_node4"><a xlink:title="System frees the disk space used by application.">
<path fill="#b3cde3" stroke="black" d="M285.667,-161.5C285.667,-161.5 306.333,-161.5 306.333,-161.5 310.167,-161.5 314,-165.333 314,-169.167 314,-169.167 314,-176.833 314,-176.833 314,-180.667 310.167,-184.5 306.333,-184.5 306.333,-184.5 285.667,-184.5 285.667,-184.5 281.833,-184.5 278,-180.667 278,-176.833 278,-176.833 278,-169.167 278,-169.167 278,-165.333 281.833,-161.5 285.667,-161.5"/>
<text text-anchor="middle" x="296" y="-169.3" font-family="Arial" font-size="14.00">•</text>
</a>
</g>
<text text-anchor="middle" x="273.5" y="-149.8" font-family="Arial" font-size="14.00">4</text>
</g>
<!-- UC213&#45;&gt;UC214 -->
<g id="edge3" class="edge"><title>UC213:EXT&#45;&gt;UC214:JMP</title>
<g id="a_edge3"><a xlink:href="#UC21_3">
<path fill="none" stroke="black" d="M240,-173C248.985,-173 258.782,-173 267.633,-173"/>
<polygon fill="black" stroke="black" points="267.841,-176.5 277.841,-173 267.841,-169.5 267.841,-176.5"/>
</a>
</g>
</g>
<!-- UC213a1 -->
<g id="node6" class="node"><title>UC213a1</title>
<g id="a_node6"><a xlink:title="System changes state of the git repository to running.">
<path fill="#b3cde3" stroke="black" d="M285.667,-38.5C285.667,-38.5 306.333,-38.5 306.333,-38.5 310.167,-38.5 314,-42.3333 314,-46.1667 314,-46.1667 314,-53.8333 314,-53.8333 314,-57.6667 310.167,-61.5 306.333,-61.5 306.333,-61.5 285.667,-61.5 285.667,-61.5 281.833,-61.5 278,-57.6667 278,-53.8333 278,-53.8333 278,-46.1667 278,-46.1667 278,-42.3333 281.833,-38.5 285.667,-38.5"/>
<text text-anchor="middle" x="296" y="-46.3" font-family="Arial" font-size="14.00">•</text>
</a>
</g>
<text text-anchor="middle" x="265.5" y="-26.8" font-family="Arial" font-size="14.00">3a1</text>
</g>
<!-- UC213&#45;&gt;UC213a1 -->
<g id="edge5" class="edge"><title>UC213:EXT&#45;&gt;UC213a1:JMP</title>
<g id="a_edge5"><a xlink:href="#UC21_3">
<path fill="none" stroke="black" d="M223,-160C223,-113.568 240.676,-99.9542 270.6,-69.2161"/>
<polygon fill="black" stroke="black" points="273.198,-71.5645 277.598,-61.9265 268.148,-66.717 273.198,-71.5645"/>
</a>
</g>
</g>
<!-- UC215 -->
<g id="node5" class="node"><title>UC215</title>
<g id="a_node5"><a xlink:title="System sets application state to hibernated. 
		 &#160;#(open:app_hibernated) #(mark:app_hibernated)">
<path fill="#ccebc5" stroke="black" d="M350.667,-161.5C350.667,-161.5 371.333,-161.5 371.333,-161.5 375.167,-161.5 379,-165.333 379,-169.167 379,-169.167 379,-176.833 379,-176.833 379,-180.667 375.167,-184.5 371.333,-184.5 371.333,-184.5 350.667,-184.5 350.667,-184.5 346.833,-184.5 343,-180.667 343,-176.833 343,-176.833 343,-169.167 343,-169.167 343,-165.333 346.833,-161.5 350.667,-161.5"/>
<text text-anchor="middle" x="361" y="-169.3" font-family="Arial" font-size="14.00">•</text>
</a>
</g>
<text text-anchor="middle" x="338.5" y="-149.8" font-family="Arial" font-size="14.00">5</text>
</g>
<!-- UC214&#45;&gt;UC215 -->
<g id="edge4" class="edge"><title>UC214:JMP&#45;&gt;UC215:JMP</title>
<g id="a_edge4"><a xlink:href="#UC21_4">
<path fill="none" stroke="black" d="M314.106,-173C319.882,-173 326.417,-173 332.735,-173"/>
<polygon fill="black" stroke="black" points="332.991,-176.5 342.991,-173 332.991,-169.5 332.991,-176.5"/>
</a>
</g>
</g>
<!-- UC213a2 -->
<g id="node7" class="node"><title>UC213a2</title>
<g id="a_node7"><a xlink:title="System finished (unsuccessfully) the hibernation.">
<path fill="#b3cde3" stroke="black" d="M350.667,-38.5C350.667,-38.5 371.333,-38.5 371.333,-38.5 375.167,-38.5 379,-42.3333 379,-46.1667 379,-46.1667 379,-53.8333 379,-53.8333 379,-57.6667 375.167,-61.5 371.333,-61.5 371.333,-61.5 350.667,-61.5 350.667,-61.5 346.833,-61.5 343,-57.6667 343,-53.8333 343,-53.8333 343,-46.1667 343,-46.1667 343,-42.3333 346.833,-38.5 350.667,-38.5"/>
<text text-anchor="middle" x="361" y="-46.3" font-family="Arial" font-size="14.00">•</text>
</a>
</g>
<text text-anchor="middle" x="330.5" y="-26.8" font-family="Arial" font-size="14.00">3a2</text>
</g>
<!-- UC213a1&#45;&gt;UC213a2 -->
<g id="edge6" class="edge"><title>UC213a1:JMP&#45;&gt;UC213a2:JMP</title>
<g id="a_edge6"><a xlink:href="#UC21_3a1">
<path fill="none" stroke="black" d="M314.106,-50C319.882,-50 326.417,-50 332.735,-50"/>
<polygon fill="black" stroke="black" points="332.991,-53.5001 342.991,-50 332.991,-46.5001 332.991,-53.5001"/>
</a>
</g>
</g>
<!-- UC213a3 -->
<g id="node8" class="node"><title>UC213a3</title>
<g id="a_node8"><a xlink:title="System notifies user about insufficient storage and 
		 &#160;&#160;&#160;proposes to hibernate application later #(abort) 
		 &#160;&#160;&#160;#(mark:hibernation_aborted)">
<path fill="#fbb4ae" stroke="black" d="M424.667,-38.5C424.667,-38.5 445.333,-38.5 445.333,-38.5 449.167,-38.5 453,-42.3333 453,-46.1667 453,-46.1667 453,-53.8333 453,-53.8333 453,-57.6667 449.167,-61.5 445.333,-61.5 445.333,-61.5 424.667,-61.5 424.667,-61.5 420.833,-61.5 417,-57.6667 417,-53.8333 417,-53.8333 417,-46.1667 417,-46.1667 417,-42.3333 420.833,-38.5 424.667,-38.5"/>
<text text-anchor="middle" x="435" y="-46.3" font-family="Arial" font-size="14.00">•</text>
</a>
</g>
<text text-anchor="middle" x="404.5" y="-26.8" font-family="Arial" font-size="14.00">3a3</text>
</g>
<!-- UC213a2&#45;&gt;UC213a3 -->
<g id="edge7" class="edge"><title>UC213a2:JMP&#45;&gt;UC213a3:JMP</title>
<g id="a_edge7"><a xlink:href="#UC21_3a2">
<path fill="none" stroke="black" d="M379.292,-50C387.536,-50 397.462,-50 406.638,-50"/>
<polygon fill="black" stroke="black" points="406.918,-53.5001 416.918,-50 406.918,-46.5001 406.918,-53.5001"/>
</a>
</g>
</g>
</g>
</svg>
