<?xml version="1.0" encoding="UTF-8" standalone="no"?>
<!DOCTYPE svg PUBLIC "-//W3C//DTD SVG 1.1//EN"
 "http://www.w3.org/Graphics/SVG/1.1/DTD/svg11.dtd">
<!-- Generated by graphviz version 2.35.20131004.0446 (20131004.0446)
 -->
<!-- Title: mygraph Pages: 1 -->
<svg width="844pt" height="567pt"
 viewBox="62.00 62.00 781.89 505.47" xmlns="http://www.w3.org/2000/svg" xmlns:xlink="http://www.w3.org/1999/xlink">
<g id="graph0" class="graph" transform="scale(0.861111 0.861111) rotate(0) translate(76 583)">
<title>mygraph</title>
<polygon fill="white" stroke="white" points="-4,4 -4,-511 832,-511 832,4 -4,4"/>
<g id="clust1" class="cluster"><title>cluster_UC102</title>
<polygon fill="#ffffcc" stroke="black" points="336,-192 336,-276 820,-276 820,-192 336,-192"/>
</g>
<g id="clust2" class="cluster"><title>cluster_UC1024b2a</title>
<polygon fill="#f2f2f2" stroke="black" points="1,-131 1,-253 328,-253 328,-131 1,-131"/>
<text text-anchor="start" x="9" y="-237.8" font-family="Arial" font-size="14.00" fill="gray">Variation: 4b2a.</text>
<text text-anchor="middle" x="164.5" y="-222.8" font-family="Arial" font-size="14.00" fill="gray"> Candidate logged to the system for the first time </text>
</g>
<g id="clust3" class="cluster"><title>cluster_UC1024a</title>
<polygon fill="#f2f2f2" stroke="black" points="116,-377 116,-499 450,-499 450,-377 116,-377"/>
<text text-anchor="start" x="124" y="-483.8" font-family="Arial" font-size="14.00" fill="gray">Extension: 4a.</text>
<text text-anchor="middle" x="252.5" y="-468.8" font-family="Arial" font-size="14.00" fill="gray"> Some obligatory data was not provided. </text>
</g>
<g id="clust4" class="cluster"><title>cluster_UC1024b</title>
<polygon fill="#f2f2f2" stroke="black" points="116,-8 116,-130 450,-130 450,-8 116,-8"/>
<text text-anchor="start" x="124" y="-114.8" font-family="Arial" font-size="14.00" fill="gray">Extension: 4b.</text>
<text text-anchor="middle" x="258.5" y="-99.8" font-family="Arial" font-size="14.00" fill="gray"> Some data was provided in wrong format. </text>
</g>
<g id="clust5" class="cluster"><title>cluster_UC1024a2a</title>
<polygon fill="#f2f2f2" stroke="black" points="1,-254 1,-376 328,-376 328,-254 1,-254"/>
<text text-anchor="start" x="9" y="-360.8" font-family="Arial" font-size="14.00" fill="gray">Variation: 4a2a.</text>
<text text-anchor="middle" x="164.5" y="-345.8" font-family="Arial" font-size="14.00" fill="gray"> Candidate logged to the system for the first time </text>
</g>
<!-- UC1021 -->
<g id="node1" class="node"><title>UC1021</title>
<g id="a_node1"><a xlink:title="Candidate provides personal information.">
<path fill="#b3cde3" stroke="black" d="M373.667,-222.5C373.667,-222.5 394.333,-222.5 394.333,-222.5 398.167,-222.5 402,-226.333 402,-230.167 402,-230.167 402,-237.833 402,-237.833 402,-241.667 398.167,-245.5 394.333,-245.5 394.333,-245.5 373.667,-245.5 373.667,-245.5 369.833,-245.5 366,-241.667 366,-237.833 366,-237.833 366,-230.167 366,-230.167 366,-226.333 369.833,-222.5 373.667,-222.5"/>
<text text-anchor="middle" x="384" y="-230.3" font-family="Arial" font-size="14.00">•</text>
</a>
</g>
<text text-anchor="middle" x="361.5" y="-210.8" font-family="Arial" font-size="14.00">1</text>
</g>
<!-- UC1022 -->
<g id="node2" class="node"><title>UC1022</title>
<g id="a_node2"><a xlink:title="Candidate chooses to provide information concerning former education.">
<path fill="#b3cde3" stroke="black" d="M465.667,-222.5C465.667,-222.5 486.333,-222.5 486.333,-222.5 490.167,-222.5 494,-226.333 494,-230.167 494,-230.167 494,-237.833 494,-237.833 494,-241.667 490.167,-245.5 486.333,-245.5 486.333,-245.5 465.667,-245.5 465.667,-245.5 461.833,-245.5 458,-241.667 458,-237.833 458,-237.833 458,-230.167 458,-230.167 458,-226.333 461.833,-222.5 465.667,-222.5"/>
<text text-anchor="middle" x="476" y="-230.3" font-family="Arial" font-size="14.00">•</text>
</a>
</g>
<text text-anchor="middle" x="453.5" y="-210.8" font-family="Arial" font-size="14.00">2</text>
</g>
<!-- UC1021&#45;&gt;UC1022 -->
<g id="edge1" class="edge"><title>UC1021:JMP&#45;&gt;UC1022:JMP</title>
<g id="a_edge1"><a xlink:href="#UC102_1">
<path fill="none" stroke="black" d="M402.176,-234C415.155,-234 432.867,-234 447.689,-234"/>
<polygon fill="black" stroke="black" points="447.862,-237.5 457.862,-234 447.861,-230.5 447.862,-237.5"/>
</a>
</g>
</g>
<!-- UC1023 -->
<g id="node3" class="node"><title>UC1023</title>
<g id="a_node3"><a xlink:title="System presents the education data form.">
<path fill="#b3cde3" stroke="black" d="M530.667,-222.5C530.667,-222.5 551.333,-222.5 551.333,-222.5 555.167,-222.5 559,-226.333 559,-230.167 559,-230.167 559,-237.833 559,-237.833 559,-241.667 555.167,-245.5 551.333,-245.5 551.333,-245.5 530.667,-245.5 530.667,-245.5 526.833,-245.5 523,-241.667 523,-237.833 523,-237.833 523,-230.167 523,-230.167 523,-226.333 526.833,-222.5 530.667,-222.5"/>
<text text-anchor="middle" x="541" y="-230.3" font-family="Arial" font-size="14.00">•</text>
</a>
</g>
<text text-anchor="middle" x="518.5" y="-210.8" font-family="Arial" font-size="14.00">3</text>
</g>
<!-- UC1022&#45;&gt;UC1023 -->
<g id="edge2" class="edge"><title>UC1022:JMP&#45;&gt;UC1023:JMP</title>
<g id="a_edge2"><a xlink:href="#UC102_2">
<path fill="none" stroke="black" d="M494.106,-234C499.882,-234 506.417,-234 512.735,-234"/>
<polygon fill="black" stroke="black" points="512.991,-237.5 522.991,-234 512.991,-230.5 512.991,-237.5"/>
</a>
</g>
</g>
<!-- UC1024 -->
<g id="node4" class="node"><title>UC1024</title>
<g id="a_node4"><a xlink:title="Candidate fills the education data form and confirms.">
<path fill="#b3cde3" stroke="black" d="M595.667,-222.5C595.667,-222.5 652.333,-222.5 652.333,-222.5 656.167,-222.5 660,-226.333 660,-230.167 660,-230.167 660,-237.833 660,-237.833 660,-241.667 656.167,-245.5 652.333,-245.5 652.333,-245.5 595.667,-245.5 595.667,-245.5 591.833,-245.5 588,-241.667 588,-237.833 588,-237.833 588,-230.167 588,-230.167 588,-226.333 591.833,-222.5 595.667,-222.5"/>
<text text-anchor="middle" x="606.5" y="-230.3" font-family="Arial" font-size="14.00">•</text>
<polyline fill="none" stroke="black" points="625,-222.5 625,-245.5 "/>
<text text-anchor="middle" x="642.5" y="-230.3" font-family="Arial" font-size="14.00"> </text>
</a>
</g>
<text text-anchor="middle" x="583.5" y="-210.8" font-family="Arial" font-size="14.00">4</text>
</g>
<!-- UC1023&#45;&gt;UC1024 -->
<g id="edge3" class="edge"><title>UC1023:JMP&#45;&gt;UC1024:JMP</title>
<g id="a_edge3"><a xlink:href="#UC102_3">
<path fill="none" stroke="black" d="M559.303,-234C565.008,-234 571.508,-234 577.977,-234"/>
<polygon fill="black" stroke="black" points="578,-237.5 588,-234 578,-230.5 578,-237.5"/>
</a>
</g>
</g>
<!-- UC1025 -->
<g id="node5" class="node"><title>UC1025</title>
<g id="a_node5"><a xlink:title="System stores the data.">
<path fill="#b3cde3" stroke="black" d="M696.667,-222.5C696.667,-222.5 717.333,-222.5 717.333,-222.5 721.167,-222.5 725,-226.333 725,-230.167 725,-230.167 725,-237.833 725,-237.833 725,-241.667 721.167,-245.5 717.333,-245.5 717.333,-245.5 696.667,-245.5 696.667,-245.5 692.833,-245.5 689,-241.667 689,-237.833 689,-237.833 689,-230.167 689,-230.167 689,-226.333 692.833,-222.5 696.667,-222.5"/>
<text text-anchor="middle" x="707" y="-230.3" font-family="Arial" font-size="14.00">•</text>
</a>
</g>
<text text-anchor="middle" x="684.5" y="-210.8" font-family="Arial" font-size="14.00">5</text>
</g>
<!-- UC1024&#45;&gt;UC1025 -->
<g id="edge4" class="edge"><title>UC1024:EXT&#45;&gt;UC1025:JMP</title>
<g id="a_edge4"><a xlink:href="#UC102_4">
<path fill="none" stroke="black" d="M660,-234C665.916,-234 672.25,-234 678.292,-234"/>
<polygon fill="black" stroke="black" points="678.697,-237.5 688.697,-234 678.697,-230.5 678.697,-237.5"/>
</a>
</g>
</g>
<!-- UC1024a1 -->
<g id="node8" class="node"><title>UC1024a1</title>
<g id="a_node8"><a xlink:title="System informs that required some data was not provided and highlights the missing fields.">
<path fill="#b3cde3" stroke="black" d="M153.667,-407.5C153.667,-407.5 174.333,-407.5 174.333,-407.5 178.167,-407.5 182,-411.333 182,-415.167 182,-415.167 182,-422.833 182,-422.833 182,-426.667 178.167,-430.5 174.333,-430.5 174.333,-430.5 153.667,-430.5 153.667,-430.5 149.833,-430.5 146,-426.667 146,-422.833 146,-422.833 146,-415.167 146,-415.167 146,-411.333 149.833,-407.5 153.667,-407.5"/>
<text text-anchor="middle" x="164" y="-415.3" font-family="Arial" font-size="14.00">•</text>
</a>
</g>
<text text-anchor="middle" x="133.5" y="-395.8" font-family="Arial" font-size="14.00">4a1</text>
</g>
<!-- UC1024&#45;&gt;UC1024a1 -->
<g id="edge8" class="edge"><title>UC1024:EXT&#45;&gt;UC1024a1:JMP</title>
<g id="a_edge8"><a xlink:href="#UC102_4">
<path fill="none" stroke="black" d="M643,-247C643,-367.681 561.615,-392.108 450,-438 361.548,-474.368 244.714,-445.423 191.964,-428.732"/>
<polygon fill="black" stroke="black" points="192.889,-425.352 182.296,-425.581 190.719,-432.008 192.889,-425.352"/>
</a>
</g>
</g>
<!-- UC1024b1 -->
<g id="node10" class="node"><title>UC1024b1</title>
<g id="a_node10"><a xlink:title="System informs that some data was not provided correctly and highlights the fields that were consider as wrongly formatted.">
<path fill="#b3cde3" stroke="black" d="M153.667,-38.5C153.667,-38.5 174.333,-38.5 174.333,-38.5 178.167,-38.5 182,-42.3333 182,-46.1667 182,-46.1667 182,-53.8333 182,-53.8333 182,-57.6667 178.167,-61.5 174.333,-61.5 174.333,-61.5 153.667,-61.5 153.667,-61.5 149.833,-61.5 146,-57.6667 146,-53.8333 146,-53.8333 146,-46.1667 146,-46.1667 146,-42.3333 149.833,-38.5 153.667,-38.5"/>
<text text-anchor="middle" x="164" y="-46.3" font-family="Arial" font-size="14.00">•</text>
</a>
</g>
<text text-anchor="middle" x="133.5" y="-26.8" font-family="Arial" font-size="14.00">4b1</text>
</g>
<!-- UC1024&#45;&gt;UC1024b1 -->
<g id="edge11" class="edge"><title>UC1024:EXT&#45;&gt;UC1024b1:JMP</title>
<g id="a_edge11"><a xlink:href="#UC102_4">
<path fill="none" stroke="black" d="M643,-221C643,-100.631 561.386,-76.6273 450,-31 361.5,5.25229 244.691,-23.6353 191.956,-40.2894"/>
<polygon fill="black" stroke="black" points="190.717,-37.0118 182.29,-43.4341 192.882,-43.6683 190.717,-37.0118"/>
</a>
</g>
</g>
<!-- UC1026 -->
<g id="node6" class="node"><title>UC1026</title>
<g id="a_node6"><a xlink:title="System displays a confirmation message.">
<path fill="#ccebc5" stroke="black" d="M761.667,-222.5C761.667,-222.5 782.333,-222.5 782.333,-222.5 786.167,-222.5 790,-226.333 790,-230.167 790,-230.167 790,-237.833 790,-237.833 790,-241.667 786.167,-245.5 782.333,-245.5 782.333,-245.5 761.667,-245.5 761.667,-245.5 757.833,-245.5 754,-241.667 754,-237.833 754,-237.833 754,-230.167 754,-230.167 754,-226.333 757.833,-222.5 761.667,-222.5"/>
<text text-anchor="middle" x="772" y="-230.3" font-family="Arial" font-size="14.00">•</text>
</a>
</g>
<text text-anchor="middle" x="749.5" y="-210.8" font-family="Arial" font-size="14.00">6</text>
</g>
<!-- UC1025&#45;&gt;UC1026 -->
<g id="edge5" class="edge"><title>UC1025:JMP&#45;&gt;UC1026:JMP</title>
<g id="a_edge5"><a xlink:href="#UC102_5">
<path fill="none" stroke="black" d="M725.106,-234C730.882,-234 737.417,-234 743.735,-234"/>
<polygon fill="black" stroke="black" points="743.991,-237.5 753.991,-234 743.991,-230.5 743.991,-237.5"/>
</a>
</g>
</g>
<!-- UC1024b2a1 -->
<g id="node7" class="node"><title>UC1024b2a1</title>
<g id="a_node7"><a xlink:title="Go back to step 1.">
<path fill="#b3cde3" stroke="black" d="M153.667,-161.5C153.667,-161.5 174.333,-161.5 174.333,-161.5 178.167,-161.5 182,-165.333 182,-169.167 182,-169.167 182,-176.833 182,-176.833 182,-180.667 178.167,-184.5 174.333,-184.5 174.333,-184.5 153.667,-184.5 153.667,-184.5 149.833,-184.5 146,-180.667 146,-176.833 146,-176.833 146,-169.167 146,-169.167 146,-165.333 149.833,-161.5 153.667,-161.5"/>
<text text-anchor="middle" x="164" y="-169.3" font-family="Arial" font-size="14.00">•</text>
</a>
</g>
<text text-anchor="middle" x="125.5" y="-149.8" font-family="Arial" font-size="14.00">4b2a1</text>
</g>
<!-- UC1024b2a1&#45;&gt;UC1021 -->
<g id="edge7" class="edge"><title>UC1024b2a1:JMP&#45;&gt;UC1021:JMP</title>
<g id="a_edge7"><a xlink:href="#UC102_4b2a1">
<path fill="none" stroke="black" d="M182.004,-177.992C220.276,-188.604 309.969,-213.473 355.865,-226.199"/>
<polygon fill="black" stroke="black" points="355.176,-229.64 365.748,-228.939 357.046,-222.894 355.176,-229.64"/>
</a>
</g>
</g>
<!-- UC1024a2 -->
<g id="node9" class="node"><title>UC1024a2</title>
<g id="a_node9"><a xlink:title="Go back to step 2.">
<path fill="#b3cde3" stroke="black" d="M355.667,-407.5C355.667,-407.5 412.333,-407.5 412.333,-407.5 416.167,-407.5 420,-411.333 420,-415.167 420,-415.167 420,-422.833 420,-422.833 420,-426.667 416.167,-430.5 412.333,-430.5 412.333,-430.5 355.667,-430.5 355.667,-430.5 351.833,-430.5 348,-426.667 348,-422.833 348,-422.833 348,-415.167 348,-415.167 348,-411.333 351.833,-407.5 355.667,-407.5"/>
<text text-anchor="middle" x="365.5" y="-415.3" font-family="Arial" font-size="14.00"> </text>
<polyline fill="none" stroke="black" points="383,-407.5 383,-430.5 "/>
<text text-anchor="middle" x="401.5" y="-415.3" font-family="Arial" font-size="14.00">•</text>
</a>
</g>
<text text-anchor="middle" x="335.5" y="-395.8" font-family="Arial" font-size="14.00">4a2</text>
</g>
<!-- UC1024a1&#45;&gt;UC1024a2 -->
<g id="edge9" class="edge"><title>UC1024a1:JMP&#45;&gt;UC1024a2:VAR</title>
<g id="a_edge9"><a xlink:href="#UC102_4a1">
<path fill="none" stroke="black" d="M182.182,-419C213.208,-419 278.653,-419 336.644,-419"/>
<polygon fill="black" stroke="black" points="337,-422.5 347,-419 337,-415.5 337,-422.5"/>
</a>
</g>
</g>
<!-- UC1024a2&#45;&gt;UC1022 -->
<g id="edge10" class="edge"><title>UC1024a2:JMP&#45;&gt;UC1022:JMP</title>
<g id="a_edge10"><a xlink:href="#UC102_4a2">
<path fill="none" stroke="black" d="M402,-406C402,-345.659 432.29,-336.684 450,-279 453.204,-268.564 451.394,-262.319 453.31,-255.071"/>
<polygon fill="black" stroke="black" points="456.595,-256.318 457.795,-245.791 450.292,-253.272 456.595,-256.318"/>
</a>
</g>
</g>
<!-- UC1024a2a1 -->
<g id="node12" class="node"><title>UC1024a2a1</title>
<g id="a_node12"><a xlink:title="Go back to step 1.">
<path fill="#b3cde3" stroke="black" d="M153.667,-284.5C153.667,-284.5 174.333,-284.5 174.333,-284.5 178.167,-284.5 182,-288.333 182,-292.167 182,-292.167 182,-299.833 182,-299.833 182,-303.667 178.167,-307.5 174.333,-307.5 174.333,-307.5 153.667,-307.5 153.667,-307.5 149.833,-307.5 146,-303.667 146,-299.833 146,-299.833 146,-292.167 146,-292.167 146,-288.333 149.833,-284.5 153.667,-284.5"/>
<text text-anchor="middle" x="164" y="-292.3" font-family="Arial" font-size="14.00">•</text>
</a>
</g>
<text text-anchor="middle" x="126" y="-272.8" font-family="Arial" font-size="14.00">4a2a1</text>
</g>
<!-- UC1024a2&#45;&gt;UC1024a2a1 -->
<g id="edge14" class="edge"><title>UC1024a2:VAR&#45;&gt;UC1024a2a1:JMP</title>
<g id="a_edge14"><a xlink:href="#UC102_4a2">
<path fill="none" stroke="black" d="M347,-419C325.29,-419 343.006,-389.688 328,-374 290.015,-334.289 227.733,-312.495 191.846,-302.629"/>
<polygon fill="black" stroke="black" points="192.6,-299.209 182.038,-300.05 190.819,-305.978 192.6,-299.209"/>
</a>
</g>
</g>
<!-- UC1024b2 -->
<g id="node11" class="node"><title>UC1024b2</title>
<g id="a_node11"><a xlink:title="Go back to step 2.">
<path fill="#b3cde3" stroke="black" d="M355.667,-38.5C355.667,-38.5 412.333,-38.5 412.333,-38.5 416.167,-38.5 420,-42.3333 420,-46.1667 420,-46.1667 420,-53.8333 420,-53.8333 420,-57.6667 416.167,-61.5 412.333,-61.5 412.333,-61.5 355.667,-61.5 355.667,-61.5 351.833,-61.5 348,-57.6667 348,-53.8333 348,-53.8333 348,-46.1667 348,-46.1667 348,-42.3333 351.833,-38.5 355.667,-38.5"/>
<text text-anchor="middle" x="365.5" y="-46.3" font-family="Arial" font-size="14.00"> </text>
<polyline fill="none" stroke="black" points="383,-38.5 383,-61.5 "/>
<text text-anchor="middle" x="401.5" y="-46.3" font-family="Arial" font-size="14.00">•</text>
</a>
</g>
<text text-anchor="middle" x="335.5" y="-26.8" font-family="Arial" font-size="14.00">4b2</text>
</g>
<!-- UC1024b1&#45;&gt;UC1024b2 -->
<g id="edge12" class="edge"><title>UC1024b1:JMP&#45;&gt;UC1024b2:VAR</title>
<g id="a_edge12"><a xlink:href="#UC102_4b1">
<path fill="none" stroke="black" d="M182.182,-50C213.208,-50 278.653,-50 336.644,-50"/>
<polygon fill="black" stroke="black" points="337,-53.5001 347,-50 337,-46.5001 337,-53.5001"/>
</a>
</g>
</g>
<!-- UC1024b2&#45;&gt;UC1022 -->
<g id="edge13" class="edge"><title>UC1024b2:JMP&#45;&gt;UC1022:JMP</title>
<g id="a_edge13"><a xlink:href="#UC102_4b2">
<path fill="none" stroke="black" d="M402,-63C402,-122.926 432.337,-131.736 450,-189 453.218,-199.431 451.402,-205.678 453.313,-212.927"/>
<polygon fill="black" stroke="black" points="450.295,-214.725 457.795,-222.209 456.598,-211.682 450.295,-214.725"/>
</a>
</g>
</g>
<!-- UC1024b2&#45;&gt;UC1024b2a1 -->
<g id="edge6" class="edge"><title>UC1024b2:VAR&#45;&gt;UC1024b2a1:JMP</title>
<g id="a_edge6"><a xlink:href="#UC102_4b2">
<path fill="none" stroke="black" d="M347,-50C309.157,-50 354.569,-106.052 328,-133 292.199,-169.313 229.301,-174.742 192.68,-174.494"/>
<polygon fill="black" stroke="black" points="192.293,-170.985 182.218,-174.263 192.138,-177.983 192.293,-170.985"/>
</a>
</g>
</g>
<!-- UC1024a2a1&#45;&gt;UC1021 -->
<g id="edge15" class="edge"><title>UC1024a2a1:JMP&#45;&gt;UC1021:JMP</title>
<g id="a_edge15"><a xlink:href="#UC102_4a2a1">
<path fill="none" stroke="black" d="M182.424,-292.356C213.007,-286.118 276.034,-272.462 328,-256 337.261,-253.066 347.184,-249.361 356.065,-245.831"/>
<polygon fill="black" stroke="black" points="357.614,-248.98 365.56,-241.972 354.978,-242.495 357.614,-248.98"/>
</a>
</g>
</g>
</g>
</svg>
