<?xml version="1.0" encoding="UTF-8" standalone="no"?>
<!DOCTYPE svg PUBLIC "-//W3C//DTD SVG 1.1//EN"
 "http://www.w3.org/Graphics/SVG/1.1/DTD/svg11.dtd">
<!-- Generated by graphviz version 2.35.20131004.0446 (20131004.0446)
 -->
<!-- Title: mygraph Pages: 1 -->
<svg width="617pt" height="323pt"
 viewBox="62.00 62.00 554.56 260.92" xmlns="http://www.w3.org/2000/svg" xmlns:xlink="http://www.w3.org/1999/xlink">
<g id="graph0" class="graph" transform="scale(0.861111 0.861111) rotate(0) translate(76 299)">
<title>mygraph</title>
<polygon fill="white" stroke="white" points="-4,4 -4,-227 568,-227 568,4 -4,4"/>
<g id="clust1" class="cluster"><title>cluster_UC103</title>
<polygon fill="#ffffcc" stroke="black" points="8,-131 8,-215 416,-215 416,-131 8,-131"/>
</g>
<g id="clust2" class="cluster"><title>cluster_UC1033a</title>
<polygon fill="#f2f2f2" stroke="black" points="248,-8 248,-130 563,-130 563,-8 248,-8"/>
<text text-anchor="start" x="256" y="-114.8" font-family="Arial" font-size="14.00" fill="gray">Extension: 3a.</text>
<text text-anchor="middle" x="405.5" y="-99.8" font-family="Arial" font-size="14.00" fill="gray"> Candidate would like to apply for more majors. </text>
</g>
<!-- UC1031 -->
<g id="node1" class="node"><title>UC1031</title>
<g id="a_node1"><a xlink:title="Candidate chooses the adding−new−major option.">
<path fill="#b3cde3" stroke="black" d="M45.6667,-161.5C45.6667,-161.5 66.3333,-161.5 66.3333,-161.5 70.1667,-161.5 74,-165.333 74,-169.167 74,-169.167 74,-176.833 74,-176.833 74,-180.667 70.1667,-184.5 66.3333,-184.5 66.3333,-184.5 45.6667,-184.5 45.6667,-184.5 41.8333,-184.5 38,-180.667 38,-176.833 38,-176.833 38,-169.167 38,-169.167 38,-165.333 41.8333,-161.5 45.6667,-161.5"/>
<text text-anchor="middle" x="56" y="-169.3" font-family="Arial" font-size="14.00">•</text>
</a>
</g>
<text text-anchor="middle" x="33.5" y="-149.8" font-family="Arial" font-size="14.00">1</text>
</g>
<!-- UC1032 -->
<g id="node2" class="node"><title>UC1032</title>
<g id="a_node2"><a xlink:title="System presents a list of majors for which admission is available.">
<path fill="#b3cde3" stroke="black" d="M110.667,-161.5C110.667,-161.5 131.333,-161.5 131.333,-161.5 135.167,-161.5 139,-165.333 139,-169.167 139,-169.167 139,-176.833 139,-176.833 139,-180.667 135.167,-184.5 131.333,-184.5 131.333,-184.5 110.667,-184.5 110.667,-184.5 106.833,-184.5 103,-180.667 103,-176.833 103,-176.833 103,-169.167 103,-169.167 103,-165.333 106.833,-161.5 110.667,-161.5"/>
<text text-anchor="middle" x="121" y="-169.3" font-family="Arial" font-size="14.00">•</text>
</a>
</g>
<text text-anchor="middle" x="98.5" y="-149.8" font-family="Arial" font-size="14.00">2</text>
</g>
<!-- UC1031&#45;&gt;UC1032 -->
<g id="edge1" class="edge"><title>UC1031:JMP&#45;&gt;UC1032:JMP</title>
<g id="a_edge1"><a xlink:href="#UC103_1">
<path fill="none" stroke="black" d="M74.1061,-173C79.8817,-173 86.4172,-173 92.7354,-173"/>
<polygon fill="black" stroke="black" points="92.991,-176.5 102.991,-173 92.9909,-169.5 92.991,-176.5"/>
</a>
</g>
</g>
<!-- UC1033 -->
<g id="node3" class="node"><title>UC1033</title>
<g id="a_node3"><a xlink:title="Candidate chooses a major.">
<path fill="#b3cde3" stroke="black" d="M175.667,-161.5C175.667,-161.5 232.333,-161.5 232.333,-161.5 236.167,-161.5 240,-165.333 240,-169.167 240,-169.167 240,-176.833 240,-176.833 240,-180.667 236.167,-184.5 232.333,-184.5 232.333,-184.5 175.667,-184.5 175.667,-184.5 171.833,-184.5 168,-180.667 168,-176.833 168,-176.833 168,-169.167 168,-169.167 168,-165.333 171.833,-161.5 175.667,-161.5"/>
<text text-anchor="middle" x="186.5" y="-169.3" font-family="Arial" font-size="14.00">•</text>
<polyline fill="none" stroke="black" points="205,-161.5 205,-184.5 "/>
<text text-anchor="middle" x="222.5" y="-169.3" font-family="Arial" font-size="14.00"> </text>
</a>
</g>
<text text-anchor="middle" x="163.5" y="-149.8" font-family="Arial" font-size="14.00">3</text>
</g>
<!-- UC1032&#45;&gt;UC1033 -->
<g id="edge2" class="edge"><title>UC1032:JMP&#45;&gt;UC1033:JMP</title>
<g id="a_edge2"><a xlink:href="#UC103_2">
<path fill="none" stroke="black" d="M139.303,-173C145.008,-173 151.508,-173 157.977,-173"/>
<polygon fill="black" stroke="black" points="158,-176.5 168,-173 158,-169.5 158,-176.5"/>
</a>
</g>
</g>
<!-- UC1034 -->
<g id="node4" class="node"><title>UC1034</title>
<g id="a_node4"><a xlink:title="System presents a list of majors chosen by Candidate.">
<path fill="#ccebc5" stroke="black" d="M357.667,-161.5C357.667,-161.5 378.333,-161.5 378.333,-161.5 382.167,-161.5 386,-165.333 386,-169.167 386,-169.167 386,-176.833 386,-176.833 386,-180.667 382.167,-184.5 378.333,-184.5 378.333,-184.5 357.667,-184.5 357.667,-184.5 353.833,-184.5 350,-180.667 350,-176.833 350,-176.833 350,-169.167 350,-169.167 350,-165.333 353.833,-161.5 357.667,-161.5"/>
<text text-anchor="middle" x="368" y="-169.3" font-family="Arial" font-size="14.00">•</text>
</a>
</g>
<text text-anchor="middle" x="345.5" y="-149.8" font-family="Arial" font-size="14.00">4</text>
</g>
<!-- UC1033&#45;&gt;UC1034 -->
<g id="edge3" class="edge"><title>UC1033:EXT&#45;&gt;UC1034:JMP</title>
<g id="a_edge3"><a xlink:href="#UC103_3">
<path fill="none" stroke="black" d="M240,-173C274.222,-173 313.591,-173 339.53,-173"/>
<polygon fill="black" stroke="black" points="339.771,-176.5 349.771,-173 339.771,-169.5 339.771,-176.5"/>
</a>
</g>
</g>
<!-- UC1033a1 -->
<g id="node5" class="node"><title>UC1033a1</title>
<g id="a_node5"><a xlink:title="Candidate chooses many majors.">
<path fill="#b3cde3" stroke="black" d="M357.667,-38.5C357.667,-38.5 378.333,-38.5 378.333,-38.5 382.167,-38.5 386,-42.3333 386,-46.1667 386,-46.1667 386,-53.8333 386,-53.8333 386,-57.6667 382.167,-61.5 378.333,-61.5 378.333,-61.5 357.667,-61.5 357.667,-61.5 353.833,-61.5 350,-57.6667 350,-53.8333 350,-53.8333 350,-46.1667 350,-46.1667 350,-42.3333 353.833,-38.5 357.667,-38.5"/>
<text text-anchor="middle" x="368" y="-46.3" font-family="Arial" font-size="14.00">•</text>
</a>
</g>
<text text-anchor="middle" x="337.5" y="-26.8" font-family="Arial" font-size="14.00">3a1</text>
</g>
<!-- UC1033&#45;&gt;UC1033a1 -->
<g id="edge4" class="edge"><title>UC1033:EXT&#45;&gt;UC1033a1:JMP</title>
<g id="a_edge4"><a xlink:href="#UC103_3">
<path fill="none" stroke="black" d="M240,-173C250.157,-173 242.396,-136.471 248,-128 270.224,-94.4097 312.414,-72.0854 340.376,-60.2271"/>
<polygon fill="black" stroke="black" points="342.023,-63.336 349.971,-56.3303 339.389,-56.8504 342.023,-63.336"/>
</a>
</g>
</g>
<!-- UC1033a2 -->
<g id="node6" class="node"><title>UC1033a2</title>
<g id="a_node6"><a xlink:title="Continue with step 4.">
<path fill="#b3cde3" stroke="black" d="M431.667,-38.5C431.667,-38.5 452.333,-38.5 452.333,-38.5 456.167,-38.5 460,-42.3333 460,-46.1667 460,-46.1667 460,-53.8333 460,-53.8333 460,-57.6667 456.167,-61.5 452.333,-61.5 452.333,-61.5 431.667,-61.5 431.667,-61.5 427.833,-61.5 424,-57.6667 424,-53.8333 424,-53.8333 424,-46.1667 424,-46.1667 424,-42.3333 427.833,-38.5 431.667,-38.5"/>
<text text-anchor="middle" x="442" y="-46.3" font-family="Arial" font-size="14.00">•</text>
</a>
</g>
<text text-anchor="middle" x="411.5" y="-26.8" font-family="Arial" font-size="14.00">3a2</text>
</g>
<!-- UC1033a1&#45;&gt;UC1033a2 -->
<g id="edge5" class="edge"><title>UC1033a1:JMP&#45;&gt;UC1033a2:JMP</title>
<g id="a_edge5"><a xlink:href="#UC103_3a1">
<path fill="none" stroke="black" d="M386.292,-50C394.536,-50 404.462,-50 413.638,-50"/>
<polygon fill="black" stroke="black" points="413.918,-53.5001 423.918,-50 413.918,-46.5001 413.918,-53.5001"/>
</a>
</g>
</g>
<!-- UC1033a2&#45;&gt;UC1034 -->
<g id="edge6" class="edge"><title>UC1033a2:JMP&#45;&gt;UC1034:JMP</title>
<g id="a_edge6"><a xlink:href="#UC103_3a2">
<path fill="none" stroke="black" d="M423.804,-61.8176C407.28,-88.7683 430.175,-104.477 416,-133 411.221,-142.617 402.959,-150.778 394.624,-157.171"/>
<polygon fill="black" stroke="black" points="392.555,-154.346 386.39,-162.962 396.583,-160.072 392.555,-154.346"/>
</a>
</g>
</g>
</g>
</svg>
