<?xml version="1.0" encoding="UTF-8" standalone="no"?>
<!DOCTYPE svg PUBLIC "-//W3C//DTD SVG 1.1//EN"
 "http://www.w3.org/Graphics/SVG/1.1/DTD/svg11.dtd">
<!-- Generated by graphviz version 2.36.0 (20140111.2315)
 -->
<!-- Title: mygraph Pages: 1 -->
<svg width="883pt" height="429pt"
 viewBox="62.00 62.00 821.50 366.83" xmlns="http://www.w3.org/2000/svg" xmlns:xlink="http://www.w3.org/1999/xlink">
<g id="graph0" class="graph" transform="scale(0.861111 0.861111) rotate(0) translate(76 422)">
<title>mygraph</title>
<polygon fill="white" stroke="none" points="-4,4 -4,-350 878,-350 878,4 -4,4"/>
<g id="clust1" class="cluster"><title>cluster_UC6_</title>
<polygon fill="#ffffcc" stroke="black" points="8,-254 8,-338 866,-338 866,-254 8,-254"/>
</g>
<g id="clust2" class="cluster"><title>cluster_UC6_2a</title>
<polygon fill="#f2f2f2" stroke="black" points="180,-131 180,-253 390,-253 390,-131 180,-131"/>
<text text-anchor="start" x="188" y="-237.8" font-family="Arial" font-size="14.00" fill="gray">Extension: 2a.</text>
<text text-anchor="middle" x="285" y="-222.8" font-family="Arial" font-size="14.00" fill="gray"> At least one of the entries is... </text>
</g>
<g id="clust3" class="cluster"><title>cluster_UC6_2b</title>
<polygon fill="#f2f2f2" stroke="black" points="235,-8 235,-130 467,-130 467,-8 235,-8"/>
<text text-anchor="start" x="243" y="-114.8" font-family="Arial" font-size="14.00" fill="gray">Extension: 2b.</text>
<text text-anchor="middle" x="351" y="-99.8" font-family="Arial" font-size="14.00" fill="gray"> Email address already associat... </text>
</g>
<!-- UC61 -->
<g id="node1" class="node"><title>UC61</title>
<g id="a_node1"><a xlink:title="User provides email, password, password confirmation 
		 &#160;and captcha.">
<path fill="#b3cde3" stroke="black" d="M45.6667,-284.5C45.6667,-284.5 66.3333,-284.5 66.3333,-284.5 70.1667,-284.5 74,-288.333 74,-292.167 74,-292.167 74,-299.833 74,-299.833 74,-303.667 70.1667,-307.5 66.3333,-307.5 66.3333,-307.5 45.6667,-307.5 45.6667,-307.5 41.8333,-307.5 38,-303.667 38,-299.833 38,-299.833 38,-292.167 38,-292.167 38,-288.333 41.8333,-284.5 45.6667,-284.5"/>
<text text-anchor="middle" x="56" y="-292.3" font-family="Arial" font-size="14.00">•</text>
</a>
</g>
<text text-anchor="middle" x="33.5" y="-272.8" font-family="Arial" font-size="14.00">1</text>
</g>
<!-- UC62 -->
<g id="node2" class="node"><title>UC62</title>
<g id="a_node2"><a xlink:title="System validates the provided data.">
<path fill="#b3cde3" stroke="black" d="M110.667,-284.5C110.667,-284.5 167.333,-284.5 167.333,-284.5 171.167,-284.5 175,-288.333 175,-292.167 175,-292.167 175,-299.833 175,-299.833 175,-303.667 171.167,-307.5 167.333,-307.5 167.333,-307.5 110.667,-307.5 110.667,-307.5 106.833,-307.5 103,-303.667 103,-299.833 103,-299.833 103,-292.167 103,-292.167 103,-288.333 106.833,-284.5 110.667,-284.5"/>
<text text-anchor="middle" x="121.5" y="-292.3" font-family="Arial" font-size="14.00">•</text>
<polyline fill="none" stroke="black" points="140,-284.5 140,-307.5 "/>
<text text-anchor="middle" x="157.5" y="-292.3" font-family="Arial" font-size="14.00"> </text>
</a>
</g>
<text text-anchor="middle" x="98.5" y="-272.8" font-family="Arial" font-size="14.00">2</text>
</g>
<!-- UC61&#45;&gt;UC62 -->
<g id="edge1" class="edge"><title>UC61:JMP&#45;&gt;UC62:JMP</title>
<g id="a_edge1"><a xlink:href="#UC6_1">
<path fill="none" stroke="black" d="M74.3026,-296C80.0084,-296 86.5079,-296 92.9772,-296"/>
<polygon fill="black" stroke="black" points="93,-299.5 103,-296 93,-292.5 93,-299.5"/>
</a>
</g>
</g>
<!-- UC63 -->
<g id="node3" class="node"><title>UC63</title>
<g id="a_node3"><a xlink:title="System sends email to given email address to verify 
		 &#160;that user has access to the given mailbox.">
<path fill="#b3cde3" stroke="black" d="M274.667,-284.5C274.667,-284.5 295.333,-284.5 295.333,-284.5 299.167,-284.5 303,-288.333 303,-292.167 303,-292.167 303,-299.833 303,-299.833 303,-303.667 299.167,-307.5 295.333,-307.5 295.333,-307.5 274.667,-307.5 274.667,-307.5 270.833,-307.5 267,-303.667 267,-299.833 267,-299.833 267,-292.167 267,-292.167 267,-288.333 270.833,-284.5 274.667,-284.5"/>
<text text-anchor="middle" x="285" y="-292.3" font-family="Arial" font-size="14.00">•</text>
</a>
</g>
<text text-anchor="middle" x="262.5" y="-272.8" font-family="Arial" font-size="14.00">3</text>
</g>
<!-- UC62&#45;&gt;UC63 -->
<g id="edge2" class="edge"><title>UC62:EXT&#45;&gt;UC63:JMP</title>
<g id="a_edge2"><a xlink:href="#UC6_2">
<path fill="none" stroke="black" d="M175,-296C202.736,-296 234.405,-296 256.618,-296"/>
<polygon fill="black" stroke="black" points="256.704,-299.5 266.704,-296 256.704,-292.5 256.704,-299.5"/>
</a>
</g>
</g>
<!-- UC62a1 -->
<g id="node11" class="node"><title>UC62a1</title>
<g id="a_node11"><a xlink:title="System shows message with given problem. #(abort)">
<path fill="#fbb4ae" stroke="black" d="M274.667,-161.5C274.667,-161.5 295.333,-161.5 295.333,-161.5 299.167,-161.5 303,-165.333 303,-169.167 303,-169.167 303,-176.833 303,-176.833 303,-180.667 299.167,-184.5 295.333,-184.5 295.333,-184.5 274.667,-184.5 274.667,-184.5 270.833,-184.5 267,-180.667 267,-176.833 267,-176.833 267,-169.167 267,-169.167 267,-165.333 270.833,-161.5 274.667,-161.5"/>
<text text-anchor="middle" x="285" y="-169.3" font-family="Arial" font-size="14.00">•</text>
</a>
</g>
<text text-anchor="middle" x="254.5" y="-149.8" font-family="Arial" font-size="14.00">2a1</text>
</g>
<!-- UC62&#45;&gt;UC62a1 -->
<g id="edge10" class="edge"><title>UC62:EXT&#45;&gt;UC62a1:JMP</title>
<g id="a_edge10"><a xlink:href="#UC6_2">
<path fill="none" stroke="black" d="M175,-296C185.062,-296 175.05,-259.759 180,-251 197.459,-220.108 232.724,-197.868 257.554,-185.227"/>
<polygon fill="black" stroke="black" points="259.372,-188.234 266.824,-180.702 256.302,-181.943 259.372,-188.234"/>
</a>
</g>
</g>
<!-- UC62b1 -->
<g id="node12" class="node"><title>UC62b1</title>
<g id="a_node12"><a xlink:title="System shows message that the email address is already 
		 &#160;&#160;&#160;associated with an account. #(guard:account_created)">
<path fill="#b3cde3" stroke="black" d="M274.667,-38.5C274.667,-38.5 295.333,-38.5 295.333,-38.5 299.167,-38.5 303,-42.3333 303,-46.1667 303,-46.1667 303,-53.8333 303,-53.8333 303,-57.6667 299.167,-61.5 295.333,-61.5 295.333,-61.5 274.667,-61.5 274.667,-61.5 270.833,-61.5 267,-57.6667 267,-53.8333 267,-53.8333 267,-46.1667 267,-46.1667 267,-42.3333 270.833,-38.5 274.667,-38.5"/>
<text text-anchor="middle" x="285" y="-46.3" font-family="Arial" font-size="14.00">•</text>
</a>
</g>
<text text-anchor="middle" x="254.5" y="-26.8" font-family="Arial" font-size="14.00">2b1</text>
</g>
<!-- UC62&#45;&gt;UC62b1 -->
<g id="edge11" class="edge"><title>UC62:EXT&#45;&gt;UC62b1:JMP</title>
<g id="a_edge11"><a xlink:href="#UC6_2">
<path fill="none" stroke="black" d="M158,-283C158,-248.21 162.425,-158.024 180,-128 197.925,-97.3767 233.088,-75.077 257.766,-62.349"/>
<polygon fill="black" stroke="black" points="259.566,-65.3633 266.975,-57.7893 256.46,-59.0902 259.566,-65.3633"/>
</a>
</g>
</g>
<!-- UC64 -->
<g id="node4" class="node"><title>UC64</title>
<g id="a_node4"><a xlink:title="System notifies the user to proceed by following 
		 &#160;instructions in the sent email.">
<path fill="#b3cde3" stroke="black" d="M405.667,-284.5C405.667,-284.5 426.333,-284.5 426.333,-284.5 430.167,-284.5 434,-288.333 434,-292.167 434,-292.167 434,-299.833 434,-299.833 434,-303.667 430.167,-307.5 426.333,-307.5 426.333,-307.5 405.667,-307.5 405.667,-307.5 401.833,-307.5 398,-303.667 398,-299.833 398,-299.833 398,-292.167 398,-292.167 398,-288.333 401.833,-284.5 405.667,-284.5"/>
<text text-anchor="middle" x="416" y="-292.3" font-family="Arial" font-size="14.00">•</text>
</a>
</g>
<text text-anchor="middle" x="393.5" y="-272.8" font-family="Arial" font-size="14.00">4</text>
</g>
<!-- UC63&#45;&gt;UC64 -->
<g id="edge3" class="edge"><title>UC63:JMP&#45;&gt;UC64:JMP</title>
<g id="a_edge3"><a xlink:href="#UC6_3">
<path fill="none" stroke="black" d="M303.215,-296C325.114,-296 362.114,-296 387.734,-296"/>
<polygon fill="black" stroke="black" points="387.94,-299.5 397.94,-296 387.94,-292.5 387.94,-299.5"/>
</a>
</g>
</g>
<!-- UC65 -->
<g id="node5" class="node"><title>UC65</title>
<g id="a_node5"><a xlink:title="User opens the email and follows the link (the link 
		 &#160;points to the page that continues in user&#39;s registration).">
<path fill="#b3cde3" stroke="black" d="M482.667,-284.5C482.667,-284.5 503.333,-284.5 503.333,-284.5 507.167,-284.5 511,-288.333 511,-292.167 511,-292.167 511,-299.833 511,-299.833 511,-303.667 507.167,-307.5 503.333,-307.5 503.333,-307.5 482.667,-307.5 482.667,-307.5 478.833,-307.5 475,-303.667 475,-299.833 475,-299.833 475,-292.167 475,-292.167 475,-288.333 478.833,-284.5 482.667,-284.5"/>
<text text-anchor="middle" x="493" y="-292.3" font-family="Arial" font-size="14.00">•</text>
</a>
</g>
<text text-anchor="middle" x="470.5" y="-272.8" font-family="Arial" font-size="14.00">5</text>
</g>
<!-- UC64&#45;&gt;UC65 -->
<g id="edge4" class="edge"><title>UC64:JMP&#45;&gt;UC65:JMP</title>
<g id="a_edge4"><a xlink:href="#UC6_4">
<path fill="none" stroke="black" d="M434.248,-296C443.358,-296 454.583,-296 464.772,-296"/>
<polygon fill="black" stroke="black" points="464.883,-299.5 474.883,-296 464.883,-292.5 464.883,-299.5"/>
</a>
</g>
</g>
<!-- UC66 -->
<g id="node6" class="node"><title>UC66</title>
<g id="a_node6"><a xlink:title="System presents legal terms.">
<path fill="#b3cde3" stroke="black" d="M547.667,-284.5C547.667,-284.5 568.333,-284.5 568.333,-284.5 572.167,-284.5 576,-288.333 576,-292.167 576,-292.167 576,-299.833 576,-299.833 576,-303.667 572.167,-307.5 568.333,-307.5 568.333,-307.5 547.667,-307.5 547.667,-307.5 543.833,-307.5 540,-303.667 540,-299.833 540,-299.833 540,-292.167 540,-292.167 540,-288.333 543.833,-284.5 547.667,-284.5"/>
<text text-anchor="middle" x="558" y="-292.3" font-family="Arial" font-size="14.00">•</text>
</a>
</g>
<text text-anchor="middle" x="535.5" y="-272.8" font-family="Arial" font-size="14.00">6</text>
</g>
<!-- UC65&#45;&gt;UC66 -->
<g id="edge5" class="edge"><title>UC65:JMP&#45;&gt;UC66:JMP</title>
<g id="a_edge5"><a xlink:href="#UC6_5">
<path fill="none" stroke="black" d="M511.106,-296C516.882,-296 523.417,-296 529.735,-296"/>
<polygon fill="black" stroke="black" points="529.991,-299.5 539.991,-296 529.991,-292.5 529.991,-299.5"/>
</a>
</g>
</g>
<!-- UC67 -->
<g id="node7" class="node"><title>UC67</title>
<g id="a_node7"><a xlink:title="User accepts the terms.">
<path fill="#b3cde3" stroke="black" d="M612.667,-284.5C612.667,-284.5 633.333,-284.5 633.333,-284.5 637.167,-284.5 641,-288.333 641,-292.167 641,-292.167 641,-299.833 641,-299.833 641,-303.667 637.167,-307.5 633.333,-307.5 633.333,-307.5 612.667,-307.5 612.667,-307.5 608.833,-307.5 605,-303.667 605,-299.833 605,-299.833 605,-292.167 605,-292.167 605,-288.333 608.833,-284.5 612.667,-284.5"/>
<text text-anchor="middle" x="623" y="-292.3" font-family="Arial" font-size="14.00">•</text>
</a>
</g>
<text text-anchor="middle" x="600.5" y="-272.8" font-family="Arial" font-size="14.00">7</text>
</g>
<!-- UC66&#45;&gt;UC67 -->
<g id="edge6" class="edge"><title>UC66:JMP&#45;&gt;UC67:JMP</title>
<g id="a_edge6"><a xlink:href="#UC6_6">
<path fill="none" stroke="black" d="M576.106,-296C581.882,-296 588.417,-296 594.735,-296"/>
<polygon fill="black" stroke="black" points="594.991,-299.5 604.991,-296 594.991,-292.5 594.991,-299.5"/>
</a>
</g>
</g>
<!-- UC68 -->
<g id="node8" class="node"><title>UC68</title>
<g id="a_node8"><a xlink:title="System creates new user account with given email and 
		 &#160;password. #(emit:email)">
<path fill="#b3cde3" stroke="black" d="M677.667,-284.5C677.667,-284.5 698.333,-284.5 698.333,-284.5 702.167,-284.5 706,-288.333 706,-292.167 706,-292.167 706,-299.833 706,-299.833 706,-303.667 702.167,-307.5 698.333,-307.5 698.333,-307.5 677.667,-307.5 677.667,-307.5 673.833,-307.5 670,-303.667 670,-299.833 670,-299.833 670,-292.167 670,-292.167 670,-288.333 673.833,-284.5 677.667,-284.5"/>
<text text-anchor="middle" x="688" y="-292.3" font-family="Arial" font-size="14.00">•</text>
</a>
</g>
<text text-anchor="middle" x="665.5" y="-272.8" font-family="Arial" font-size="14.00">8</text>
</g>
<!-- UC67&#45;&gt;UC68 -->
<g id="edge7" class="edge"><title>UC67:JMP&#45;&gt;UC68:JMP</title>
<g id="a_edge7"><a xlink:href="#UC6_7">
<path fill="none" stroke="black" d="M641.106,-296C646.882,-296 653.417,-296 659.735,-296"/>
<polygon fill="black" stroke="black" points="659.991,-299.5 669.991,-296 659.991,-292.5 659.991,-299.5"/>
</a>
</g>
</g>
<!-- UC69 -->
<g id="node9" class="node"><title>UC69</title>
<g id="a_node9"><a xlink:title="System assigns user free plan. #(mark:free_plan) 
		 &#160;#(emit:free_plan)">
<path fill="#b3cde3" stroke="black" d="M742.667,-284.5C742.667,-284.5 763.333,-284.5 763.333,-284.5 767.167,-284.5 771,-288.333 771,-292.167 771,-292.167 771,-299.833 771,-299.833 771,-303.667 767.167,-307.5 763.333,-307.5 763.333,-307.5 742.667,-307.5 742.667,-307.5 738.833,-307.5 735,-303.667 735,-299.833 735,-299.833 735,-292.167 735,-292.167 735,-288.333 738.833,-284.5 742.667,-284.5"/>
<text text-anchor="middle" x="753" y="-292.3" font-family="Arial" font-size="14.00">•</text>
</a>
</g>
<text text-anchor="middle" x="730.5" y="-272.8" font-family="Arial" font-size="14.00">9</text>
</g>
<!-- UC68&#45;&gt;UC69 -->
<g id="edge8" class="edge"><title>UC68:JMP&#45;&gt;UC69:JMP</title>
<g id="a_edge8"><a xlink:href="#UC6_8">
<path fill="none" stroke="black" d="M706.106,-296C711.882,-296 718.417,-296 724.735,-296"/>
<polygon fill="black" stroke="black" points="724.991,-299.5 734.991,-296 724.991,-292.5 724.991,-299.5"/>
</a>
</g>
</g>
<!-- UC610 -->
<g id="node10" class="node"><title>UC610</title>
<g id="a_node10"><a xlink:title="Use case finishes. #(mark:account_created)">
<path fill="#ccebc5" stroke="black" d="M807.667,-284.5C807.667,-284.5 828.333,-284.5 828.333,-284.5 832.167,-284.5 836,-288.333 836,-292.167 836,-292.167 836,-299.833 836,-299.833 836,-303.667 832.167,-307.5 828.333,-307.5 828.333,-307.5 807.667,-307.5 807.667,-307.5 803.833,-307.5 800,-303.667 800,-299.833 800,-299.833 800,-292.167 800,-292.167 800,-288.333 803.833,-284.5 807.667,-284.5"/>
<text text-anchor="middle" x="818" y="-292.3" font-family="Arial" font-size="14.00">•</text>
</a>
</g>
<text text-anchor="middle" x="791.5" y="-272.8" font-family="Arial" font-size="14.00">10</text>
</g>
<!-- UC69&#45;&gt;UC610 -->
<g id="edge9" class="edge"><title>UC69:JMP&#45;&gt;UC610:JMP</title>
<g id="a_edge9"><a xlink:href="#UC6_9">
<path fill="none" stroke="black" d="M771.106,-296C776.882,-296 783.417,-296 789.735,-296"/>
<polygon fill="black" stroke="black" points="789.991,-299.5 799.991,-296 789.991,-292.5 789.991,-299.5"/>
</a>
</g>
</g>
<!-- UC62b2 -->
<g id="node13" class="node"><title>UC62b2</title>
<g id="a_node13"><a xlink:title="System sends email to the given email address with login 
		 &#160;&#160;&#160;instructions. #(abort)">
<path fill="#fbb4ae" stroke="black" d="M405.667,-38.5C405.667,-38.5 426.333,-38.5 426.333,-38.5 430.167,-38.5 434,-42.3333 434,-46.1667 434,-46.1667 434,-53.8333 434,-53.8333 434,-57.6667 430.167,-61.5 426.333,-61.5 426.333,-61.5 405.667,-61.5 405.667,-61.5 401.833,-61.5 398,-57.6667 398,-53.8333 398,-53.8333 398,-46.1667 398,-46.1667 398,-42.3333 401.833,-38.5 405.667,-38.5"/>
<text text-anchor="middle" x="416" y="-46.3" font-family="Arial" font-size="14.00">•</text>
</a>
</g>
<text text-anchor="middle" x="385.5" y="-26.8" font-family="Arial" font-size="14.00">2b2</text>
</g>
<!-- UC62b1&#45;&gt;UC62b2 -->
<g id="edge12" class="edge"><title>UC62b1:JMP&#45;&gt;UC62b2:JMP</title>
<g id="a_edge12"><a xlink:href="#UC6_2b1">
<path fill="none" stroke="black" d="M303.215,-50C325.114,-50 362.114,-50 387.734,-50"/>
<polygon fill="black" stroke="black" points="387.94,-53.5001 397.94,-50 387.94,-46.5001 387.94,-53.5001"/>
</a>
</g>
</g>
</g>
</svg>
