<?xml version="1.0" encoding="UTF-8" standalone="no"?>
<!DOCTYPE svg PUBLIC "-//W3C//DTD SVG 1.1//EN"
 "http://www.w3.org/Graphics/SVG/1.1/DTD/svg11.dtd">
<!-- Generated by graphviz version 2.37.20140307.0545 (20140307.0545)
 -->
<!-- Title: mygraph Pages: 1 -->
<svg width="678pt" height="420pt"
 viewBox="62.00 62.00 615.69 358.22" xmlns="http://www.w3.org/2000/svg" xmlns:xlink="http://www.w3.org/1999/xlink">
<g id="graph0" class="graph" transform="scale(0.861111 0.861111) rotate(0) translate(76 412)">
<title>mygraph</title>
<polygon fill="white" stroke="none" points="-4,4 -4,-340 639,-340 639,4 -4,4"/>
<g id="clust1" class="cluster"><title>cluster_UC2</title>
<polygon fill="#ffffcc" stroke="black" points="223,-189 223,-273 605,-273 605,-189 223,-189"/>
</g>
<g id="clust2" class="cluster"><title>cluster_UC21a</title>
<polygon fill="#f2f2f2" stroke="black" points="0,-206 0,-328 215,-328 215,-206 0,-206"/>
<text text-anchor="start" x="8" y="-312.8" font-family="Arial" font-size="14.00" fill="gray">Extension: 1a.</text>
<text text-anchor="middle" x="107.5" y="-297.8" font-family="Arial" font-size="14.00" fill="gray"> Nepodari sa nadviazat kontakt. </text>
</g>
<g id="clust3" class="cluster"><title>cluster_UC21b</title>
<polygon fill="#f2f2f2" stroke="black" points="333,-66 333,-188 620,-188 620,-66 333,-66"/>
<text text-anchor="start" x="341" y="-172.8" font-family="Arial" font-size="14.00" fill="gray">Extension: 1b.</text>
<text text-anchor="middle" x="476.5" y="-157.8" font-family="Arial" font-size="14.00" fill="gray"> Nepodari sa nadviazat kontakt opakovane. </text>
</g>
<!-- UC21 -->
<g id="node1" class="node"><title>UC21</title>
<g id="a_node1"><a xlink:title="Koordinator kontaktuje klienta.">
<path fill="#b3cde3" stroke="black" d="M260.667,-219.5C260.667,-219.5 317.333,-219.5 317.333,-219.5 321.167,-219.5 325,-223.333 325,-227.167 325,-227.167 325,-234.833 325,-234.833 325,-238.667 321.167,-242.5 317.333,-242.5 317.333,-242.5 260.667,-242.5 260.667,-242.5 256.833,-242.5 253,-238.667 253,-234.833 253,-234.833 253,-227.167 253,-227.167 253,-223.333 256.833,-219.5 260.667,-219.5"/>
<text text-anchor="middle" x="271.5" y="-227.3" font-family="Arial" font-size="14.00">•</text>
<polyline fill="none" stroke="black" points="290,-219.5 290,-242.5 "/>
<text text-anchor="middle" x="307.5" y="-227.3" font-family="Arial" font-size="14.00"> </text>
</a>
</g>
<text text-anchor="middle" x="248.5" y="-207.8" font-family="Arial" font-size="14.00">1</text>
</g>
<!-- UC22 -->
<g id="node2" class="node"><title>UC22</title>
<g id="a_node2"><a xlink:title="Klient poskytne chybajuce info.">
<path fill="#b3cde3" stroke="black" d="M403.667,-219.5C403.667,-219.5 424.333,-219.5 424.333,-219.5 428.167,-219.5 432,-223.333 432,-227.167 432,-227.167 432,-234.833 432,-234.833 432,-238.667 428.167,-242.5 424.333,-242.5 424.333,-242.5 403.667,-242.5 403.667,-242.5 399.833,-242.5 396,-238.667 396,-234.833 396,-234.833 396,-227.167 396,-227.167 396,-223.333 399.833,-219.5 403.667,-219.5"/>
<text text-anchor="middle" x="414" y="-227.3" font-family="Arial" font-size="14.00">•</text>
</a>
</g>
<text text-anchor="middle" x="391.5" y="-207.8" font-family="Arial" font-size="14.00">2</text>
</g>
<!-- UC21&#45;&gt;UC22 -->
<g id="edge3" class="edge"><title>UC21:EXT&#45;&gt;UC22:JMP</title>
<g id="a_edge3"><a xlink:href="#UC2_1">
<path fill="none" stroke="black" d="M325,-231C345.345,-231 368.306,-231 385.81,-231"/>
<polygon fill="black" stroke="black" points="385.932,-234.5 395.931,-231 385.931,-227.5 385.932,-234.5"/>
</a>
</g>
</g>
<!-- UC21a1 -->
<g id="node4" class="node"><title>UC21a1</title>
<g id="a_node4"><a xlink:title="Koordinator si zaznamena do kalendara datum nasledovneho kontaktu.">
<path fill="#b3cde3" stroke="black" d="M64.6667,-236.5C64.6667,-236.5 85.3333,-236.5 85.3333,-236.5 89.1667,-236.5 93,-240.333 93,-244.167 93,-244.167 93,-251.833 93,-251.833 93,-255.667 89.1667,-259.5 85.3333,-259.5 85.3333,-259.5 64.6667,-259.5 64.6667,-259.5 60.8333,-259.5 57,-255.667 57,-251.833 57,-251.833 57,-244.167 57,-244.167 57,-240.333 60.8333,-236.5 64.6667,-236.5"/>
<text text-anchor="middle" x="75" y="-244.3" font-family="Arial" font-size="14.00">•</text>
</a>
</g>
<text text-anchor="middle" x="44.5" y="-224.8" font-family="Arial" font-size="14.00">1a1</text>
</g>
<!-- UC21&#45;&gt;UC21a1 -->
<g id="edge5" class="edge"><title>UC21:EXT&#45;&gt;UC21a1:JMP</title>
<g id="a_edge5"><a xlink:href="#UC2_1">
<path fill="none" stroke="black" d="M308,-218C308,-135.926 164.027,-201.421 102.428,-233.2"/>
<polygon fill="black" stroke="black" points="100.522,-230.247 93.2831,-237.983 103.766,-236.45 100.522,-230.247"/>
</a>
</g>
</g>
<!-- UC21b1 -->
<g id="node6" class="node"><title>UC21b1</title>
<g id="a_node6"><a xlink:title="Storno zakazky.">
<path fill="#b3cde3" stroke="black" d="M385.667,-96.5C385.667,-96.5 442.333,-96.5 442.333,-96.5 446.167,-96.5 450,-100.333 450,-104.167 450,-104.167 450,-111.833 450,-111.833 450,-115.667 446.167,-119.5 442.333,-119.5 442.333,-119.5 385.667,-119.5 385.667,-119.5 381.833,-119.5 378,-115.667 378,-111.833 378,-111.833 378,-104.167 378,-104.167 378,-100.333 381.833,-96.5 385.667,-96.5"/>
<text text-anchor="middle" x="396.5" y="-104.3" font-family="Arial" font-size="14.00">•</text>
<polyline fill="none" stroke="black" points="415,-96.5 415,-119.5 "/>
<text text-anchor="middle" x="432.5" y="-104.3" font-family="Arial" font-size="14.00"> </text>
</a>
</g>
<text text-anchor="middle" x="365.5" y="-84.8" font-family="Arial" font-size="14.00">1b1</text>
</g>
<!-- UC21&#45;&gt;UC21b1 -->
<g id="edge8" class="edge"><title>UC21:EXT&#45;&gt;UC21b1:JMP</title>
<g id="a_edge8"><a xlink:href="#UC2_1">
<path fill="none" stroke="black" d="M325,-231C335.157,-231 329.567,-195.559 333,-186 345.191,-152.052 338.734,-115.574 367.04,-109.033"/>
<polygon fill="black" stroke="black" points="367.414,-112.513 377,-108 366.692,-105.55 367.414,-112.513"/>
</a>
</g>
</g>
<!-- UC23 -->
<g id="node3" class="node"><title>UC23</title>
<g id="a_node3"><a xlink:title="Koordinator updatene zakazku.">
<path fill="#ccebc5" stroke="black" d="M546.667,-219.5C546.667,-219.5 567.333,-219.5 567.333,-219.5 571.167,-219.5 575,-223.333 575,-227.167 575,-227.167 575,-234.833 575,-234.833 575,-238.667 571.167,-242.5 567.333,-242.5 567.333,-242.5 546.667,-242.5 546.667,-242.5 542.833,-242.5 539,-238.667 539,-234.833 539,-234.833 539,-227.167 539,-227.167 539,-223.333 542.833,-219.5 546.667,-219.5"/>
<text text-anchor="middle" x="557" y="-227.3" font-family="Arial" font-size="14.00">•</text>
</a>
</g>
<text text-anchor="middle" x="534.5" y="-207.8" font-family="Arial" font-size="14.00">3</text>
</g>
<!-- UC22&#45;&gt;UC23 -->
<g id="edge4" class="edge"><title>UC22:JMP&#45;&gt;UC23:JMP</title>
<g id="a_edge4"><a xlink:href="#UC2_2">
<path fill="none" stroke="black" d="M432.111,-231C456.368,-231 499.674,-231 528.371,-231"/>
<polygon fill="black" stroke="black" points="528.584,-234.5 538.584,-231 528.584,-227.5 528.584,-234.5"/>
</a>
</g>
</g>
<!-- UC21a2 -->
<g id="node5" class="node"><title>UC21a2</title>
<g id="a_node5"><a xlink:title="Koordinator sa pokusi znova o kontakt.">
<path fill="#b3cde3" stroke="black" d="M129.667,-236.5C129.667,-236.5 150.333,-236.5 150.333,-236.5 154.167,-236.5 158,-240.333 158,-244.167 158,-244.167 158,-251.833 158,-251.833 158,-255.667 154.167,-259.5 150.333,-259.5 150.333,-259.5 129.667,-259.5 129.667,-259.5 125.833,-259.5 122,-255.667 122,-251.833 122,-251.833 122,-244.167 122,-244.167 122,-240.333 125.833,-236.5 129.667,-236.5"/>
<text text-anchor="middle" x="140" y="-244.3" font-family="Arial" font-size="14.00">•</text>
</a>
</g>
<text text-anchor="middle" x="109.5" y="-224.8" font-family="Arial" font-size="14.00">1a2</text>
</g>
<!-- UC21a1&#45;&gt;UC21a2 -->
<g id="edge6" class="edge"><title>UC21a1:JMP&#45;&gt;UC21a2:JMP</title>
<g id="a_edge6"><a xlink:href="#UC2_1a1">
<path fill="none" stroke="black" d="M93.1061,-248C98.8817,-248 105.417,-248 111.735,-248"/>
<polygon fill="black" stroke="black" points="111.991,-251.5 121.991,-248 111.991,-244.5 111.991,-251.5"/>
</a>
</g>
</g>
<!-- UC21a2&#45;&gt;UC21 -->
<g id="edge7" class="edge"><title>UC21a2:JMP&#45;&gt;UC21:JMP</title>
<g id="a_edge7"><a xlink:href="#UC2_1a2">
<path fill="none" stroke="black" d="M158.107,-243.533C177.908,-239.008 210.931,-232.497 241.681,-231.222"/>
<polygon fill="black" stroke="black" points="242.077,-234.714 252,-231 241.927,-227.716 242.077,-234.714"/>
</a>
</g>
</g>
<!-- UC21b2 -->
<g id="node7" class="node"><title>UC21b2</title>
<g id="a_node7"><a xlink:title="Use&#45;case is terminated.">
<path fill="#fbb4ae" stroke="black" d="M546.667,-96.5C546.667,-96.5 567.333,-96.5 567.333,-96.5 571.167,-96.5 575,-100.333 575,-104.167 575,-104.167 575,-111.833 575,-111.833 575,-115.667 571.167,-119.5 567.333,-119.5 567.333,-119.5 546.667,-119.5 546.667,-119.5 542.833,-119.5 539,-115.667 539,-111.833 539,-111.833 539,-104.167 539,-104.167 539,-100.333 542.833,-96.5 546.667,-96.5"/>
<text text-anchor="middle" x="557" y="-104.3" font-family="Arial" font-size="14.00">•</text>
</a>
</g>
<text text-anchor="middle" x="526.5" y="-84.8" font-family="Arial" font-size="14.00">1b2</text>
</g>
<!-- UC21b1&#45;&gt;UC21b2 -->
<g id="edge9" class="edge"><title>UC21b1:EXT&#45;&gt;UC21b2:JMP</title>
<g id="a_edge9"><a xlink:href="#UC2_1b1">
<path fill="none" stroke="black" d="M450,-108C476.698,-108 507.143,-108 528.713,-108"/>
<polygon fill="black" stroke="black" points="528.825,-111.5 538.825,-108 528.825,-104.5 528.825,-111.5"/>
</a>
</g>
</g>
<!-- UC10 -->
<g id="node8" class="node"><title>UC10</title>
<g id="a_node8"><a xlink:href="../UC10/UC10.html" xlink:title="UC10 Storno zakazky." target="_top">
<polygon fill="#fed9a6" stroke="black" points="634.5,-36 479.5,-36 479.5,-0 634.5,-0 634.5,-36"/>
<text text-anchor="middle" x="557" y="-14.3" font-family="Arial" font-size="14.00">UC10 Storno zakazky.</text>
</a>
</g>
</g>
<!-- UC21b1&#45;&gt;UC10 -->
<g id="edge1" class="edge"><title>UC21b1:JMP&#45;&gt;UC10</title>
<g id="a_edge1"><a xlink:href="#UC2_1b1">
<path fill="none" stroke="black" d="M396,-95C396,-57.7877 431.575,-38.5486 469.176,-28.6067"/>
<polygon fill="black" stroke="black" points="470.386,-31.9148 479.28,-26.158 468.737,-25.1117 470.386,-31.9148"/>
</a>
</g>
</g>
<!-- UC10&#45;&gt;UC21b1 -->
<g id="edge2" class="edge"><title>UC10&#45;&gt;UC21b1:EXT</title>
<path fill="none" stroke="black" d="M517.134,-36.0549C504.097,-43.2683 490.073,-52.3997 479,-63 464.901,-76.4973 470.43,-98.1317 459.738,-105.471"/>
<polygon fill="black" stroke="black" points="458.799,-102.098 450,-108 460.559,-108.874 458.799,-102.098"/>
</g>
</g>
</svg>
