<?xml version="1.0" encoding="UTF-8" standalone="no"?>
<!DOCTYPE svg PUBLIC "-//W3C//DTD SVG 1.1//EN"
 "http://www.w3.org/Graphics/SVG/1.1/DTD/svg11.dtd">
<!-- Generated by graphviz version 2.36.0 (20140111.2315)
 -->
<!-- Title: mygraph Pages: 1 -->
<svg width="680pt" height="323pt"
 viewBox="62.00 62.00 618.28 260.92" xmlns="http://www.w3.org/2000/svg" xmlns:xlink="http://www.w3.org/1999/xlink">
<g id="graph0" class="graph" transform="scale(0.861111 0.861111) rotate(0) translate(76 299)">
<title>mygraph</title>
<polygon fill="white" stroke="none" points="-4,4 -4,-227 642,-227 642,4 -4,4"/>
<g id="clust1" class="cluster"><title>cluster_UC13_</title>
<polygon fill="#ffffcc" stroke="black" points="8,-131 8,-215 539,-215 539,-131 8,-131"/>
</g>
<g id="clust2" class="cluster"><title>cluster_UC13_3a</title>
<polygon fill="#f2f2f2" stroke="black" points="418,-8 418,-130 638,-130 638,-8 418,-8"/>
<text text-anchor="start" x="426" y="-114.8" font-family="Arial" font-size="14.00" fill="gray">Extension: 3a.</text>
<text text-anchor="middle" x="528" y="-99.8" font-family="Arial" font-size="14.00" fill="gray"> Credit card information not va... </text>
</g>
<g id="clust3" class="cluster"><title>cluster_UC13_2a</title>
<polygon fill="#f2f2f2" stroke="black" points="192,-8 192,-130 410,-130 410,-8 192,-8"/>
<text text-anchor="start" x="200" y="-114.8" font-family="Arial" font-size="14.00" fill="gray">Variation: 2a.</text>
<text text-anchor="middle" x="301" y="-99.8" font-family="Arial" font-size="14.00" fill="gray"> User cancels the credit card i... </text>
</g>
<!-- UC131 -->
<g id="node1" class="node"><title>UC131</title>
<g id="a_node1"><a xlink:title="System asks user for credit card information.">
<path fill="#b3cde3" stroke="black" d="M45.6667,-161.5C45.6667,-161.5 66.3333,-161.5 66.3333,-161.5 70.1667,-161.5 74,-165.333 74,-169.167 74,-169.167 74,-176.833 74,-176.833 74,-180.667 70.1667,-184.5 66.3333,-184.5 66.3333,-184.5 45.6667,-184.5 45.6667,-184.5 41.8333,-184.5 38,-180.667 38,-176.833 38,-176.833 38,-169.167 38,-169.167 38,-165.333 41.8333,-161.5 45.6667,-161.5"/>
<text text-anchor="middle" x="56" y="-169.3" font-family="Arial" font-size="14.00">•</text>
</a>
</g>
<text text-anchor="middle" x="33.5" y="-149.8" font-family="Arial" font-size="14.00">1</text>
</g>
<!-- UC132 -->
<g id="node2" class="node"><title>UC132</title>
<g id="a_node2"><a xlink:title="User provides the requested information and confirms the update.">
<path fill="#b3cde3" stroke="black" d="M110.667,-161.5C110.667,-161.5 167.333,-161.5 167.333,-161.5 171.167,-161.5 175,-165.333 175,-169.167 175,-169.167 175,-176.833 175,-176.833 175,-180.667 171.167,-184.5 167.333,-184.5 167.333,-184.5 110.667,-184.5 110.667,-184.5 106.833,-184.5 103,-180.667 103,-176.833 103,-176.833 103,-169.167 103,-169.167 103,-165.333 106.833,-161.5 110.667,-161.5"/>
<text text-anchor="middle" x="120.5" y="-169.3" font-family="Arial" font-size="14.00"> </text>
<polyline fill="none" stroke="black" points="138,-161.5 138,-184.5 "/>
<text text-anchor="middle" x="156.5" y="-169.3" font-family="Arial" font-size="14.00">•</text>
</a>
</g>
<text text-anchor="middle" x="98.5" y="-149.8" font-family="Arial" font-size="14.00">2</text>
</g>
<!-- UC131&#45;&gt;UC132 -->
<g id="edge1" class="edge"><title>UC131:JMP&#45;&gt;UC132:VAR</title>
<g id="a_edge1"><a xlink:href="#UC13_1">
<path fill="none" stroke="black" d="M74.3026,-173C80.0084,-173 86.5079,-173 92.9772,-173"/>
<polygon fill="black" stroke="black" points="93,-176.5 103,-173 93,-169.5 93,-176.5"/>
</a>
</g>
</g>
<!-- UC133 -->
<g id="node3" class="node"><title>UC133</title>
<g id="a_node3"><a xlink:title="System validates the given values.">
<path fill="#b3cde3" stroke="black" d="M272.667,-161.5C272.667,-161.5 329.333,-161.5 329.333,-161.5 333.167,-161.5 337,-165.333 337,-169.167 337,-169.167 337,-176.833 337,-176.833 337,-180.667 333.167,-184.5 329.333,-184.5 329.333,-184.5 272.667,-184.5 272.667,-184.5 268.833,-184.5 265,-180.667 265,-176.833 265,-176.833 265,-169.167 265,-169.167 265,-165.333 268.833,-161.5 272.667,-161.5"/>
<text text-anchor="middle" x="283.5" y="-169.3" font-family="Arial" font-size="14.00">•</text>
<polyline fill="none" stroke="black" points="302,-161.5 302,-184.5 "/>
<text text-anchor="middle" x="319.5" y="-169.3" font-family="Arial" font-size="14.00"> </text>
</a>
</g>
<text text-anchor="middle" x="260.5" y="-149.8" font-family="Arial" font-size="14.00">3</text>
</g>
<!-- UC132&#45;&gt;UC133 -->
<g id="edge2" class="edge"><title>UC132:JMP&#45;&gt;UC133:JMP</title>
<g id="a_edge2"><a xlink:href="#UC13_2">
<path fill="none" stroke="black" d="M175,-173C210.847,-173 222.33,-173 253.608,-173"/>
<polygon fill="black" stroke="black" points="254,-176.5 264,-173 254,-169.5 254,-176.5"/>
</a>
</g>
</g>
<!-- UC132a1 -->
<g id="node7" class="node"><title>UC132a1</title>
<g id="a_node7"><a xlink:title="Use case aborts. #(abort)">
<path fill="#fbb4ae" stroke="black" d="M290.667,-38.5C290.667,-38.5 311.333,-38.5 311.333,-38.5 315.167,-38.5 319,-42.3333 319,-46.1667 319,-46.1667 319,-53.8333 319,-53.8333 319,-57.6667 315.167,-61.5 311.333,-61.5 311.333,-61.5 290.667,-61.5 290.667,-61.5 286.833,-61.5 283,-57.6667 283,-53.8333 283,-53.8333 283,-46.1667 283,-46.1667 283,-42.3333 286.833,-38.5 290.667,-38.5"/>
<text text-anchor="middle" x="301" y="-46.3" font-family="Arial" font-size="14.00">•</text>
</a>
</g>
<text text-anchor="middle" x="270.5" y="-26.8" font-family="Arial" font-size="14.00">2a1</text>
</g>
<!-- UC132&#45;&gt;UC132a1 -->
<g id="edge6" class="edge"><title>UC132:VAR&#45;&gt;UC132a1:JMP</title>
<g id="a_edge6"><a xlink:href="#UC13_2">
<path fill="none" stroke="black" d="M120,-160C120,-89.2808 222.152,-62.7358 272.973,-53.9055"/>
<polygon fill="black" stroke="black" points="273.673,-57.3377 282.983,-52.2805 272.552,-50.4281 273.673,-57.3377"/>
</a>
</g>
</g>
<!-- UC134 -->
<g id="node4" class="node"><title>UC134</title>
<g id="a_node4"><a xlink:title="System saves the credit card information.">
<path fill="#ccebc5" stroke="black" d="M480.667,-161.5C480.667,-161.5 501.333,-161.5 501.333,-161.5 505.167,-161.5 509,-165.333 509,-169.167 509,-169.167 509,-176.833 509,-176.833 509,-180.667 505.167,-184.5 501.333,-184.5 501.333,-184.5 480.667,-184.5 480.667,-184.5 476.833,-184.5 473,-180.667 473,-176.833 473,-176.833 473,-169.167 473,-169.167 473,-165.333 476.833,-161.5 480.667,-161.5"/>
<text text-anchor="middle" x="491" y="-169.3" font-family="Arial" font-size="14.00">•</text>
</a>
</g>
<text text-anchor="middle" x="468.5" y="-149.8" font-family="Arial" font-size="14.00">4</text>
</g>
<!-- UC133&#45;&gt;UC134 -->
<g id="edge3" class="edge"><title>UC133:EXT&#45;&gt;UC134:JMP</title>
<g id="a_edge3"><a xlink:href="#UC13_3">
<path fill="none" stroke="black" d="M338,-173C381.293,-173 431.476,-173 462.228,-173"/>
<polygon fill="black" stroke="black" points="462.63,-176.5 472.63,-173 462.63,-169.5 462.63,-176.5"/>
</a>
</g>
</g>
<!-- UC133a1 -->
<g id="node5" class="node"><title>UC133a1</title>
<g id="a_node5"><a xlink:title="System notifies user about the problem.">
<path fill="#b3cde3" stroke="black" d="M480.667,-38.5C480.667,-38.5 501.333,-38.5 501.333,-38.5 505.167,-38.5 509,-42.3333 509,-46.1667 509,-46.1667 509,-53.8333 509,-53.8333 509,-57.6667 505.167,-61.5 501.333,-61.5 501.333,-61.5 480.667,-61.5 480.667,-61.5 476.833,-61.5 473,-57.6667 473,-53.8333 473,-53.8333 473,-46.1667 473,-46.1667 473,-42.3333 476.833,-38.5 480.667,-38.5"/>
<text text-anchor="middle" x="491" y="-46.3" font-family="Arial" font-size="14.00">•</text>
</a>
</g>
<text text-anchor="middle" x="460.5" y="-26.8" font-family="Arial" font-size="14.00">3a1</text>
</g>
<!-- UC133&#45;&gt;UC133a1 -->
<g id="edge4" class="edge"><title>UC133:EXT&#45;&gt;UC133a1:JMP</title>
<g id="a_edge4"><a xlink:href="#UC13_3">
<path fill="none" stroke="black" d="M338,-173C374.607,-173 381.485,-155.955 410,-133 440.038,-108.818 440.943,-92.2449 465.139,-68.6697"/>
<polygon fill="black" stroke="black" points="467.608,-71.1545 472.625,-61.8225 462.884,-65.9894 467.608,-71.1545"/>
</a>
</g>
</g>
<!-- UC133a2 -->
<g id="node6" class="node"><title>UC133a2</title>
<g id="a_node6"><a xlink:title="Use case aborts. #(abort)">
<path fill="#fbb4ae" stroke="black" d="M554.667,-38.5C554.667,-38.5 575.333,-38.5 575.333,-38.5 579.167,-38.5 583,-42.3333 583,-46.1667 583,-46.1667 583,-53.8333 583,-53.8333 583,-57.6667 579.167,-61.5 575.333,-61.5 575.333,-61.5 554.667,-61.5 554.667,-61.5 550.833,-61.5 547,-57.6667 547,-53.8333 547,-53.8333 547,-46.1667 547,-46.1667 547,-42.3333 550.833,-38.5 554.667,-38.5"/>
<text text-anchor="middle" x="565" y="-46.3" font-family="Arial" font-size="14.00">•</text>
</a>
</g>
<text text-anchor="middle" x="534.5" y="-26.8" font-family="Arial" font-size="14.00">3a2</text>
</g>
<!-- UC133a1&#45;&gt;UC133a2 -->
<g id="edge5" class="edge"><title>UC133a1:JMP&#45;&gt;UC133a2:JMP</title>
<g id="a_edge5"><a xlink:href="#UC13_3a1">
<path fill="none" stroke="black" d="M509.292,-50C517.536,-50 527.462,-50 536.638,-50"/>
<polygon fill="black" stroke="black" points="536.918,-53.5001 546.918,-50 536.918,-46.5001 536.918,-53.5001"/>
</a>
</g>
</g>
</g>
</svg>
