<?xml version="1.0" encoding="UTF-8" standalone="no"?>
<!DOCTYPE svg PUBLIC "-//W3C//DTD SVG 1.1//EN"
 "http://www.w3.org/Graphics/SVG/1.1/DTD/svg11.dtd">
<!-- Generated by graphviz version 2.37.20140129.0545 (20140129.0545)
 -->
<!-- Title: mygraph Pages: 1 -->
<svg width="524pt" height="323pt"
 viewBox="62.00 62.00 461.56 260.92" xmlns="http://www.w3.org/2000/svg" xmlns:xlink="http://www.w3.org/1999/xlink">
<g id="graph0" class="graph" transform="scale(0.861111 0.861111) rotate(0) translate(76 299)">
<title>mygraph</title>
<polygon fill="white" stroke="none" points="-4,4 -4,-227 460,-227 460,4 -4,4"/>
<g id="clust1" class="cluster"><title>cluster_UC2</title>
<polygon fill="#ffffcc" stroke="black" points="8,-131 8,-215 448,-215 448,-131 8,-131"/>
</g>
<g id="clust2" class="cluster"><title>cluster_UC22a</title>
<polygon fill="#f2f2f2" stroke="black" points="183,-8 183,-130 374,-130 374,-8 183,-8"/>
<text text-anchor="start" x="191" y="-114.8" font-family="Arial" font-size="14.00" fill="gray">Variation: 2a.</text>
<text text-anchor="middle" x="278.5" y="-99.8" font-family="Arial" font-size="14.00" fill="gray"> MapServer error occurred. </text>
</g>
<!-- UC21 -->
<g id="node1" class="node"><title>UC21</title>
<g id="a_node1"><a xlink:title="The system asks MapServer to provide city information.">
<path fill="#b3cde3" stroke="black" d="M45.6667,-161.5C45.6667,-161.5 66.3333,-161.5 66.3333,-161.5 70.1667,-161.5 74,-165.333 74,-169.167 74,-169.167 74,-176.833 74,-176.833 74,-180.667 70.1667,-184.5 66.3333,-184.5 66.3333,-184.5 45.6667,-184.5 45.6667,-184.5 41.8333,-184.5 38,-180.667 38,-176.833 38,-176.833 38,-169.167 38,-169.167 38,-165.333 41.8333,-161.5 45.6667,-161.5"/>
<text text-anchor="middle" x="56" y="-169.3" font-family="Arial" font-size="14.00">•</text>
</a>
</g>
<text text-anchor="middle" x="33.5" y="-149.8" font-family="Arial" font-size="14.00">1</text>
</g>
<!-- UC22 -->
<g id="node2" class="node"><title>UC22</title>
<g id="a_node2"><a xlink:title="MapServer provides the requested information.">
<path fill="#b3cde3" stroke="black" d="M110.667,-161.5C110.667,-161.5 167.333,-161.5 167.333,-161.5 171.167,-161.5 175,-165.333 175,-169.167 175,-169.167 175,-176.833 175,-176.833 175,-180.667 171.167,-184.5 167.333,-184.5 167.333,-184.5 110.667,-184.5 110.667,-184.5 106.833,-184.5 103,-180.667 103,-176.833 103,-176.833 103,-169.167 103,-169.167 103,-165.333 106.833,-161.5 110.667,-161.5"/>
<text text-anchor="middle" x="120.5" y="-169.3" font-family="Arial" font-size="14.00"> </text>
<polyline fill="none" stroke="black" points="138,-161.5 138,-184.5 "/>
<text text-anchor="middle" x="156.5" y="-169.3" font-family="Arial" font-size="14.00">•</text>
</a>
</g>
<text text-anchor="middle" x="98.5" y="-149.8" font-family="Arial" font-size="14.00">2</text>
</g>
<!-- UC21&#45;&gt;UC22 -->
<g id="edge1" class="edge"><title>UC21:JMP&#45;&gt;UC22:VAR</title>
<g id="a_edge1"><a xlink:href="#UC2_1">
<path fill="none" stroke="black" d="M74.3026,-173C80.0084,-173 86.5079,-173 92.9772,-173"/>
<polygon fill="black" stroke="black" points="93,-176.5 103,-173 93,-169.5 93,-176.5"/>
</a>
</g>
</g>
<!-- UC23 -->
<g id="node3" class="node"><title>UC23</title>
<g id="a_node3"><a xlink:title="The system generates the map with default zoom settings.">
<path fill="#b3cde3" stroke="black" d="M267.667,-161.5C267.667,-161.5 288.333,-161.5 288.333,-161.5 292.167,-161.5 296,-165.333 296,-169.167 296,-169.167 296,-176.833 296,-176.833 296,-180.667 292.167,-184.5 288.333,-184.5 288.333,-184.5 267.667,-184.5 267.667,-184.5 263.833,-184.5 260,-180.667 260,-176.833 260,-176.833 260,-169.167 260,-169.167 260,-165.333 263.833,-161.5 267.667,-161.5"/>
<text text-anchor="middle" x="278" y="-169.3" font-family="Arial" font-size="14.00">•</text>
</a>
</g>
<text text-anchor="middle" x="255.5" y="-149.8" font-family="Arial" font-size="14.00">3</text>
</g>
<!-- UC22&#45;&gt;UC23 -->
<g id="edge2" class="edge"><title>UC22:JMP&#45;&gt;UC23:JMP</title>
<g id="a_edge2"><a xlink:href="#UC2_2">
<path fill="none" stroke="black" d="M175,-173C200.278,-173 229.045,-173 249.741,-173"/>
<polygon fill="black" stroke="black" points="249.766,-176.5 259.766,-173 249.766,-169.5 249.766,-176.5"/>
</a>
</g>
</g>
<!-- UC22a1 -->
<g id="node5" class="node"><title>UC22a1</title>
<g id="a_node5"><a xlink:title="Use case aborts.">
<path fill="#fbb4ae" stroke="black" d="M267.667,-38.5C267.667,-38.5 288.333,-38.5 288.333,-38.5 292.167,-38.5 296,-42.3333 296,-46.1667 296,-46.1667 296,-53.8333 296,-53.8333 296,-57.6667 292.167,-61.5 288.333,-61.5 288.333,-61.5 267.667,-61.5 267.667,-61.5 263.833,-61.5 260,-57.6667 260,-53.8333 260,-53.8333 260,-46.1667 260,-46.1667 260,-42.3333 263.833,-38.5 267.667,-38.5"/>
<text text-anchor="middle" x="278" y="-46.3" font-family="Arial" font-size="14.00">•</text>
</a>
</g>
<text text-anchor="middle" x="247.5" y="-26.8" font-family="Arial" font-size="14.00">2a1</text>
</g>
<!-- UC22&#45;&gt;UC22a1 -->
<g id="edge4" class="edge"><title>UC22:VAR&#45;&gt;UC22a1:JMP</title>
<g id="a_edge4"><a xlink:href="#UC2_2">
<path fill="none" stroke="black" d="M120,-160C120,-97.3633 204.67,-67.4847 250.046,-55.9696"/>
<polygon fill="black" stroke="black" points="250.971,-59.347 259.875,-53.6061 249.334,-52.5409 250.971,-59.347"/>
</a>
</g>
</g>
<!-- UC24 -->
<g id="node4" class="node"><title>UC24</title>
<g id="a_node4"><a xlink:title="User adjusts zoom settings.">
<path fill="#ccebc5" stroke="black" d="M389.667,-161.5C389.667,-161.5 410.333,-161.5 410.333,-161.5 414.167,-161.5 418,-165.333 418,-169.167 418,-169.167 418,-176.833 418,-176.833 418,-180.667 414.167,-184.5 410.333,-184.5 410.333,-184.5 389.667,-184.5 389.667,-184.5 385.833,-184.5 382,-180.667 382,-176.833 382,-176.833 382,-169.167 382,-169.167 382,-165.333 385.833,-161.5 389.667,-161.5"/>
<text text-anchor="middle" x="400" y="-169.3" font-family="Arial" font-size="14.00">•</text>
</a>
</g>
<text text-anchor="middle" x="377.5" y="-149.8" font-family="Arial" font-size="14.00">4</text>
</g>
<!-- UC23&#45;&gt;UC24 -->
<g id="edge3" class="edge"><title>UC23:JMP&#45;&gt;UC24:JMP</title>
<g id="a_edge3"><a xlink:href="#UC2_3">
<path fill="none" stroke="black" d="M296.002,-173C316.004,-173 348.557,-173 371.917,-173"/>
<polygon fill="black" stroke="black" points="371.925,-176.5 381.925,-173 371.925,-169.5 371.925,-176.5"/>
</a>
</g>
</g>
</g>
</svg>
