<?xml version="1.0" encoding="UTF-8" standalone="no"?>
<!DOCTYPE svg PUBLIC "-//W3C//DTD SVG 1.1//EN"
 "http://www.w3.org/Graphics/SVG/1.1/DTD/svg11.dtd">
<!-- Generated by graphviz version 2.35.20131004.0446 (20131004.0446)
 -->
<!-- Title: mygraph Pages: 1 -->
<svg width="487pt" height="323pt"
 viewBox="62.00 62.00 424.53 260.92" xmlns="http://www.w3.org/2000/svg" xmlns:xlink="http://www.w3.org/1999/xlink">
<g id="graph0" class="graph" transform="scale(0.861111 0.861111) rotate(0) translate(76 299)">
<title>mygraph</title>
<polygon fill="white" stroke="white" points="-4,4 -4,-227 417,-227 417,4 -4,4"/>
<g id="clust1" class="cluster"><title>cluster_UC212</title>
<polygon fill="#ffffcc" stroke="black" points="8,-131 8,-215 308,-215 308,-131 8,-131"/>
</g>
<g id="clust2" class="cluster"><title>cluster_UC2122a</title>
<polygon fill="#f2f2f2" stroke="black" points="183,-8 183,-130 412,-130 412,-8 183,-8"/>
<text text-anchor="start" x="191" y="-114.8" font-family="Arial" font-size="14.00" fill="gray">Extension: 2a.</text>
<text text-anchor="middle" x="297.5" y="-99.8" font-family="Arial" font-size="14.00" fill="gray"> Error occurred during the import. </text>
</g>
<!-- UC2121 -->
<g id="node1" class="node"><title>UC2121</title>
<g id="a_node1"><a xlink:title="Administrator chooses an option to import payments from the bank system.">
<path fill="#b3cde3" stroke="black" d="M45.6667,-161.5C45.6667,-161.5 66.3333,-161.5 66.3333,-161.5 70.1667,-161.5 74,-165.333 74,-169.167 74,-169.167 74,-176.833 74,-176.833 74,-180.667 70.1667,-184.5 66.3333,-184.5 66.3333,-184.5 45.6667,-184.5 45.6667,-184.5 41.8333,-184.5 38,-180.667 38,-176.833 38,-176.833 38,-169.167 38,-169.167 38,-165.333 41.8333,-161.5 45.6667,-161.5"/>
<text text-anchor="middle" x="56" y="-169.3" font-family="Arial" font-size="14.00">•</text>
</a>
</g>
<text text-anchor="middle" x="33.5" y="-149.8" font-family="Arial" font-size="14.00">1</text>
</g>
<!-- UC2122 -->
<g id="node2" class="node"><title>UC2122</title>
<g id="a_node2"><a xlink:title="System imports payment entries from the bank.">
<path fill="#b3cde3" stroke="black" d="M110.667,-161.5C110.667,-161.5 167.333,-161.5 167.333,-161.5 171.167,-161.5 175,-165.333 175,-169.167 175,-169.167 175,-176.833 175,-176.833 175,-180.667 171.167,-184.5 167.333,-184.5 167.333,-184.5 110.667,-184.5 110.667,-184.5 106.833,-184.5 103,-180.667 103,-176.833 103,-176.833 103,-169.167 103,-169.167 103,-165.333 106.833,-161.5 110.667,-161.5"/>
<text text-anchor="middle" x="121.5" y="-169.3" font-family="Arial" font-size="14.00">•</text>
<polyline fill="none" stroke="black" points="140,-161.5 140,-184.5 "/>
<text text-anchor="middle" x="157.5" y="-169.3" font-family="Arial" font-size="14.00"> </text>
</a>
</g>
<text text-anchor="middle" x="98.5" y="-149.8" font-family="Arial" font-size="14.00">2</text>
</g>
<!-- UC2121&#45;&gt;UC2122 -->
<g id="edge1" class="edge"><title>UC2121:JMP&#45;&gt;UC2122:JMP</title>
<g id="a_edge1"><a xlink:href="#UC212_1">
<path fill="none" stroke="black" d="M74.3026,-173C80.0084,-173 86.5079,-173 92.9772,-173"/>
<polygon fill="black" stroke="black" points="93,-176.5 103,-173 93,-169.5 93,-176.5"/>
</a>
</g>
</g>
<!-- UC2123 -->
<g id="node3" class="node"><title>UC2123</title>
<g id="a_node3"><a xlink:title="System displays a list containing information about all imported admission fees.">
<path fill="#ccebc5" stroke="black" d="M249.667,-161.5C249.667,-161.5 270.333,-161.5 270.333,-161.5 274.167,-161.5 278,-165.333 278,-169.167 278,-169.167 278,-176.833 278,-176.833 278,-180.667 274.167,-184.5 270.333,-184.5 270.333,-184.5 249.667,-184.5 249.667,-184.5 245.833,-184.5 242,-180.667 242,-176.833 242,-176.833 242,-169.167 242,-169.167 242,-165.333 245.833,-161.5 249.667,-161.5"/>
<text text-anchor="middle" x="260" y="-169.3" font-family="Arial" font-size="14.00">•</text>
</a>
</g>
<text text-anchor="middle" x="237.5" y="-149.8" font-family="Arial" font-size="14.00">3</text>
</g>
<!-- UC2122&#45;&gt;UC2123 -->
<g id="edge2" class="edge"><title>UC2122:EXT&#45;&gt;UC2123:JMP</title>
<g id="a_edge2"><a xlink:href="#UC212_2">
<path fill="none" stroke="black" d="M175,-173C193.884,-173 215.129,-173 231.655,-173"/>
<polygon fill="black" stroke="black" points="231.761,-176.5 241.761,-173 231.761,-169.5 231.761,-176.5"/>
</a>
</g>
</g>
<!-- UC2122a1 -->
<g id="node4" class="node"><title>UC2122a1</title>
<g id="a_node4"><a xlink:title="System displays error message with the detailed information concerning the source of the failure.">
<path fill="#b3cde3" stroke="black" d="M249.667,-38.5C249.667,-38.5 270.333,-38.5 270.333,-38.5 274.167,-38.5 278,-42.3333 278,-46.1667 278,-46.1667 278,-53.8333 278,-53.8333 278,-57.6667 274.167,-61.5 270.333,-61.5 270.333,-61.5 249.667,-61.5 249.667,-61.5 245.833,-61.5 242,-57.6667 242,-53.8333 242,-53.8333 242,-46.1667 242,-46.1667 242,-42.3333 245.833,-38.5 249.667,-38.5"/>
<text text-anchor="middle" x="260" y="-46.3" font-family="Arial" font-size="14.00">•</text>
</a>
</g>
<text text-anchor="middle" x="229.5" y="-26.8" font-family="Arial" font-size="14.00">2a1</text>
</g>
<!-- UC2122&#45;&gt;UC2122a1 -->
<g id="edge3" class="edge"><title>UC2122:EXT&#45;&gt;UC2122a1:JMP</title>
<g id="a_edge3"><a xlink:href="#UC212_2">
<path fill="none" stroke="black" d="M175,-173C185.157,-173 178.575,-137.142 183,-128 198.54,-95.8964 209.618,-88.4725 233.728,-68.457"/>
<polygon fill="black" stroke="black" points="236.246,-70.9134 241.649,-61.7998 231.742,-65.5548 236.246,-70.9134"/>
</a>
</g>
</g>
<!-- UC2122a2 -->
<g id="node5" class="node"><title>UC2122a2</title>
<g id="a_node5"><a xlink:title="Use case finishes.">
<path fill="#fbb4ae" stroke="black" d="M323.667,-38.5C323.667,-38.5 344.333,-38.5 344.333,-38.5 348.167,-38.5 352,-42.3333 352,-46.1667 352,-46.1667 352,-53.8333 352,-53.8333 352,-57.6667 348.167,-61.5 344.333,-61.5 344.333,-61.5 323.667,-61.5 323.667,-61.5 319.833,-61.5 316,-57.6667 316,-53.8333 316,-53.8333 316,-46.1667 316,-46.1667 316,-42.3333 319.833,-38.5 323.667,-38.5"/>
<text text-anchor="middle" x="334" y="-46.3" font-family="Arial" font-size="14.00">•</text>
</a>
</g>
<text text-anchor="middle" x="303.5" y="-26.8" font-family="Arial" font-size="14.00">2a2</text>
</g>
<!-- UC2122a1&#45;&gt;UC2122a2 -->
<g id="edge4" class="edge"><title>UC2122a1:JMP&#45;&gt;UC2122a2:JMP</title>
<g id="a_edge4"><a xlink:href="#UC212_2a1">
<path fill="none" stroke="black" d="M278.292,-50C286.536,-50 296.462,-50 305.638,-50"/>
<polygon fill="black" stroke="black" points="305.918,-53.5001 315.918,-50 305.918,-46.5001 305.918,-53.5001"/>
</a>
</g>
</g>
</g>
</svg>
