<?xml version="1.0" encoding="UTF-8" standalone="no"?>
<!DOCTYPE svg PUBLIC "-//W3C//DTD SVG 1.1//EN"
 "http://www.w3.org/Graphics/SVG/1.1/DTD/svg11.dtd">
<!-- Generated by graphviz version 2.37.20140129.0545 (20140129.0545)
 -->
<!-- Title: mygraph Pages: 1 -->
<svg width="442pt" height="323pt"
 viewBox="62.00 62.00 379.75 260.92" xmlns="http://www.w3.org/2000/svg" xmlns:xlink="http://www.w3.org/1999/xlink">
<g id="graph0" class="graph" transform="scale(0.861111 0.861111) rotate(0) translate(76 299)">
<title>mygraph</title>
<polygon fill="white" stroke="none" points="-4,4 -4,-227 365,-227 365,4 -4,4"/>
<g id="clust1" class="cluster"><title>cluster_UC1</title>
<polygon fill="#ffffcc" stroke="black" points="8,-131 8,-215 279,-215 279,-131 8,-131"/>
</g>
<g id="clust2" class="cluster"><title>cluster_UC12a</title>
<polygon fill="#f2f2f2" stroke="black" points="183,-8 183,-130 353,-130 353,-8 183,-8"/>
<text text-anchor="start" x="191" y="-114.8" font-family="Arial" font-size="14.00" fill="gray">Variation: 2a.</text>
<text text-anchor="middle" x="253.5" y="-99.8" font-family="Arial" font-size="14.00" fill="gray"> No cities available. </text>
</g>
<!-- UC11 -->
<g id="node1" class="node"><title>UC11</title>
<g id="a_node1"><a xlink:title="The user opens the map web page.">
<path fill="#b3cde3" stroke="black" d="M45.6667,-161.5C45.6667,-161.5 66.3333,-161.5 66.3333,-161.5 70.1667,-161.5 74,-165.333 74,-169.167 74,-169.167 74,-176.833 74,-176.833 74,-180.667 70.1667,-184.5 66.3333,-184.5 66.3333,-184.5 45.6667,-184.5 45.6667,-184.5 41.8333,-184.5 38,-180.667 38,-176.833 38,-176.833 38,-169.167 38,-169.167 38,-165.333 41.8333,-161.5 45.6667,-161.5"/>
<text text-anchor="middle" x="56" y="-169.3" font-family="Arial" font-size="14.00">•</text>
</a>
</g>
<text text-anchor="middle" x="33.5" y="-149.8" font-family="Arial" font-size="14.00">1</text>
</g>
<!-- UC12 -->
<g id="node2" class="node"><title>UC12</title>
<g id="a_node2"><a xlink:title="The system generates a map with available cities.">
<path fill="#b3cde3" stroke="black" d="M110.667,-161.5C110.667,-161.5 167.333,-161.5 167.333,-161.5 171.167,-161.5 175,-165.333 175,-169.167 175,-169.167 175,-176.833 175,-176.833 175,-180.667 171.167,-184.5 167.333,-184.5 167.333,-184.5 110.667,-184.5 110.667,-184.5 106.833,-184.5 103,-180.667 103,-176.833 103,-176.833 103,-169.167 103,-169.167 103,-165.333 106.833,-161.5 110.667,-161.5"/>
<text text-anchor="middle" x="120.5" y="-169.3" font-family="Arial" font-size="14.00"> </text>
<polyline fill="none" stroke="black" points="138,-161.5 138,-184.5 "/>
<text text-anchor="middle" x="156.5" y="-169.3" font-family="Arial" font-size="14.00">•</text>
</a>
</g>
<text text-anchor="middle" x="98.5" y="-149.8" font-family="Arial" font-size="14.00">2</text>
</g>
<!-- UC11&#45;&gt;UC12 -->
<g id="edge1" class="edge"><title>UC11:JMP&#45;&gt;UC12:VAR</title>
<g id="a_edge1"><a xlink:href="#UC1_1">
<path fill="none" stroke="black" d="M74.3026,-173C80.0084,-173 86.5079,-173 92.9772,-173"/>
<polygon fill="black" stroke="black" points="93,-176.5 103,-173 93,-169.5 93,-176.5"/>
</a>
</g>
</g>
<!-- UC13 -->
<g id="node3" class="node"><title>UC13</title>
<g id="a_node3"><a xlink:title="The user selects a city on the map.">
<path fill="#ccebc5" stroke="black" d="M220.667,-161.5C220.667,-161.5 241.333,-161.5 241.333,-161.5 245.167,-161.5 249,-165.333 249,-169.167 249,-169.167 249,-176.833 249,-176.833 249,-180.667 245.167,-184.5 241.333,-184.5 241.333,-184.5 220.667,-184.5 220.667,-184.5 216.833,-184.5 213,-180.667 213,-176.833 213,-176.833 213,-169.167 213,-169.167 213,-165.333 216.833,-161.5 220.667,-161.5"/>
<text text-anchor="middle" x="231" y="-169.3" font-family="Arial" font-size="14.00">•</text>
</a>
</g>
<text text-anchor="middle" x="208.5" y="-149.8" font-family="Arial" font-size="14.00">3</text>
</g>
<!-- UC12&#45;&gt;UC13 -->
<g id="edge2" class="edge"><title>UC12:JMP&#45;&gt;UC13:JMP</title>
<g id="a_edge2"><a xlink:href="#UC1_2">
<path fill="none" stroke="black" d="M175,-173C183.985,-173 193.782,-173 202.633,-173"/>
<polygon fill="black" stroke="black" points="202.841,-176.5 212.841,-173 202.841,-169.5 202.841,-176.5"/>
</a>
</g>
</g>
<!-- UC12a1 -->
<g id="node4" class="node"><title>UC12a1</title>
<g id="a_node4"><a xlink:title="System displays an empty map with message.">
<path fill="#b3cde3" stroke="black" d="M220.667,-38.5C220.667,-38.5 241.333,-38.5 241.333,-38.5 245.167,-38.5 249,-42.3333 249,-46.1667 249,-46.1667 249,-53.8333 249,-53.8333 249,-57.6667 245.167,-61.5 241.333,-61.5 241.333,-61.5 220.667,-61.5 220.667,-61.5 216.833,-61.5 213,-57.6667 213,-53.8333 213,-53.8333 213,-46.1667 213,-46.1667 213,-42.3333 216.833,-38.5 220.667,-38.5"/>
<text text-anchor="middle" x="231" y="-46.3" font-family="Arial" font-size="14.00">•</text>
</a>
</g>
<text text-anchor="middle" x="200.5" y="-26.8" font-family="Arial" font-size="14.00">2a1</text>
</g>
<!-- UC12&#45;&gt;UC12a1 -->
<g id="edge3" class="edge"><title>UC12:VAR&#45;&gt;UC12a1:JMP</title>
<g id="a_edge3"><a xlink:href="#UC1_2">
<path fill="none" stroke="black" d="M120,-160C120,-113.083 170.65,-79.3576 203.522,-62.4103"/>
<polygon fill="black" stroke="black" points="205.259,-65.456 212.671,-57.8855 202.155,-59.1814 205.259,-65.456"/>
</a>
</g>
</g>
<!-- UC12a2 -->
<g id="node5" class="node"><title>UC12a2</title>
<g id="a_node5"><a xlink:title="Use case aborts.">
<path fill="#fbb4ae" stroke="black" d="M294.667,-38.5C294.667,-38.5 315.333,-38.5 315.333,-38.5 319.167,-38.5 323,-42.3333 323,-46.1667 323,-46.1667 323,-53.8333 323,-53.8333 323,-57.6667 319.167,-61.5 315.333,-61.5 315.333,-61.5 294.667,-61.5 294.667,-61.5 290.833,-61.5 287,-57.6667 287,-53.8333 287,-53.8333 287,-46.1667 287,-46.1667 287,-42.3333 290.833,-38.5 294.667,-38.5"/>
<text text-anchor="middle" x="305" y="-46.3" font-family="Arial" font-size="14.00">•</text>
</a>
</g>
<text text-anchor="middle" x="274.5" y="-26.8" font-family="Arial" font-size="14.00">2a2</text>
</g>
<!-- UC12a1&#45;&gt;UC12a2 -->
<g id="edge4" class="edge"><title>UC12a1:JMP&#45;&gt;UC12a2:JMP</title>
<g id="a_edge4"><a xlink:href="#UC1_2a1">
<path fill="none" stroke="black" d="M249.292,-50C257.536,-50 267.462,-50 276.638,-50"/>
<polygon fill="black" stroke="black" points="276.918,-53.5001 286.918,-50 276.918,-46.5001 276.918,-53.5001"/>
</a>
</g>
</g>
</g>
</svg>
