<?xml version="1.0" encoding="UTF-8" standalone="no"?>
<!DOCTYPE svg PUBLIC "-//W3C//DTD SVG 1.1//EN"
 "http://www.w3.org/Graphics/SVG/1.1/DTD/svg11.dtd">
<!-- Generated by graphviz version 2.37.20140129.0545 (20140129.0545)
 -->
<!-- Title: mygraph Pages: 1 -->
<svg width="610pt" height="504pt"
 viewBox="62.00 62.00 547.67 441.75" xmlns="http://www.w3.org/2000/svg" xmlns:xlink="http://www.w3.org/1999/xlink">
<g id="graph0" class="graph" transform="scale(0.861111 0.861111) rotate(0) translate(76 509)">
<title>mygraph</title>
<polygon fill="white" stroke="none" points="-4,4 -4,-437 560,-437 560,4 -4,4"/>
<g id="clust1" class="cluster"><title>cluster_UC3</title>
<polygon fill="#ffffcc" stroke="black" points="8,-341 8,-425 548,-425 548,-341 8,-341"/>
</g>
<g id="clust2" class="cluster"><title>cluster_UC31a</title>
<polygon fill="#f2f2f2" stroke="black" points="139,-66 139,-188 400,-188 400,-66 139,-66"/>
<text text-anchor="start" x="147" y="-172.8" font-family="Arial" font-size="14.00" fill="gray">Extension: 1a.</text>
<text text-anchor="middle" x="269.5" y="-157.8" font-family="Arial" font-size="14.00" fill="gray"> There was an abort in &quot;Generate city&quot;. </text>
</g>
<g id="clust3" class="cluster"><title>cluster_UC32a</title>
<polygon fill="#f2f2f2" stroke="black" points="283,-218 283,-340 474,-340 474,-218 283,-218"/>
<text text-anchor="start" x="291" y="-324.8" font-family="Arial" font-size="14.00" fill="gray">Extension: 2a.</text>
<text text-anchor="middle" x="374" y="-309.8" font-family="Arial" font-size="14.00" fill="gray"> Zoom settings are invalid </text>
</g>
<!-- UC31 -->
<g id="node1" class="node"><title>UC31</title>
<g id="a_node1"><a xlink:title="Include use case &quot;Generate city&quot;.">
<path fill="#b3cde3" stroke="black" d="M45.6667,-371.5C45.6667,-371.5 102.333,-371.5 102.333,-371.5 106.167,-371.5 110,-375.333 110,-379.167 110,-379.167 110,-386.833 110,-386.833 110,-390.667 106.167,-394.5 102.333,-394.5 102.333,-394.5 45.6667,-394.5 45.6667,-394.5 41.8333,-394.5 38,-390.667 38,-386.833 38,-386.833 38,-379.167 38,-379.167 38,-375.333 41.8333,-371.5 45.6667,-371.5"/>
<text text-anchor="middle" x="56.5" y="-379.3" font-family="Arial" font-size="14.00">•</text>
<polyline fill="none" stroke="black" points="75,-371.5 75,-394.5 "/>
<text text-anchor="middle" x="92.5" y="-379.3" font-family="Arial" font-size="14.00"> </text>
</a>
</g>
<text text-anchor="middle" x="33.5" y="-359.8" font-family="Arial" font-size="14.00">1</text>
</g>
<!-- UC32 -->
<g id="node2" class="node"><title>UC32</title>
<g id="a_node2"><a xlink:title="System validates the zoom settings.">
<path fill="#b3cde3" stroke="black" d="M161.667,-371.5C161.667,-371.5 254.333,-371.5 254.333,-371.5 258.167,-371.5 262,-375.333 262,-379.167 262,-379.167 262,-386.833 262,-386.833 262,-390.667 258.167,-394.5 254.333,-394.5 254.333,-394.5 161.667,-394.5 161.667,-394.5 157.833,-394.5 154,-390.667 154,-386.833 154,-386.833 154,-379.167 154,-379.167 154,-375.333 157.833,-371.5 161.667,-371.5"/>
<text text-anchor="middle" x="172.5" y="-379.3" font-family="Arial" font-size="14.00">•</text>
<polyline fill="none" stroke="black" points="191,-371.5 191,-394.5 "/>
<text text-anchor="middle" x="208.5" y="-379.3" font-family="Arial" font-size="14.00"> </text>
<polyline fill="none" stroke="black" points="226,-371.5 226,-394.5 "/>
<text text-anchor="middle" x="244" y="-379.3" font-family="Arial" font-size="14.00"> </text>
</a>
</g>
<text text-anchor="middle" x="149.5" y="-359.8" font-family="Arial" font-size="14.00">2</text>
</g>
<!-- UC31&#45;&gt;UC32 -->
<g id="edge3" class="edge"><title>UC31:EXT&#45;&gt;UC32:JMP</title>
<g id="a_edge3"><a xlink:href="#UC3_1">
<path fill="none" stroke="black" d="M110,-383C125.229,-383 131.357,-383 142.888,-383"/>
<polygon fill="black" stroke="black" points="143,-386.5 153,-383 143,-379.5 143,-386.5"/>
</a>
</g>
</g>
<!-- UC31a1 -->
<g id="node6" class="node"><title>UC31a1</title>
<g id="a_node6"><a xlink:title="System shows an error message to the user.">
<path fill="#b3cde3" stroke="black" d="M197.667,-96.5C197.667,-96.5 218.333,-96.5 218.333,-96.5 222.167,-96.5 226,-100.333 226,-104.167 226,-104.167 226,-111.833 226,-111.833 226,-115.667 222.167,-119.5 218.333,-119.5 218.333,-119.5 197.667,-119.5 197.667,-119.5 193.833,-119.5 190,-115.667 190,-111.833 190,-111.833 190,-104.167 190,-104.167 190,-100.333 193.833,-96.5 197.667,-96.5"/>
<text text-anchor="middle" x="208" y="-104.3" font-family="Arial" font-size="14.00">•</text>
</a>
</g>
<text text-anchor="middle" x="177.5" y="-84.8" font-family="Arial" font-size="14.00">1a1</text>
</g>
<!-- UC31&#45;&gt;UC31a1 -->
<g id="edge7" class="edge"><title>UC31:EXT&#45;&gt;UC31a1:JMP</title>
<g id="a_edge7"><a xlink:href="#UC3_1">
<path fill="none" stroke="black" d="M93,-370C93,-254.222 113.112,-214.308 183.287,-127.74"/>
<polygon fill="black" stroke="black" points="186.177,-129.734 189.779,-119.771 180.749,-125.313 186.177,-129.734"/>
</a>
</g>
</g>
<!-- UC2 -->
<g id="node10" class="node"><title>UC2</title>
<g id="a_node10"><a xlink:href="../UC2/UC2.html" xlink:title="UC2 Generate city" target="_top">
<polygon fill="#fed9a6" stroke="black" points="274.5,-36 141.5,-36 141.5,-0 274.5,-0 274.5,-36"/>
<text text-anchor="middle" x="208" y="-14.3" font-family="Arial" font-size="14.00">UC2 Generate city</text>
</a>
</g>
</g>
<!-- UC31&#45;&gt;UC2 -->
<g id="edge1" class="edge"><title>UC31:JMP&#45;&gt;UC2</title>
<g id="a_edge1"><a xlink:href="#UC3_1">
<path fill="none" stroke="black" d="M56,-370C56,-228.657 56.2867,-177.614 139,-63 144.903,-54.8209 152.787,-47.7089 161.093,-41.7034"/>
<polygon fill="black" stroke="black" points="163.132,-44.55 169.481,-36.0683 159.229,-38.7393 163.132,-44.55"/>
</a>
</g>
</g>
<!-- UC33 -->
<g id="node3" class="node"><title>UC33</title>
<g id="a_node3"><a xlink:title="System asks RestaurantServer for restaurants.">
<path fill="#b3cde3" stroke="black" d="M320.667,-371.5C320.667,-371.5 341.333,-371.5 341.333,-371.5 345.167,-371.5 349,-375.333 349,-379.167 349,-379.167 349,-386.833 349,-386.833 349,-390.667 345.167,-394.5 341.333,-394.5 341.333,-394.5 320.667,-394.5 320.667,-394.5 316.833,-394.5 313,-390.667 313,-386.833 313,-386.833 313,-379.167 313,-379.167 313,-375.333 316.833,-371.5 320.667,-371.5"/>
<text text-anchor="middle" x="331" y="-379.3" font-family="Arial" font-size="14.00">•</text>
</a>
</g>
<text text-anchor="middle" x="308.5" y="-359.8" font-family="Arial" font-size="14.00">3</text>
</g>
<!-- UC32&#45;&gt;UC33 -->
<g id="edge4" class="edge"><title>UC32:OUT&#45;&gt;UC33:JMP</title>
<g id="a_edge4"><a xlink:href="#UC3_2">
<path fill="none" stroke="black" d="M263,-383C276.057,-383 290.525,-383 302.746,-383"/>
<polygon fill="black" stroke="black" points="302.817,-386.5 312.817,-383 302.817,-379.5 302.817,-386.5"/>
</a>
</g>
</g>
<!-- UC32a1 -->
<g id="node8" class="node"><title>UC32a1</title>
<g id="a_node8"><a xlink:title="System displays an error message to the user.">
<path fill="#b3cde3" stroke="black" d="M320.667,-248.5C320.667,-248.5 341.333,-248.5 341.333,-248.5 345.167,-248.5 349,-252.333 349,-256.167 349,-256.167 349,-263.833 349,-263.833 349,-267.667 345.167,-271.5 341.333,-271.5 341.333,-271.5 320.667,-271.5 320.667,-271.5 316.833,-271.5 313,-267.667 313,-263.833 313,-263.833 313,-256.167 313,-256.167 313,-252.333 316.833,-248.5 320.667,-248.5"/>
<text text-anchor="middle" x="331" y="-256.3" font-family="Arial" font-size="14.00">•</text>
</a>
</g>
<text text-anchor="middle" x="300.5" y="-236.8" font-family="Arial" font-size="14.00">2a1</text>
</g>
<!-- UC32&#45;&gt;UC32a1 -->
<g id="edge9" class="edge"><title>UC32:EXT&#45;&gt;UC32a1:JMP</title>
<g id="a_edge9"><a xlink:href="#UC3_2">
<path fill="none" stroke="black" d="M209,-370C209,-319.428 267.538,-286.138 303.516,-270.452"/>
<polygon fill="black" stroke="black" points="305.118,-273.577 312.998,-266.495 302.422,-267.117 305.118,-273.577"/>
</a>
</g>
</g>
<!-- UC34 -->
<g id="node4" class="node"><title>UC34</title>
<g id="a_node4"><a xlink:title="RestaurantServer generates the restaurant layer information.">
<path fill="#b3cde3" stroke="black" d="M415.667,-371.5C415.667,-371.5 436.333,-371.5 436.333,-371.5 440.167,-371.5 444,-375.333 444,-379.167 444,-379.167 444,-386.833 444,-386.833 444,-390.667 440.167,-394.5 436.333,-394.5 436.333,-394.5 415.667,-394.5 415.667,-394.5 411.833,-394.5 408,-390.667 408,-386.833 408,-386.833 408,-379.167 408,-379.167 408,-375.333 411.833,-371.5 415.667,-371.5"/>
<text text-anchor="middle" x="426" y="-379.3" font-family="Arial" font-size="14.00">•</text>
</a>
</g>
<text text-anchor="middle" x="403.5" y="-359.8" font-family="Arial" font-size="14.00">4</text>
</g>
<!-- UC33&#45;&gt;UC34 -->
<g id="edge5" class="edge"><title>UC33:JMP&#45;&gt;UC34:JMP</title>
<g id="a_edge5"><a xlink:href="#UC3_3">
<path fill="none" stroke="black" d="M349.317,-383C362.985,-383 381.917,-383 397.549,-383"/>
<polygon fill="black" stroke="black" points="397.739,-386.5 407.739,-383 397.739,-379.5 397.739,-386.5"/>
</a>
</g>
</g>
<!-- UC35 -->
<g id="node5" class="node"><title>UC35</title>
<g id="a_node5"><a xlink:title="System generates restaurant map.">
<path fill="#ccebc5" stroke="black" d="M489.667,-371.5C489.667,-371.5 510.333,-371.5 510.333,-371.5 514.167,-371.5 518,-375.333 518,-379.167 518,-379.167 518,-386.833 518,-386.833 518,-390.667 514.167,-394.5 510.333,-394.5 510.333,-394.5 489.667,-394.5 489.667,-394.5 485.833,-394.5 482,-390.667 482,-386.833 482,-386.833 482,-379.167 482,-379.167 482,-375.333 485.833,-371.5 489.667,-371.5"/>
<text text-anchor="middle" x="500" y="-379.3" font-family="Arial" font-size="14.00">•</text>
</a>
</g>
<text text-anchor="middle" x="477.5" y="-359.8" font-family="Arial" font-size="14.00">5</text>
</g>
<!-- UC34&#45;&gt;UC35 -->
<g id="edge6" class="edge"><title>UC34:JMP&#45;&gt;UC35:JMP</title>
<g id="a_edge6"><a xlink:href="#UC3_4">
<path fill="none" stroke="black" d="M444.292,-383C452.536,-383 462.462,-383 471.638,-383"/>
<polygon fill="black" stroke="black" points="471.918,-386.5 481.918,-383 471.918,-379.5 471.918,-386.5"/>
</a>
</g>
</g>
<!-- UC31a2 -->
<g id="node7" class="node"><title>UC31a2</title>
<g id="a_node7"><a xlink:title="Use case aborts.">
<path fill="#fbb4ae" stroke="black" d="M320.667,-96.5C320.667,-96.5 341.333,-96.5 341.333,-96.5 345.167,-96.5 349,-100.333 349,-104.167 349,-104.167 349,-111.833 349,-111.833 349,-115.667 345.167,-119.5 341.333,-119.5 341.333,-119.5 320.667,-119.5 320.667,-119.5 316.833,-119.5 313,-115.667 313,-111.833 313,-111.833 313,-104.167 313,-104.167 313,-100.333 316.833,-96.5 320.667,-96.5"/>
<text text-anchor="middle" x="331" y="-104.3" font-family="Arial" font-size="14.00">•</text>
</a>
</g>
<text text-anchor="middle" x="300.5" y="-84.8" font-family="Arial" font-size="14.00">1a2</text>
</g>
<!-- UC31a1&#45;&gt;UC31a2 -->
<g id="edge8" class="edge"><title>UC31a1:JMP&#45;&gt;UC31a2:JMP</title>
<g id="a_edge8"><a xlink:href="#UC3_1a1">
<path fill="none" stroke="black" d="M226.149,-108C246.316,-108 279.136,-108 302.687,-108"/>
<polygon fill="black" stroke="black" points="302.777,-111.5 312.776,-108 302.776,-104.5 302.777,-111.5"/>
</a>
</g>
</g>
<!-- UC32a2 -->
<g id="node9" class="node"><title>UC32a2</title>
<g id="a_node9"><a xlink:title="System uses the default zoom settings.">
<path fill="#b3cde3" stroke="black" d="M415.667,-248.5C415.667,-248.5 436.333,-248.5 436.333,-248.5 440.167,-248.5 444,-252.333 444,-256.167 444,-256.167 444,-263.833 444,-263.833 444,-267.667 440.167,-271.5 436.333,-271.5 436.333,-271.5 415.667,-271.5 415.667,-271.5 411.833,-271.5 408,-267.667 408,-263.833 408,-263.833 408,-256.167 408,-256.167 408,-252.333 411.833,-248.5 415.667,-248.5"/>
<text text-anchor="middle" x="426" y="-256.3" font-family="Arial" font-size="14.00">•</text>
</a>
</g>
<text text-anchor="middle" x="395.5" y="-236.8" font-family="Arial" font-size="14.00">2a2</text>
</g>
<!-- UC32a1&#45;&gt;UC32a2 -->
<g id="edge10" class="edge"><title>UC32a1:JMP&#45;&gt;UC32a2:JMP</title>
<g id="a_edge10"><a xlink:href="#UC3_2a1">
<path fill="none" stroke="black" d="M349.317,-260C362.985,-260 381.917,-260 397.549,-260"/>
<polygon fill="black" stroke="black" points="397.739,-263.5 407.739,-260 397.739,-256.5 397.739,-263.5"/>
</a>
</g>
</g>
<!-- UC32a2&#45;&gt;UC32 -->
<g id="edge11" class="edge"><title>UC32a2:JMP&#45;&gt;UC32:OUT</title>
<g id="a_edge11"><a xlink:href="#UC3_2a2">
<path fill="none" stroke="black" d="M407.651,-248.22C404.171,-245.34 404.391,-242.736 400,-241 351.644,-221.878 324.752,-210.004 283,-241 261.302,-257.108 247.007,-324.797 244.422,-359.867"/>
<polygon fill="black" stroke="black" points="240.92,-359.863 244,-370 247.914,-360.154 240.92,-359.863"/>
</a>
</g>
</g>
<!-- UC2&#45;&gt;UC31 -->
<g id="edge2" class="edge"><title>UC2&#45;&gt;UC31:EXT</title>
<path fill="none" stroke="black" d="M167.653,-36.22C156.751,-43.1167 146,-52.0173 139,-63 103.66,-118.445 93.8983,-284.423 93.0608,-359.592"/>
<polygon fill="black" stroke="black" points="89.5586,-359.98 93,-370 96.5584,-360.021 89.5586,-359.98"/>
</g>
</g>
</svg>
