<?xml version="1.0" encoding="UTF-8" standalone="no"?>
<!DOCTYPE svg PUBLIC "-//W3C//DTD SVG 1.1//EN"
 "http://www.w3.org/Graphics/SVG/1.1/DTD/svg11.dtd">
<!-- Generated by graphviz version 2.36.0 (20140111.2315)
 -->
<!-- Title: mygraph Pages: 1 -->
<svg width="1151pt" height="641pt"
 viewBox="62.00 62.00 1089.31 578.67" xmlns="http://www.w3.org/2000/svg" xmlns:xlink="http://www.w3.org/1999/xlink">
<g id="graph0" class="graph" transform="scale(0.861111 0.861111) rotate(0) translate(76 668)">
<title>mygraph</title>
<polygon fill="white" stroke="none" points="-4,4 -4,-596 1189,-596 1189,4 -4,4"/>
<g id="clust1" class="cluster"><title>cluster_UC6_</title>
<polygon fill="#ffffcc" stroke="black" points="8,-500 8,-584 1177,-584 1177,-500 8,-500"/>
</g>
<g id="clust2" class="cluster"><title>cluster_UC6_1a2a</title>
<polygon fill="#f2f2f2" stroke="black" points="529,-8 529,-130 726,-130 726,-8 529,-8"/>
<text text-anchor="start" x="537" y="-114.8" font-family="Arial" font-size="14.00" fill="gray">Extension: 1a2a.</text>
<text text-anchor="middle" x="627.5" y="-99.8" font-family="Arial" font-size="14.00" fill="gray"> Account already registered. </text>
</g>
<g id="clust3" class="cluster"><title>cluster_UC6_1a</title>
<polygon fill="#f2f2f2" stroke="black" points="276,-131 276,-253 638,-253 638,-131 276,-131"/>
<text text-anchor="start" x="284" y="-237.8" font-family="Arial" font-size="14.00" fill="gray">Variation: 1a.</text>
<text text-anchor="middle" x="388" y="-222.8" font-family="Arial" font-size="14.00" fill="gray"> User signs up using external s... </text>
</g>
<g id="clust4" class="cluster"><title>cluster_UC6_8a</title>
<polygon fill="#f2f2f2" stroke="black" points="879,-377 879,-499 1103,-499 1103,-377 879,-377"/>
<text text-anchor="start" x="887" y="-483.8" font-family="Arial" font-size="14.00" fill="gray">Variation: 8a.</text>
<text text-anchor="middle" x="991" y="-468.8" font-family="Arial" font-size="14.00" fill="gray"> User authenticated via externa... </text>
</g>
<g id="clust5" class="cluster"><title>cluster_UC6_2a</title>
<polygon fill="#f2f2f2" stroke="black" points="219,-377 219,-499 429,-499 429,-377 219,-377"/>
<text text-anchor="start" x="227" y="-483.8" font-family="Arial" font-size="14.00" fill="gray">Extension: 2a.</text>
<text text-anchor="middle" x="324" y="-468.8" font-family="Arial" font-size="14.00" fill="gray"> At least one of the entries is... </text>
</g>
<g id="clust6" class="cluster"><title>cluster_UC6_2b</title>
<polygon fill="#f2f2f2" stroke="black" points="276,-254 276,-376 521,-376 521,-254 276,-254"/>
<text text-anchor="start" x="284" y="-360.8" font-family="Arial" font-size="14.00" fill="gray">Extension: 2b.</text>
<text text-anchor="middle" x="392" y="-345.8" font-family="Arial" font-size="14.00" fill="gray"> Email address already associat... </text>
</g>
<!-- UC61 -->
<g id="node1" class="node"><title>UC61</title>
<g id="a_node1"><a xlink:title="User provides email, password, password confirmation 
		 &#160;and captcha.">
<path fill="#b3cde3" stroke="black" d="M45.6667,-530.5C45.6667,-530.5 102.333,-530.5 102.333,-530.5 106.167,-530.5 110,-534.333 110,-538.167 110,-538.167 110,-545.833 110,-545.833 110,-549.667 106.167,-553.5 102.333,-553.5 102.333,-553.5 45.6667,-553.5 45.6667,-553.5 41.8333,-553.5 38,-549.667 38,-545.833 38,-545.833 38,-538.167 38,-538.167 38,-534.333 41.8333,-530.5 45.6667,-530.5"/>
<text text-anchor="middle" x="55.5" y="-538.3" font-family="Arial" font-size="14.00"> </text>
<polyline fill="none" stroke="black" points="73,-530.5 73,-553.5 "/>
<text text-anchor="middle" x="91.5" y="-538.3" font-family="Arial" font-size="14.00">•</text>
</a>
</g>
<text text-anchor="middle" x="33.5" y="-518.8" font-family="Arial" font-size="14.00">1</text>
</g>
<!-- UC62 -->
<g id="node2" class="node"><title>UC62</title>
<g id="a_node2"><a xlink:title="System validates the provided data.">
<path fill="#b3cde3" stroke="black" d="M146.667,-530.5C146.667,-530.5 203.333,-530.5 203.333,-530.5 207.167,-530.5 211,-534.333 211,-538.167 211,-538.167 211,-545.833 211,-545.833 211,-549.667 207.167,-553.5 203.333,-553.5 203.333,-553.5 146.667,-553.5 146.667,-553.5 142.833,-553.5 139,-549.667 139,-545.833 139,-545.833 139,-538.167 139,-538.167 139,-534.333 142.833,-530.5 146.667,-530.5"/>
<text text-anchor="middle" x="157.5" y="-538.3" font-family="Arial" font-size="14.00">•</text>
<polyline fill="none" stroke="black" points="176,-530.5 176,-553.5 "/>
<text text-anchor="middle" x="193.5" y="-538.3" font-family="Arial" font-size="14.00"> </text>
</a>
</g>
<text text-anchor="middle" x="134.5" y="-518.8" font-family="Arial" font-size="14.00">2</text>
</g>
<!-- UC61&#45;&gt;UC62 -->
<g id="edge1" class="edge"><title>UC61:JMP&#45;&gt;UC62:JMP</title>
<g id="a_edge1"><a xlink:href="#UC6_1">
<path fill="none" stroke="black" d="M110,-542C118.66,-542 122.956,-542 128.752,-542"/>
<polygon fill="black" stroke="black" points="129,-545.5 139,-542 129,-538.5 129,-545.5"/>
</a>
</g>
</g>
<!-- UC61a1 -->
<g id="node13" class="node"><title>UC61a1</title>
<g id="a_node13"><a xlink:title="User authenicates himself using external authentication 
		 &#160;&#160;&#160;service. ">
<path fill="#b3cde3" stroke="black" d="M313.667,-161.5C313.667,-161.5 334.333,-161.5 334.333,-161.5 338.167,-161.5 342,-165.333 342,-169.167 342,-169.167 342,-176.833 342,-176.833 342,-180.667 338.167,-184.5 334.333,-184.5 334.333,-184.5 313.667,-184.5 313.667,-184.5 309.833,-184.5 306,-180.667 306,-176.833 306,-176.833 306,-169.167 306,-169.167 306,-165.333 309.833,-161.5 313.667,-161.5"/>
<text text-anchor="middle" x="324" y="-169.3" font-family="Arial" font-size="14.00">•</text>
</a>
</g>
<text text-anchor="middle" x="293.5" y="-149.8" font-family="Arial" font-size="14.00">1a1</text>
</g>
<!-- UC61&#45;&gt;UC61a1 -->
<g id="edge12" class="edge"><title>UC61:VAR&#45;&gt;UC61a1:JMP</title>
<g id="a_edge12"><a xlink:href="#UC6_1">
<path fill="none" stroke="black" d="M55,-529C55,-369.234 229.59,-235.836 297.461,-190.013"/>
<polygon fill="black" stroke="black" points="299.546,-192.83 305.932,-184.376 295.668,-187.002 299.546,-192.83"/>
</a>
</g>
</g>
<!-- UC63 -->
<g id="node3" class="node"><title>UC63</title>
<g id="a_node3"><a xlink:title="System sends email to given email address to verify 
		 &#160;that user has access to the given mailbox.">
<path fill="#b3cde3" stroke="black" d="M313.667,-530.5C313.667,-530.5 334.333,-530.5 334.333,-530.5 338.167,-530.5 342,-534.333 342,-538.167 342,-538.167 342,-545.833 342,-545.833 342,-549.667 338.167,-553.5 334.333,-553.5 334.333,-553.5 313.667,-553.5 313.667,-553.5 309.833,-553.5 306,-549.667 306,-545.833 306,-545.833 306,-538.167 306,-538.167 306,-534.333 309.833,-530.5 313.667,-530.5"/>
<text text-anchor="middle" x="324" y="-538.3" font-family="Arial" font-size="14.00">•</text>
</a>
</g>
<text text-anchor="middle" x="301.5" y="-518.8" font-family="Arial" font-size="14.00">3</text>
</g>
<!-- UC62&#45;&gt;UC63 -->
<g id="edge2" class="edge"><title>UC62:EXT&#45;&gt;UC63:JMP</title>
<g id="a_edge2"><a xlink:href="#UC6_2">
<path fill="none" stroke="black" d="M211,-542C239.96,-542 273.096,-542 295.961,-542"/>
<polygon fill="black" stroke="black" points="295.995,-545.5 305.995,-542 295.995,-538.5 295.995,-545.5"/>
</a>
</g>
</g>
<!-- UC62a1 -->
<g id="node17" class="node"><title>UC62a1</title>
<g id="a_node17"><a xlink:title="System shows message with given problem. #(abort)">
<path fill="#fbb4ae" stroke="black" d="M313.667,-407.5C313.667,-407.5 334.333,-407.5 334.333,-407.5 338.167,-407.5 342,-411.333 342,-415.167 342,-415.167 342,-422.833 342,-422.833 342,-426.667 338.167,-430.5 334.333,-430.5 334.333,-430.5 313.667,-430.5 313.667,-430.5 309.833,-430.5 306,-426.667 306,-422.833 306,-422.833 306,-415.167 306,-415.167 306,-411.333 309.833,-407.5 313.667,-407.5"/>
<text text-anchor="middle" x="324" y="-415.3" font-family="Arial" font-size="14.00">•</text>
</a>
</g>
<text text-anchor="middle" x="293.5" y="-395.8" font-family="Arial" font-size="14.00">2a1</text>
</g>
<!-- UC62&#45;&gt;UC62a1 -->
<g id="edge18" class="edge"><title>UC62:EXT&#45;&gt;UC62a1:JMP</title>
<g id="a_edge18"><a xlink:href="#UC6_2">
<path fill="none" stroke="black" d="M211,-542C221.157,-542 213.717,-505.675 219,-497 237.353,-466.866 272.107,-444.578 296.592,-431.712"/>
<polygon fill="black" stroke="black" points="298.391,-434.725 305.738,-427.091 295.234,-428.477 298.391,-434.725"/>
</a>
</g>
</g>
<!-- UC62b1 -->
<g id="node18" class="node"><title>UC62b1</title>
<g id="a_node18"><a xlink:title="System shows message that the email address is already 
		 &#160;&#160;&#160;associated with an account. #(guard:account_created)">
<path fill="#b3cde3" stroke="black" d="M313.667,-284.5C313.667,-284.5 334.333,-284.5 334.333,-284.5 338.167,-284.5 342,-288.333 342,-292.167 342,-292.167 342,-299.833 342,-299.833 342,-303.667 338.167,-307.5 334.333,-307.5 334.333,-307.5 313.667,-307.5 313.667,-307.5 309.833,-307.5 306,-303.667 306,-299.833 306,-299.833 306,-292.167 306,-292.167 306,-288.333 309.833,-284.5 313.667,-284.5"/>
<text text-anchor="middle" x="324" y="-292.3" font-family="Arial" font-size="14.00">•</text>
</a>
</g>
<text text-anchor="middle" x="293.5" y="-272.8" font-family="Arial" font-size="14.00">2b1</text>
</g>
<!-- UC62&#45;&gt;UC62b1 -->
<g id="edge19" class="edge"><title>UC62:EXT&#45;&gt;UC62b1:JMP</title>
<g id="a_edge19"><a xlink:href="#UC6_2">
<path fill="none" stroke="black" d="M194,-529C194,-494.11 201.091,-403.942 219,-374 237.111,-343.72 271.917,-321.463 296.48,-308.644"/>
<polygon fill="black" stroke="black" points="298.287,-311.654 305.657,-304.042 295.149,-305.396 298.287,-311.654"/>
</a>
</g>
</g>
<!-- UC64 -->
<g id="node4" class="node"><title>UC64</title>
<g id="a_node4"><a xlink:title="System notifies the user to proceed by following 
		 &#160;instructions in the sent email.">
<path fill="#b3cde3" stroke="black" d="M462.667,-530.5C462.667,-530.5 483.333,-530.5 483.333,-530.5 487.167,-530.5 491,-534.333 491,-538.167 491,-538.167 491,-545.833 491,-545.833 491,-549.667 487.167,-553.5 483.333,-553.5 483.333,-553.5 462.667,-553.5 462.667,-553.5 458.833,-553.5 455,-549.667 455,-545.833 455,-545.833 455,-538.167 455,-538.167 455,-534.333 458.833,-530.5 462.667,-530.5"/>
<text text-anchor="middle" x="473" y="-538.3" font-family="Arial" font-size="14.00">•</text>
</a>
</g>
<text text-anchor="middle" x="450.5" y="-518.8" font-family="Arial" font-size="14.00">4</text>
</g>
<!-- UC63&#45;&gt;UC64 -->
<g id="edge3" class="edge"><title>UC63:JMP&#45;&gt;UC64:JMP</title>
<g id="a_edge3"><a xlink:href="#UC6_3">
<path fill="none" stroke="black" d="M342.27,-542C367.74,-542 414.171,-542 444.291,-542"/>
<polygon fill="black" stroke="black" points="444.58,-545.5 454.58,-542 444.58,-538.5 444.58,-545.5"/>
</a>
</g>
</g>
<!-- UC65 -->
<g id="node5" class="node"><title>UC65</title>
<g id="a_node5"><a xlink:title="User opens the email and follows the link (the link 
		 &#160;points to the page that continues in user&#39;s registration).">
<path fill="#b3cde3" stroke="black" d="M579.667,-530.5C579.667,-530.5 600.333,-530.5 600.333,-530.5 604.167,-530.5 608,-534.333 608,-538.167 608,-538.167 608,-545.833 608,-545.833 608,-549.667 604.167,-553.5 600.333,-553.5 600.333,-553.5 579.667,-553.5 579.667,-553.5 575.833,-553.5 572,-549.667 572,-545.833 572,-545.833 572,-538.167 572,-538.167 572,-534.333 575.833,-530.5 579.667,-530.5"/>
<text text-anchor="middle" x="590" y="-538.3" font-family="Arial" font-size="14.00">•</text>
</a>
</g>
<text text-anchor="middle" x="567.5" y="-518.8" font-family="Arial" font-size="14.00">5</text>
</g>
<!-- UC64&#45;&gt;UC65 -->
<g id="edge4" class="edge"><title>UC64:JMP&#45;&gt;UC65:JMP</title>
<g id="a_edge4"><a xlink:href="#UC6_4">
<path fill="none" stroke="black" d="M491.025,-542C509.864,-542 539.689,-542 561.679,-542"/>
<polygon fill="black" stroke="black" points="561.762,-545.5 571.762,-542 561.762,-538.5 561.762,-545.5"/>
</a>
</g>
</g>
<!-- UC66 -->
<g id="node6" class="node"><title>UC66</title>
<g id="a_node6"><a xlink:title="System presents legal terms.">
<path fill="#b3cde3" stroke="black" d="M653.667,-530.5C653.667,-530.5 674.333,-530.5 674.333,-530.5 678.167,-530.5 682,-534.333 682,-538.167 682,-538.167 682,-545.833 682,-545.833 682,-549.667 678.167,-553.5 674.333,-553.5 674.333,-553.5 653.667,-553.5 653.667,-553.5 649.833,-553.5 646,-549.667 646,-545.833 646,-545.833 646,-538.167 646,-538.167 646,-534.333 649.833,-530.5 653.667,-530.5"/>
<text text-anchor="middle" x="664" y="-538.3" font-family="Arial" font-size="14.00">•</text>
</a>
</g>
<text text-anchor="middle" x="641.5" y="-518.8" font-family="Arial" font-size="14.00">6</text>
</g>
<!-- UC65&#45;&gt;UC66 -->
<g id="edge5" class="edge"><title>UC65:JMP&#45;&gt;UC66:JMP</title>
<g id="a_edge5"><a xlink:href="#UC6_5">
<path fill="none" stroke="black" d="M608.292,-542C616.536,-542 626.462,-542 635.638,-542"/>
<polygon fill="black" stroke="black" points="635.918,-545.5 645.918,-542 635.918,-538.5 635.918,-545.5"/>
</a>
</g>
</g>
<!-- UC67 -->
<g id="node7" class="node"><title>UC67</title>
<g id="a_node7"><a xlink:title="User accepts the terms.">
<path fill="#b3cde3" stroke="black" d="M741.667,-530.5C741.667,-530.5 762.333,-530.5 762.333,-530.5 766.167,-530.5 770,-534.333 770,-538.167 770,-538.167 770,-545.833 770,-545.833 770,-549.667 766.167,-553.5 762.333,-553.5 762.333,-553.5 741.667,-553.5 741.667,-553.5 737.833,-553.5 734,-549.667 734,-545.833 734,-545.833 734,-538.167 734,-538.167 734,-534.333 737.833,-530.5 741.667,-530.5"/>
<text text-anchor="middle" x="752" y="-538.3" font-family="Arial" font-size="14.00">•</text>
</a>
</g>
<text text-anchor="middle" x="729.5" y="-518.8" font-family="Arial" font-size="14.00">7</text>
</g>
<!-- UC66&#45;&gt;UC67 -->
<g id="edge6" class="edge"><title>UC66:JMP&#45;&gt;UC67:JMP</title>
<g id="a_edge6"><a xlink:href="#UC6_6">
<path fill="none" stroke="black" d="M682.234,-542C694.151,-542 709.962,-542 723.518,-542"/>
<polygon fill="black" stroke="black" points="723.79,-545.5 733.79,-542 723.79,-538.5 723.79,-545.5"/>
</a>
</g>
</g>
<!-- UC68 -->
<g id="node8" class="node"><title>UC68</title>
<g id="a_node8"><a xlink:title="System creates new user account with given email and 
		 &#160;password. #(emit:email)">
<path fill="#b3cde3" stroke="black" d="M806.667,-530.5C806.667,-530.5 863.333,-530.5 863.333,-530.5 867.167,-530.5 871,-534.333 871,-538.167 871,-538.167 871,-545.833 871,-545.833 871,-549.667 867.167,-553.5 863.333,-553.5 863.333,-553.5 806.667,-553.5 806.667,-553.5 802.833,-553.5 799,-549.667 799,-545.833 799,-545.833 799,-538.167 799,-538.167 799,-534.333 802.833,-530.5 806.667,-530.5"/>
<text text-anchor="middle" x="816.5" y="-538.3" font-family="Arial" font-size="14.00"> </text>
<polyline fill="none" stroke="black" points="834,-530.5 834,-553.5 "/>
<text text-anchor="middle" x="852.5" y="-538.3" font-family="Arial" font-size="14.00">•</text>
</a>
</g>
<text text-anchor="middle" x="794.5" y="-518.8" font-family="Arial" font-size="14.00">8</text>
</g>
<!-- UC67&#45;&gt;UC68 -->
<g id="edge7" class="edge"><title>UC67:JMP&#45;&gt;UC68:VAR</title>
<g id="a_edge7"><a xlink:href="#UC6_7">
<path fill="none" stroke="black" d="M770.303,-542C776.008,-542 782.508,-542 788.977,-542"/>
<polygon fill="black" stroke="black" points="789,-545.5 799,-542 789,-538.5 789,-545.5"/>
</a>
</g>
</g>
<!-- UC69 -->
<g id="node9" class="node"><title>UC69</title>
<g id="a_node9"><a xlink:title="System assigns user free plan. #(mark:free_plan) 
		 &#160;#(emit:free_plan)">
<path fill="#b3cde3" stroke="black" d="M980.667,-530.5C980.667,-530.5 1001.33,-530.5 1001.33,-530.5 1005.17,-530.5 1009,-534.333 1009,-538.167 1009,-538.167 1009,-545.833 1009,-545.833 1009,-549.667 1005.17,-553.5 1001.33,-553.5 1001.33,-553.5 980.667,-553.5 980.667,-553.5 976.833,-553.5 973,-549.667 973,-545.833 973,-545.833 973,-538.167 973,-538.167 973,-534.333 976.833,-530.5 980.667,-530.5"/>
<text text-anchor="middle" x="991" y="-538.3" font-family="Arial" font-size="14.00">•</text>
</a>
</g>
<text text-anchor="middle" x="968.5" y="-518.8" font-family="Arial" font-size="14.00">9</text>
</g>
<!-- UC68&#45;&gt;UC69 -->
<g id="edge8" class="edge"><title>UC68:JMP&#45;&gt;UC69:JMP</title>
<g id="a_edge8"><a xlink:href="#UC6_8">
<path fill="none" stroke="black" d="M871,-542C902.255,-542 938.089,-542 962.401,-542"/>
<polygon fill="black" stroke="black" points="962.703,-545.5 972.703,-542 962.703,-538.5 962.703,-545.5"/>
</a>
</g>
</g>
<!-- UC68a1 -->
<g id="node16" class="node"><title>UC68a1</title>
<g id="a_node16"><a xlink:title="System creates new user account without email and 
		 &#160;&#160;&#160;password. #(guard:external_auth) #(goto:9)">
<path fill="#b3cde3" stroke="black" d="M980.667,-407.5C980.667,-407.5 1001.33,-407.5 1001.33,-407.5 1005.17,-407.5 1009,-411.333 1009,-415.167 1009,-415.167 1009,-422.833 1009,-422.833 1009,-426.667 1005.17,-430.5 1001.33,-430.5 1001.33,-430.5 980.667,-430.5 980.667,-430.5 976.833,-430.5 973,-426.667 973,-422.833 973,-422.833 973,-415.167 973,-415.167 973,-411.333 976.833,-407.5 980.667,-407.5"/>
<text text-anchor="middle" x="991" y="-415.3" font-family="Arial" font-size="14.00">•</text>
</a>
</g>
<text text-anchor="middle" x="960.5" y="-395.8" font-family="Arial" font-size="14.00">8a1</text>
</g>
<!-- UC68&#45;&gt;UC68a1 -->
<g id="edge16" class="edge"><title>UC68:VAR&#45;&gt;UC68a1:JMP</title>
<g id="a_edge16"><a xlink:href="#UC6_8">
<path fill="none" stroke="black" d="M816,-529C816,-460.464 913.401,-432.966 962.873,-423.419"/>
<polygon fill="black" stroke="black" points="963.714,-426.824 972.931,-421.599 962.468,-419.936 963.714,-426.824"/>
</a>
</g>
</g>
<!-- UC610 -->
<g id="node10" class="node"><title>UC610</title>
<g id="a_node10"><a xlink:title="Use case finishes. #(mark:account_created)">
<path fill="#ccebc5" stroke="black" d="M1118.67,-530.5C1118.67,-530.5 1139.33,-530.5 1139.33,-530.5 1143.17,-530.5 1147,-534.333 1147,-538.167 1147,-538.167 1147,-545.833 1147,-545.833 1147,-549.667 1143.17,-553.5 1139.33,-553.5 1139.33,-553.5 1118.67,-553.5 1118.67,-553.5 1114.83,-553.5 1111,-549.667 1111,-545.833 1111,-545.833 1111,-538.167 1111,-538.167 1111,-534.333 1114.83,-530.5 1118.67,-530.5"/>
<text text-anchor="middle" x="1129" y="-538.3" font-family="Arial" font-size="14.00">•</text>
</a>
</g>
<text text-anchor="middle" x="1102.5" y="-518.8" font-family="Arial" font-size="14.00">10</text>
</g>
<!-- UC69&#45;&gt;UC610 -->
<g id="edge9" class="edge"><title>UC69:JMP&#45;&gt;UC610:JMP</title>
<g id="a_edge9"><a xlink:href="#UC6_9">
<path fill="none" stroke="black" d="M1009.04,-542C1032.39,-542 1073.33,-542 1100.8,-542"/>
<polygon fill="black" stroke="black" points="1100.95,-545.5 1110.95,-542 1100.95,-538.5 1100.95,-545.5"/>
</a>
</g>
</g>
<!-- UC61a2a1 -->
<g id="node11" class="node"><title>UC61a2a1</title>
<g id="a_node11"><a xlink:title="System detects already existing account. 
		 &#160;&#160;&#160;&#160;&#160;#(guard:account_created)">
<path fill="#b3cde3" stroke="black" d="M579.667,-38.5C579.667,-38.5 600.333,-38.5 600.333,-38.5 604.167,-38.5 608,-42.3333 608,-46.1667 608,-46.1667 608,-53.8333 608,-53.8333 608,-57.6667 604.167,-61.5 600.333,-61.5 600.333,-61.5 579.667,-61.5 579.667,-61.5 575.833,-61.5 572,-57.6667 572,-53.8333 572,-53.8333 572,-46.1667 572,-46.1667 572,-42.3333 575.833,-38.5 579.667,-38.5"/>
<text text-anchor="middle" x="590" y="-46.3" font-family="Arial" font-size="14.00">•</text>
</a>
</g>
<text text-anchor="middle" x="552" y="-26.8" font-family="Arial" font-size="14.00">1a2a1</text>
</g>
<!-- UC61a2a2 -->
<g id="node12" class="node"><title>UC61a2a2</title>
<g id="a_node12"><a xlink:title="System shows message that account is already 
		 &#160;&#160;&#160;&#160;&#160;registered. #(abort)">
<path fill="#fbb4ae" stroke="black" d="M653.667,-38.5C653.667,-38.5 674.333,-38.5 674.333,-38.5 678.167,-38.5 682,-42.3333 682,-46.1667 682,-46.1667 682,-53.8333 682,-53.8333 682,-57.6667 678.167,-61.5 674.333,-61.5 674.333,-61.5 653.667,-61.5 653.667,-61.5 649.833,-61.5 646,-57.6667 646,-53.8333 646,-53.8333 646,-46.1667 646,-46.1667 646,-42.3333 649.833,-38.5 653.667,-38.5"/>
<text text-anchor="middle" x="664" y="-46.3" font-family="Arial" font-size="14.00">•</text>
</a>
</g>
<text text-anchor="middle" x="626" y="-26.8" font-family="Arial" font-size="14.00">1a2a2</text>
</g>
<!-- UC61a2a1&#45;&gt;UC61a2a2 -->
<g id="edge11" class="edge"><title>UC61a2a1:JMP&#45;&gt;UC61a2a2:JMP</title>
<g id="a_edge11"><a xlink:href="#UC6_1a2a1">
<path fill="none" stroke="black" d="M608.292,-50C616.536,-50 626.462,-50 635.638,-50"/>
<polygon fill="black" stroke="black" points="635.918,-53.5001 645.918,-50 635.918,-46.5001 635.918,-53.5001"/>
</a>
</g>
</g>
<!-- UC61a2 -->
<g id="node14" class="node"><title>UC61a2</title>
<g id="a_node14"><a xlink:title="System validates that user does not have account in the
		 &#160;&#160;&#160;system yet.">
<path fill="#b3cde3" stroke="black" d="M444.667,-161.5C444.667,-161.5 501.333,-161.5 501.333,-161.5 505.167,-161.5 509,-165.333 509,-169.167 509,-169.167 509,-176.833 509,-176.833 509,-180.667 505.167,-184.5 501.333,-184.5 501.333,-184.5 444.667,-184.5 444.667,-184.5 440.833,-184.5 437,-180.667 437,-176.833 437,-176.833 437,-169.167 437,-169.167 437,-165.333 440.833,-161.5 444.667,-161.5"/>
<text text-anchor="middle" x="455.5" y="-169.3" font-family="Arial" font-size="14.00">•</text>
<polyline fill="none" stroke="black" points="474,-161.5 474,-184.5 "/>
<text text-anchor="middle" x="491.5" y="-169.3" font-family="Arial" font-size="14.00"> </text>
</a>
</g>
<text text-anchor="middle" x="424.5" y="-149.8" font-family="Arial" font-size="14.00">1a2</text>
</g>
<!-- UC61a1&#45;&gt;UC61a2 -->
<g id="edge13" class="edge"><title>UC61a1:JMP&#45;&gt;UC61a2:JMP</title>
<g id="a_edge13"><a xlink:href="#UC6_1a1">
<path fill="none" stroke="black" d="M342.005,-173C362.039,-173 395.675,-173 426.629,-173"/>
<polygon fill="black" stroke="black" points="427,-176.5 437,-173 427,-169.5 427,-176.5"/>
</a>
</g>
</g>
<!-- UC61a2&#45;&gt;UC61a2a1 -->
<g id="edge10" class="edge"><title>UC61a2:EXT&#45;&gt;UC61a2a1:JMP</title>
<g id="a_edge10"><a xlink:href="#UC6_1a2">
<path fill="none" stroke="black" d="M510,-173C531.71,-173 518.845,-147.188 529,-128 543.669,-100.281 546.523,-88.8671 564.625,-69.1507"/>
<polygon fill="black" stroke="black" points="567.296,-71.4226 571.709,-61.7902 562.253,-66.5688 567.296,-71.4226"/>
</a>
</g>
</g>
<!-- UC61a3 -->
<g id="node15" class="node"><title>UC61a3</title>
<g id="a_node15"><a xlink:title="System notes that user has been validated through
		 &#160;&#160;&#160;external service #(mark:external_auth) #(goto:6)">
<path fill="#b3cde3" stroke="black" d="M579.667,-161.5C579.667,-161.5 600.333,-161.5 600.333,-161.5 604.167,-161.5 608,-165.333 608,-169.167 608,-169.167 608,-176.833 608,-176.833 608,-180.667 604.167,-184.5 600.333,-184.5 600.333,-184.5 579.667,-184.5 579.667,-184.5 575.833,-184.5 572,-180.667 572,-176.833 572,-176.833 572,-169.167 572,-169.167 572,-165.333 575.833,-161.5 579.667,-161.5"/>
<text text-anchor="middle" x="590" y="-169.3" font-family="Arial" font-size="14.00">•</text>
</a>
</g>
<text text-anchor="middle" x="559.5" y="-149.8" font-family="Arial" font-size="14.00">1a3</text>
</g>
<!-- UC61a2&#45;&gt;UC61a3 -->
<g id="edge14" class="edge"><title>UC61a2:EXT&#45;&gt;UC61a3:JMP</title>
<g id="a_edge14"><a xlink:href="#UC6_1a2">
<path fill="none" stroke="black" d="M510,-173C527.1,-173 546.255,-173 561.534,-173"/>
<polygon fill="black" stroke="black" points="561.89,-176.5 571.89,-173 561.89,-169.5 561.89,-176.5"/>
</a>
</g>
</g>
<!-- UC61a3&#45;&gt;UC66 -->
<g id="edge15" class="edge"><title>UC61a3:JMP&#45;&gt;UC66:JMP</title>
<g id="a_edge15"><a xlink:href="#UC6_1a3">
<path fill="none" stroke="black" d="M608.12,-184.706C617.486,-201.807 632.959,-464.177 643.303,-520.553"/>
<polygon fill="black" stroke="black" points="639.939,-521.523 645.881,-530.295 646.707,-519.732 639.939,-521.523"/>
</a>
</g>
</g>
<!-- UC68a1&#45;&gt;UC69 -->
<g id="edge17" class="edge"><title>UC68a1:JMP&#45;&gt;UC69:JMP</title>
<g id="a_edge17"><a xlink:href="#UC6_8a1">
<path fill="none" stroke="black" d="M995.094,-519.955C996.91,-493.872 996.586,-450.439 994.123,-430.541"/>
<polygon fill="black" stroke="black" points="991.577,-519.984 994.148,-530.262 998.548,-520.624 991.577,-519.984"/>
</a>
</g>
</g>
<!-- UC62b2 -->
<g id="node19" class="node"><title>UC62b2</title>
<g id="a_node19"><a xlink:title="System sends email to the given email address with login 
		 &#160;&#160;&#160;instructions. #(abort)">
<path fill="#fbb4ae" stroke="black" d="M462.667,-284.5C462.667,-284.5 483.333,-284.5 483.333,-284.5 487.167,-284.5 491,-288.333 491,-292.167 491,-292.167 491,-299.833 491,-299.833 491,-303.667 487.167,-307.5 483.333,-307.5 483.333,-307.5 462.667,-307.5 462.667,-307.5 458.833,-307.5 455,-303.667 455,-299.833 455,-299.833 455,-292.167 455,-292.167 455,-288.333 458.833,-284.5 462.667,-284.5"/>
<text text-anchor="middle" x="473" y="-292.3" font-family="Arial" font-size="14.00">•</text>
</a>
</g>
<text text-anchor="middle" x="442.5" y="-272.8" font-family="Arial" font-size="14.00">2b2</text>
</g>
<!-- UC62b1&#45;&gt;UC62b2 -->
<g id="edge20" class="edge"><title>UC62b1:JMP&#45;&gt;UC62b2:JMP</title>
<g id="a_edge20"><a xlink:href="#UC6_2b1">
<path fill="none" stroke="black" d="M342.27,-296C367.74,-296 414.171,-296 444.291,-296"/>
<polygon fill="black" stroke="black" points="444.58,-299.5 454.58,-296 444.58,-292.5 444.58,-299.5"/>
</a>
</g>
</g>
</g>
</svg>
