<?xml version="1.0" encoding="UTF-8" standalone="no"?>
<!DOCTYPE svg PUBLIC "-//W3C//DTD SVG 1.1//EN"
 "http://www.w3.org/Graphics/SVG/1.1/DTD/svg11.dtd">
<!-- Generated by graphviz version 2.37.20140307.0545 (20140307.0545)
 -->
<!-- Title: mygraph Pages: 1 -->
<svg width="791pt" height="442pt"
 viewBox="62.00 62.00 728.50 379.54" xmlns="http://www.w3.org/2000/svg" xmlns:xlink="http://www.w3.org/1999/xlink">
<g id="graph0" class="graph" transform="scale(0.861111 0.861111) rotate(0) translate(76 436.759)">
<title>mygraph</title>
<polygon fill="white" stroke="none" points="-4,4 -4,-364.759 770,-364.759 770,4 -4,4"/>
<g id="clust1" class="cluster"><title>cluster_UC4</title>
<polygon fill="#ffffcc" stroke="black" points="8,-107.759 8,-191.759 335,-191.759 335,-107.759 8,-107.759"/>
</g>
<g id="clust2" class="cluster"><title>cluster_UC44a</title>
<polygon fill="#f2f2f2" stroke="black" points="392,-230.759 392,-352.759 758,-352.759 758,-230.759 392,-230.759"/>
<text text-anchor="start" x="400" y="-337.559" font-family="Arial" font-size="14.00" fill="gray">Variation: 4a.</text>
<text text-anchor="middle" x="530" y="-322.559" font-family="Arial" font-size="14.00" fill="gray"> Designer nesuhlasi s prevzatim zakazky. </text>
</g>
<g id="clust3" class="cluster"><title>cluster_UC44b</title>
<polygon fill="#f2f2f2" stroke="black" points="343,-107.759 343,-229.759 663,-229.759 663,-107.759 343,-107.759"/>
<text text-anchor="start" x="351" y="-214.559" font-family="Arial" font-size="14.00" fill="gray">Variation: 4b.</text>
<text text-anchor="middle" x="503" y="-199.559" font-family="Arial" font-size="14.00" fill="gray"> Ziadny designer nesuhlasi s prevzatim zakazky. </text>
</g>
<!-- UC41 -->
<g id="node1" class="node"><title>UC41</title>
<g id="a_node1"><a xlink:title="Koordinator priradi designera ku zakazke.">
<path fill="#b3cde3" stroke="black" d="M45.6667,-138.259C45.6667,-138.259 66.3333,-138.259 66.3333,-138.259 70.1667,-138.259 74,-142.092 74,-145.926 74,-145.926 74,-153.592 74,-153.592 74,-157.426 70.1667,-161.259 66.3333,-161.259 66.3333,-161.259 45.6667,-161.259 45.6667,-161.259 41.8333,-161.259 38,-157.426 38,-153.592 38,-153.592 38,-145.926 38,-145.926 38,-142.092 41.8333,-138.259 45.6667,-138.259"/>
<text text-anchor="middle" x="56" y="-146.059" font-family="Arial" font-size="14.00">•</text>
</a>
</g>
<text text-anchor="middle" x="33.5" y="-126.559" font-family="Arial" font-size="14.00">1</text>
</g>
<!-- UC42 -->
<g id="node2" class="node"><title>UC42</title>
<g id="a_node2"><a xlink:title="System notifikuje designera o zakazke.">
<path fill="#b3cde3" stroke="black" d="M110.667,-138.259C110.667,-138.259 131.333,-138.259 131.333,-138.259 135.167,-138.259 139,-142.092 139,-145.926 139,-145.926 139,-153.592 139,-153.592 139,-157.426 135.167,-161.259 131.333,-161.259 131.333,-161.259 110.667,-161.259 110.667,-161.259 106.833,-161.259 103,-157.426 103,-153.592 103,-153.592 103,-145.926 103,-145.926 103,-142.092 106.833,-138.259 110.667,-138.259"/>
<text text-anchor="middle" x="121" y="-146.059" font-family="Arial" font-size="14.00">•</text>
</a>
</g>
<text text-anchor="middle" x="98.5" y="-126.559" font-family="Arial" font-size="14.00">2</text>
</g>
<!-- UC41&#45;&gt;UC42 -->
<g id="edge3" class="edge"><title>UC41:JMP&#45;&gt;UC42:JMP</title>
<g id="a_edge3"><a xlink:href="#UC4_1">
<path fill="none" stroke="black" d="M74.1061,-149.759C79.8817,-149.759 86.4172,-149.759 92.7354,-149.759"/>
<polygon fill="black" stroke="black" points="92.991,-153.259 102.991,-149.759 92.9909,-146.259 92.991,-153.259"/>
</a>
</g>
</g>
<!-- UC43 -->
<g id="node3" class="node"><title>UC43</title>
<g id="a_node3"><a xlink:title="Designer si prezrie zakazku.">
<path fill="#b3cde3" stroke="black" d="M175.667,-138.259C175.667,-138.259 196.333,-138.259 196.333,-138.259 200.167,-138.259 204,-142.092 204,-145.926 204,-145.926 204,-153.592 204,-153.592 204,-157.426 200.167,-161.259 196.333,-161.259 196.333,-161.259 175.667,-161.259 175.667,-161.259 171.833,-161.259 168,-157.426 168,-153.592 168,-153.592 168,-145.926 168,-145.926 168,-142.092 171.833,-138.259 175.667,-138.259"/>
<text text-anchor="middle" x="186" y="-146.059" font-family="Arial" font-size="14.00">•</text>
</a>
</g>
<text text-anchor="middle" x="163.5" y="-126.559" font-family="Arial" font-size="14.00">3</text>
</g>
<!-- UC42&#45;&gt;UC43 -->
<g id="edge4" class="edge"><title>UC42:JMP&#45;&gt;UC43:JMP</title>
<g id="a_edge4"><a xlink:href="#UC4_2">
<path fill="none" stroke="black" d="M139.106,-149.759C144.882,-149.759 151.417,-149.759 157.735,-149.759"/>
<polygon fill="black" stroke="black" points="157.991,-153.259 167.991,-149.759 157.991,-146.259 157.991,-153.259"/>
</a>
</g>
</g>
<!-- UC44 -->
<g id="node4" class="node"><title>UC44</title>
<g id="a_node4"><a xlink:title="Designer suhlasi s prevzatim zakazky.">
<path fill="#ccebc5" stroke="black" d="M240.667,-138.259C240.667,-138.259 297.333,-138.259 297.333,-138.259 301.167,-138.259 305,-142.092 305,-145.926 305,-145.926 305,-153.592 305,-153.592 305,-157.426 301.167,-161.259 297.333,-161.259 297.333,-161.259 240.667,-161.259 240.667,-161.259 236.833,-161.259 233,-157.426 233,-153.592 233,-153.592 233,-145.926 233,-145.926 233,-142.092 236.833,-138.259 240.667,-138.259"/>
<text text-anchor="middle" x="250.5" y="-146.059" font-family="Arial" font-size="14.00"> </text>
<polyline fill="none" stroke="black" points="268,-138.259 268,-161.259 "/>
<text text-anchor="middle" x="286.5" y="-146.059" font-family="Arial" font-size="14.00">•</text>
</a>
</g>
<text text-anchor="middle" x="228.5" y="-126.559" font-family="Arial" font-size="14.00">4</text>
</g>
<!-- UC43&#45;&gt;UC44 -->
<g id="edge5" class="edge"><title>UC43:JMP&#45;&gt;UC44:VAR</title>
<g id="a_edge5"><a xlink:href="#UC4_3">
<path fill="none" stroke="black" d="M204.303,-149.759C210.008,-149.759 216.508,-149.759 222.977,-149.759"/>
<polygon fill="black" stroke="black" points="223,-153.259 233,-149.759 223,-146.259 223,-153.259"/>
</a>
</g>
</g>
<!-- UC44a1 -->
<g id="node5" class="node"><title>UC44a1</title>
<g id="a_node5"><a xlink:title="Designer informuje koordinatora o nesuhlase.">
<path fill="#b3cde3" stroke="black" d="M429.667,-261.259C429.667,-261.259 450.333,-261.259 450.333,-261.259 454.167,-261.259 458,-265.092 458,-268.926 458,-268.926 458,-276.592 458,-276.592 458,-280.426 454.167,-284.259 450.333,-284.259 450.333,-284.259 429.667,-284.259 429.667,-284.259 425.833,-284.259 422,-280.426 422,-276.592 422,-276.592 422,-268.926 422,-268.926 422,-265.092 425.833,-261.259 429.667,-261.259"/>
<text text-anchor="middle" x="440" y="-269.059" font-family="Arial" font-size="14.00">•</text>
</a>
</g>
<text text-anchor="middle" x="409.5" y="-249.559" font-family="Arial" font-size="14.00">4a1</text>
</g>
<!-- UC44&#45;&gt;UC44a1 -->
<g id="edge6" class="edge"><title>UC44:VAR&#45;&gt;UC44a1:JMP</title>
<g id="a_edge6"><a xlink:href="#UC4_4">
<path fill="none" stroke="black" d="M250,-162.759C250,-236.573 358.729,-261.658 411.685,-269.498"/>
<polygon fill="black" stroke="black" points="411.399,-272.992 421.782,-270.883 412.351,-266.057 411.399,-272.992"/>
</a>
</g>
</g>
<!-- UC44b1 -->
<g id="node8" class="node"><title>UC44b1</title>
<g id="a_node8"><a xlink:title="Storno zakazky.">
<path fill="#b3cde3" stroke="black" d="M411.667,-138.259C411.667,-138.259 468.333,-138.259 468.333,-138.259 472.167,-138.259 476,-142.092 476,-145.926 476,-145.926 476,-153.592 476,-153.592 476,-157.426 472.167,-161.259 468.333,-161.259 468.333,-161.259 411.667,-161.259 411.667,-161.259 407.833,-161.259 404,-157.426 404,-153.592 404,-153.592 404,-145.926 404,-145.926 404,-142.092 407.833,-138.259 411.667,-138.259"/>
<text text-anchor="middle" x="422.5" y="-146.059" font-family="Arial" font-size="14.00">•</text>
<polyline fill="none" stroke="black" points="441,-138.259 441,-161.259 "/>
<text text-anchor="middle" x="458.5" y="-146.059" font-family="Arial" font-size="14.00"> </text>
</a>
</g>
<text text-anchor="middle" x="391.5" y="-126.559" font-family="Arial" font-size="14.00">4b1</text>
</g>
<!-- UC44&#45;&gt;UC44b1 -->
<g id="edge10" class="edge"><title>UC44:VAR&#45;&gt;UC44b1:JMP</title>
<g id="a_edge10"><a xlink:href="#UC4_4">
<path fill="none" stroke="black" d="M250,-136.759C250,-112.31 280.611,-136.049 305,-137.759 345.183,-140.577 357.197,-148.333 392.841,-149.587"/>
<polygon fill="black" stroke="black" points="392.942,-153.089 403,-149.759 393.061,-146.09 392.942,-153.089"/>
</a>
</g>
</g>
<!-- UC44a2 -->
<g id="node6" class="node"><title>UC44a2</title>
<g id="a_node6"><a xlink:title="Koordinator odstrani designera zo zakazky.">
<path fill="#b3cde3" stroke="black" d="M572.667,-261.259C572.667,-261.259 593.333,-261.259 593.333,-261.259 597.167,-261.259 601,-265.092 601,-268.926 601,-268.926 601,-276.592 601,-276.592 601,-280.426 597.167,-284.259 593.333,-284.259 593.333,-284.259 572.667,-284.259 572.667,-284.259 568.833,-284.259 565,-280.426 565,-276.592 565,-276.592 565,-268.926 565,-268.926 565,-265.092 568.833,-261.259 572.667,-261.259"/>
<text text-anchor="middle" x="583" y="-269.059" font-family="Arial" font-size="14.00">•</text>
</a>
</g>
<text text-anchor="middle" x="552.5" y="-249.559" font-family="Arial" font-size="14.00">4a2</text>
</g>
<!-- UC44a1&#45;&gt;UC44a2 -->
<g id="edge7" class="edge"><title>UC44a1:JMP&#45;&gt;UC44a2:JMP</title>
<g id="a_edge7"><a xlink:href="#UC4_4a1">
<path fill="none" stroke="black" d="M458.111,-272.759C482.368,-272.759 525.674,-272.759 554.371,-272.759"/>
<polygon fill="black" stroke="black" points="554.584,-276.259 564.584,-272.759 554.584,-269.259 554.584,-276.259"/>
</a>
</g>
</g>
<!-- UC44a3 -->
<g id="node7" class="node"><title>UC44a3</title>
<g id="a_node7"><a xlink:title="Koordinator priradi zakazku inemu designerovi.">
<path fill="#b3cde3" stroke="black" d="M699.667,-261.259C699.667,-261.259 720.333,-261.259 720.333,-261.259 724.167,-261.259 728,-265.092 728,-268.926 728,-268.926 728,-276.592 728,-276.592 728,-280.426 724.167,-284.259 720.333,-284.259 720.333,-284.259 699.667,-284.259 699.667,-284.259 695.833,-284.259 692,-280.426 692,-276.592 692,-276.592 692,-268.926 692,-268.926 692,-265.092 695.833,-261.259 699.667,-261.259"/>
<text text-anchor="middle" x="710" y="-269.059" font-family="Arial" font-size="14.00">•</text>
</a>
</g>
<text text-anchor="middle" x="679.5" y="-249.559" font-family="Arial" font-size="14.00">4a3</text>
</g>
<!-- UC44a2&#45;&gt;UC44a3 -->
<g id="edge8" class="edge"><title>UC44a2:JMP&#45;&gt;UC44a3:JMP</title>
<g id="a_edge8"><a xlink:href="#UC4_4a2">
<path fill="none" stroke="black" d="M601.196,-272.759C622.227,-272.759 657.091,-272.759 681.676,-272.759"/>
<polygon fill="black" stroke="black" points="681.838,-276.259 691.838,-272.759 681.838,-269.259 681.838,-276.259"/>
</a>
</g>
</g>
<!-- UC44a3&#45;&gt;UC41 -->
<g id="edge9" class="edge"><title>UC44a3:JMP&#45;&gt;UC41:JMP</title>
<g id="a_edge9"><a xlink:href="#UC4_4a3">
<path fill="none" stroke="black" d="M691.841,-261.008C637.872,-175.393 736.807,-104.274 663,-34.7588 591.011,33.0436 539.892,-19.7588 441,-19.7588 185,-19.7588 185,-19.7588 185,-19.7588 116.494,-19.7588 128.043,-84.9894 81.9045,-131.057"/>
<polygon fill="black" stroke="black" points="79.3422,-128.657 74.3244,-137.988 84.0661,-133.823 79.3422,-128.657"/>
</a>
</g>
</g>
<!-- UC44b2 -->
<g id="node9" class="node"><title>UC44b2</title>
<g id="a_node9"><a xlink:title="Use&#45;case is terminated.">
<path fill="#fbb4ae" stroke="black" d="M572.667,-138.259C572.667,-138.259 593.333,-138.259 593.333,-138.259 597.167,-138.259 601,-142.092 601,-145.926 601,-145.926 601,-153.592 601,-153.592 601,-157.426 597.167,-161.259 593.333,-161.259 593.333,-161.259 572.667,-161.259 572.667,-161.259 568.833,-161.259 565,-157.426 565,-153.592 565,-153.592 565,-145.926 565,-145.926 565,-142.092 568.833,-138.259 572.667,-138.259"/>
<text text-anchor="middle" x="583" y="-146.059" font-family="Arial" font-size="14.00">•</text>
</a>
</g>
<text text-anchor="middle" x="552.5" y="-126.559" font-family="Arial" font-size="14.00">4b2</text>
</g>
<!-- UC44b1&#45;&gt;UC44b2 -->
<g id="edge11" class="edge"><title>UC44b1:EXT&#45;&gt;UC44b2:JMP</title>
<g id="a_edge11"><a xlink:href="#UC4_4b1">
<path fill="none" stroke="black" d="M476,-149.759C502.698,-149.759 533.143,-149.759 554.713,-149.759"/>
<polygon fill="black" stroke="black" points="554.825,-153.259 564.825,-149.759 554.825,-146.259 554.825,-153.259"/>
</a>
</g>
</g>
<!-- UC10 -->
<g id="node10" class="node"><title>UC10</title>
<g id="a_node10"><a xlink:href="../UC10/UC10.html" xlink:title="UC10 Storno zakazky." target="_top">
<polygon fill="#fed9a6" stroke="black" points="660.5,-77.7588 505.5,-77.7588 505.5,-41.7588 660.5,-41.7588 660.5,-77.7588"/>
<text text-anchor="middle" x="583" y="-56.0588" font-family="Arial" font-size="14.00">UC10 Storno zakazky.</text>
</a>
</g>
</g>
<!-- UC44b1&#45;&gt;UC10 -->
<g id="edge1" class="edge"><title>UC44b1:JMP&#45;&gt;UC10</title>
<g id="a_edge1"><a xlink:href="#UC4_4b1">
<path fill="none" stroke="black" d="M422,-136.759C422,-99.5466 457.575,-80.3075 495.176,-70.3656"/>
<polygon fill="black" stroke="black" points="496.386,-73.6737 505.28,-67.9169 494.737,-66.8706 496.386,-73.6737"/>
</a>
</g>
</g>
<!-- UC10&#45;&gt;UC44b1 -->
<g id="edge2" class="edge"><title>UC10&#45;&gt;UC44b1:EXT</title>
<path fill="none" stroke="black" d="M543.134,-77.8137C530.097,-85.0271 516.073,-94.1585 505,-104.759 490.901,-118.256 496.43,-139.891 485.738,-147.23"/>
<polygon fill="black" stroke="black" points="484.799,-143.857 476,-149.759 486.559,-150.632 484.799,-143.857"/>
</g>
</g>
</svg>
