<?xml version="1.0" encoding="UTF-8" standalone="no"?>
<!DOCTYPE svg PUBLIC "-//W3C//DTD SVG 1.1//EN"
 "http://www.w3.org/Graphics/SVG/1.1/DTD/svg11.dtd">
<!-- Generated by graphviz version 2.35.20131004.0446 (20131004.0446)
 -->
<!-- Title: mygraph Pages: 1 -->
<svg width="736pt" height="732pt"
 viewBox="62.00 62.00 674.25 669.60" xmlns="http://www.w3.org/2000/svg" xmlns:xlink="http://www.w3.org/1999/xlink">
<g id="graph0" class="graph" transform="scale(0.861111 0.861111) rotate(0) translate(76 773.599)">
<title>mygraph</title>
<polygon fill="white" stroke="white" points="-4,4 -4,-701.599 707,-701.599 707,4 -4,4"/>
<g id="clust1" class="cluster"><title>cluster_UC201</title>
<polygon fill="#ffffcc" stroke="black" points="8,-605.599 8,-689.599 695,-689.599 695,-605.599 8,-605.599"/>
</g>
<g id="clust2" class="cluster"><title>cluster_UC2013a</title>
<polygon fill="#f2f2f2" stroke="black" points="262,-161.599 262,-283.599 617,-283.599 617,-161.599 262,-161.599"/>
<text text-anchor="start" x="270" y="-268.399" font-family="Arial" font-size="14.00" fill="gray">Extension: 3a.</text>
<text text-anchor="middle" x="398.5" y="-253.399" font-family="Arial" font-size="14.00" fill="gray"> Some obligatory data was not provided. </text>
</g>
<g id="clust3" class="cluster"><title>cluster_UC2013b</title>
<polygon fill="#f2f2f2" stroke="black" points="257,-38.599 257,-160.599 435,-160.599 435,-38.599 257,-38.599"/>
<text text-anchor="start" x="265" y="-145.399" font-family="Arial" font-size="14.00" fill="gray">Extension: 3b.</text>
<text text-anchor="middle" x="346" y="-130.399" font-family="Arial" font-size="14.00" fill="gray"> Catching an infinite loop. </text>
</g>
<g id="clust4" class="cluster"><title>cluster_UC2014a</title>
<polygon fill="#f2f2f2" stroke="black" points="484,-482.599 484,-604.599 695,-604.599 695,-482.599 484,-482.599"/>
<text text-anchor="start" x="492" y="-589.399" font-family="Arial" font-size="14.00" fill="gray">Extension: 4a.</text>
<text text-anchor="middle" x="570.5" y="-574.399" font-family="Arial" font-size="14.00" fill="gray"> Given dates is not valid. </text>
</g>
<g id="clust5" class="cluster"><title>cluster_UC2014b</title>
<polygon fill="#f2f2f2" stroke="black" points="443,-359.599 443,-481.599 621,-481.599 621,-359.599 443,-359.599"/>
<text text-anchor="start" x="451" y="-466.399" font-family="Arial" font-size="14.00" fill="gray">Extension: 4b.</text>
<text text-anchor="middle" x="532" y="-451.399" font-family="Arial" font-size="14.00" fill="gray"> Catching an infinite loop. </text>
</g>
<!-- UC2011 -->
<g id="node1" class="node"><title>UC2011</title>
<g id="a_node1"><a xlink:title="Administrator chooses the creating−new−admission option.">
<path fill="#b3cde3" stroke="black" d="M45.6667,-636.099C45.6667,-636.099 66.3333,-636.099 66.3333,-636.099 70.1667,-636.099 74,-639.932 74,-643.766 74,-643.766 74,-651.432 74,-651.432 74,-655.266 70.1667,-659.099 66.3333,-659.099 66.3333,-659.099 45.6667,-659.099 45.6667,-659.099 41.8333,-659.099 38,-655.266 38,-651.432 38,-651.432 38,-643.766 38,-643.766 38,-639.932 41.8333,-636.099 45.6667,-636.099"/>
<text text-anchor="middle" x="56" y="-643.899" font-family="Arial" font-size="14.00">•</text>
</a>
</g>
<text text-anchor="middle" x="33.5" y="-624.399" font-family="Arial" font-size="14.00">1</text>
</g>
<!-- UC2012 -->
<g id="node2" class="node"><title>UC2012</title>
<g id="a_node2"><a xlink:title="System presents the new−admission form.">
<path fill="#b3cde3" stroke="black" d="M110.667,-636.099C110.667,-636.099 131.333,-636.099 131.333,-636.099 135.167,-636.099 139,-639.932 139,-643.766 139,-643.766 139,-651.432 139,-651.432 139,-655.266 135.167,-659.099 131.333,-659.099 131.333,-659.099 110.667,-659.099 110.667,-659.099 106.833,-659.099 103,-655.266 103,-651.432 103,-651.432 103,-643.766 103,-643.766 103,-639.932 106.833,-636.099 110.667,-636.099"/>
<text text-anchor="middle" x="121" y="-643.899" font-family="Arial" font-size="14.00">•</text>
</a>
</g>
<text text-anchor="middle" x="98.5" y="-624.399" font-family="Arial" font-size="14.00">2</text>
</g>
<!-- UC2011&#45;&gt;UC2012 -->
<g id="edge1" class="edge"><title>UC2011:JMP&#45;&gt;UC2012:JMP</title>
<g id="a_edge1"><a xlink:href="#UC201_1">
<path fill="none" stroke="black" d="M74.1061,-647.599C79.8817,-647.599 86.4172,-647.599 92.7354,-647.599"/>
<polygon fill="black" stroke="black" points="92.991,-651.099 102.991,-647.599 92.9909,-644.099 92.991,-651.099"/>
</a>
</g>
</g>
<!-- UC2013 -->
<g id="node3" class="node"><title>UC2013</title>
<g id="a_node3"><a xlink:title="Administrator provides basic information concerning the admission.">
<path fill="#b3cde3" stroke="black" d="M175.667,-636.099C175.667,-636.099 232.333,-636.099 232.333,-636.099 236.167,-636.099 240,-639.932 240,-643.766 240,-643.766 240,-651.432 240,-651.432 240,-655.266 236.167,-659.099 232.333,-659.099 232.333,-659.099 175.667,-659.099 175.667,-659.099 171.833,-659.099 168,-655.266 168,-651.432 168,-651.432 168,-643.766 168,-643.766 168,-639.932 171.833,-636.099 175.667,-636.099"/>
<text text-anchor="middle" x="186.5" y="-643.899" font-family="Arial" font-size="14.00">•</text>
<polyline fill="none" stroke="black" points="205,-636.099 205,-659.099 "/>
<text text-anchor="middle" x="222.5" y="-643.899" font-family="Arial" font-size="14.00"> </text>
</a>
</g>
<text text-anchor="middle" x="163.5" y="-624.399" font-family="Arial" font-size="14.00">3</text>
</g>
<!-- UC2012&#45;&gt;UC2013 -->
<g id="edge2" class="edge"><title>UC2012:JMP&#45;&gt;UC2013:JMP</title>
<g id="a_edge2"><a xlink:href="#UC201_2">
<path fill="none" stroke="black" d="M139.303,-647.599C145.008,-647.599 151.508,-647.599 157.977,-647.599"/>
<polygon fill="black" stroke="black" points="158,-651.099 168,-647.599 158,-644.099 158,-651.099"/>
</a>
</g>
</g>
<!-- UC2014 -->
<g id="node4" class="node"><title>UC2014</title>
<g id="a_node4"><a xlink:title="Administrator chooses starting and ending dates of the admission.">
<path fill="#b3cde3" stroke="black" d="M317.667,-636.099C317.667,-636.099 374.333,-636.099 374.333,-636.099 378.167,-636.099 382,-639.932 382,-643.766 382,-643.766 382,-651.432 382,-651.432 382,-655.266 378.167,-659.099 374.333,-659.099 374.333,-659.099 317.667,-659.099 317.667,-659.099 313.833,-659.099 310,-655.266 310,-651.432 310,-651.432 310,-643.766 310,-643.766 310,-639.932 313.833,-636.099 317.667,-636.099"/>
<text text-anchor="middle" x="328.5" y="-643.899" font-family="Arial" font-size="14.00">•</text>
<polyline fill="none" stroke="black" points="347,-636.099 347,-659.099 "/>
<text text-anchor="middle" x="364.5" y="-643.899" font-family="Arial" font-size="14.00"> </text>
</a>
</g>
<text text-anchor="middle" x="305.5" y="-624.399" font-family="Arial" font-size="14.00">4</text>
</g>
<!-- UC2013&#45;&gt;UC2014 -->
<g id="edge3" class="edge"><title>UC2013:EXT&#45;&gt;UC2014:JMP</title>
<g id="a_edge3"><a xlink:href="#UC201_3">
<path fill="none" stroke="black" d="M240,-647.599C266.953,-647.599 276.139,-647.599 298.789,-647.599"/>
<polygon fill="black" stroke="black" points="299,-651.099 309,-647.599 299,-644.099 299,-651.099"/>
</a>
</g>
</g>
<!-- UC2013a1 -->
<g id="node7" class="node"><title>UC2013a1</title>
<g id="a_node7"><a xlink:title="System informs that some required data is missing.">
<path fill="#b3cde3" stroke="black" d="M335.667,-192.099C335.667,-192.099 356.333,-192.099 356.333,-192.099 360.167,-192.099 364,-195.932 364,-199.766 364,-199.766 364,-207.432 364,-207.432 364,-211.266 360.167,-215.099 356.333,-215.099 356.333,-215.099 335.667,-215.099 335.667,-215.099 331.833,-215.099 328,-211.266 328,-207.432 328,-207.432 328,-199.766 328,-199.766 328,-195.932 331.833,-192.099 335.667,-192.099"/>
<text text-anchor="middle" x="346" y="-199.899" font-family="Arial" font-size="14.00">•</text>
</a>
</g>
<text text-anchor="middle" x="315.5" y="-180.399" font-family="Arial" font-size="14.00">3a1</text>
</g>
<!-- UC2013&#45;&gt;UC2013a1 -->
<g id="edge6" class="edge"><title>UC2013:EXT&#45;&gt;UC2013a1:JMP</title>
<g id="a_edge6"><a xlink:href="#UC201_3">
<path fill="none" stroke="black" d="M223,-634.599C223,-541.873 268.5,-310.139 322.12,-223.915"/>
<polygon fill="black" stroke="black" points="325.053,-225.824 327.671,-215.558 319.222,-221.951 325.053,-225.824"/>
</a>
</g>
</g>
<!-- UC2013b1 -->
<g id="node9" class="node"><title>UC2013b1</title>
<g id="a_node9"><a xlink:title="Use case aborted.">
<path fill="#fbb4ae" stroke="black" d="M335.667,-69.099C335.667,-69.099 356.333,-69.099 356.333,-69.099 360.167,-69.099 364,-72.9323 364,-76.7656 364,-76.7656 364,-84.4323 364,-84.4323 364,-88.2656 360.167,-92.099 356.333,-92.099 356.333,-92.099 335.667,-92.099 335.667,-92.099 331.833,-92.099 328,-88.2656 328,-84.4323 328,-84.4323 328,-76.7656 328,-76.7656 328,-72.9323 331.833,-69.099 335.667,-69.099"/>
<text text-anchor="middle" x="346" y="-76.899" font-family="Arial" font-size="14.00">•</text>
</a>
</g>
<text text-anchor="middle" x="315.5" y="-57.399" font-family="Arial" font-size="14.00">3b1</text>
</g>
<!-- UC2013&#45;&gt;UC2013b1 -->
<g id="edge9" class="edge"><title>UC2013:EXT&#45;&gt;UC2013b1:JMP</title>
<g id="a_edge9"><a xlink:href="#UC201_3">
<path fill="none" stroke="black" d="M223,-634.599C223,-581.575 234.189,-206.465 257,-158.599 270.147,-131.01 298.065,-109.148 319.149,-95.6718"/>
<polygon fill="black" stroke="black" points="321.014,-98.6336 327.703,-90.4176 317.351,-92.6688 321.014,-98.6336"/>
</a>
</g>
</g>
<!-- UC2015 -->
<g id="node5" class="node"><title>UC2015</title>
<g id="a_node5"><a xlink:title="System stores the admission.">
<path fill="#b3cde3" stroke="black" d="M521.667,-636.099C521.667,-636.099 542.333,-636.099 542.333,-636.099 546.167,-636.099 550,-639.932 550,-643.766 550,-643.766 550,-651.432 550,-651.432 550,-655.266 546.167,-659.099 542.333,-659.099 542.333,-659.099 521.667,-659.099 521.667,-659.099 517.833,-659.099 514,-655.266 514,-651.432 514,-651.432 514,-643.766 514,-643.766 514,-639.932 517.833,-636.099 521.667,-636.099"/>
<text text-anchor="middle" x="532" y="-643.899" font-family="Arial" font-size="14.00">•</text>
</a>
</g>
<text text-anchor="middle" x="509.5" y="-624.399" font-family="Arial" font-size="14.00">5</text>
</g>
<!-- UC2014&#45;&gt;UC2015 -->
<g id="edge4" class="edge"><title>UC2014:EXT&#45;&gt;UC2015:JMP</title>
<g id="a_edge4"><a xlink:href="#UC201_4">
<path fill="none" stroke="black" d="M383,-647.599C424.931,-647.599 473.498,-647.599 503.488,-647.599"/>
<polygon fill="black" stroke="black" points="503.649,-651.099 513.649,-647.599 503.649,-644.099 503.649,-651.099"/>
</a>
</g>
</g>
<!-- UC2014a1 -->
<g id="node10" class="node"><title>UC2014a1</title>
<g id="a_node10"><a xlink:title="System informs that starting or ending dates are not valid.">
<path fill="#b3cde3" stroke="black" d="M521.667,-513.099C521.667,-513.099 542.333,-513.099 542.333,-513.099 546.167,-513.099 550,-516.932 550,-520.766 550,-520.766 550,-528.432 550,-528.432 550,-532.266 546.167,-536.099 542.333,-536.099 542.333,-536.099 521.667,-536.099 521.667,-536.099 517.833,-536.099 514,-532.266 514,-528.432 514,-528.432 514,-520.766 514,-520.766 514,-516.932 517.833,-513.099 521.667,-513.099"/>
<text text-anchor="middle" x="532" y="-520.899" font-family="Arial" font-size="14.00">•</text>
</a>
</g>
<text text-anchor="middle" x="501.5" y="-501.399" font-family="Arial" font-size="14.00">4a1</text>
</g>
<!-- UC2014&#45;&gt;UC2014a1 -->
<g id="edge10" class="edge"><title>UC2014:EXT&#45;&gt;UC2014a1:JMP</title>
<g id="a_edge10"><a xlink:href="#UC201_4">
<path fill="none" stroke="black" d="M383,-647.599C399.965,-647.599 477.903,-568.72 505.962,-543.033"/>
<polygon fill="black" stroke="black" points="508.367,-545.58 513.625,-536.382 503.779,-540.293 508.367,-545.58"/>
</a>
</g>
</g>
<!-- UC2014b1 -->
<g id="node12" class="node"><title>UC2014b1</title>
<g id="a_node12"><a xlink:title="Use case aborted.">
<path fill="#fbb4ae" stroke="black" d="M521.667,-390.099C521.667,-390.099 542.333,-390.099 542.333,-390.099 546.167,-390.099 550,-393.932 550,-397.766 550,-397.766 550,-405.432 550,-405.432 550,-409.266 546.167,-413.099 542.333,-413.099 542.333,-413.099 521.667,-413.099 521.667,-413.099 517.833,-413.099 514,-409.266 514,-405.432 514,-405.432 514,-397.766 514,-397.766 514,-393.932 517.833,-390.099 521.667,-390.099"/>
<text text-anchor="middle" x="532" y="-397.899" font-family="Arial" font-size="14.00">•</text>
</a>
</g>
<text text-anchor="middle" x="501.5" y="-378.399" font-family="Arial" font-size="14.00">4b1</text>
</g>
<!-- UC2014&#45;&gt;UC2014b1 -->
<g id="edge13" class="edge"><title>UC2014:EXT&#45;&gt;UC2014b1:JMP</title>
<g id="a_edge13"><a xlink:href="#UC201_4">
<path fill="none" stroke="black" d="M383,-647.599C462.286,-647.599 399.512,-545.894 443,-479.599 459.296,-454.758 485.578,-433.093 505.366,-418.942"/>
<polygon fill="black" stroke="black" points="507.458,-421.751 513.671,-413.168 503.462,-416.003 507.458,-421.751"/>
</a>
</g>
</g>
<!-- UC2016 -->
<g id="node6" class="node"><title>UC2016</title>
<g id="a_node6"><a xlink:title="System informs that admission has been stored.">
<path fill="#ccebc5" stroke="black" d="M636.667,-636.099C636.667,-636.099 657.333,-636.099 657.333,-636.099 661.167,-636.099 665,-639.932 665,-643.766 665,-643.766 665,-651.432 665,-651.432 665,-655.266 661.167,-659.099 657.333,-659.099 657.333,-659.099 636.667,-659.099 636.667,-659.099 632.833,-659.099 629,-655.266 629,-651.432 629,-651.432 629,-643.766 629,-643.766 629,-639.932 632.833,-636.099 636.667,-636.099"/>
<text text-anchor="middle" x="647" y="-643.899" font-family="Arial" font-size="14.00">•</text>
</a>
</g>
<text text-anchor="middle" x="624.5" y="-624.399" font-family="Arial" font-size="14.00">6</text>
</g>
<!-- UC2015&#45;&gt;UC2016 -->
<g id="edge5" class="edge"><title>UC2015:JMP&#45;&gt;UC2016:JMP</title>
<g id="a_edge5"><a xlink:href="#UC201_5">
<path fill="none" stroke="black" d="M550.222,-647.599C568.643,-647.599 597.367,-647.599 618.743,-647.599"/>
<polygon fill="black" stroke="black" points="618.863,-651.099 628.863,-647.599 618.863,-644.099 618.863,-651.099"/>
</a>
</g>
</g>
<!-- UC2013a2 -->
<g id="node8" class="node"><title>UC2013a2</title>
<g id="a_node8"><a xlink:title="Go back to step 3.">
<path fill="#b3cde3" stroke="black" d="M521.667,-192.099C521.667,-192.099 542.333,-192.099 542.333,-192.099 546.167,-192.099 550,-195.932 550,-199.766 550,-199.766 550,-207.432 550,-207.432 550,-211.266 546.167,-215.099 542.333,-215.099 542.333,-215.099 521.667,-215.099 521.667,-215.099 517.833,-215.099 514,-211.266 514,-207.432 514,-207.432 514,-199.766 514,-199.766 514,-195.932 517.833,-192.099 521.667,-192.099"/>
<text text-anchor="middle" x="532" y="-199.899" font-family="Arial" font-size="14.00">•</text>
</a>
</g>
<text text-anchor="middle" x="501.5" y="-180.399" font-family="Arial" font-size="14.00">3a2</text>
</g>
<!-- UC2013a1&#45;&gt;UC2013a2 -->
<g id="edge7" class="edge"><title>UC2013a1:JMP&#45;&gt;UC2013a2:JMP</title>
<g id="a_edge7"><a xlink:href="#UC201_3a1">
<path fill="none" stroke="black" d="M364.173,-203.599C396.676,-203.599 464.976,-203.599 503.677,-203.599"/>
<polygon fill="black" stroke="black" points="503.753,-207.099 513.753,-203.599 503.753,-200.099 503.753,-207.099"/>
</a>
</g>
</g>
<!-- UC2013a2&#45;&gt;UC2013 -->
<g id="edge8" class="edge"><title>UC2013a2:JMP&#45;&gt;UC2013:JMP</title>
<g id="a_edge8"><a xlink:href="#UC201_3a2">
<path fill="none" stroke="black" d="M513.695,-191.76C461.913,-134.067 501.227,-76.3547 435,-35.599 367.625,5.86338 316.141,16.9457 257,-35.599 208.903,-78.3315 187.72,-529.252 186.101,-624.582"/>
<polygon fill="black" stroke="black" points="182.601,-624.564 186,-634.599 189.601,-624.635 182.601,-624.564"/>
</a>
</g>
</g>
<!-- UC2014a2 -->
<g id="node11" class="node"><title>UC2014a2</title>
<g id="a_node11"><a xlink:title="Go back to step 4.">
<path fill="#b3cde3" stroke="black" d="M636.667,-513.099C636.667,-513.099 657.333,-513.099 657.333,-513.099 661.167,-513.099 665,-516.932 665,-520.766 665,-520.766 665,-528.432 665,-528.432 665,-532.266 661.167,-536.099 657.333,-536.099 657.333,-536.099 636.667,-536.099 636.667,-536.099 632.833,-536.099 629,-532.266 629,-528.432 629,-528.432 629,-520.766 629,-520.766 629,-516.932 632.833,-513.099 636.667,-513.099"/>
<text text-anchor="middle" x="647" y="-520.899" font-family="Arial" font-size="14.00">•</text>
</a>
</g>
<text text-anchor="middle" x="616.5" y="-501.399" font-family="Arial" font-size="14.00">4a2</text>
</g>
<!-- UC2014a1&#45;&gt;UC2014a2 -->
<g id="edge11" class="edge"><title>UC2014a1:JMP&#45;&gt;UC2014a2:JMP</title>
<g id="a_edge11"><a xlink:href="#UC201_4a1">
<path fill="none" stroke="black" d="M550.222,-524.599C568.643,-524.599 597.367,-524.599 618.743,-524.599"/>
<polygon fill="black" stroke="black" points="618.863,-528.099 628.863,-524.599 618.863,-521.099 618.863,-528.099"/>
</a>
</g>
</g>
<!-- UC2014a2&#45;&gt;UC2014 -->
<g id="edge12" class="edge"><title>UC2014a2:JMP&#45;&gt;UC2014:JMP</title>
<g id="a_edge12"><a xlink:href="#UC201_4a2">
<path fill="none" stroke="black" d="M628.799,-512.725C620.455,-496.031 633.524,-368.499 621,-356.599 563.65,-302.106 508.768,-312.632 443,-356.599 334.664,-429.023 328.264,-497.333 328.009,-624.536"/>
<polygon fill="black" stroke="black" points="324.509,-624.596 328,-634.599 331.509,-624.602 324.509,-624.596"/>
</a>
</g>
</g>
</g>
</svg>
