<?xml version="1.0" encoding="UTF-8" standalone="no"?>
<!DOCTYPE svg PUBLIC "-//W3C//DTD SVG 1.1//EN"
 "http://www.w3.org/Graphics/SVG/1.1/DTD/svg11.dtd">
<!-- Generated by graphviz version 2.36.0 (20140111.2315)
 -->
<!-- Title: mygraph Pages: 1 -->
<svg width="830pt" height="487pt"
 viewBox="70.00 70.00 760.24 417.08" xmlns="http://www.w3.org/2000/svg" xmlns:xlink="http://www.w3.org/1999/xlink">
<g id="graph0" class="graph" transform="scale(0.972222 0.972222) rotate(0) translate(76 425)">
<title>mygraph</title>
<polygon fill="white" stroke="none" points="-4,4 -4,-353 705.959,-353 705.959,4 -4,4"/>
<!-- UC7 -->
<g id="node1" class="node"><title>UC7</title>
<g id="a_node1"><a xlink:href="../UC7/UC7.html" xlink:title="Login" target="_top">
<ellipse fill="none" stroke="black" cx="284.755" cy="-269" rx="31.6406" ry="16.0303"/>
<text text-anchor="middle" x="284.755" y="-265.3" font-family="Arial" font-size="14.00">UC7</text>
</a>
</g>
</g>
<!-- UC6 -->
<g id="node3" class="node"><title>UC6</title>
<g id="a_node3"><a xlink:href="../UC6/UC6.html" xlink:title="Create account" target="_top">
<ellipse fill="none" stroke="black" cx="136.755" cy="-332" rx="31.6406" ry="16.0303"/>
<text text-anchor="middle" x="136.755" y="-328.3" font-family="Arial" font-size="14.00">UC6</text>
</a>
</g>
</g>
<!-- UC7&#45;&gt;UC6 -->
<g id="edge1" class="edge"><title>UC7&#45;&gt;UC6</title>
<path fill="none" stroke="black" d="M260.976,-279.801C236.271,-289.983 197.425,-305.994 169.755,-317.399"/>
<polygon fill="black" stroke="black" points="168.387,-314.177 160.475,-321.224 171.054,-320.649 168.387,-314.177"/>
</g>
<!-- UC13 -->
<g id="node2" class="node"><title>UC13</title>
<g id="a_node2"><a xlink:href="../UC13/UC13.html" xlink:title="Change credit card" target="_top">
<ellipse fill="none" stroke="black" cx="314.755" cy="-206" rx="37.4533" ry="16.0303"/>
<text text-anchor="middle" x="314.755" y="-202.3" font-family="Arial" font-size="14.00">UC13</text>
</a>
</g>
</g>
<!-- UC13&#45;&gt;UC7 -->
<g id="edge2" class="edge"><title>UC13&#45;&gt;UC7</title>
<path fill="none" stroke="black" d="M307.339,-222.079C304.142,-228.579 300.322,-236.348 296.74,-243.63"/>
<polygon fill="black" stroke="black" points="293.358,-242.577 292.086,-253.095 299.639,-245.666 293.358,-242.577"/>
</g>
<!-- UC10 -->
<g id="node4" class="node"><title>UC10</title>
<g id="a_node4"><a xlink:href="../UC10/UC10.html" xlink:title="Delete account" target="_top">
<ellipse fill="none" stroke="black" cx="48.7551" cy="-206" rx="37.4533" ry="16.0303"/>
<text text-anchor="middle" x="48.7551" y="-202.3" font-family="Arial" font-size="14.00">UC10</text>
</a>
</g>
</g>
<!-- UC10&#45;&gt;UC7 -->
<g id="edge3" class="edge"><title>UC10&#45;&gt;UC7</title>
<path fill="none" stroke="black" d="M76.8011,-216.802C83.3179,-218.954 90.2517,-221.142 96.7551,-223 147.931,-237.624 207.849,-251.399 246.039,-259.764"/>
<polygon fill="black" stroke="black" points="245.693,-263.271 256.209,-261.977 247.181,-256.431 245.693,-263.271"/>
</g>
<!-- UC12 -->
<g id="node5" class="node"><title>UC12</title>
<g id="a_node5"><a xlink:href="../UC12/UC12.html" xlink:title="Change billing information" target="_top">
<ellipse fill="none" stroke="black" cx="166.755" cy="-206" rx="37.4533" ry="16.0303"/>
<text text-anchor="middle" x="166.755" y="-202.3" font-family="Arial" font-size="14.00">UC12</text>
</a>
</g>
</g>
<!-- UC12&#45;&gt;UC7 -->
<g id="edge4" class="edge"><title>UC12&#45;&gt;UC7</title>
<path fill="none" stroke="black" d="M189.787,-218.906C208.199,-228.425 234.169,-241.85 254.299,-252.256"/>
<polygon fill="black" stroke="black" points="252.88,-255.462 263.37,-256.945 256.094,-249.244 252.88,-255.462"/>
</g>
<!-- UC9 -->
<g id="node6" class="node"><title>UC9</title>
<g id="a_node6"><a xlink:href="../UC9/UC9.html" xlink:title="Change plan" target="_top">
<ellipse fill="none" stroke="black" cx="260.755" cy="-143" rx="31.6406" ry="16.0303"/>
<text text-anchor="middle" x="260.755" y="-139.3" font-family="Arial" font-size="14.00">UC9</text>
</a>
</g>
</g>
<!-- UC9&#45;&gt;UC7 -->
<g id="edge5" class="edge"><title>UC9&#45;&gt;UC7</title>
<path fill="none" stroke="black" d="M261.888,-159.279C263.261,-175.292 266.004,-201.114 270.755,-223 272.19,-229.611 274.159,-236.647 276.167,-243.142"/>
<polygon fill="black" stroke="black" points="272.873,-244.331 279.283,-252.767 279.532,-242.175 272.873,-244.331"/>
</g>
<!-- UC9&#45;&gt;UC13 -->
<g id="edge26" class="edge"><title>UC9&#45;&gt;UC13</title>
<path fill="none" stroke="black" stroke-dasharray="5,2" d="M273.28,-158.148C279.796,-165.509 287.91,-174.675 295.229,-182.942"/>
<polygon fill="none" stroke="black" points="292.675,-185.337 301.924,-190.505 297.916,-180.698 292.675,-185.337"/>
</g>
<!-- UC9&#45;&gt;UC12 -->
<g id="edge27" class="edge"><title>UC9&#45;&gt;UC12</title>
<path fill="none" stroke="black" stroke-dasharray="5,2" d="M241.733,-156.344C228.369,-165.017 210.26,-176.768 195.187,-186.549"/>
<polygon fill="none" stroke="black" points="193.206,-183.663 186.722,-192.042 197.016,-189.535 193.206,-183.663"/>
</g>
<!-- UC15 -->
<g id="node7" class="node"><title>UC15</title>
<g id="a_node7"><a xlink:href="../UC15/UC15.html" xlink:title="Modify application data using Git" target="_top">
<ellipse fill="none" stroke="black" cx="555.755" cy="-80" rx="37.4533" ry="16.0303"/>
<text text-anchor="middle" x="555.755" y="-76.3" font-family="Arial" font-size="14.00">UC15</text>
</a>
</g>
</g>
<!-- UC15&#45;&gt;UC7 -->
<g id="edge6" class="edge"><title>UC15&#45;&gt;UC7</title>
<path fill="none" stroke="black" d="M557.024,-96.4319C558.506,-125.672 557.16,-189.234 521.755,-223 494.236,-249.245 386.502,-260.899 326.203,-265.457"/>
<polygon fill="black" stroke="black" points="325.604,-261.991 315.883,-266.203 326.109,-268.973 325.604,-261.991"/>
</g>
<!-- UC3 -->
<g id="node11" class="node"><title>UC3</title>
<g id="a_node11"><a xlink:href="../UC3/UC3.html" xlink:title="Start application" target="_top">
<ellipse fill="none" stroke="black" cx="630.755" cy="-143" rx="31.6406" ry="16.0303"/>
<text text-anchor="middle" x="630.755" y="-139.3" font-family="Arial" font-size="14.00">UC3</text>
</a>
</g>
</g>
<!-- UC15&#45;&gt;UC3 -->
<g id="edge28" class="edge"><title>UC15&#45;&gt;UC3</title>
<path fill="none" stroke="black" stroke-dasharray="5,2" d="M572.774,-94.8418C582.761,-102.965 595.545,-113.363 606.566,-122.326"/>
<polygon fill="none" stroke="black" points="604.609,-125.246 614.575,-128.84 609.025,-119.815 604.609,-125.246"/>
</g>
<!-- UC1 -->
<g id="node12" class="node"><title>UC1</title>
<g id="a_node12"><a xlink:href="../UC1/UC1.html" xlink:title="Create application" target="_top">
<ellipse fill="none" stroke="black" cx="483.755" cy="-206" rx="31.6406" ry="16.0303"/>
<text text-anchor="middle" x="483.755" y="-202.3" font-family="Arial" font-size="14.00">UC1</text>
</a>
</g>
</g>
<!-- UC15&#45;&gt;UC1 -->
<g id="edge7" class="edge"><title>UC15&#45;&gt;UC1</title>
<path fill="none" stroke="black" d="M546.926,-96.2048C534.607,-117.422 512.137,-156.121 497.583,-181.185"/>
<polygon fill="black" stroke="black" points="494.426,-179.653 492.431,-190.058 500.479,-183.168 494.426,-179.653"/>
</g>
<!-- UC21 -->
<g id="node8" class="node"><title>UC21</title>
<g id="a_node8"><a xlink:href="../UC21/UC21.html" xlink:title="Hibernate application subfunction" target="_top">
<ellipse fill="none" stroke="black" cx="177.755" cy="-143" rx="37.4533" ry="16.0303"/>
<text text-anchor="middle" x="177.755" y="-139.3" font-family="Arial" font-size="14.00">UC21</text>
</a>
</g>
</g>
<!-- UC2 -->
<g id="node9" class="node"><title>UC2</title>
<g id="a_node9"><a xlink:href="../UC2/UC2.html" xlink:title="Delete application" target="_top">
<ellipse fill="none" stroke="black" cx="428.755" cy="-80" rx="31.6406" ry="16.0303"/>
<text text-anchor="middle" x="428.755" y="-76.3" font-family="Arial" font-size="14.00">UC2</text>
</a>
</g>
</g>
<!-- UC2&#45;&gt;UC7 -->
<g id="edge8" class="edge"><title>UC2&#45;&gt;UC7</title>
<path fill="none" stroke="black" d="M427.166,-96.4825C423.413,-125.245 411.445,-187.24 375.755,-223 360.558,-238.227 339.165,-249.164 320.939,-256.44"/>
<polygon fill="black" stroke="black" points="319.594,-253.207 311.473,-260.012 322.065,-259.756 319.594,-253.207"/>
</g>
<!-- UC4 -->
<g id="node10" class="node"><title>UC4</title>
<g id="a_node10"><a xlink:href="../UC4/UC4.html" xlink:title="Stop application" target="_top">
<ellipse fill="none" stroke="black" cx="368.755" cy="-143" rx="31.6406" ry="16.0303"/>
<text text-anchor="middle" x="368.755" y="-139.3" font-family="Arial" font-size="14.00">UC4</text>
</a>
</g>
</g>
<!-- UC2&#45;&gt;UC4 -->
<g id="edge29" class="edge"><title>UC2&#45;&gt;UC4</title>
<path fill="none" stroke="black" stroke-dasharray="5,2" d="M415.14,-94.8418C407.545,-102.563 397.93,-112.339 389.425,-120.985"/>
<polygon fill="none" stroke="black" points="386.833,-118.629 382.316,-128.213 391.824,-123.538 386.833,-118.629"/>
</g>
<!-- UC2&#45;&gt;UC1 -->
<g id="edge9" class="edge"><title>UC2&#45;&gt;UC1</title>
<path fill="none" stroke="black" d="M435.499,-96.2048C444.869,-117.329 461.924,-155.78 473.045,-180.853"/>
<polygon fill="black" stroke="black" points="469.874,-182.336 477.128,-190.058 476.272,-179.498 469.874,-182.336"/>
</g>
<!-- UC4&#45;&gt;UC7 -->
<g id="edge10" class="edge"><title>UC4&#45;&gt;UC7</title>
<path fill="none" stroke="black" d="M370.545,-159.287C371.738,-176.243 371.239,-203.744 358.755,-223 349.496,-237.283 333.955,-247.733 319.499,-254.948"/>
<polygon fill="black" stroke="black" points="317.843,-251.857 310.233,-259.229 320.779,-258.212 317.843,-251.857"/>
</g>
<!-- UC4&#45;&gt;UC1 -->
<g id="edge11" class="edge"><title>UC4&#45;&gt;UC1</title>
<path fill="none" stroke="black" d="M389.848,-155.188C407.761,-164.69 433.682,-178.439 453.754,-189.087"/>
<polygon fill="black" stroke="black" points="452.322,-192.289 462.796,-193.883 455.602,-186.105 452.322,-192.289"/>
</g>
<!-- UC3&#45;&gt;UC7 -->
<g id="edge12" class="edge"><title>UC3&#45;&gt;UC7</title>
<path fill="none" stroke="black" d="M623.278,-159.028C613.302,-177.368 593.824,-207.808 567.755,-223 527.465,-246.48 394.419,-259.703 326.075,-265.1"/>
<polygon fill="black" stroke="black" points="325.388,-261.642 315.686,-265.899 325.925,-268.622 325.388,-261.642"/>
</g>
<!-- UC3&#45;&gt;UC1 -->
<g id="edge13" class="edge"><title>UC3&#45;&gt;UC1</title>
<path fill="none" stroke="black" d="M607.137,-153.801C582.706,-163.939 544.352,-179.855 516.892,-191.249"/>
<polygon fill="black" stroke="black" points="515.209,-188.158 507.315,-195.224 517.892,-194.624 515.209,-188.158"/>
</g>
<!-- UC1&#45;&gt;UC7 -->
<g id="edge14" class="edge"><title>UC1&#45;&gt;UC7</title>
<path fill="none" stroke="black" d="M457.83,-215.385C450.093,-217.863 441.588,-220.564 433.755,-223 395.272,-234.968 351.057,-248.264 320.85,-257.279"/>
<polygon fill="black" stroke="black" points="319.755,-253.953 311.172,-260.164 321.755,-260.662 319.755,-253.953"/>
</g>
<!-- UC5 -->
<g id="node13" class="node"><title>UC5</title>
<g id="a_node13"><a xlink:href="../UC5/UC5.html" xlink:title="Hibernate application" target="_top">
<ellipse fill="none" stroke="black" cx="197.755" cy="-80" rx="31.6406" ry="16.0303"/>
<text text-anchor="middle" x="197.755" y="-76.3" font-family="Arial" font-size="14.00">UC5</text>
</a>
</g>
</g>
<!-- UC5&#45;&gt;UC7 -->
<g id="edge15" class="edge"><title>UC5&#45;&gt;UC7</title>
<path fill="none" stroke="black" d="M174.041,-90.7497C159.542,-98.1027 142.206,-109.727 133.755,-126 126.791,-139.411 125.157,-147.574 133.755,-160 154.563,-190.072 180.351,-168.681 210.755,-189 233.716,-204.345 254.7,-228.104 268.411,-245.562"/>
<polygon fill="black" stroke="black" points="265.677,-247.748 274.535,-253.561 271.236,-243.493 265.677,-247.748"/>
</g>
<!-- UC5&#45;&gt;UC21 -->
<g id="edge30" class="edge"><title>UC5&#45;&gt;UC21</title>
<path fill="none" stroke="black" stroke-dasharray="5,2" d="M192.811,-96.0787C190.759,-102.337 188.322,-109.77 186.013,-116.813"/>
<polygon fill="none" stroke="black" points="182.571,-116.078 182.781,-126.671 189.222,-118.259 182.571,-116.078"/>
</g>
<!-- UC5&#45;&gt;UC4 -->
<g id="edge16" class="edge"><title>UC5&#45;&gt;UC4</title>
<path fill="none" stroke="black" d="M221.174,-90.8776C226.287,-92.9581 231.685,-95.0976 236.755,-97 269.117,-109.142 306.436,-121.736 333.118,-130.502"/>
<polygon fill="black" stroke="black" points="332.198,-133.884 342.791,-133.665 334.374,-127.23 332.198,-133.884"/>
</g>
<!-- UC19 -->
<g id="node14" class="node"><title>UC19</title>
<g id="a_node14"><a xlink:href="../UC19/UC19.html" xlink:title="Process request" target="_top">
<ellipse fill="none" stroke="black" cx="644.755" cy="-80" rx="37.4533" ry="16.0303"/>
<text text-anchor="middle" x="644.755" y="-76.3" font-family="Arial" font-size="14.00">UC19</text>
</a>
</g>
</g>
<!-- UC19&#45;&gt;UC3 -->
<g id="edge17" class="edge"><title>UC19&#45;&gt;UC3</title>
<path fill="none" stroke="black" d="M641.222,-96.3929C639.786,-102.653 638.088,-110.05 636.483,-117.044"/>
<polygon fill="black" stroke="black" points="633.064,-116.294 634.238,-126.823 639.887,-117.86 633.064,-116.294"/>
</g>
<!-- UC16 -->
<g id="node15" class="node"><title>UC16</title>
<g id="a_node15"><a xlink:href="../UC16/UC16.html" xlink:title="Subtract monthly fee" target="_top">
<ellipse fill="none" stroke="black" cx="280.755" cy="-80" rx="37.4533" ry="16.0303"/>
<text text-anchor="middle" x="280.755" y="-76.3" font-family="Arial" font-size="14.00">UC16</text>
</a>
</g>
</g>
<!-- UC16&#45;&gt;UC9 -->
<g id="edge19" class="edge"><title>UC16&#45;&gt;UC9</title>
<path fill="none" stroke="black" d="M275.708,-96.3929C273.656,-102.653 271.231,-110.05 268.938,-117.044"/>
<polygon fill="black" stroke="black" points="265.521,-116.231 265.731,-126.823 272.172,-118.412 265.521,-116.231"/>
</g>
<!-- UC16&#45;&gt;UC21 -->
<g id="edge32" class="edge"><title>UC16&#45;&gt;UC21</title>
<path fill="none" stroke="black" stroke-dasharray="5,2" d="M259.413,-93.6392C244.498,-102.473 224.372,-114.392 207.833,-124.187"/>
<polygon fill="none" stroke="black" points="205.89,-121.27 199.069,-129.377 209.457,-127.293 205.89,-121.27"/>
</g>
<!-- UC16&#45;&gt;UC4 -->
<g id="edge31" class="edge"><title>UC16&#45;&gt;UC4</title>
<path fill="none" stroke="black" stroke-dasharray="5,2" d="M299.85,-94.2361C312.207,-102.802 328.472,-114.076 342.096,-123.52"/>
<polygon fill="none" stroke="black" points="340.387,-126.595 350.6,-129.415 344.375,-120.842 340.387,-126.595"/>
</g>
<!-- UC16&#45;&gt;UC1 -->
<g id="edge18" class="edge"><title>UC16&#45;&gt;UC1</title>
<path fill="none" stroke="black" d="M286.234,-96.135C293.472,-114.007 307.912,-143.397 329.755,-160 362.671,-185.02 409.19,-196.155 442.472,-201.094"/>
<polygon fill="black" stroke="black" points="442.399,-204.616 452.778,-202.49 443.338,-197.68 442.399,-204.616"/>
</g>
<!-- UC17 -->
<g id="node16" class="node"><title>UC17</title>
<g id="a_node16"><a xlink:href="../UC17/UC17.html" xlink:title="Administer account" target="_top">
<ellipse fill="none" stroke="black" cx="53.7551" cy="-143" rx="37.4533" ry="16.0303"/>
<text text-anchor="middle" x="53.7551" y="-139.3" font-family="Arial" font-size="14.00">UC17</text>
</a>
</g>
</g>
<!-- UC17&#45;&gt;UC7 -->
<g id="edge20" class="edge"><title>UC17&#45;&gt;UC7</title>
<path fill="none" stroke="black" d="M66.2098,-158.363C85.8406,-180.988 121.859,-222.436 122.755,-223 160.028,-246.467 209.643,-257.904 244.102,-263.339"/>
<polygon fill="black" stroke="black" points="243.875,-266.844 254.279,-264.84 244.897,-259.919 243.875,-266.844"/>
</g>
<!-- UC17&#45;&gt;UC6 -->
<g id="edge33" class="edge"><title>UC17&#45;&gt;UC6</title>
<path fill="none" stroke="black" stroke-dasharray="5,2" d="M33.2096,-156.72C22.5706,-164.567 10.6089,-175.676 4.75509,-189 -1.32321,-202.835 -1.71594,-209.345 4.75509,-223 25.4127,-266.593 73.2378,-298.441 105.285,-315.838"/>
<polygon fill="none" stroke="black" points="103.793,-319.008 114.273,-320.565 107.052,-312.812 103.793,-319.008"/>
</g>
<!-- UC17&#45;&gt;UC10 -->
<g id="edge34" class="edge"><title>UC17&#45;&gt;UC10</title>
<path fill="none" stroke="black" stroke-dasharray="5,2" d="M52.4934,-159.393C51.9998,-165.415 51.42,-172.488 50.8663,-179.243"/>
<polygon fill="none" stroke="black" points="47.3625,-179.147 50.0338,-189.4 54.3391,-179.719 47.3625,-179.147"/>
</g>
<!-- UC17&#45;&gt;UC12 -->
<g id="edge35" class="edge"><title>UC17&#45;&gt;UC12</title>
<path fill="none" stroke="black" stroke-dasharray="5,2" d="M76.0803,-156.052C92.9943,-165.182 116.454,-177.846 135.273,-188.005"/>
<polygon fill="none" stroke="black" points="133.627,-191.094 144.09,-192.765 136.952,-184.934 133.627,-191.094"/>
</g>
<!-- UC18 -->
<g id="node17" class="node"><title>UC18</title>
<g id="a_node17"><a xlink:href="../UC18/UC18.html" xlink:title="Administer application" target="_top">
<ellipse fill="none" stroke="black" cx="489.755" cy="-17" rx="37.4533" ry="16.0303"/>
<text text-anchor="middle" x="489.755" y="-13.3" font-family="Arial" font-size="14.00">UC18</text>
</a>
</g>
</g>
<!-- UC18&#45;&gt;UC15 -->
<g id="edge25" class="edge"><title>UC18&#45;&gt;UC15</title>
<path fill="none" stroke="black" d="M501.16,-32.7664C508.961,-40.6679 519.48,-50.5096 529.243,-59.0793"/>
<polygon fill="black" stroke="black" points="526.98,-61.7498 536.844,-65.618 531.545,-56.4432 526.98,-61.7498"/>
</g>
<!-- UC18&#45;&gt;UC15 -->
<g id="edge37" class="edge"><title>UC18&#45;&gt;UC15</title>
<path fill="none" stroke="black" stroke-dasharray="5,2" d="M508.493,-31.2361C517.399,-38.7161 527.945,-48.2617 536.861,-56.8502"/>
<polygon fill="none" stroke="black" points="534.614,-59.55 544.194,-64.0753 539.527,-54.5637 534.614,-59.55"/>
</g>
<!-- UC18&#45;&gt;UC2 -->
<g id="edge22" class="edge"><title>UC18&#45;&gt;UC2</title>
<path fill="none" stroke="black" d="M471.768,-31.5379C463.567,-38.9549 453.979,-48.3342 445.889,-56.7926"/>
<polygon fill="black" stroke="black" points="443.224,-54.5187 438.963,-64.219 448.343,-59.2931 443.224,-54.5187"/>
</g>
<!-- UC18&#45;&gt;UC2 -->
<g id="edge38" class="edge"><title>UC18&#45;&gt;UC2</title>
<path fill="none" stroke="black" stroke-dasharray="5,2" d="M479.561,-32.7664C472.379,-40.6999 462.616,-50.5892 453.525,-59.1832"/>
<polygon fill="none" stroke="black" points="451.087,-56.6697 446.117,-66.0261 455.837,-61.8116 451.087,-56.6697"/>
</g>
<!-- UC18&#45;&gt;UC4 -->
<g id="edge24" class="edge"><title>UC18&#45;&gt;UC4</title>
<path fill="none" stroke="black" d="M455.467,-23.8007C431.564,-29.8362 400.99,-41.5202 382.755,-63 370.098,-77.9096 364.982,-99.6608 364.049,-116.567"/>
<polygon fill="black" stroke="black" points="360.548,-116.84 364.002,-126.856 367.548,-116.872 360.548,-116.84"/>
</g>
<!-- UC18&#45;&gt;UC4 -->
<g id="edge40" class="edge"><title>UC18&#45;&gt;UC4</title>
<path fill="none" stroke="black" stroke-dasharray="5,2" d="M458.651,-26.2609C438.309,-32.8231 412.772,-44.1326 396.755,-63 384.098,-77.9096 378.982,-99.6608 375.865,-116.567"/>
<polygon fill="none" stroke="black" points="372.34,-116.399 374.045,-126.856 379.233,-117.618 372.34,-116.399"/>
</g>
<!-- UC18&#45;&gt;UC3 -->
<g id="edge23" class="edge"><title>UC18&#45;&gt;UC3</title>
<path fill="none" stroke="black" d="M525.911,-21.3476C576.027,-26.5805 662.351,-38.7187 681.755,-63 691.189,-74.8049 688.402,-83.4294 681.755,-97 676.433,-107.866 667.081,-116.862 657.778,-123.88"/>
<polygon fill="black" stroke="black" points="655.552,-121.165 649.365,-129.766 659.565,-126.901 655.552,-121.165"/>
</g>
<!-- UC18&#45;&gt;UC3 -->
<g id="edge39" class="edge"><title>UC18&#45;&gt;UC3</title>
<path fill="none" stroke="black" stroke-dasharray="5,2" d="M526.39,-20.5194C579.972,-25.2366 675.246,-37.3352 695.755,-63 705.189,-74.8049 702.402,-83.4294 695.755,-97 689.304,-110.17 676.934,-120.593 664.633,-128.077"/>
<polygon fill="none" stroke="black" points="662.812,-125.084 655.775,-133.004 666.215,-131.202 662.812,-125.084"/>
</g>
<!-- UC18&#45;&gt;UC1 -->
<g id="edge21" class="edge"><title>UC18&#45;&gt;UC1</title>
<path fill="none" stroke="black" d="M486.222,-33.303C482.499,-65.4352 479.87,-140.207 480.836,-179.631"/>
<polygon fill="black" stroke="black" points="477.343,-179.882 481.206,-189.748 484.338,-179.627 477.343,-179.882"/>
</g>
<!-- UC18&#45;&gt;UC1 -->
<g id="edge36" class="edge"><title>UC18&#45;&gt;UC1</title>
<path fill="none" stroke="black" stroke-dasharray="5,2" d="M492.307,-33.303C493.967,-65.4352 491.798,-140.207 488.302,-179.631"/>
<polygon fill="none" stroke="black" points="484.803,-179.447 487.283,-189.748 491.768,-180.149 484.803,-179.447"/>
</g>
<!-- UC18&#45;&gt;UC5 -->
<g id="edge41" class="edge"><title>UC18&#45;&gt;UC5</title>
<path fill="none" stroke="black" stroke-dasharray="5,2" d="M454.01,-21.9189C404.502,-27.8945 312.586,-40.975 236.755,-63 234.585,-63.6302 232.371,-64.3412 230.156,-65.1042"/>
<polygon fill="none" stroke="black" points="228.701,-61.9114 220.562,-68.6941 231.155,-68.4675 228.701,-61.9114"/>
</g>
</g>
</svg>
