<?xml version="1.0" encoding="UTF-8" standalone="no"?>
<!DOCTYPE svg PUBLIC "-//W3C//DTD SVG 1.1//EN"
 "http://www.w3.org/Graphics/SVG/1.1/DTD/svg11.dtd">
<!-- Generated by graphviz version 2.36.0 (20140111.2315)
 -->
<!-- Title: mygraph Pages: 1 -->
<svg width="704pt" height="373pt"
 viewBox="62.00 62.00 641.53 310.86" xmlns="http://www.w3.org/2000/svg" xmlns:xlink="http://www.w3.org/1999/xlink">
<g id="graph0" class="graph" transform="scale(0.861111 0.861111) rotate(0) translate(76 357)">
<title>mygraph</title>
<polygon fill="white" stroke="none" points="-4,4 -4,-285 669,-285 669,4 -4,4"/>
<g id="clust1" class="cluster"><title>cluster_UC5_</title>
<polygon fill="#ffffcc" stroke="black" points="8,-189 8,-273 580,-273 580,-189 8,-189"/>
</g>
<g id="clust2" class="cluster"><title>cluster_UC5_5a</title>
<polygon fill="#f2f2f2" stroke="black" points="456,-66 456,-188 608,-188 608,-66 456,-66"/>
<text text-anchor="start" x="464" y="-172.8" font-family="Arial" font-size="14.00" fill="gray">Extension: 5a.</text>
<text text-anchor="middle" x="532" y="-157.8" font-family="Arial" font-size="14.00" fill="gray"> Hibernation aborted. </text>
</g>
<!-- UC51 -->
<g id="node1" class="node"><title>UC51</title>
<g id="a_node1"><a xlink:title="User selects application to hibernate.">
<path fill="#b3cde3" stroke="black" d="M45.6667,-219.5C45.6667,-219.5 66.3333,-219.5 66.3333,-219.5 70.1667,-219.5 74,-223.333 74,-227.167 74,-227.167 74,-234.833 74,-234.833 74,-238.667 70.1667,-242.5 66.3333,-242.5 66.3333,-242.5 45.6667,-242.5 45.6667,-242.5 41.8333,-242.5 38,-238.667 38,-234.833 38,-234.833 38,-227.167 38,-227.167 38,-223.333 41.8333,-219.5 45.6667,-219.5"/>
<text text-anchor="middle" x="56" y="-227.3" font-family="Arial" font-size="14.00">•</text>
</a>
</g>
<text text-anchor="middle" x="33.5" y="-207.8" font-family="Arial" font-size="14.00">1</text>
</g>
<!-- UC52 -->
<g id="node2" class="node"><title>UC52</title>
<g id="a_node2"><a xlink:title="System checks that application can be hibernated.">
<path fill="#b3cde3" stroke="black" d="M110.667,-219.5C110.667,-219.5 131.333,-219.5 131.333,-219.5 135.167,-219.5 139,-223.333 139,-227.167 139,-227.167 139,-234.833 139,-234.833 139,-238.667 135.167,-242.5 131.333,-242.5 131.333,-242.5 110.667,-242.5 110.667,-242.5 106.833,-242.5 103,-238.667 103,-234.833 103,-234.833 103,-227.167 103,-227.167 103,-223.333 106.833,-219.5 110.667,-219.5"/>
<text text-anchor="middle" x="121" y="-227.3" font-family="Arial" font-size="14.00">•</text>
</a>
</g>
<text text-anchor="middle" x="98.5" y="-207.8" font-family="Arial" font-size="14.00">2</text>
</g>
<!-- UC51&#45;&gt;UC52 -->
<g id="edge3" class="edge"><title>UC51:JMP&#45;&gt;UC52:JMP</title>
<g id="a_edge3"><a xlink:href="#UC5_1">
<path fill="none" stroke="black" d="M74.1061,-231C79.8817,-231 86.4172,-231 92.7354,-231"/>
<polygon fill="black" stroke="black" points="92.991,-234.5 102.991,-231 92.9909,-227.5 92.991,-234.5"/>
</a>
</g>
</g>
<!-- UC53 -->
<g id="node3" class="node"><title>UC53</title>
<g id="a_node3"><a xlink:title="System prompts user to confirm hibernation.">
<path fill="#b3cde3" stroke="black" d="M175.667,-219.5C175.667,-219.5 196.333,-219.5 196.333,-219.5 200.167,-219.5 204,-223.333 204,-227.167 204,-227.167 204,-234.833 204,-234.833 204,-238.667 200.167,-242.5 196.333,-242.5 196.333,-242.5 175.667,-242.5 175.667,-242.5 171.833,-242.5 168,-238.667 168,-234.833 168,-234.833 168,-227.167 168,-227.167 168,-223.333 171.833,-219.5 175.667,-219.5"/>
<text text-anchor="middle" x="186" y="-227.3" font-family="Arial" font-size="14.00">•</text>
</a>
</g>
<text text-anchor="middle" x="163.5" y="-207.8" font-family="Arial" font-size="14.00">3</text>
</g>
<!-- UC52&#45;&gt;UC53 -->
<g id="edge4" class="edge"><title>UC52:JMP&#45;&gt;UC53:JMP</title>
<g id="a_edge4"><a xlink:href="#UC5_2">
<path fill="none" stroke="black" d="M139.106,-231C144.882,-231 151.417,-231 157.735,-231"/>
<polygon fill="black" stroke="black" points="157.991,-234.5 167.991,-231 157.991,-227.5 157.991,-234.5"/>
</a>
</g>
</g>
<!-- UC54 -->
<g id="node4" class="node"><title>UC54</title>
<g id="a_node4"><a xlink:title="User confirms the hibernation.">
<path fill="#b3cde3" stroke="black" d="M240.667,-219.5C240.667,-219.5 261.333,-219.5 261.333,-219.5 265.167,-219.5 269,-223.333 269,-227.167 269,-227.167 269,-234.833 269,-234.833 269,-238.667 265.167,-242.5 261.333,-242.5 261.333,-242.5 240.667,-242.5 240.667,-242.5 236.833,-242.5 233,-238.667 233,-234.833 233,-234.833 233,-227.167 233,-227.167 233,-223.333 236.833,-219.5 240.667,-219.5"/>
<text text-anchor="middle" x="251" y="-227.3" font-family="Arial" font-size="14.00">•</text>
</a>
</g>
<text text-anchor="middle" x="228.5" y="-207.8" font-family="Arial" font-size="14.00">4</text>
</g>
<!-- UC53&#45;&gt;UC54 -->
<g id="edge5" class="edge"><title>UC53:JMP&#45;&gt;UC54:JMP</title>
<g id="a_edge5"><a xlink:href="#UC5_3">
<path fill="none" stroke="black" d="M204.106,-231C209.882,-231 216.417,-231 222.735,-231"/>
<polygon fill="black" stroke="black" points="222.991,-234.5 232.991,-231 222.991,-227.5 222.991,-234.5"/>
</a>
</g>
</g>
<!-- UC55 -->
<g id="node5" class="node"><title>UC55</title>
<g id="a_node5"><a xlink:title="System initiates application hibernation. #(include:UC21)">
<path fill="#b3cde3" stroke="black" d="M305.667,-219.5C305.667,-219.5 362.333,-219.5 362.333,-219.5 366.167,-219.5 370,-223.333 370,-227.167 370,-227.167 370,-234.833 370,-234.833 370,-238.667 366.167,-242.5 362.333,-242.5 362.333,-242.5 305.667,-242.5 305.667,-242.5 301.833,-242.5 298,-238.667 298,-234.833 298,-234.833 298,-227.167 298,-227.167 298,-223.333 301.833,-219.5 305.667,-219.5"/>
<text text-anchor="middle" x="316.5" y="-227.3" font-family="Arial" font-size="14.00">•</text>
<polyline fill="none" stroke="black" points="335,-219.5 335,-242.5 "/>
<text text-anchor="middle" x="352.5" y="-227.3" font-family="Arial" font-size="14.00"> </text>
</a>
</g>
<text text-anchor="middle" x="293.5" y="-207.8" font-family="Arial" font-size="14.00">5</text>
</g>
<!-- UC54&#45;&gt;UC55 -->
<g id="edge6" class="edge"><title>UC54:JMP&#45;&gt;UC55:JMP</title>
<g id="a_edge6"><a xlink:href="#UC5_4">
<path fill="none" stroke="black" d="M269.303,-231C275.008,-231 281.508,-231 287.977,-231"/>
<polygon fill="black" stroke="black" points="288,-234.5 298,-231 288,-227.5 288,-234.5"/>
</a>
</g>
</g>
<!-- UC56 -->
<g id="node6" class="node"><title>UC56</title>
<g id="a_node6"><a xlink:title="Use case finishes. #(close:app_hibernated)">
<path fill="#ccebc5" stroke="black" d="M521.667,-219.5C521.667,-219.5 542.333,-219.5 542.333,-219.5 546.167,-219.5 550,-223.333 550,-227.167 550,-227.167 550,-234.833 550,-234.833 550,-238.667 546.167,-242.5 542.333,-242.5 542.333,-242.5 521.667,-242.5 521.667,-242.5 517.833,-242.5 514,-238.667 514,-234.833 514,-234.833 514,-227.167 514,-227.167 514,-223.333 517.833,-219.5 521.667,-219.5"/>
<text text-anchor="middle" x="532" y="-227.3" font-family="Arial" font-size="14.00">•</text>
</a>
</g>
<text text-anchor="middle" x="509.5" y="-207.8" font-family="Arial" font-size="14.00">6</text>
</g>
<!-- UC55&#45;&gt;UC56 -->
<g id="edge7" class="edge"><title>UC55:EXT&#45;&gt;UC56:JMP</title>
<g id="a_edge7"><a xlink:href="#UC5_5">
<path fill="none" stroke="black" d="M370,-231C416.747,-231 471.081,-231 503.445,-231"/>
<polygon fill="black" stroke="black" points="503.536,-234.5 513.536,-231 503.536,-227.5 503.536,-234.5"/>
</a>
</g>
</g>
<!-- UC55a1 -->
<g id="node7" class="node"><title>UC55a1</title>
<g id="a_node7"><a xlink:title="Use case aborts. #(abort) #(guard:hibernation_aborted)">
<path fill="#fbb4ae" stroke="black" d="M521.667,-96.5C521.667,-96.5 542.333,-96.5 542.333,-96.5 546.167,-96.5 550,-100.333 550,-104.167 550,-104.167 550,-111.833 550,-111.833 550,-115.667 546.167,-119.5 542.333,-119.5 542.333,-119.5 521.667,-119.5 521.667,-119.5 517.833,-119.5 514,-115.667 514,-111.833 514,-111.833 514,-104.167 514,-104.167 514,-100.333 517.833,-96.5 521.667,-96.5"/>
<text text-anchor="middle" x="532" y="-104.3" font-family="Arial" font-size="14.00">•</text>
</a>
</g>
<text text-anchor="middle" x="501.5" y="-84.8" font-family="Arial" font-size="14.00">5a1</text>
</g>
<!-- UC55&#45;&gt;UC55a1 -->
<g id="edge8" class="edge"><title>UC55:EXT&#45;&gt;UC55a1:JMP</title>
<g id="a_edge8"><a xlink:href="#UC5_5">
<path fill="none" stroke="black" d="M370,-231C393.793,-231 381.826,-202.467 399,-186 430.457,-155.839 475.694,-132.494 504.461,-119.494"/>
<polygon fill="black" stroke="black" points="506.162,-122.569 513.9,-115.333 503.338,-116.164 506.162,-122.569"/>
</a>
</g>
</g>
<!-- UC21 -->
<g id="node8" class="node"><title>UC21</title>
<g id="a_node8"><a xlink:href="../UC21/UC21.html" xlink:title="UC21 Hibernate application subfunction" target="_top">
<polygon fill="#fed9a6" stroke="black" points="665,-36 399,-36 399,-0 665,-0 665,-36"/>
<text text-anchor="middle" x="532" y="-14.3" font-family="Arial" font-size="14.00">UC21 Hibernate application subfunction</text>
</a>
</g>
</g>
<!-- UC55&#45;&gt;UC21 -->
<g id="edge1" class="edge"><title>UC55:JMP&#45;&gt;UC21</title>
<g id="a_edge1"><a xlink:href="#UC5_5">
<path fill="none" stroke="black" d="M316,-218C316,-139.856 339.427,-113.572 399,-63 410.248,-53.4517 423.62,-45.8993 437.468,-39.9337"/>
<polygon fill="black" stroke="black" points="439.141,-43.0332 447.111,-36.0521 436.527,-36.5395 439.141,-43.0332"/>
</a>
</g>
</g>
<!-- UC21&#45;&gt;UC55 -->
<g id="edge2" class="edge"><title>UC21&#45;&gt;UC55:EXT</title>
<path fill="none" stroke="black" d="M436.602,-36.0806C422.341,-42.5091 409.06,-51.2144 399,-63 376.901,-88.8884 401.683,-203.867 379.47,-226.954"/>
<polygon fill="black" stroke="black" points="377.821,-223.853 370,-231 380.571,-230.29 377.821,-223.853"/>
</g>
</g>
</svg>
