<?xml version="1.0" encoding="UTF-8" standalone="no"?>
<!DOCTYPE svg PUBLIC "-//W3C//DTD SVG 1.1//EN"
 "http://www.w3.org/Graphics/SVG/1.1/DTD/svg11.dtd">
<!-- Generated by graphviz version 2.36.0 (20140111.2315)
 -->
<!-- Title: mygraph Pages: 1 -->
<svg width="693pt" height="375pt"
 viewBox="62.00 62.00 631.19 313.05" xmlns="http://www.w3.org/2000/svg" xmlns:xlink="http://www.w3.org/1999/xlink">
<g id="graph0" class="graph" transform="scale(0.861111 0.861111) rotate(0) translate(76 359.537)">
<title>mygraph</title>
<polygon fill="white" stroke="none" points="-4,4 -4,-287.537 657,-287.537 657,4 -4,4"/>
<g id="clust1" class="cluster"><title>cluster_UC17_</title>
<polygon fill="#ffffcc" stroke="black" points="8,-191 8,-275 425,-275 425,-191 8,-191"/>
</g>
<g id="clust2" class="cluster"><title>cluster_UC17_2a</title>
<polygon fill="#f2f2f2" stroke="black" points="293,-66 293,-188 591,-188 591,-66 293,-66"/>
<text text-anchor="start" x="301" y="-172.8" font-family="Arial" font-size="14.00" fill="gray">Extension: 2a.</text>
<text text-anchor="middle" x="409" y="-157.8" font-family="Arial" font-size="14.00" fill="gray"> User decides to change the pla... </text>
</g>
<!-- UC171 -->
<g id="node1" class="node"><title>UC171</title>
<g id="a_node1"><a xlink:title="User creates account. #(include:UC6)">
<path fill="#b3cde3" stroke="black" d="M45.6667,-221.5C45.6667,-221.5 102.333,-221.5 102.333,-221.5 106.167,-221.5 110,-225.333 110,-229.167 110,-229.167 110,-236.833 110,-236.833 110,-240.667 106.167,-244.5 102.333,-244.5 102.333,-244.5 45.6667,-244.5 45.6667,-244.5 41.8333,-244.5 38,-240.667 38,-236.833 38,-236.833 38,-229.167 38,-229.167 38,-225.333 41.8333,-221.5 45.6667,-221.5"/>
<text text-anchor="middle" x="56.5" y="-229.3" font-family="Arial" font-size="14.00">•</text>
<polyline fill="none" stroke="black" points="75,-221.5 75,-244.5 "/>
<text text-anchor="middle" x="92.5" y="-229.3" font-family="Arial" font-size="14.00"> </text>
</a>
</g>
<text text-anchor="middle" x="33.5" y="-209.8" font-family="Arial" font-size="14.00">1</text>
</g>
<!-- UC172 -->
<g id="node2" class="node"><title>UC172</title>
<g id="a_node2"><a xlink:title="User evaluates the account.">
<path fill="#b3cde3" stroke="black" d="M183.667,-221.5C183.667,-221.5 240.333,-221.5 240.333,-221.5 244.167,-221.5 248,-225.333 248,-229.167 248,-229.167 248,-236.833 248,-236.833 248,-240.667 244.167,-244.5 240.333,-244.5 240.333,-244.5 183.667,-244.5 183.667,-244.5 179.833,-244.5 176,-240.667 176,-236.833 176,-236.833 176,-229.167 176,-229.167 176,-225.333 179.833,-221.5 183.667,-221.5"/>
<text text-anchor="middle" x="194.5" y="-229.3" font-family="Arial" font-size="14.00">•</text>
<polyline fill="none" stroke="black" points="213,-221.5 213,-244.5 "/>
<text text-anchor="middle" x="230.5" y="-229.3" font-family="Arial" font-size="14.00"> </text>
</a>
</g>
<text text-anchor="middle" x="171.5" y="-209.8" font-family="Arial" font-size="14.00">2</text>
</g>
<!-- UC171&#45;&gt;UC172 -->
<g id="edge7" class="edge"><title>UC171:EXT&#45;&gt;UC172:JMP</title>
<g id="a_edge7"><a xlink:href="#UC17_1">
<path fill="none" stroke="black" d="M110,-233C135.165,-233 143.889,-233 164.815,-233"/>
<polygon fill="black" stroke="black" points="165,-236.5 175,-233 165,-229.5 165,-236.5"/>
</a>
</g>
</g>
<!-- UC6 -->
<g id="node6" class="node"><title>UC6</title>
<g id="a_node6"><a xlink:href="../UC6/UC6.html" xlink:title="UC6 Create account" target="_top">
<polygon fill="#fed9a6" stroke="black" points="284.5,-161 139.5,-161 139.5,-125 284.5,-125 284.5,-161"/>
<text text-anchor="middle" x="212" y="-139.3" font-family="Arial" font-size="14.00">UC6 Create account</text>
</a>
</g>
</g>
<!-- UC171&#45;&gt;UC6 -->
<g id="edge1" class="edge"><title>UC171:JMP&#45;&gt;UC6</title>
<g id="a_edge1"><a xlink:href="#UC17_1">
<path fill="none" stroke="black" d="M56,-220C56,-182.902 92.0539,-163.677 129.385,-153.715"/>
<polygon fill="black" stroke="black" points="130.519,-157.04 139.398,-151.26 128.852,-150.242 130.519,-157.04"/>
</a>
</g>
</g>
<!-- UC173 -->
<g id="node3" class="node"><title>UC173</title>
<g id="a_node3"><a xlink:title="User deletes account. #(include:UC10)">
<path fill="#ccebc5" stroke="black" d="M330.667,-221.5C330.667,-221.5 387.333,-221.5 387.333,-221.5 391.167,-221.5 395,-225.333 395,-229.167 395,-229.167 395,-236.833 395,-236.833 395,-240.667 391.167,-244.5 387.333,-244.5 387.333,-244.5 330.667,-244.5 330.667,-244.5 326.833,-244.5 323,-240.667 323,-236.833 323,-236.833 323,-229.167 323,-229.167 323,-225.333 326.833,-221.5 330.667,-221.5"/>
<text text-anchor="middle" x="341.5" y="-229.3" font-family="Arial" font-size="14.00">•</text>
<polyline fill="none" stroke="black" points="360,-221.5 360,-244.5 "/>
<text text-anchor="middle" x="377.5" y="-229.3" font-family="Arial" font-size="14.00"> </text>
</a>
</g>
<text text-anchor="middle" x="318.5" y="-209.8" font-family="Arial" font-size="14.00">3</text>
</g>
<!-- UC172&#45;&gt;UC173 -->
<g id="edge8" class="edge"><title>UC172:EXT&#45;&gt;UC173:JMP</title>
<g id="a_edge8"><a xlink:href="#UC17_2">
<path fill="none" stroke="black" d="M249,-233C277.769,-233 287.406,-233 311.84,-233"/>
<polygon fill="black" stroke="black" points="312,-236.5 322,-233 312,-229.5 312,-236.5"/>
</a>
</g>
</g>
<!-- UC172a1 -->
<g id="node4" class="node"><title>UC172a1</title>
<g id="a_node4"><a xlink:title="User changes the plan. #(include:UC12)">
<path fill="#b3cde3" stroke="black" d="M330.667,-96.5C330.667,-96.5 387.333,-96.5 387.333,-96.5 391.167,-96.5 395,-100.333 395,-104.167 395,-104.167 395,-111.833 395,-111.833 395,-115.667 391.167,-119.5 387.333,-119.5 387.333,-119.5 330.667,-119.5 330.667,-119.5 326.833,-119.5 323,-115.667 323,-111.833 323,-111.833 323,-104.167 323,-104.167 323,-100.333 326.833,-96.5 330.667,-96.5"/>
<text text-anchor="middle" x="341.5" y="-104.3" font-family="Arial" font-size="14.00">•</text>
<polyline fill="none" stroke="black" points="360,-96.5 360,-119.5 "/>
<text text-anchor="middle" x="377.5" y="-104.3" font-family="Arial" font-size="14.00"> </text>
</a>
</g>
<text text-anchor="middle" x="310.5" y="-84.8" font-family="Arial" font-size="14.00">2a1</text>
</g>
<!-- UC172&#45;&gt;UC172a1 -->
<g id="edge9" class="edge"><title>UC172:EXT&#45;&gt;UC172a1:JMP</title>
<g id="a_edge9"><a xlink:href="#UC17_2">
<path fill="none" stroke="black" d="M249,-233C309.566,-233 263.776,-122.219 311.879,-109.237"/>
<polygon fill="black" stroke="black" points="312.499,-112.688 322,-108 311.649,-105.739 312.499,-112.688"/>
</a>
</g>
</g>
<!-- UC10 -->
<g id="node7" class="node"><title>UC10</title>
<g id="a_node7"><a xlink:href="../UC10/UC10.html" xlink:title="UC10 Delete account" target="_top">
<polygon fill="#fed9a6" stroke="black" points="619,-254 467,-254 467,-218 619,-218 619,-254"/>
<text text-anchor="middle" x="543" y="-232.3" font-family="Arial" font-size="14.00">UC10 Delete account</text>
</a>
</g>
</g>
<!-- UC173&#45;&gt;UC10 -->
<g id="edge3" class="edge"><title>UC173:JMP&#45;&gt;UC10</title>
<g id="a_edge3"><a xlink:href="#UC17_3">
<path fill="none" stroke="black" d="M341,-246C341,-306.07 431.659,-280.944 491.205,-257.963"/>
<polygon fill="black" stroke="black" points="492.823,-261.087 500.84,-254.159 490.253,-254.576 492.823,-261.087"/>
</a>
</g>
</g>
<!-- UC172a2 -->
<g id="node5" class="node"><title>UC172a2</title>
<g id="a_node5"><a xlink:title="Use case continues with step 2. #(goto:2)">
<path fill="#b3cde3" stroke="black" d="M532.667,-96.5C532.667,-96.5 553.333,-96.5 553.333,-96.5 557.167,-96.5 561,-100.333 561,-104.167 561,-104.167 561,-111.833 561,-111.833 561,-115.667 557.167,-119.5 553.333,-119.5 553.333,-119.5 532.667,-119.5 532.667,-119.5 528.833,-119.5 525,-115.667 525,-111.833 525,-111.833 525,-104.167 525,-104.167 525,-100.333 528.833,-96.5 532.667,-96.5"/>
<text text-anchor="middle" x="543" y="-104.3" font-family="Arial" font-size="14.00">•</text>
</a>
</g>
<text text-anchor="middle" x="512.5" y="-84.8" font-family="Arial" font-size="14.00">2a2</text>
</g>
<!-- UC172a1&#45;&gt;UC172a2 -->
<g id="edge10" class="edge"><title>UC172a1:EXT&#45;&gt;UC172a2:JMP</title>
<g id="a_edge10"><a xlink:href="#UC17_2a1">
<path fill="none" stroke="black" d="M396,-108C437.368,-108 485.284,-108 514.87,-108"/>
<polygon fill="black" stroke="black" points="514.896,-111.5 524.896,-108 514.895,-104.5 514.896,-111.5"/>
</a>
</g>
</g>
<!-- UC12 -->
<g id="node8" class="node"><title>UC12</title>
<g id="a_node8"><a xlink:href="../UC12/UC12.html" xlink:title="UC12 Change billing information" target="_top">
<polygon fill="#fed9a6" stroke="black" points="653,-36 433,-36 433,-0 653,-0 653,-36"/>
<text text-anchor="middle" x="543" y="-14.3" font-family="Arial" font-size="14.00">UC12 Change billing information</text>
</a>
</g>
</g>
<!-- UC172a1&#45;&gt;UC12 -->
<g id="edge5" class="edge"><title>UC172a1:JMP&#45;&gt;UC12</title>
<g id="a_edge5"><a xlink:href="#UC17_2a1">
<path fill="none" stroke="black" d="M341,-95C341,-53.0499 379.651,-33.0846 423.056,-23.8895"/>
<polygon fill="black" stroke="black" points="423.811,-27.3084 432.971,-21.9832 422.49,-20.4343 423.811,-27.3084"/>
</a>
</g>
</g>
<!-- UC172a2&#45;&gt;UC172 -->
<g id="edge11" class="edge"><title>UC172a2:JMP&#45;&gt;UC172:JMP</title>
<g id="a_edge11"><a xlink:href="#UC17_2a2">
<path fill="none" stroke="black" d="M524.728,-111.84C458.809,-125.922 235.22,-175.734 198.981,-210.946"/>
<polygon fill="black" stroke="black" points="195.753,-209.551 194,-220 201.887,-212.925 195.753,-209.551"/>
</a>
</g>
</g>
<!-- UC6&#45;&gt;UC171 -->
<g id="edge2" class="edge"><title>UC6&#45;&gt;UC171:EXT</title>
<path fill="none" stroke="black" d="M175.436,-161.016C163.043,-168.336 149.6,-177.546 139,-188 125.103,-201.705 130.502,-223.206 119.757,-230.491"/>
<polygon fill="black" stroke="black" points="118.813,-227.12 110,-233 120.557,-233.899 118.813,-227.12"/>
</g>
<!-- UC10&#45;&gt;UC173 -->
<g id="edge4" class="edge"><title>UC10&#45;&gt;UC173:EXT</title>
<path fill="none" stroke="black" d="M466.982,-233.868C447.482,-233.45 426.283,-233.112 406.118,-233.023"/>
<polygon fill="black" stroke="black" points="406.008,-229.523 396,-233 405.992,-236.523 406.008,-229.523"/>
</g>
<!-- UC12&#45;&gt;UC172a1 -->
<g id="edge6" class="edge"><title>UC12&#45;&gt;UC172a1:EXT</title>
<path fill="none" stroke="black" d="M483.473,-36.0597C466.277,-42.9303 448.058,-51.8567 433,-63 415.602,-75.8754 419.529,-98.6704 406.161,-105.803"/>
<polygon fill="black" stroke="black" points="405.035,-102.466 396,-108 406.514,-109.308 405.035,-102.466"/>
</g>
</g>
</svg>
