<?xml version="1.0" encoding="UTF-8" standalone="no"?>
<!DOCTYPE svg PUBLIC "-//W3C//DTD SVG 1.1//EN"
 "http://www.w3.org/Graphics/SVG/1.1/DTD/svg11.dtd">
<!-- Generated by graphviz version 2.37.20140307.0545 (20140307.0545)
 -->
<!-- Title: mygraph Pages: 1 -->
<svg width="554pt" height="323pt"
 viewBox="62.00 62.00 491.69 260.92" xmlns="http://www.w3.org/2000/svg" xmlns:xlink="http://www.w3.org/1999/xlink">
<g id="graph0" class="graph" transform="scale(0.861111 0.861111) rotate(0) translate(76 299)">
<title>mygraph</title>
<polygon fill="white" stroke="none" points="-4,4 -4,-227 495,-227 495,4 -4,4"/>
<g id="clust1" class="cluster"><title>cluster_UC1</title>
<polygon fill="#ffffcc" stroke="black" points="8,-131 8,-215 483,-215 483,-131 8,-131"/>
</g>
<g id="clust2" class="cluster"><title>cluster_UC12a</title>
<polygon fill="#f2f2f2" stroke="black" points="183,-8 183,-130 409,-130 409,-8 183,-8"/>
<text text-anchor="start" x="191" y="-114.8" font-family="Arial" font-size="14.00" fill="gray">Extension: 2a.</text>
<text text-anchor="middle" x="276.5" y="-99.8" font-family="Arial" font-size="14.00" fill="gray"> Dotaznik nie je kompletny. </text>
</g>
<!-- UC11 -->
<g id="node1" class="node"><title>UC11</title>
<g id="a_node1"><a xlink:title="Klient vyplni dotaznik.">
<path fill="#b3cde3" stroke="black" d="M45.6667,-161.5C45.6667,-161.5 66.3333,-161.5 66.3333,-161.5 70.1667,-161.5 74,-165.333 74,-169.167 74,-169.167 74,-176.833 74,-176.833 74,-180.667 70.1667,-184.5 66.3333,-184.5 66.3333,-184.5 45.6667,-184.5 45.6667,-184.5 41.8333,-184.5 38,-180.667 38,-176.833 38,-176.833 38,-169.167 38,-169.167 38,-165.333 41.8333,-161.5 45.6667,-161.5"/>
<text text-anchor="middle" x="56" y="-169.3" font-family="Arial" font-size="14.00">•</text>
</a>
</g>
<text text-anchor="middle" x="33.5" y="-149.8" font-family="Arial" font-size="14.00">1</text>
</g>
<!-- UC12 -->
<g id="node2" class="node"><title>UC12</title>
<g id="a_node2"><a xlink:title="System skontroluje spravnost dotazniku.">
<path fill="#b3cde3" stroke="black" d="M110.667,-161.5C110.667,-161.5 167.333,-161.5 167.333,-161.5 171.167,-161.5 175,-165.333 175,-169.167 175,-169.167 175,-176.833 175,-176.833 175,-180.667 171.167,-184.5 167.333,-184.5 167.333,-184.5 110.667,-184.5 110.667,-184.5 106.833,-184.5 103,-180.667 103,-176.833 103,-176.833 103,-169.167 103,-169.167 103,-165.333 106.833,-161.5 110.667,-161.5"/>
<text text-anchor="middle" x="121.5" y="-169.3" font-family="Arial" font-size="14.00">•</text>
<polyline fill="none" stroke="black" points="140,-161.5 140,-184.5 "/>
<text text-anchor="middle" x="157.5" y="-169.3" font-family="Arial" font-size="14.00"> </text>
</a>
</g>
<text text-anchor="middle" x="98.5" y="-149.8" font-family="Arial" font-size="14.00">2</text>
</g>
<!-- UC11&#45;&gt;UC12 -->
<g id="edge1" class="edge"><title>UC11:JMP&#45;&gt;UC12:JMP</title>
<g id="a_edge1"><a xlink:href="#UC1_1">
<path fill="none" stroke="black" d="M74.3026,-173C80.0084,-173 86.5079,-173 92.9772,-173"/>
<polygon fill="black" stroke="black" points="93,-176.5 103,-173 93,-169.5 93,-176.5"/>
</a>
</g>
</g>
<!-- UC13 -->
<g id="node3" class="node"><title>UC13</title>
<g id="a_node3"><a xlink:title="System zalozi novu zakazku.">
<path fill="#b3cde3" stroke="black" d="M220.667,-161.5C220.667,-161.5 241.333,-161.5 241.333,-161.5 245.167,-161.5 249,-165.333 249,-169.167 249,-169.167 249,-176.833 249,-176.833 249,-180.667 245.167,-184.5 241.333,-184.5 241.333,-184.5 220.667,-184.5 220.667,-184.5 216.833,-184.5 213,-180.667 213,-176.833 213,-176.833 213,-169.167 213,-169.167 213,-165.333 216.833,-161.5 220.667,-161.5"/>
<text text-anchor="middle" x="231" y="-169.3" font-family="Arial" font-size="14.00">•</text>
</a>
</g>
<text text-anchor="middle" x="208.5" y="-149.8" font-family="Arial" font-size="14.00">3</text>
</g>
<!-- UC12&#45;&gt;UC13 -->
<g id="edge2" class="edge"><title>UC12:EXT&#45;&gt;UC13:JMP</title>
<g id="a_edge2"><a xlink:href="#UC1_2">
<path fill="none" stroke="black" d="M175,-173C183.985,-173 193.782,-173 202.633,-173"/>
<polygon fill="black" stroke="black" points="202.841,-176.5 212.841,-173 202.841,-169.5 202.841,-176.5"/>
</a>
</g>
</g>
<!-- UC12a1 -->
<g id="node7" class="node"><title>UC12a1</title>
<g id="a_node7"><a xlink:title="System upozorni na chyby.">
<path fill="#b3cde3" stroke="black" d="M220.667,-38.5C220.667,-38.5 241.333,-38.5 241.333,-38.5 245.167,-38.5 249,-42.3333 249,-46.1667 249,-46.1667 249,-53.8333 249,-53.8333 249,-57.6667 245.167,-61.5 241.333,-61.5 241.333,-61.5 220.667,-61.5 220.667,-61.5 216.833,-61.5 213,-57.6667 213,-53.8333 213,-53.8333 213,-46.1667 213,-46.1667 213,-42.3333 216.833,-38.5 220.667,-38.5"/>
<text text-anchor="middle" x="231" y="-46.3" font-family="Arial" font-size="14.00">•</text>
</a>
</g>
<text text-anchor="middle" x="200.5" y="-26.8" font-family="Arial" font-size="14.00">2a1</text>
</g>
<!-- UC12&#45;&gt;UC12a1 -->
<g id="edge6" class="edge"><title>UC12:EXT&#45;&gt;UC12a1:JMP</title>
<g id="a_edge6"><a xlink:href="#UC1_2">
<path fill="none" stroke="black" d="M158,-160C158,-113.568 175.676,-99.9542 205.6,-69.2161"/>
<polygon fill="black" stroke="black" points="208.198,-71.5645 212.598,-61.9265 203.148,-66.717 208.198,-71.5645"/>
</a>
</g>
</g>
<!-- UC14 -->
<g id="node4" class="node"><title>UC14</title>
<g id="a_node4"><a xlink:title="System vytvori zlozku zakazky na serveri.">
<path fill="#b3cde3" stroke="black" d="M285.667,-161.5C285.667,-161.5 306.333,-161.5 306.333,-161.5 310.167,-161.5 314,-165.333 314,-169.167 314,-169.167 314,-176.833 314,-176.833 314,-180.667 310.167,-184.5 306.333,-184.5 306.333,-184.5 285.667,-184.5 285.667,-184.5 281.833,-184.5 278,-180.667 278,-176.833 278,-176.833 278,-169.167 278,-169.167 278,-165.333 281.833,-161.5 285.667,-161.5"/>
<text text-anchor="middle" x="296" y="-169.3" font-family="Arial" font-size="14.00">•</text>
</a>
</g>
<text text-anchor="middle" x="273.5" y="-149.8" font-family="Arial" font-size="14.00">4</text>
</g>
<!-- UC13&#45;&gt;UC14 -->
<g id="edge3" class="edge"><title>UC13:JMP&#45;&gt;UC14:JMP</title>
<g id="a_edge3"><a xlink:href="#UC1_3">
<path fill="none" stroke="black" d="M249.106,-173C254.882,-173 261.417,-173 267.735,-173"/>
<polygon fill="black" stroke="black" points="267.991,-176.5 277.991,-173 267.991,-169.5 267.991,-176.5"/>
</a>
</g>
</g>
<!-- UC15 -->
<g id="node5" class="node"><title>UC15</title>
<g id="a_node5"><a xlink:title="System ulozi dotaznik do vytvorenej zlozky.">
<path fill="#b3cde3" stroke="black" d="M350.667,-161.5C350.667,-161.5 371.333,-161.5 371.333,-161.5 375.167,-161.5 379,-165.333 379,-169.167 379,-169.167 379,-176.833 379,-176.833 379,-180.667 375.167,-184.5 371.333,-184.5 371.333,-184.5 350.667,-184.5 350.667,-184.5 346.833,-184.5 343,-180.667 343,-176.833 343,-176.833 343,-169.167 343,-169.167 343,-165.333 346.833,-161.5 350.667,-161.5"/>
<text text-anchor="middle" x="361" y="-169.3" font-family="Arial" font-size="14.00">•</text>
</a>
</g>
<text text-anchor="middle" x="338.5" y="-149.8" font-family="Arial" font-size="14.00">5</text>
</g>
<!-- UC14&#45;&gt;UC15 -->
<g id="edge4" class="edge"><title>UC14:JMP&#45;&gt;UC15:JMP</title>
<g id="a_edge4"><a xlink:href="#UC1_4">
<path fill="none" stroke="black" d="M314.106,-173C319.882,-173 326.417,-173 332.735,-173"/>
<polygon fill="black" stroke="black" points="332.991,-176.5 342.991,-173 332.991,-169.5 332.991,-176.5"/>
</a>
</g>
</g>
<!-- UC16 -->
<g id="node6" class="node"><title>UC16</title>
<g id="a_node6"><a xlink:title="System odosle email koordinatorovi o zalozeni zakazky.">
<path fill="#ccebc5" stroke="black" d="M424.667,-161.5C424.667,-161.5 445.333,-161.5 445.333,-161.5 449.167,-161.5 453,-165.333 453,-169.167 453,-169.167 453,-176.833 453,-176.833 453,-180.667 449.167,-184.5 445.333,-184.5 445.333,-184.5 424.667,-184.5 424.667,-184.5 420.833,-184.5 417,-180.667 417,-176.833 417,-176.833 417,-169.167 417,-169.167 417,-165.333 420.833,-161.5 424.667,-161.5"/>
<text text-anchor="middle" x="435" y="-169.3" font-family="Arial" font-size="14.00">•</text>
</a>
</g>
<text text-anchor="middle" x="412.5" y="-149.8" font-family="Arial" font-size="14.00">6</text>
</g>
<!-- UC15&#45;&gt;UC16 -->
<g id="edge5" class="edge"><title>UC15:JMP&#45;&gt;UC16:JMP</title>
<g id="a_edge5"><a xlink:href="#UC1_5">
<path fill="none" stroke="black" d="M379.292,-173C387.536,-173 397.462,-173 406.638,-173"/>
<polygon fill="black" stroke="black" points="406.918,-176.5 416.918,-173 406.918,-169.5 406.918,-176.5"/>
</a>
</g>
</g>
<!-- UC12a2 -->
<g id="node8" class="node"><title>UC12a2</title>
<g id="a_node8"><a xlink:title="Klient opravi chyby v dotazniku.">
<path fill="#b3cde3" stroke="black" d="M285.667,-38.5C285.667,-38.5 306.333,-38.5 306.333,-38.5 310.167,-38.5 314,-42.3333 314,-46.1667 314,-46.1667 314,-53.8333 314,-53.8333 314,-57.6667 310.167,-61.5 306.333,-61.5 306.333,-61.5 285.667,-61.5 285.667,-61.5 281.833,-61.5 278,-57.6667 278,-53.8333 278,-53.8333 278,-46.1667 278,-46.1667 278,-42.3333 281.833,-38.5 285.667,-38.5"/>
<text text-anchor="middle" x="296" y="-46.3" font-family="Arial" font-size="14.00">•</text>
</a>
</g>
<text text-anchor="middle" x="265.5" y="-26.8" font-family="Arial" font-size="14.00">2a2</text>
</g>
<!-- UC12a1&#45;&gt;UC12a2 -->
<g id="edge7" class="edge"><title>UC12a1:JMP&#45;&gt;UC12a2:JMP</title>
<g id="a_edge7"><a xlink:href="#UC1_2a1">
<path fill="none" stroke="black" d="M249.106,-50C254.882,-50 261.417,-50 267.735,-50"/>
<polygon fill="black" stroke="black" points="267.991,-53.5001 277.991,-50 267.991,-46.5001 267.991,-53.5001"/>
</a>
</g>
</g>
<!-- UC12a3 -->
<g id="node9" class="node"><title>UC12a3</title>
<g id="a_node9"><a xlink:title="Opakovana kontrola.">
<path fill="#b3cde3" stroke="black" d="M350.667,-38.5C350.667,-38.5 371.333,-38.5 371.333,-38.5 375.167,-38.5 379,-42.3333 379,-46.1667 379,-46.1667 379,-53.8333 379,-53.8333 379,-57.6667 375.167,-61.5 371.333,-61.5 371.333,-61.5 350.667,-61.5 350.667,-61.5 346.833,-61.5 343,-57.6667 343,-53.8333 343,-53.8333 343,-46.1667 343,-46.1667 343,-42.3333 346.833,-38.5 350.667,-38.5"/>
<text text-anchor="middle" x="361" y="-46.3" font-family="Arial" font-size="14.00">•</text>
</a>
</g>
<text text-anchor="middle" x="330.5" y="-26.8" font-family="Arial" font-size="14.00">2a3</text>
</g>
<!-- UC12a2&#45;&gt;UC12a3 -->
<g id="edge8" class="edge"><title>UC12a2:JMP&#45;&gt;UC12a3:JMP</title>
<g id="a_edge8"><a xlink:href="#UC1_2a2">
<path fill="none" stroke="black" d="M314.106,-50C319.882,-50 326.417,-50 332.735,-50"/>
<polygon fill="black" stroke="black" points="332.991,-53.5001 342.991,-50 332.991,-46.5001 332.991,-53.5001"/>
</a>
</g>
</g>
<!-- UC12a3&#45;&gt;UC12 -->
<g id="edge9" class="edge"><title>UC12a3:JMP&#45;&gt;UC12:JMP</title>
<g id="a_edge9"><a xlink:href="#UC1_2a3">
<path fill="none" stroke="black" d="M342.925,-41.1942C308.771,-25.9432 233.644,0.848864 183,-31 132.097,-63.0123 122.028,-92.9336 121.079,-149.846"/>
<polygon fill="black" stroke="black" points="117.578,-149.973 121,-160 124.578,-150.028 117.578,-149.973"/>
</a>
</g>
</g>
</g>
</svg>
