<?xml version="1.0" encoding="UTF-8" standalone="no"?>
<!DOCTYPE svg PUBLIC "-//W3C//DTD SVG 1.1//EN"
 "http://www.w3.org/Graphics/SVG/1.1/DTD/svg11.dtd">
<!-- Generated by graphviz version 2.37.20140307.0545 (20140307.0545)
 -->
<!-- Title: mygraph Pages: 1 -->
<svg width="746pt" height="356pt"
 viewBox="62.00 62.00 683.72 293.64" xmlns="http://www.w3.org/2000/svg" xmlns:xlink="http://www.w3.org/1999/xlink">
<g id="graph0" class="graph" transform="scale(0.861111 0.861111) rotate(0) translate(76 337)">
<title>mygraph</title>
<polygon fill="white" stroke="none" points="-4,4 -4,-265 718,-265 718,4 -4,4"/>
<g id="clust1" class="cluster"><title>cluster_UC5</title>
<polygon fill="#ffffcc" stroke="black" points="8,-42 8,-126 335,-126 335,-42 8,-42"/>
</g>
<g id="clust2" class="cluster"><title>cluster_UC54a</title>
<polygon fill="#f2f2f2" stroke="black" points="343,-8 343,-130 541,-130 541,-8 343,-8"/>
<text text-anchor="start" x="351" y="-114.8" font-family="Arial" font-size="14.00" fill="gray">Variation: 4a.</text>
<text text-anchor="middle" x="442" y="-99.8" font-family="Arial" font-size="14.00" fill="gray"> Klientovi termin nevyhovuje. </text>
</g>
<g id="clust3" class="cluster"><title>cluster_UC54b</title>
<polygon fill="#f2f2f2" stroke="black" points="349,-131 349,-253 711,-253 711,-131 349,-131"/>
<text text-anchor="start" x="357" y="-237.8" font-family="Arial" font-size="14.00" fill="gray">Variation: 4b.</text>
<text text-anchor="middle" x="530" y="-222.8" font-family="Arial" font-size="14.00" fill="gray"> Koordinator a Klient sa nezhodnu na ziadnom termine. </text>
</g>
<!-- UC51 -->
<g id="node1" class="node"><title>UC51</title>
<g id="a_node1"><a xlink:title="Koordinator s designerom dohodnu termin schodzky.">
<path fill="#b3cde3" stroke="black" d="M45.6667,-72.5C45.6667,-72.5 66.3333,-72.5 66.3333,-72.5 70.1667,-72.5 74,-76.3333 74,-80.1667 74,-80.1667 74,-87.8333 74,-87.8333 74,-91.6667 70.1667,-95.5 66.3333,-95.5 66.3333,-95.5 45.6667,-95.5 45.6667,-95.5 41.8333,-95.5 38,-91.6667 38,-87.8333 38,-87.8333 38,-80.1667 38,-80.1667 38,-76.3333 41.8333,-72.5 45.6667,-72.5"/>
<text text-anchor="middle" x="56" y="-80.3" font-family="Arial" font-size="14.00">•</text>
</a>
</g>
<text text-anchor="middle" x="33.5" y="-60.8" font-family="Arial" font-size="14.00">1</text>
</g>
<!-- UC52 -->
<g id="node2" class="node"><title>UC52</title>
<g id="a_node2"><a xlink:title="Koordinator zada termin do kalendara.">
<path fill="#b3cde3" stroke="black" d="M110.667,-72.5C110.667,-72.5 131.333,-72.5 131.333,-72.5 135.167,-72.5 139,-76.3333 139,-80.1667 139,-80.1667 139,-87.8333 139,-87.8333 139,-91.6667 135.167,-95.5 131.333,-95.5 131.333,-95.5 110.667,-95.5 110.667,-95.5 106.833,-95.5 103,-91.6667 103,-87.8333 103,-87.8333 103,-80.1667 103,-80.1667 103,-76.3333 106.833,-72.5 110.667,-72.5"/>
<text text-anchor="middle" x="121" y="-80.3" font-family="Arial" font-size="14.00">•</text>
</a>
</g>
<text text-anchor="middle" x="98.5" y="-60.8" font-family="Arial" font-size="14.00">2</text>
</g>
<!-- UC51&#45;&gt;UC52 -->
<g id="edge3" class="edge"><title>UC51:JMP&#45;&gt;UC52:JMP</title>
<g id="a_edge3"><a xlink:href="#UC5_1">
<path fill="none" stroke="black" d="M74.1061,-84C79.8817,-84 86.4172,-84 92.7354,-84"/>
<polygon fill="black" stroke="black" points="92.991,-87.5001 102.991,-84 92.9909,-80.5001 92.991,-87.5001"/>
</a>
</g>
</g>
<!-- UC53 -->
<g id="node3" class="node"><title>UC53</title>
<g id="a_node3"><a xlink:title="Koordinator navrhne termin schodzky klientovi.">
<path fill="#b3cde3" stroke="black" d="M175.667,-72.5C175.667,-72.5 196.333,-72.5 196.333,-72.5 200.167,-72.5 204,-76.3333 204,-80.1667 204,-80.1667 204,-87.8333 204,-87.8333 204,-91.6667 200.167,-95.5 196.333,-95.5 196.333,-95.5 175.667,-95.5 175.667,-95.5 171.833,-95.5 168,-91.6667 168,-87.8333 168,-87.8333 168,-80.1667 168,-80.1667 168,-76.3333 171.833,-72.5 175.667,-72.5"/>
<text text-anchor="middle" x="186" y="-80.3" font-family="Arial" font-size="14.00">•</text>
</a>
</g>
<text text-anchor="middle" x="163.5" y="-60.8" font-family="Arial" font-size="14.00">3</text>
</g>
<!-- UC52&#45;&gt;UC53 -->
<g id="edge4" class="edge"><title>UC52:JMP&#45;&gt;UC53:JMP</title>
<g id="a_edge4"><a xlink:href="#UC5_2">
<path fill="none" stroke="black" d="M139.106,-84C144.882,-84 151.417,-84 157.735,-84"/>
<polygon fill="black" stroke="black" points="157.991,-87.5001 167.991,-84 157.991,-80.5001 157.991,-87.5001"/>
</a>
</g>
</g>
<!-- UC54 -->
<g id="node4" class="node"><title>UC54</title>
<g id="a_node4"><a xlink:title="Klient potvrdi termin.">
<path fill="#ccebc5" stroke="black" d="M240.667,-72.5C240.667,-72.5 297.333,-72.5 297.333,-72.5 301.167,-72.5 305,-76.3333 305,-80.1667 305,-80.1667 305,-87.8333 305,-87.8333 305,-91.6667 301.167,-95.5 297.333,-95.5 297.333,-95.5 240.667,-95.5 240.667,-95.5 236.833,-95.5 233,-91.6667 233,-87.8333 233,-87.8333 233,-80.1667 233,-80.1667 233,-76.3333 236.833,-72.5 240.667,-72.5"/>
<text text-anchor="middle" x="250.5" y="-80.3" font-family="Arial" font-size="14.00"> </text>
<polyline fill="none" stroke="black" points="268,-72.5 268,-95.5 "/>
<text text-anchor="middle" x="286.5" y="-80.3" font-family="Arial" font-size="14.00">•</text>
</a>
</g>
<text text-anchor="middle" x="228.5" y="-60.8" font-family="Arial" font-size="14.00">4</text>
</g>
<!-- UC53&#45;&gt;UC54 -->
<g id="edge5" class="edge"><title>UC53:JMP&#45;&gt;UC54:VAR</title>
<g id="a_edge5"><a xlink:href="#UC5_3">
<path fill="none" stroke="black" d="M204.303,-84C210.008,-84 216.508,-84 222.977,-84"/>
<polygon fill="black" stroke="black" points="223,-87.5001 233,-84 223,-80.5001 223,-87.5001"/>
</a>
</g>
</g>
<!-- UC54a1 -->
<g id="node5" class="node"><title>UC54a1</title>
<g id="a_node5"><a xlink:title="Zadanie noveho terminu.">
<path fill="#b3cde3" stroke="black" d="M431.667,-38.5C431.667,-38.5 452.333,-38.5 452.333,-38.5 456.167,-38.5 460,-42.3333 460,-46.1667 460,-46.1667 460,-53.8333 460,-53.8333 460,-57.6667 456.167,-61.5 452.333,-61.5 452.333,-61.5 431.667,-61.5 431.667,-61.5 427.833,-61.5 424,-57.6667 424,-53.8333 424,-53.8333 424,-46.1667 424,-46.1667 424,-42.3333 427.833,-38.5 431.667,-38.5"/>
<text text-anchor="middle" x="442" y="-46.3" font-family="Arial" font-size="14.00">•</text>
</a>
</g>
<text text-anchor="middle" x="411.5" y="-26.8" font-family="Arial" font-size="14.00">4a1</text>
</g>
<!-- UC54&#45;&gt;UC54a1 -->
<g id="edge6" class="edge"><title>UC54:VAR&#45;&gt;UC54a1:JMP</title>
<g id="a_edge6"><a xlink:href="#UC5_4">
<path fill="none" stroke="black" d="M250,-71C250,-69.9829 360.405,-58.4328 413.774,-52.909"/>
<polygon fill="black" stroke="black" points="414.35,-56.3682 423.937,-51.8586 413.63,-49.4053 414.35,-56.3682"/>
</a>
</g>
</g>
<!-- UC54b1 -->
<g id="node6" class="node"><title>UC54b1</title>
<g id="a_node6"><a xlink:title="Storno zakazky.">
<path fill="#b3cde3" stroke="black" d="M413.667,-161.5C413.667,-161.5 470.333,-161.5 470.333,-161.5 474.167,-161.5 478,-165.333 478,-169.167 478,-169.167 478,-176.833 478,-176.833 478,-180.667 474.167,-184.5 470.333,-184.5 470.333,-184.5 413.667,-184.5 413.667,-184.5 409.833,-184.5 406,-180.667 406,-176.833 406,-176.833 406,-169.167 406,-169.167 406,-165.333 409.833,-161.5 413.667,-161.5"/>
<text text-anchor="middle" x="424.5" y="-169.3" font-family="Arial" font-size="14.00">•</text>
<polyline fill="none" stroke="black" points="443,-161.5 443,-184.5 "/>
<text text-anchor="middle" x="460.5" y="-169.3" font-family="Arial" font-size="14.00"> </text>
</a>
</g>
<text text-anchor="middle" x="393.5" y="-149.8" font-family="Arial" font-size="14.00">4b1</text>
</g>
<!-- UC54&#45;&gt;UC54b1 -->
<g id="edge8" class="edge"><title>UC54:VAR&#45;&gt;UC54b1:JMP</title>
<g id="a_edge8"><a xlink:href="#UC5_4">
<path fill="none" stroke="black" d="M250,-97C250,-170.278 321.401,-172.909 394.658,-172.997"/>
<polygon fill="black" stroke="black" points="394.999,-176.497 405,-173 395.001,-169.497 394.999,-176.497"/>
</a>
</g>
</g>
<!-- UC54a1&#45;&gt;UC51 -->
<g id="edge7" class="edge"><title>UC54a1:JMP&#45;&gt;UC51:JMP</title>
<g id="a_edge7"><a xlink:href="#UC5_4a1">
<path fill="none" stroke="black" d="M423.715,-48.661C372.41,-45.3611 223.024,-38.891 103,-65 96.566,-66.3996 89.8787,-68.6038 83.6354,-71.0228"/>
<polygon fill="black" stroke="black" points="82.1754,-67.8394 74.2905,-74.9162 84.8675,-74.3011 82.1754,-67.8394"/>
</a>
</g>
</g>
<!-- UC54b2 -->
<g id="node7" class="node"><title>UC54b2</title>
<g id="a_node7"><a xlink:title="Use&#45;case terminates.">
<path fill="#fbb4ae" stroke="black" d="M625.667,-161.5C625.667,-161.5 646.333,-161.5 646.333,-161.5 650.167,-161.5 654,-165.333 654,-169.167 654,-169.167 654,-176.833 654,-176.833 654,-180.667 650.167,-184.5 646.333,-184.5 646.333,-184.5 625.667,-184.5 625.667,-184.5 621.833,-184.5 618,-180.667 618,-176.833 618,-176.833 618,-169.167 618,-169.167 618,-165.333 621.833,-161.5 625.667,-161.5"/>
<text text-anchor="middle" x="636" y="-169.3" font-family="Arial" font-size="14.00">•</text>
</a>
</g>
<text text-anchor="middle" x="605.5" y="-149.8" font-family="Arial" font-size="14.00">4b2</text>
</g>
<!-- UC54b1&#45;&gt;UC54b2 -->
<g id="edge9" class="edge"><title>UC54b1:EXT&#45;&gt;UC54b2:JMP</title>
<g id="a_edge9"><a xlink:href="#UC5_4b1">
<path fill="none" stroke="black" d="M479,-173C523.863,-173 575.938,-173 607.405,-173"/>
<polygon fill="black" stroke="black" points="607.63,-176.5 617.63,-173 607.63,-169.5 607.63,-176.5"/>
</a>
</g>
</g>
<!-- UC10 -->
<g id="node8" class="node"><title>UC10</title>
<g id="a_node8"><a xlink:href="../UC10/UC10.html" xlink:title="UC10 Storno zakazky." target="_top">
<polygon fill="#fed9a6" stroke="black" points="713.5,-101 558.5,-101 558.5,-65 713.5,-65 713.5,-101"/>
<text text-anchor="middle" x="636" y="-79.3" font-family="Arial" font-size="14.00">UC10 Storno zakazky.</text>
</a>
</g>
</g>
<!-- UC54b1&#45;&gt;UC10 -->
<g id="edge1" class="edge"><title>UC54b1:JMP&#45;&gt;UC10</title>
<g id="a_edge1"><a xlink:href="#UC5_4b1">
<path fill="none" stroke="black" d="M424,-160C424,-133.317 516.007,-142.346 541,-133 560.137,-125.844 580.272,-115.547 596.976,-106.154"/>
<polygon fill="black" stroke="black" points="598.938,-109.064 605.875,-101.055 595.458,-102.99 598.938,-109.064"/>
</a>
</g>
</g>
<!-- UC10&#45;&gt;UC54b1 -->
<g id="edge2" class="edge"><title>UC10&#45;&gt;UC54b1:EXT</title>
<path fill="none" stroke="black" d="M603.877,-101.213C567.665,-122.375 510.023,-155.963 487.961,-168.276"/>
<polygon fill="black" stroke="black" points="486.214,-165.24 479,-173 489.478,-171.433 486.214,-165.24"/>
</g>
</g>
</svg>
