<?xml version="1.0" encoding="UTF-8" standalone="no"?>
<!DOCTYPE svg PUBLIC "-//W3C//DTD SVG 1.1//EN"
 "http://www.w3.org/Graphics/SVG/1.1/DTD/svg11.dtd">
<!-- Generated by graphviz version 2.36.0 (20140111.2315)
 -->
<!-- Title: mygraph Pages: 1 -->
<svg width="641pt" height="429pt"
 viewBox="62.00 62.00 578.67 366.83" xmlns="http://www.w3.org/2000/svg" xmlns:xlink="http://www.w3.org/1999/xlink">
<g id="graph0" class="graph" transform="scale(0.861111 0.861111) rotate(0) translate(76 422)">
<title>mygraph</title>
<polygon fill="white" stroke="none" points="-4,4 -4,-350 596,-350 596,4 -4,4"/>
<g id="clust1" class="cluster"><title>cluster_UC7_</title>
<polygon fill="#ffffcc" stroke="black" points="8,-131 8,-215 523,-215 523,-131 8,-131"/>
</g>
<g id="clust2" class="cluster"><title>cluster_UC7_2a</title>
<polygon fill="#f2f2f2" stroke="black" points="359,-8 359,-130 592,-130 592,-8 359,-8"/>
<text text-anchor="start" x="367" y="-114.8" font-family="Arial" font-size="14.00" fill="gray">Extension: 2a.</text>
<text text-anchor="middle" x="475.5" y="-99.8" font-family="Arial" font-size="14.00" fill="gray"> User entered wrong credentials... </text>
</g>
<g id="clust3" class="cluster"><title>cluster_UC7_1a</title>
<polygon fill="#f2f2f2" stroke="black" points="127,-216 127,-338 351,-338 351,-216 127,-216"/>
<text text-anchor="start" x="135" y="-322.8" font-family="Arial" font-size="14.00" fill="gray">Variation: 1a.</text>
<text text-anchor="middle" x="239" y="-307.8" font-family="Arial" font-size="14.00" fill="gray"> User authenticates using exter... </text>
</g>
<!-- UC71 -->
<g id="node1" class="node"><title>UC71</title>
<g id="a_node1"><a xlink:title="User enters login and password.">
<path fill="#b3cde3" stroke="black" d="M45.6667,-161.5C45.6667,-161.5 102.333,-161.5 102.333,-161.5 106.167,-161.5 110,-165.333 110,-169.167 110,-169.167 110,-176.833 110,-176.833 110,-180.667 106.167,-184.5 102.333,-184.5 102.333,-184.5 45.6667,-184.5 45.6667,-184.5 41.8333,-184.5 38,-180.667 38,-176.833 38,-176.833 38,-169.167 38,-169.167 38,-165.333 41.8333,-161.5 45.6667,-161.5"/>
<text text-anchor="middle" x="55.5" y="-169.3" font-family="Arial" font-size="14.00"> </text>
<polyline fill="none" stroke="black" points="73,-161.5 73,-184.5 "/>
<text text-anchor="middle" x="91.5" y="-169.3" font-family="Arial" font-size="14.00">•</text>
</a>
</g>
<text text-anchor="middle" x="33.5" y="-149.8" font-family="Arial" font-size="14.00">1</text>
</g>
<!-- UC72 -->
<g id="node2" class="node"><title>UC72</title>
<g id="a_node2"><a xlink:title="System verifies login and password. #(consume:email)">
<path fill="#b3cde3" stroke="black" d="M210.667,-161.5C210.667,-161.5 267.333,-161.5 267.333,-161.5 271.167,-161.5 275,-165.333 275,-169.167 275,-169.167 275,-176.833 275,-176.833 275,-180.667 271.167,-184.5 267.333,-184.5 267.333,-184.5 210.667,-184.5 210.667,-184.5 206.833,-184.5 203,-180.667 203,-176.833 203,-176.833 203,-169.167 203,-169.167 203,-165.333 206.833,-161.5 210.667,-161.5"/>
<text text-anchor="middle" x="221.5" y="-169.3" font-family="Arial" font-size="14.00">•</text>
<polyline fill="none" stroke="black" points="240,-161.5 240,-184.5 "/>
<text text-anchor="middle" x="257.5" y="-169.3" font-family="Arial" font-size="14.00"> </text>
</a>
</g>
<text text-anchor="middle" x="198.5" y="-149.8" font-family="Arial" font-size="14.00">2</text>
</g>
<!-- UC71&#45;&gt;UC72 -->
<g id="edge1" class="edge"><title>UC71:JMP&#45;&gt;UC72:JMP</title>
<g id="a_edge1"><a xlink:href="#UC7_1">
<path fill="none" stroke="black" d="M110,-173C147.215,-173 159.027,-173 191.677,-173"/>
<polygon fill="black" stroke="black" points="192,-176.5 202,-173 192,-169.5 192,-176.5"/>
</a>
</g>
</g>
<!-- UC71a1 -->
<g id="node5" class="node"><title>UC71a1</title>
<g id="a_node5"><a xlink:title="System authenticates user using external service. 
		 &#160;&#160;&#160;#(guard:external_auth) #(goto:3)">
<path fill="#b3cde3" stroke="black" d="M228.667,-246.5C228.667,-246.5 249.333,-246.5 249.333,-246.5 253.167,-246.5 257,-250.333 257,-254.167 257,-254.167 257,-261.833 257,-261.833 257,-265.667 253.167,-269.5 249.333,-269.5 249.333,-269.5 228.667,-269.5 228.667,-269.5 224.833,-269.5 221,-265.667 221,-261.833 221,-261.833 221,-254.167 221,-254.167 221,-250.333 224.833,-246.5 228.667,-246.5"/>
<text text-anchor="middle" x="239" y="-254.3" font-family="Arial" font-size="14.00">•</text>
</a>
</g>
<text text-anchor="middle" x="208.5" y="-234.8" font-family="Arial" font-size="14.00">1a1</text>
</g>
<!-- UC71&#45;&gt;UC71a1 -->
<g id="edge4" class="edge"><title>UC71:VAR&#45;&gt;UC71a1:JMP</title>
<g id="a_edge4"><a xlink:href="#UC7_1">
<path fill="none" stroke="black" d="M55,-186C55,-251.972 158.846,-259.456 210.509,-259.097"/>
<polygon fill="black" stroke="black" points="210.747,-262.594 220.685,-258.92 210.625,-255.595 210.747,-262.594"/>
</a>
</g>
</g>
<!-- UC73 -->
<g id="node3" class="node"><title>UC73</title>
<g id="a_node3"><a xlink:title="Use case finishes.">
<path fill="#ccebc5" stroke="black" d="M464.667,-161.5C464.667,-161.5 485.333,-161.5 485.333,-161.5 489.167,-161.5 493,-165.333 493,-169.167 493,-169.167 493,-176.833 493,-176.833 493,-180.667 489.167,-184.5 485.333,-184.5 485.333,-184.5 464.667,-184.5 464.667,-184.5 460.833,-184.5 457,-180.667 457,-176.833 457,-176.833 457,-169.167 457,-169.167 457,-165.333 460.833,-161.5 464.667,-161.5"/>
<text text-anchor="middle" x="475" y="-169.3" font-family="Arial" font-size="14.00">•</text>
</a>
</g>
<text text-anchor="middle" x="452.5" y="-149.8" font-family="Arial" font-size="14.00">3</text>
</g>
<!-- UC72&#45;&gt;UC73 -->
<g id="edge2" class="edge"><title>UC72:EXT&#45;&gt;UC73:JMP</title>
<g id="a_edge2"><a xlink:href="#UC7_2">
<path fill="none" stroke="black" d="M276,-173C336.688,-173 407.787,-173 446.435,-173"/>
<polygon fill="black" stroke="black" points="446.891,-176.5 456.891,-173 446.891,-169.5 446.891,-176.5"/>
</a>
</g>
</g>
<!-- UC72a1 -->
<g id="node4" class="node"><title>UC72a1</title>
<g id="a_node4"><a xlink:title="System shows error message. #(abort)">
<path fill="#fbb4ae" stroke="black" d="M464.667,-38.5C464.667,-38.5 485.333,-38.5 485.333,-38.5 489.167,-38.5 493,-42.3333 493,-46.1667 493,-46.1667 493,-53.8333 493,-53.8333 493,-57.6667 489.167,-61.5 485.333,-61.5 485.333,-61.5 464.667,-61.5 464.667,-61.5 460.833,-61.5 457,-57.6667 457,-53.8333 457,-53.8333 457,-46.1667 457,-46.1667 457,-42.3333 460.833,-38.5 464.667,-38.5"/>
<text text-anchor="middle" x="475" y="-46.3" font-family="Arial" font-size="14.00">•</text>
</a>
</g>
<text text-anchor="middle" x="444.5" y="-26.8" font-family="Arial" font-size="14.00">2a1</text>
</g>
<!-- UC72&#45;&gt;UC72a1 -->
<g id="edge3" class="edge"><title>UC72:EXT&#45;&gt;UC72a1:JMP</title>
<g id="a_edge3"><a xlink:href="#UC7_2">
<path fill="none" stroke="black" d="M276,-173C280.979,-173 395.16,-100.788 448.274,-67.0239"/>
<polygon fill="black" stroke="black" points="450.286,-69.8917 456.846,-61.5715 446.53,-63.9853 450.286,-69.8917"/>
</a>
</g>
</g>
<!-- UC71a1&#45;&gt;UC73 -->
<g id="edge5" class="edge"><title>UC71a1:JMP&#45;&gt;UC73:JMP</title>
<g id="a_edge5"><a xlink:href="#UC7_1a1">
<path fill="none" stroke="black" d="M257.246,-251.516C279.421,-243.628 317.975,-229.89 351,-218 384.142,-206.068 422.221,-192.23 447.341,-183.083"/>
<polygon fill="black" stroke="black" points="448.741,-186.298 456.939,-179.587 446.345,-179.721 448.741,-186.298"/>
</a>
</g>
</g>
</g>
</svg>
