<?xml version="1.0" encoding="UTF-8" standalone="no"?>
<!DOCTYPE svg PUBLIC "-//W3C//DTD SVG 1.1//EN"
 "http://www.w3.org/Graphics/SVG/1.1/DTD/svg11.dtd">
<!-- Generated by graphviz version 2.36.0 (20140111.2315)
 -->
<!-- Title: mygraph Pages: 1 -->
<svg width="515pt" height="250pt"
 viewBox="62.00 62.00 452.94 187.72" xmlns="http://www.w3.org/2000/svg" xmlns:xlink="http://www.w3.org/1999/xlink">
<g id="graph0" class="graph" transform="scale(0.861111 0.861111) rotate(0) translate(76 214)">
<title>mygraph</title>
<polygon fill="white" stroke="none" points="-4,4 -4,-142 450,-142 450,4 -4,4"/>
<g id="clust1" class="cluster"><title>cluster_UC7_</title>
<polygon fill="#ffffcc" stroke="black" points="8,-8 8,-92 205,-92 205,-8 8,-8"/>
</g>
<g id="clust2" class="cluster"><title>cluster_UC7_2a</title>
<polygon fill="#f2f2f2" stroke="black" points="213,-8 213,-130 446,-130 446,-8 213,-8"/>
<text text-anchor="start" x="221" y="-114.8" font-family="Arial" font-size="14.00" fill="gray">Extension: 2a.</text>
<text text-anchor="middle" x="329.5" y="-99.8" font-family="Arial" font-size="14.00" fill="gray"> User entered wrong credentials... </text>
</g>
<!-- UC71 -->
<g id="node1" class="node"><title>UC71</title>
<g id="a_node1"><a xlink:title="User enters login and password.">
<path fill="#b3cde3" stroke="black" d="M45.6667,-38.5C45.6667,-38.5 66.3333,-38.5 66.3333,-38.5 70.1667,-38.5 74,-42.3333 74,-46.1667 74,-46.1667 74,-53.8333 74,-53.8333 74,-57.6667 70.1667,-61.5 66.3333,-61.5 66.3333,-61.5 45.6667,-61.5 45.6667,-61.5 41.8333,-61.5 38,-57.6667 38,-53.8333 38,-53.8333 38,-46.1667 38,-46.1667 38,-42.3333 41.8333,-38.5 45.6667,-38.5"/>
<text text-anchor="middle" x="56" y="-46.3" font-family="Arial" font-size="14.00">•</text>
</a>
</g>
<text text-anchor="middle" x="33.5" y="-26.8" font-family="Arial" font-size="14.00">1</text>
</g>
<!-- UC72 -->
<g id="node2" class="node"><title>UC72</title>
<g id="a_node2"><a xlink:title="System verifies login and password. #(consume:email)">
<path fill="#ccebc5" stroke="black" d="M110.667,-38.5C110.667,-38.5 167.333,-38.5 167.333,-38.5 171.167,-38.5 175,-42.3333 175,-46.1667 175,-46.1667 175,-53.8333 175,-53.8333 175,-57.6667 171.167,-61.5 167.333,-61.5 167.333,-61.5 110.667,-61.5 110.667,-61.5 106.833,-61.5 103,-57.6667 103,-53.8333 103,-53.8333 103,-46.1667 103,-46.1667 103,-42.3333 106.833,-38.5 110.667,-38.5"/>
<text text-anchor="middle" x="121.5" y="-46.3" font-family="Arial" font-size="14.00">•</text>
<polyline fill="none" stroke="black" points="140,-38.5 140,-61.5 "/>
<text text-anchor="middle" x="157.5" y="-46.3" font-family="Arial" font-size="14.00"> </text>
</a>
</g>
<text text-anchor="middle" x="98.5" y="-26.8" font-family="Arial" font-size="14.00">2</text>
</g>
<!-- UC71&#45;&gt;UC72 -->
<g id="edge1" class="edge"><title>UC71:JMP&#45;&gt;UC72:JMP</title>
<g id="a_edge1"><a xlink:href="#UC7_1">
<path fill="none" stroke="black" d="M74.3026,-50C80.0084,-50 86.5079,-50 92.9772,-50"/>
<polygon fill="black" stroke="black" points="93,-53.5001 103,-50 93,-46.5001 93,-53.5001"/>
</a>
</g>
</g>
<!-- UC72a1 -->
<g id="node3" class="node"><title>UC72a1</title>
<g id="a_node3"><a xlink:title="System shows error message. #(abort)">
<path fill="#fbb4ae" stroke="black" d="M318.667,-38.5C318.667,-38.5 339.333,-38.5 339.333,-38.5 343.167,-38.5 347,-42.3333 347,-46.1667 347,-46.1667 347,-53.8333 347,-53.8333 347,-57.6667 343.167,-61.5 339.333,-61.5 339.333,-61.5 318.667,-61.5 318.667,-61.5 314.833,-61.5 311,-57.6667 311,-53.8333 311,-53.8333 311,-46.1667 311,-46.1667 311,-42.3333 314.833,-38.5 318.667,-38.5"/>
<text text-anchor="middle" x="329" y="-46.3" font-family="Arial" font-size="14.00">•</text>
</a>
</g>
<text text-anchor="middle" x="298.5" y="-26.8" font-family="Arial" font-size="14.00">2a1</text>
</g>
<!-- UC72&#45;&gt;UC72a1 -->
<g id="edge2" class="edge"><title>UC72:EXT&#45;&gt;UC72a1:JMP</title>
<g id="a_edge2"><a xlink:href="#UC7_2">
<path fill="none" stroke="black" d="M176,-50C219.293,-50 269.476,-50 300.228,-50"/>
<polygon fill="black" stroke="black" points="300.63,-53.5001 310.63,-50 300.63,-46.5001 300.63,-53.5001"/>
</a>
</g>
</g>
</g>
</svg>
