<?xml version="1.0" encoding="UTF-8" standalone="no"?>
<!DOCTYPE svg PUBLIC "-//W3C//DTD SVG 1.1//EN"
 "http://www.w3.org/Graphics/SVG/1.1/DTD/svg11.dtd">
<!-- Generated by graphviz version 2.36.0 (20140111.2315)
 -->
<!-- Title: mygraph Pages: 1 -->
<svg width="1833pt" height="585pt"
 viewBox="62.00 62.00 1771.31 522.69" xmlns="http://www.w3.org/2000/svg" xmlns:xlink="http://www.w3.org/1999/xlink">
<g id="graph0" class="graph" transform="scale(0.861111 0.861111) rotate(0) translate(76 603)">
<title>mygraph</title>
<polygon fill="white" stroke="none" points="-4,4 -4,-531 1981,-531 1981,4 -4,4"/>
<g id="clust1" class="cluster"><title>cluster_UC9_</title>
<polygon fill="#ffffcc" stroke="black" points="8,-254 8,-338 1737,-338 1737,-254 8,-254"/>
</g>
<g id="clust2" class="cluster"><title>cluster_UC9_4a</title>
<polygon fill="#f2f2f2" stroke="black" points="667,-8 667,-130 898,-130 898,-8 667,-8"/>
<text text-anchor="start" x="675" y="-114.8" font-family="Arial" font-size="14.00" fill="gray">Variation: 4a.</text>
<text text-anchor="middle" x="782.5" y="-99.8" font-family="Arial" font-size="14.00" fill="gray"> System evaluates that user has... </text>
</g>
<g id="clust3" class="cluster"><title>cluster_UC9_4b</title>
<polygon fill="#f2f2f2" stroke="black" points="548,-131 548,-253 830,-253 830,-131 548,-131"/>
<text text-anchor="start" x="556" y="-237.8" font-family="Arial" font-size="14.00" fill="gray">Variation: 4b.</text>
<text text-anchor="middle" x="663" y="-222.8" font-family="Arial" font-size="14.00" fill="gray"> User selected same plan that h... </text>
</g>
<g id="clust4" class="cluster"><title>cluster_UC9_8a</title>
<polygon fill="#f2f2f2" stroke="black" points="1368,-131 1368,-253 1582,-253 1582,-131 1368,-131"/>
<text text-anchor="start" x="1376" y="-237.8" font-family="Arial" font-size="14.00" fill="gray">Variation: 8a.</text>
<text text-anchor="middle" x="1475" y="-222.8" font-family="Arial" font-size="14.00" fill="gray"> User cancels the plan change. </text>
</g>
<g id="clust5" class="cluster"><title>cluster_UC9_3a</title>
<polygon fill="#f2f2f2" stroke="black" points="293,-131 293,-253 525,-253 525,-131 293,-131"/>
<text text-anchor="start" x="301" y="-237.8" font-family="Arial" font-size="14.00" fill="gray">Variation: 3a.</text>
<text text-anchor="middle" x="409" y="-222.8" font-family="Arial" font-size="14.00" fill="gray"> User wants to downgrade to fre... </text>
</g>
<g id="clust6" class="cluster"><title>cluster_UC9_9a</title>
<polygon fill="#f2f2f2" stroke="black" points="1605,-377 1605,-499 1909,-499 1909,-377 1605,-377"/>
<text text-anchor="start" x="1613" y="-483.8" font-family="Arial" font-size="14.00" fill="gray">Extension: 9a.</text>
<text text-anchor="middle" x="1661.5" y="-468.8" font-family="Arial" font-size="14.00" fill="gray"> Payment fails. </text>
</g>
<g id="clust7" class="cluster"><title>cluster_UC9_10a</title>
<polygon fill="#f2f2f2" stroke="black" points="1745,-254 1745,-376 1977,-376 1977,-254 1745,-254"/>
<text text-anchor="start" x="1753" y="-360.8" font-family="Arial" font-size="14.00" fill="gray">Variation: 10a.</text>
<text text-anchor="middle" x="1861" y="-345.8" font-family="Arial" font-size="14.00" fill="gray"> System changed the plan to fre... </text>
</g>
<g id="clust8" class="cluster"><title>cluster_UC9_6a</title>
<polygon fill="#f2f2f2" stroke="black" points="915,-339 915,-461 1144,-461 1144,-339 915,-339"/>
<text text-anchor="start" x="923" y="-445.8" font-family="Arial" font-size="14.00" fill="gray">Extension: 6a.</text>
<text text-anchor="middle" x="1029.5" y="-430.8" font-family="Arial" font-size="14.00" fill="gray"> User wants to change credit ca... </text>
</g>
<g id="clust9" class="cluster"><title>cluster_UC9_5a</title>
<polygon fill="#f2f2f2" stroke="black" points="673,-358 673,-480 891,-480 891,-358 673,-358"/>
<text text-anchor="start" x="681" y="-464.8" font-family="Arial" font-size="14.00" fill="gray">Extension: 5a.</text>
<text text-anchor="middle" x="782" y="-449.8" font-family="Arial" font-size="14.00" fill="gray"> User wants to change billing i... </text>
</g>
<!-- UC91 -->
<g id="node1" class="node"><title>UC91</title>
<g id="a_node1"><a xlink:title="User initiates change of the plan.">
<path fill="#b3cde3" stroke="black" d="M45.6667,-284.5C45.6667,-284.5 66.3333,-284.5 66.3333,-284.5 70.1667,-284.5 74,-288.333 74,-292.167 74,-292.167 74,-299.833 74,-299.833 74,-303.667 70.1667,-307.5 66.3333,-307.5 66.3333,-307.5 45.6667,-307.5 45.6667,-307.5 41.8333,-307.5 38,-303.667 38,-299.833 38,-299.833 38,-292.167 38,-292.167 38,-288.333 41.8333,-284.5 45.6667,-284.5"/>
<text text-anchor="middle" x="56" y="-292.3" font-family="Arial" font-size="14.00">•</text>
</a>
</g>
<text text-anchor="middle" x="33.5" y="-272.8" font-family="Arial" font-size="14.00">1</text>
</g>
<!-- UC92 -->
<g id="node2" class="node"><title>UC92</title>
<g id="a_node2"><a xlink:title="System presents information about current plan and available plans.">
<path fill="#b3cde3" stroke="black" d="M110.667,-284.5C110.667,-284.5 131.333,-284.5 131.333,-284.5 135.167,-284.5 139,-288.333 139,-292.167 139,-292.167 139,-299.833 139,-299.833 139,-303.667 135.167,-307.5 131.333,-307.5 131.333,-307.5 110.667,-307.5 110.667,-307.5 106.833,-307.5 103,-303.667 103,-299.833 103,-299.833 103,-292.167 103,-292.167 103,-288.333 106.833,-284.5 110.667,-284.5"/>
<text text-anchor="middle" x="121" y="-292.3" font-family="Arial" font-size="14.00">•</text>
</a>
</g>
<text text-anchor="middle" x="98.5" y="-272.8" font-family="Arial" font-size="14.00">2</text>
</g>
<!-- UC91&#45;&gt;UC92 -->
<g id="edge5" class="edge"><title>UC91:JMP&#45;&gt;UC92:JMP</title>
<g id="a_edge5"><a xlink:href="#UC9_1">
<path fill="none" stroke="black" d="M74.1061,-296C79.8817,-296 86.4172,-296 92.7354,-296"/>
<polygon fill="black" stroke="black" points="92.991,-299.5 102.991,-296 92.9909,-292.5 92.991,-299.5"/>
</a>
</g>
</g>
<!-- UC93 -->
<g id="node3" class="node"><title>UC93</title>
<g id="a_node3"><a xlink:title="User selects upgrade to paid plan. #(mark:wants_paid_plan)">
<path fill="#b3cde3" stroke="black" d="M175.667,-284.5C175.667,-284.5 268.333,-284.5 268.333,-284.5 272.167,-284.5 276,-288.333 276,-292.167 276,-292.167 276,-299.833 276,-299.833 276,-303.667 272.167,-307.5 268.333,-307.5 268.333,-307.5 175.667,-307.5 175.667,-307.5 171.833,-307.5 168,-303.667 168,-299.833 168,-299.833 168,-292.167 168,-292.167 168,-288.333 171.833,-284.5 175.667,-284.5"/>
<text text-anchor="middle" x="185.5" y="-292.3" font-family="Arial" font-size="14.00"> </text>
<polyline fill="none" stroke="black" points="203,-284.5 203,-307.5 "/>
<text text-anchor="middle" x="221.5" y="-292.3" font-family="Arial" font-size="14.00">•</text>
<polyline fill="none" stroke="black" points="240,-284.5 240,-307.5 "/>
<text text-anchor="middle" x="258" y="-292.3" font-family="Arial" font-size="14.00"> </text>
</a>
</g>
<text text-anchor="middle" x="163.5" y="-272.8" font-family="Arial" font-size="14.00">3</text>
</g>
<!-- UC92&#45;&gt;UC93 -->
<g id="edge6" class="edge"><title>UC92:JMP&#45;&gt;UC93:VAR</title>
<g id="a_edge6"><a xlink:href="#UC9_2">
<path fill="none" stroke="black" d="M139.303,-296C145.008,-296 151.508,-296 157.977,-296"/>
<polygon fill="black" stroke="black" points="158,-299.5 168,-296 158,-292.5 158,-299.5"/>
</a>
</g>
</g>
<!-- UC94 -->
<g id="node4" class="node"><title>UC94</title>
<g id="a_node4"><a xlink:title="System evaluates that user has free plan associated 
		 &#160;and wants to upgrade to paid plan.">
<path fill="#b3cde3" stroke="black" d="M380.667,-284.5C380.667,-284.5 437.333,-284.5 437.333,-284.5 441.167,-284.5 445,-288.333 445,-292.167 445,-292.167 445,-299.833 445,-299.833 445,-303.667 441.167,-307.5 437.333,-307.5 437.333,-307.5 380.667,-307.5 380.667,-307.5 376.833,-307.5 373,-303.667 373,-299.833 373,-299.833 373,-292.167 373,-292.167 373,-288.333 376.833,-284.5 380.667,-284.5"/>
<text text-anchor="middle" x="390.5" y="-292.3" font-family="Arial" font-size="14.00"> </text>
<polyline fill="none" stroke="black" points="408,-284.5 408,-307.5 "/>
<text text-anchor="middle" x="426.5" y="-292.3" font-family="Arial" font-size="14.00">•</text>
</a>
</g>
<text text-anchor="middle" x="368.5" y="-272.8" font-family="Arial" font-size="14.00">4</text>
</g>
<!-- UC93&#45;&gt;UC94 -->
<g id="edge7" class="edge"><title>UC93:OUT&#45;&gt;UC94:VAR</title>
<g id="a_edge7"><a xlink:href="#UC9_3">
<path fill="none" stroke="black" d="M276,-296C315,-296 327.264,-296 361.668,-296"/>
<polygon fill="black" stroke="black" points="362,-299.5 372,-296 362,-292.5 362,-299.5"/>
</a>
</g>
</g>
<!-- UC93a1 -->
<g id="node15" class="node"><title>UC93a1</title>
<g id="a_node15"><a xlink:title="User selects downgrade to free plan. 
		 &#160;&#160;&#160;#(guard:!free_plan) #(unmark:wants_paid_plan)">
<path fill="#b3cde3" stroke="black" d="M398.667,-161.5C398.667,-161.5 419.333,-161.5 419.333,-161.5 423.167,-161.5 427,-165.333 427,-169.167 427,-169.167 427,-176.833 427,-176.833 427,-180.667 423.167,-184.5 419.333,-184.5 419.333,-184.5 398.667,-184.5 398.667,-184.5 394.833,-184.5 391,-180.667 391,-176.833 391,-176.833 391,-169.167 391,-169.167 391,-165.333 394.833,-161.5 398.667,-161.5"/>
<text text-anchor="middle" x="409" y="-169.3" font-family="Arial" font-size="14.00">•</text>
</a>
</g>
<text text-anchor="middle" x="378.5" y="-149.8" font-family="Arial" font-size="14.00">3a1</text>
</g>
<!-- UC93&#45;&gt;UC93a1 -->
<g id="edge19" class="edge"><title>UC93:VAR&#45;&gt;UC93a1:JMP</title>
<g id="a_edge19"><a xlink:href="#UC9_3">
<path fill="none" stroke="black" d="M185,-283C185,-196.762 320.421,-178.129 380.675,-174.106"/>
<polygon fill="black" stroke="black" points="380.888,-177.599 390.669,-173.528 380.484,-170.611 380.888,-177.599"/>
</a>
</g>
</g>
<!-- UC95 -->
<g id="node5" class="node"><title>UC95</title>
<g id="a_node5"><a xlink:title="System checks that it has billing information of the user.">
<path fill="#b3cde3" stroke="black" d="M549.667,-284.5C549.667,-284.5 642.333,-284.5 642.333,-284.5 646.167,-284.5 650,-288.333 650,-292.167 650,-292.167 650,-299.833 650,-299.833 650,-303.667 646.167,-307.5 642.333,-307.5 642.333,-307.5 549.667,-307.5 549.667,-307.5 545.833,-307.5 542,-303.667 542,-299.833 542,-299.833 542,-292.167 542,-292.167 542,-288.333 545.833,-284.5 549.667,-284.5"/>
<text text-anchor="middle" x="560.5" y="-292.3" font-family="Arial" font-size="14.00">•</text>
<polyline fill="none" stroke="black" points="579,-284.5 579,-307.5 "/>
<text text-anchor="middle" x="596.5" y="-292.3" font-family="Arial" font-size="14.00"> </text>
<polyline fill="none" stroke="black" points="614,-284.5 614,-307.5 "/>
<text text-anchor="middle" x="632" y="-292.3" font-family="Arial" font-size="14.00"> </text>
</a>
</g>
<text text-anchor="middle" x="537.5" y="-272.8" font-family="Arial" font-size="14.00">5</text>
</g>
<!-- UC94&#45;&gt;UC95 -->
<g id="edge8" class="edge"><title>UC94:JMP&#45;&gt;UC95:JMP</title>
<g id="a_edge8"><a xlink:href="#UC9_4">
<path fill="none" stroke="black" d="M446,-296C485,-296 497.264,-296 531.668,-296"/>
<polygon fill="black" stroke="black" points="532,-299.5 542,-296 532,-292.5 532,-299.5"/>
</a>
</g>
</g>
<!-- UC94a1 -->
<g id="node11" class="node"><title>UC94a1</title>
<g id="a_node11"><a xlink:title="System skips billing information and credit card selection.
		 &#160;&#160;&#160;#(guard:!free_plan &amp; !wants_paid_plan) #(goto:7)">
<path fill="#b3cde3" stroke="black" d="M771.667,-38.5C771.667,-38.5 792.333,-38.5 792.333,-38.5 796.167,-38.5 800,-42.3333 800,-46.1667 800,-46.1667 800,-53.8333 800,-53.8333 800,-57.6667 796.167,-61.5 792.333,-61.5 792.333,-61.5 771.667,-61.5 771.667,-61.5 767.833,-61.5 764,-57.6667 764,-53.8333 764,-53.8333 764,-46.1667 764,-46.1667 764,-42.3333 767.833,-38.5 771.667,-38.5"/>
<text text-anchor="middle" x="782" y="-46.3" font-family="Arial" font-size="14.00">•</text>
</a>
</g>
<text text-anchor="middle" x="751.5" y="-26.8" font-family="Arial" font-size="14.00">4a1</text>
</g>
<!-- UC94&#45;&gt;UC94a1 -->
<g id="edge14" class="edge"><title>UC94:VAR&#45;&gt;UC94a1:JMP</title>
<g id="a_edge14"><a xlink:href="#UC9_4">
<path fill="none" stroke="black" d="M390,-283C390,-221.812 483.17,-300.657 525,-256 564.232,-214.116 505.28,-172.103 542,-128 595.521,-63.7182 702.697,-51.9339 753.731,-50.0967"/>
<polygon fill="black" stroke="black" points="753.823,-53.5956 763.73,-49.8403 753.643,-46.5979 753.823,-53.5956"/>
</a>
</g>
</g>
<!-- UC94b1 -->
<g id="node12" class="node"><title>UC94b1</title>
<g id="a_node12"><a xlink:title="System informs user that he has the selected plan
		 &#160;&#160;&#160;already associated. 
		 &#160;&#160;&#160;#(guard:free_plan &amp; !wants_paid_plan | !free_plan &amp; wants_paid_plan)">
<path fill="#b3cde3" stroke="black" d="M585.667,-161.5C585.667,-161.5 606.333,-161.5 606.333,-161.5 610.167,-161.5 614,-165.333 614,-169.167 614,-169.167 614,-176.833 614,-176.833 614,-180.667 610.167,-184.5 606.333,-184.5 606.333,-184.5 585.667,-184.5 585.667,-184.5 581.833,-184.5 578,-180.667 578,-176.833 578,-176.833 578,-169.167 578,-169.167 578,-165.333 581.833,-161.5 585.667,-161.5"/>
<text text-anchor="middle" x="596" y="-169.3" font-family="Arial" font-size="14.00">•</text>
</a>
</g>
<text text-anchor="middle" x="565.5" y="-149.8" font-family="Arial" font-size="14.00">4b1</text>
</g>
<!-- UC94&#45;&gt;UC94b1 -->
<g id="edge16" class="edge"><title>UC94:VAR&#45;&gt;UC94b1:JMP</title>
<g id="a_edge16"><a xlink:href="#UC9_4">
<path fill="none" stroke="black" d="M390,-283C390,-221.812 473.326,-288.769 525,-256 555.155,-236.877 550.487,-216.003 570.57,-192.273"/>
<polygon fill="black" stroke="black" points="573.307,-194.474 577.663,-184.816 568.235,-189.65 573.307,-194.474"/>
</a>
</g>
</g>
<!-- UC96 -->
<g id="node6" class="node"><title>UC96</title>
<g id="a_node6"><a xlink:title="System checks that it has credit card of the user.">
<path fill="#b3cde3" stroke="black" d="M735.667,-284.5C735.667,-284.5 828.333,-284.5 828.333,-284.5 832.167,-284.5 836,-288.333 836,-292.167 836,-292.167 836,-299.833 836,-299.833 836,-303.667 832.167,-307.5 828.333,-307.5 828.333,-307.5 735.667,-307.5 735.667,-307.5 731.833,-307.5 728,-303.667 728,-299.833 728,-299.833 728,-292.167 728,-292.167 728,-288.333 731.833,-284.5 735.667,-284.5"/>
<text text-anchor="middle" x="746.5" y="-292.3" font-family="Arial" font-size="14.00">•</text>
<polyline fill="none" stroke="black" points="765,-284.5 765,-307.5 "/>
<text text-anchor="middle" x="782.5" y="-292.3" font-family="Arial" font-size="14.00"> </text>
<polyline fill="none" stroke="black" points="800,-284.5 800,-307.5 "/>
<text text-anchor="middle" x="818" y="-292.3" font-family="Arial" font-size="14.00"> </text>
</a>
</g>
<text text-anchor="middle" x="723.5" y="-272.8" font-family="Arial" font-size="14.00">6</text>
</g>
<!-- UC95&#45;&gt;UC96 -->
<g id="edge9" class="edge"><title>UC95:OUT&#45;&gt;UC96:JMP</title>
<g id="a_edge9"><a xlink:href="#UC9_5">
<path fill="none" stroke="black" d="M650,-296C680.613,-296 690.688,-296 716.968,-296"/>
<polygon fill="black" stroke="black" points="717,-299.5 727,-296 717,-292.5 717,-299.5"/>
</a>
</g>
</g>
<!-- UC95a1 -->
<g id="node20" class="node"><title>UC95a1</title>
<g id="a_node20"><a xlink:title="User provides billing information. #(include:UC12)">
<path fill="#b3cde3" stroke="black" d="M753.667,-388.5C753.667,-388.5 810.333,-388.5 810.333,-388.5 814.167,-388.5 818,-392.333 818,-396.167 818,-396.167 818,-403.833 818,-403.833 818,-407.667 814.167,-411.5 810.333,-411.5 810.333,-411.5 753.667,-411.5 753.667,-411.5 749.833,-411.5 746,-407.667 746,-403.833 746,-403.833 746,-396.167 746,-396.167 746,-392.333 749.833,-388.5 753.667,-388.5"/>
<text text-anchor="middle" x="764.5" y="-396.3" font-family="Arial" font-size="14.00">•</text>
<polyline fill="none" stroke="black" points="783,-388.5 783,-411.5 "/>
<text text-anchor="middle" x="800.5" y="-396.3" font-family="Arial" font-size="14.00"> </text>
</a>
</g>
<text text-anchor="middle" x="733.5" y="-376.8" font-family="Arial" font-size="14.00">5a1</text>
</g>
<!-- UC95&#45;&gt;UC95a1 -->
<g id="edge27" class="edge"><title>UC95:EXT&#45;&gt;UC95a1:JMP</title>
<g id="a_edge27"><a xlink:href="#UC9_5">
<path fill="none" stroke="black" d="M597,-309C597,-382.748 661.566,-398.634 734.639,-399.912"/>
<polygon fill="black" stroke="black" points="734.971,-403.415 745,-400 735.03,-396.415 734.971,-403.415"/>
</a>
</g>
</g>
<!-- UC97 -->
<g id="node7" class="node"><title>UC97</title>
<g id="a_node7"><a xlink:title="System presents review of the plan change
		 &#160;and presents terms and conditions.">
<path fill="#b3cde3" stroke="black" d="M1018.67,-284.5C1018.67,-284.5 1039.33,-284.5 1039.33,-284.5 1043.17,-284.5 1047,-288.333 1047,-292.167 1047,-292.167 1047,-299.833 1047,-299.833 1047,-303.667 1043.17,-307.5 1039.33,-307.5 1039.33,-307.5 1018.67,-307.5 1018.67,-307.5 1014.83,-307.5 1011,-303.667 1011,-299.833 1011,-299.833 1011,-292.167 1011,-292.167 1011,-288.333 1014.83,-284.5 1018.67,-284.5"/>
<text text-anchor="middle" x="1029" y="-292.3" font-family="Arial" font-size="14.00">•</text>
</a>
</g>
<text text-anchor="middle" x="1006.5" y="-272.8" font-family="Arial" font-size="14.00">7</text>
</g>
<!-- UC96&#45;&gt;UC97 -->
<g id="edge10" class="edge"><title>UC96:OUT&#45;&gt;UC97:JMP</title>
<g id="a_edge10"><a xlink:href="#UC9_6">
<path fill="none" stroke="black" d="M837,-296C895.25,-296 963.441,-296 1000.86,-296"/>
<polygon fill="black" stroke="black" points="1001,-299.5 1011,-296 1001,-292.5 1001,-299.5"/>
</a>
</g>
</g>
<!-- UC96a1 -->
<g id="node19" class="node"><title>UC96a1</title>
<g id="a_node19"><a xlink:title="User provides credit card information. #(include:UC13)">
<path fill="#b3cde3" stroke="black" d="M1000.67,-369.5C1000.67,-369.5 1057.33,-369.5 1057.33,-369.5 1061.17,-369.5 1065,-373.333 1065,-377.167 1065,-377.167 1065,-384.833 1065,-384.833 1065,-388.667 1061.17,-392.5 1057.33,-392.5 1057.33,-392.5 1000.67,-392.5 1000.67,-392.5 996.833,-392.5 993,-388.667 993,-384.833 993,-384.833 993,-377.167 993,-377.167 993,-373.333 996.833,-369.5 1000.67,-369.5"/>
<text text-anchor="middle" x="1011.5" y="-377.3" font-family="Arial" font-size="14.00">•</text>
<polyline fill="none" stroke="black" points="1030,-369.5 1030,-392.5 "/>
<text text-anchor="middle" x="1047.5" y="-377.3" font-family="Arial" font-size="14.00"> </text>
</a>
</g>
<text text-anchor="middle" x="980.5" y="-357.8" font-family="Arial" font-size="14.00">6a1</text>
</g>
<!-- UC96&#45;&gt;UC96a1 -->
<g id="edge25" class="edge"><title>UC96:EXT&#45;&gt;UC96a1:JMP</title>
<g id="a_edge25"><a xlink:href="#UC9_6">
<path fill="none" stroke="black" d="M783,-309C783,-319.962 939.725,-368.717 982.13,-379.065"/>
<polygon fill="black" stroke="black" points="981.513,-382.511 992,-381 982.86,-375.642 981.513,-382.511"/>
</a>
</g>
</g>
<!-- UC98 -->
<g id="node8" class="node"><title>UC98</title>
<g id="a_node8"><a xlink:title="User confirms the plan change.">
<path fill="#b3cde3" stroke="black" d="M1233.67,-284.5C1233.67,-284.5 1290.33,-284.5 1290.33,-284.5 1294.17,-284.5 1298,-288.333 1298,-292.167 1298,-292.167 1298,-299.833 1298,-299.833 1298,-303.667 1294.17,-307.5 1290.33,-307.5 1290.33,-307.5 1233.67,-307.5 1233.67,-307.5 1229.83,-307.5 1226,-303.667 1226,-299.833 1226,-299.833 1226,-292.167 1226,-292.167 1226,-288.333 1229.83,-284.5 1233.67,-284.5"/>
<text text-anchor="middle" x="1243.5" y="-292.3" font-family="Arial" font-size="14.00"> </text>
<polyline fill="none" stroke="black" points="1261,-284.5 1261,-307.5 "/>
<text text-anchor="middle" x="1279.5" y="-292.3" font-family="Arial" font-size="14.00">•</text>
</a>
</g>
<text text-anchor="middle" x="1221.5" y="-272.8" font-family="Arial" font-size="14.00">8</text>
</g>
<!-- UC97&#45;&gt;UC98 -->
<g id="edge11" class="edge"><title>UC97:JMP&#45;&gt;UC98:VAR</title>
<g id="a_edge11"><a xlink:href="#UC9_7">
<path fill="none" stroke="black" d="M1047.1,-296C1079.92,-296 1151.7,-296 1214.93,-296"/>
<polygon fill="black" stroke="black" points="1215,-299.5 1225,-296 1215,-292.5 1215,-299.5"/>
</a>
</g>
</g>
<!-- UC99 -->
<g id="node9" class="node"><title>UC99</title>
<g id="a_node9"><a xlink:title="System computes first payment according to days left to the
		 &#160;end of the current month and substracts it from the credit
		 &#160;card.">
<path fill="#b3cde3" stroke="black" d="M1446.67,-284.5C1446.67,-284.5 1503.33,-284.5 1503.33,-284.5 1507.17,-284.5 1511,-288.333 1511,-292.167 1511,-292.167 1511,-299.833 1511,-299.833 1511,-303.667 1507.17,-307.5 1503.33,-307.5 1503.33,-307.5 1446.67,-307.5 1446.67,-307.5 1442.83,-307.5 1439,-303.667 1439,-299.833 1439,-299.833 1439,-292.167 1439,-292.167 1439,-288.333 1442.83,-284.5 1446.67,-284.5"/>
<text text-anchor="middle" x="1457.5" y="-292.3" font-family="Arial" font-size="14.00">•</text>
<polyline fill="none" stroke="black" points="1476,-284.5 1476,-307.5 "/>
<text text-anchor="middle" x="1493.5" y="-292.3" font-family="Arial" font-size="14.00"> </text>
</a>
</g>
<text text-anchor="middle" x="1434.5" y="-272.8" font-family="Arial" font-size="14.00">9</text>
</g>
<!-- UC98&#45;&gt;UC99 -->
<g id="edge12" class="edge"><title>UC98:JMP&#45;&gt;UC99:JMP</title>
<g id="a_edge12"><a xlink:href="#UC9_8">
<path fill="none" stroke="black" d="M1299,-296C1357.28,-296 1374.32,-296 1427.93,-296"/>
<polygon fill="black" stroke="black" points="1428,-299.5 1438,-296 1428,-292.5 1428,-299.5"/>
</a>
</g>
</g>
<!-- UC98a1 -->
<g id="node14" class="node"><title>UC98a1</title>
<g id="a_node14"><a xlink:title="Use case aborts. #(abort)">
<path fill="#fbb4ae" stroke="black" d="M1464.67,-161.5C1464.67,-161.5 1485.33,-161.5 1485.33,-161.5 1489.17,-161.5 1493,-165.333 1493,-169.167 1493,-169.167 1493,-176.833 1493,-176.833 1493,-180.667 1489.17,-184.5 1485.33,-184.5 1485.33,-184.5 1464.67,-184.5 1464.67,-184.5 1460.83,-184.5 1457,-180.667 1457,-176.833 1457,-176.833 1457,-169.167 1457,-169.167 1457,-165.333 1460.83,-161.5 1464.67,-161.5"/>
<text text-anchor="middle" x="1475" y="-169.3" font-family="Arial" font-size="14.00">•</text>
</a>
</g>
<text text-anchor="middle" x="1444.5" y="-149.8" font-family="Arial" font-size="14.00">8a1</text>
</g>
<!-- UC98&#45;&gt;UC98a1 -->
<g id="edge18" class="edge"><title>UC98:VAR&#45;&gt;UC98a1:JMP</title>
<g id="a_edge18"><a xlink:href="#UC9_8">
<path fill="none" stroke="black" d="M1243,-283C1243,-193.852 1384.59,-176.859 1446.54,-173.69"/>
<polygon fill="black" stroke="black" points="1446.95,-177.176 1456.8,-173.257 1446.66,-170.183 1446.95,-177.176"/>
</a>
</g>
</g>
<!-- UC910 -->
<g id="node10" class="node"><title>UC910</title>
<g id="a_node10"><a xlink:title="System changed the plan to the paid one. #(unmark:free_plan) 
		 &#160;&#160;#(delete:free_plan)">
<path fill="#ccebc5" stroke="black" d="M1606.67,-284.5C1606.67,-284.5 1699.33,-284.5 1699.33,-284.5 1703.17,-284.5 1707,-288.333 1707,-292.167 1707,-292.167 1707,-299.833 1707,-299.833 1707,-303.667 1703.17,-307.5 1699.33,-307.5 1699.33,-307.5 1606.67,-307.5 1606.67,-307.5 1602.83,-307.5 1599,-303.667 1599,-299.833 1599,-299.833 1599,-292.167 1599,-292.167 1599,-288.333 1602.83,-284.5 1606.67,-284.5"/>
<text text-anchor="middle" x="1616.5" y="-292.3" font-family="Arial" font-size="14.00"> </text>
<polyline fill="none" stroke="black" points="1634,-284.5 1634,-307.5 "/>
<text text-anchor="middle" x="1652.5" y="-292.3" font-family="Arial" font-size="14.00">•</text>
<polyline fill="none" stroke="black" points="1671,-284.5 1671,-307.5 "/>
<text text-anchor="middle" x="1689" y="-292.3" font-family="Arial" font-size="14.00"> </text>
</a>
</g>
<text text-anchor="middle" x="1590.5" y="-272.8" font-family="Arial" font-size="14.00">10</text>
</g>
<!-- UC99&#45;&gt;UC910 -->
<g id="edge13" class="edge"><title>UC99:EXT&#45;&gt;UC910:VAR</title>
<g id="a_edge13"><a xlink:href="#UC9_9">
<path fill="none" stroke="black" d="M1512,-296C1547.04,-296 1558.27,-296 1588.84,-296"/>
<polygon fill="black" stroke="black" points="1589,-299.5 1599,-296 1589,-292.5 1589,-299.5"/>
</a>
</g>
</g>
<!-- UC99a1 -->
<g id="node16" class="node"><title>UC99a1</title>
<g id="a_node16"><a xlink:title="System shows message to user that the payment failed.">
<path fill="#b3cde3" stroke="black" d="M1642.67,-407.5C1642.67,-407.5 1663.33,-407.5 1663.33,-407.5 1667.17,-407.5 1671,-411.333 1671,-415.167 1671,-415.167 1671,-422.833 1671,-422.833 1671,-426.667 1667.17,-430.5 1663.33,-430.5 1663.33,-430.5 1642.67,-430.5 1642.67,-430.5 1638.83,-430.5 1635,-426.667 1635,-422.833 1635,-422.833 1635,-415.167 1635,-415.167 1635,-411.333 1638.83,-407.5 1642.67,-407.5"/>
<text text-anchor="middle" x="1653" y="-415.3" font-family="Arial" font-size="14.00">•</text>
</a>
</g>
<text text-anchor="middle" x="1622.5" y="-395.8" font-family="Arial" font-size="14.00">9a1</text>
</g>
<!-- UC99&#45;&gt;UC99a1 -->
<g id="edge21" class="edge"><title>UC99:EXT&#45;&gt;UC99a1:JMP</title>
<g id="a_edge21"><a xlink:href="#UC9_9">
<path fill="none" stroke="black" d="M1512,-296C1582.19,-296 1577.09,-356.359 1626.9,-400.804"/>
<polygon fill="black" stroke="black" points="1624.72,-403.551 1634.66,-407.237 1629.19,-398.161 1624.72,-403.551"/>
</a>
</g>
</g>
<!-- UC910a1 -->
<g id="node18" class="node"><title>UC910a1</title>
<g id="a_node18"><a xlink:title="Use case finishes. #(guard:!wants_paid_plan) 
		 &#160;&#160;&#160;&#160;#(mark:free_plan) #(emit:free_plan)">
<path fill="#b3cde3" stroke="black" d="M1850.67,-284.5C1850.67,-284.5 1871.33,-284.5 1871.33,-284.5 1875.17,-284.5 1879,-288.333 1879,-292.167 1879,-292.167 1879,-299.833 1879,-299.833 1879,-303.667 1875.17,-307.5 1871.33,-307.5 1871.33,-307.5 1850.67,-307.5 1850.67,-307.5 1846.83,-307.5 1843,-303.667 1843,-299.833 1843,-299.833 1843,-292.167 1843,-292.167 1843,-288.333 1846.83,-284.5 1850.67,-284.5"/>
<text text-anchor="middle" x="1861" y="-292.3" font-family="Arial" font-size="14.00">•</text>
</a>
</g>
<text text-anchor="middle" x="1826.5" y="-272.8" font-family="Arial" font-size="14.00">10a1</text>
</g>
<!-- UC910&#45;&gt;UC910a1 -->
<g id="edge23" class="edge"><title>UC910:VAR&#45;&gt;UC910a1:JMP</title>
<g id="a_edge23"><a xlink:href="#UC9_10">
<path fill="none" stroke="black" d="M1616,-283C1616,-196.679 1769.54,-255.174 1833.52,-283.299"/>
<polygon fill="black" stroke="black" points="1832.43,-286.643 1842.98,-287.525 1835.28,-280.251 1832.43,-286.643"/>
</a>
</g>
</g>
<!-- UC94a1&#45;&gt;UC97 -->
<g id="edge15" class="edge"><title>UC94a1:JMP&#45;&gt;UC97:JMP</title>
<g id="a_edge15"><a xlink:href="#UC9_4a1">
<path fill="none" stroke="black" d="M800.34,-59.5981C824.514,-72.8261 867.535,-98.4106 898,-128 956.903,-185.209 949.439,-222.301 1003.37,-277.033"/>
<polygon fill="black" stroke="black" points="1001.04,-279.655 1010.64,-284.155 1005.94,-274.656 1001.04,-279.655"/>
</a>
</g>
</g>
<!-- UC94b2 -->
<g id="node13" class="node"><title>UC94b2</title>
<g id="a_node13"><a xlink:title="Use case aborts. #(abort)">
<path fill="#fbb4ae" stroke="black" d="M771.667,-161.5C771.667,-161.5 792.333,-161.5 792.333,-161.5 796.167,-161.5 800,-165.333 800,-169.167 800,-169.167 800,-176.833 800,-176.833 800,-180.667 796.167,-184.5 792.333,-184.5 792.333,-184.5 771.667,-184.5 771.667,-184.5 767.833,-184.5 764,-180.667 764,-176.833 764,-176.833 764,-169.167 764,-169.167 764,-165.333 767.833,-161.5 771.667,-161.5"/>
<text text-anchor="middle" x="782" y="-169.3" font-family="Arial" font-size="14.00">•</text>
</a>
</g>
<text text-anchor="middle" x="751.5" y="-149.8" font-family="Arial" font-size="14.00">4b2</text>
</g>
<!-- UC94b1&#45;&gt;UC94b2 -->
<g id="edge17" class="edge"><title>UC94b1:JMP&#45;&gt;UC94b2:JMP</title>
<g id="a_edge17"><a xlink:href="#UC9_4b1">
<path fill="none" stroke="black" d="M614.173,-173C646.676,-173 714.976,-173 753.677,-173"/>
<polygon fill="black" stroke="black" points="753.753,-176.5 763.753,-173 753.753,-169.5 753.753,-176.5"/>
</a>
</g>
</g>
<!-- UC93a1&#45;&gt;UC93 -->
<g id="edge20" class="edge"><title>UC93a1:JMP&#45;&gt;UC93:OUT</title>
<g id="a_edge20"><a xlink:href="#UC9_3a1">
<path fill="none" stroke="black" d="M390.707,-180.865C365.384,-192.623 319.754,-217.085 293,-251 282.759,-263.983 290.979,-283.802 285.338,-292.116"/>
<polygon fill="black" stroke="black" points="283.889,-288.928 276,-296 286.577,-295.391 283.889,-288.928"/>
</a>
</g>
</g>
<!-- UC99a2 -->
<g id="node17" class="node"><title>UC99a2</title>
<g id="a_node17"><a xlink:title="Use case aborts. #(abort)">
<path fill="#fbb4ae" stroke="black" d="M1850.67,-407.5C1850.67,-407.5 1871.33,-407.5 1871.33,-407.5 1875.17,-407.5 1879,-411.333 1879,-415.167 1879,-415.167 1879,-422.833 1879,-422.833 1879,-426.667 1875.17,-430.5 1871.33,-430.5 1871.33,-430.5 1850.67,-430.5 1850.67,-430.5 1846.83,-430.5 1843,-426.667 1843,-422.833 1843,-422.833 1843,-415.167 1843,-415.167 1843,-411.333 1846.83,-407.5 1850.67,-407.5"/>
<text text-anchor="middle" x="1861" y="-415.3" font-family="Arial" font-size="14.00">•</text>
</a>
</g>
<text text-anchor="middle" x="1830.5" y="-395.8" font-family="Arial" font-size="14.00">9a2</text>
</g>
<!-- UC99a1&#45;&gt;UC99a2 -->
<g id="edge22" class="edge"><title>UC99a1:JMP&#45;&gt;UC99a2:JMP</title>
<g id="a_edge22"><a xlink:href="#UC9_9a1">
<path fill="none" stroke="black" d="M1671.09,-419C1707.36,-419 1789.17,-419 1832.63,-419"/>
<polygon fill="black" stroke="black" points="1832.8,-422.5 1842.8,-419 1832.8,-415.5 1832.8,-422.5"/>
</a>
</g>
</g>
<!-- UC910a1&#45;&gt;UC910 -->
<g id="edge24" class="edge"><title>UC910a1:JMP&#45;&gt;UC910:OUT</title>
<g id="a_edge24"><a xlink:href="#UC9_10a1">
<path fill="none" stroke="black" d="M1842.63,-296C1815.87,-296 1764.31,-296 1718.08,-296"/>
<polygon fill="black" stroke="black" points="1718,-292.5 1708,-296 1718,-299.5 1718,-292.5"/>
</a>
</g>
</g>
<!-- UC96a1&#45;&gt;UC96 -->
<g id="edge26" class="edge"><title>UC96a1:EXT&#45;&gt;UC96:OUT</title>
<g id="a_edge26"><a xlink:href="#UC9_6a1">
<path fill="none" stroke="black" d="M1048,-368C1048,-337.842 943.206,-351.674 915,-341 881.078,-328.162 877.449,-301.635 847.278,-296.774"/>
<polygon fill="black" stroke="black" points="847.235,-293.261 837,-296 846.709,-300.241 847.235,-293.261"/>
</a>
</g>
</g>
<!-- UC13 -->
<g id="node21" class="node"><title>UC13</title>
<g id="a_node21"><a xlink:href="../UC13/UC13.html" xlink:title="UC13 Change credit card" target="_top">
<polygon fill="#fed9a6" stroke="black" points="1350.5,-404 1173.5,-404 1173.5,-368 1350.5,-368 1350.5,-404"/>
<text text-anchor="middle" x="1262" y="-382.3" font-family="Arial" font-size="14.00">UC13 Change credit card</text>
</a>
</g>
</g>
<!-- UC96a1&#45;&gt;UC13 -->
<g id="edge1" class="edge"><title>UC96a1:JMP&#45;&gt;UC13</title>
<g id="a_edge1"><a xlink:href="#UC9_6a1">
<path fill="none" stroke="black" d="M1011,-394C1011,-472.651 1136.14,-436.007 1209.34,-407.841"/>
<polygon fill="black" stroke="black" points="1210.84,-411.015 1218.87,-404.11 1208.29,-404.496 1210.84,-411.015"/>
</a>
</g>
</g>
<!-- UC95a1&#45;&gt;UC95 -->
<g id="edge28" class="edge"><title>UC95a1:EXT&#45;&gt;UC95:OUT</title>
<g id="a_edge28"><a xlink:href="#UC9_5a1">
<path fill="none" stroke="black" d="M801,-387C801,-324.033 712.199,-384.84 667,-341 655.25,-329.604 664.06,-309.28 659.239,-300.379"/>
<polygon fill="black" stroke="black" points="660.535,-297.12 650,-296 657.537,-303.446 660.535,-297.12"/>
</a>
</g>
</g>
<!-- UC12 -->
<g id="node22" class="node"><title>UC12</title>
<g id="a_node22"><a xlink:href="../UC12/UC12.html" xlink:title="UC12 Change billing information" target="_top">
<polygon fill="#fed9a6" stroke="black" points="1139,-527 919,-527 919,-491 1139,-491 1139,-527"/>
<text text-anchor="middle" x="1029" y="-505.3" font-family="Arial" font-size="14.00">UC12 Change billing information</text>
</a>
</g>
</g>
<!-- UC95a1&#45;&gt;UC12 -->
<g id="edge3" class="edge"><title>UC95a1:JMP&#45;&gt;UC12</title>
<g id="a_edge3"><a xlink:href="#UC9_5a1">
<path fill="none" stroke="black" d="M764,-413C764,-479.355 838.572,-502.295 908.449,-509.224"/>
<polygon fill="black" stroke="black" points="908.446,-512.738 918.715,-510.134 909.063,-505.765 908.446,-512.738"/>
</a>
</g>
</g>
<!-- UC13&#45;&gt;UC96a1 -->
<g id="edge2" class="edge"><title>UC13&#45;&gt;UC96a1:EXT</title>
<path fill="none" stroke="black" d="M1173.16,-382.791C1142.91,-381.912 1108.54,-381.161 1076.36,-381.023"/>
<polygon fill="black" stroke="black" points="1076.01,-377.522 1066,-381 1075.99,-384.522 1076.01,-377.522"/>
</g>
<!-- UC12&#45;&gt;UC95a1 -->
<g id="edge4" class="edge"><title>UC12&#45;&gt;UC95a1:EXT</title>
<path fill="none" stroke="black" d="M976.077,-490.935C956.525,-483.46 934.35,-474.16 915,-464 872.791,-441.838 870.411,-405.567 829.08,-400.576"/>
<polygon fill="black" stroke="black" points="829.183,-397.076 819,-400 828.784,-404.065 829.183,-397.076"/>
</g>
</g>
</svg>
