<?xml version="1.0" encoding="UTF-8" standalone="no"?>
<!DOCTYPE svg PUBLIC "-//W3C//DTD SVG 1.1//EN"
 "http://www.w3.org/Graphics/SVG/1.1/DTD/svg11.dtd">
<!-- Generated by graphviz version 2.37.20140307.0545 (20140307.0545)
 -->
<!-- Title: mygraph Pages: 1 -->
<svg width="283pt" height="217pt"
 viewBox="62.00 62.00 221.31 155.00" xmlns="http://www.w3.org/2000/svg" xmlns:xlink="http://www.w3.org/1999/xlink">
<g id="graph0" class="graph" transform="scale(0.861111 0.861111) rotate(0) translate(76 176)">
<title>mygraph</title>
<polygon fill="white" stroke="none" points="-4,4 -4,-104 181,-104 181,4 -4,4"/>
<g id="clust1" class="cluster"><title>cluster_UC10</title>
<polygon fill="#ffffcc" stroke="black" points="8,-8 8,-92 169,-92 169,-8 8,-8"/>
</g>
<!-- UC101 -->
<g id="node1" class="node"><title>UC101</title>
<g id="a_node1"><a xlink:title="Koordinator zada systemu storno zakazky.">
<path fill="#b3cde3" stroke="black" d="M45.6667,-38.5C45.6667,-38.5 66.3333,-38.5 66.3333,-38.5 70.1667,-38.5 74,-42.3333 74,-46.1667 74,-46.1667 74,-53.8333 74,-53.8333 74,-57.6667 70.1667,-61.5 66.3333,-61.5 66.3333,-61.5 45.6667,-61.5 45.6667,-61.5 41.8333,-61.5 38,-57.6667 38,-53.8333 38,-53.8333 38,-46.1667 38,-46.1667 38,-42.3333 41.8333,-38.5 45.6667,-38.5"/>
<text text-anchor="middle" x="56" y="-46.3" font-family="Arial" font-size="14.00">•</text>
</a>
</g>
<text text-anchor="middle" x="33.5" y="-26.8" font-family="Arial" font-size="14.00">1</text>
</g>
<!-- UC102 -->
<g id="node2" class="node"><title>UC102</title>
<g id="a_node2"><a xlink:title="System stornuje zakazku.">
<path fill="#ccebc5" stroke="black" d="M110.667,-38.5C110.667,-38.5 131.333,-38.5 131.333,-38.5 135.167,-38.5 139,-42.3333 139,-46.1667 139,-46.1667 139,-53.8333 139,-53.8333 139,-57.6667 135.167,-61.5 131.333,-61.5 131.333,-61.5 110.667,-61.5 110.667,-61.5 106.833,-61.5 103,-57.6667 103,-53.8333 103,-53.8333 103,-46.1667 103,-46.1667 103,-42.3333 106.833,-38.5 110.667,-38.5"/>
<text text-anchor="middle" x="121" y="-46.3" font-family="Arial" font-size="14.00">•</text>
</a>
</g>
<text text-anchor="middle" x="98.5" y="-26.8" font-family="Arial" font-size="14.00">2</text>
</g>
<!-- UC101&#45;&gt;UC102 -->
<g id="edge1" class="edge"><title>UC101:JMP&#45;&gt;UC102:JMP</title>
<g id="a_edge1"><a xlink:href="#UC10_1">
<path fill="none" stroke="black" d="M74.1061,-50C79.8817,-50 86.4172,-50 92.7354,-50"/>
<polygon fill="black" stroke="black" points="92.991,-53.5001 102.991,-50 92.9909,-46.5001 92.991,-53.5001"/>
</a>
</g>
</g>
</g>
</svg>
